  0
SECTION
  2
HEADER
  9
$ACADVER
  1
AC1009
999
L-Edit DXF writer version 2.0a2
  9
$PLINEWID
 40
10.000000
  9
$EXTMIN
 10
-46000.000000
 20
-43822.112000
 30
0.0
  9
$EXTMAX
 10
46000.000000
 20
46380.812000
 30
0.0
  0
ENDSEC
  0
SECTION
  2
TABLES
  0
TABLE
  2
LTYPE
 70
       1
  0
LTYPE
  2
CONTINUOUS
 70
      64
  3
CONTINUOUS
 72
      65
 73
       0
 40
0.0
  0
ENDTAB
  0
TABLE
  2
LAYER
 70
     114
  0
LAYER
  2
0
 70
      64
  6
CONTINUOUS
 62
       7
  0
LAYER
  2
_____Special_Layers_____
 70
       0
  6
CONTINUOUS
 62
     160
  0
LAYER
  2
Icon_Outline
 70
       0
  6
CONTINUOUS
 62
     254
  0
LAYER
  2
Error_Layer
 70
       0
  6
CONTINUOUS
 62
       7
  0
LAYER
  2
_____Special_Utility_Laye2549
 70
       0
  6
CONTINUOUS
 62
     160
  0
LAYER
  2
Label
 70
       0
  6
CONTINUOUS
 62
       7
  0
LAYER
  2
Label_Filled
 70
       0
  6
CONTINUOUS
 62
     172
  0
LAYER
  2
Ruler
 70
       0
  6
CONTINUOUS
 62
       7
  0
LAYER
  2
Device_Label
 70
       0
  6
CONTINUOUS
 62
       7
  0
LAYER
  2
NotExists
 70
       4
  6
CONTINUOUS
 62
     160
  0
LAYER
  2
_____Drawn_Layers______
 70
       0
  6
CONTINUOUS
 62
     160
  0
LAYER
  2
Deep_N_Well
 70
       0
  6
CONTINUOUS
 62
       7
  0
LAYER
  2
P_Well
 70
       0
  6
CONTINUOUS
 62
       7
  0
LAYER
  2
Active
 70
       0
  6
CONTINUOUS
 62
      80
  0
LAYER
  2
Thick_Active
 70
       0
  6
CONTINUOUS
 62
      92
  0
LAYER
  2
N_Select
 70
       0
  6
CONTINUOUS
 62
     123
  0
LAYER
  2
P_Select
 70
       0
  6
CONTINUOUS
 62
     203
  0
LAYER
  2
Poly
 70
       0
  6
CONTINUOUS
 62
      20
  0
LAYER
  2
Silicide_Block
 70
       0
  6
CONTINUOUS
 62
       7
  0
LAYER
  2
Active_Contact
 70
       0
  6
CONTINUOUS
 62
     138
  0
LAYER
  2
Poly_Contact
 70
       0
  6
CONTINUOUS
 62
     254
  0
LAYER
  2
Metal1
 70
       0
  6
CONTINUOUS
 62
     160
  0
LAYER
  2
Via1
 70
       0
  6
CONTINUOUS
 62
       7
  0
LAYER
  2
Metal2
 70
       0
  6
CONTINUOUS
 62
     254
  0
LAYER
  2
Via2
 70
       0
  6
CONTINUOUS
 62
       7
  0
LAYER
  2
Metal3
 70
       0
  6
CONTINUOUS
 62
     203
  0
LAYER
  2
Via3
 70
       0
  6
CONTINUOUS
 62
       7
  0
LAYER
  2
Metal4
 70
       0
  6
CONTINUOUS
 62
      43
  0
LAYER
  2
Overglass
 70
       0
  6
CONTINUOUS
 62
     203
  0
LAYER
  2
_____Drawn_ID_Layers_____
 70
       0
  6
CONTINUOUS
 62
     160
  0
LAYER
  2
SubCkt_ID
 70
       0
  6
CONTINUOUS
 62
       7
  0
LAYER
  2
Capacitor_ID
 70
       0
  6
CONTINUOUS
 62
       7
  0
LAYER
  2
Resistor_ID
 70
       0
  6
CONTINUOUS
 62
       7
  0
LAYER
  2
Diode_ID
 70
       0
  6
CONTINUOUS
 62
     254
  0
LAYER
  2
LPNP_ID
 70
       0
  6
CONTINUOUS
 62
       7
  0
LAYER
  2
PNP_Emitter_ID
 70
       0
  6
CONTINUOUS
 62
       7
  0
LAYER
  2
_____Common_Derived_Layers_____
 70
       0
  6
CONTINUOUS
 62
     160
  0
LAYER
  2
field_active
 70
       0
  6
CONTINUOUS
 62
     160
  0
LAYER
  2
ChipSubstrate
 70
       0
  6
CONTINUOUS
 62
       7
  0
LAYER
  2
diff
 70
       0
  6
CONTINUOUS
 62
     160
  0
LAYER
  2
Gate
 70
       0
  6
CONTINUOUS
 62
     160
  0
LAYER
  2
HV_Gate
 70
       0
  6
CONTINUOUS
 62
       7
  0
LAYER
  2
Metal4_-_Pad
 70
       0
  6
CONTINUOUS
 62
     160
  0
LAYER
  2
ndiff
 70
       0
  6
CONTINUOUS
 62
       7
  0
LAYER
  2
pdiff
 70
       0
  6
CONTINUOUS
 62
       7
  0
LAYER
  2
Poly_Silicide_Block_Resistor
 70
       0
  6
CONTINUOUS
 62
       7
  0
LAYER
  2
_____DRC_Derived_Layers_____
 70
       0
  6
CONTINUOUS
 62
     160
  0
LAYER
  2
Select
 70
       0
  6
CONTINUOUS
 62
     160
  0
LAYER
  2
Active_Contact_not_on_Active
 70
       0
  6
CONTINUOUS
 62
      20
  0
LAYER
  2
Metal1_Density
 70
       0
  6
CONTINUOUS
 62
      20
  0
LAYER
  2
Metal1_W_1_2__-0_6
 70
       0
  6
CONTINUOUS
 62
       7
  0
LAYER
  2
Metal1_W_1_2_
 70
       0
  6
CONTINUOUS
 62
       7
  0
LAYER
  2
Metal2_Density
 70
       0
  6
CONTINUOUS
 62
      20
  0
LAYER
  2
Metal2_W_1_2_-0_6
 70
       0
  6
CONTINUOUS
 62
       7
  0
LAYER
  2
Metal2_W_1_2_
 70
       0
  6
CONTINUOUS
 62
       7
  0
LAYER
  2
Metal3_Density
 70
       0
  6
CONTINUOUS
 62
      20
  0
LAYER
  2
Metal3_W_1_2_-0_6
 70
       0
  6
CONTINUOUS
 62
       7
  0
LAYER
  2
Metal3_W_1_2_
 70
       0
  6
CONTINUOUS
 62
       7
  0
LAYER
  2
Metal4_Density
 70
       0
  6
CONTINUOUS
 62
      20
  0
LAYER
  2
Metal4_W_1_2_-0_6
 70
       0
  6
CONTINUOUS
 62
       7
  0
LAYER
  2
Metal4_W_1_2_
 70
       0
  6
CONTINUOUS
 62
       7
  0
LAYER
  2
n_Active
 70
       0
  6
CONTINUOUS
 62
      20
  0
LAYER
  2
Not_Selected_Active
 70
       0
  6
CONTINUOUS
 62
      20
  0
LAYER
  2
p_Active
 70
       0
  6
CONTINUOUS
 62
      20
  0
LAYER
  2
Poly_Contact_not_on_Poly
 70
       0
  6
CONTINUOUS
 62
      20
  0
LAYER
  2
Poly_Density
 70
       0
  6
CONTINUOUS
 62
      20
  0
LAYER
  2
pSelect_nSelect
 70
       0
  6
CONTINUOUS
 62
      20
  0
LAYER
  2
_____Extract_Derived_Laye2526
 70
       0
  6
CONTINUOUS
 62
     160
  0
LAYER
  2
Substrate
 70
       0
  6
CONTINUOUS
 62
     254
  0
LAYER
  2
ActNSelNotPoly
 70
       0
  6
CONTINUOUS
 62
      92
  0
LAYER
  2
ActPSelNotPoly
 70
       0
  6
CONTINUOUS
 62
      80
  0
LAYER
  2
ActPSelNotPoly_and_NOT_SB
 70
       0
  6
CONTINUOUS
 62
       7
  0
LAYER
  2
ActPSelNotPoly_and_SB
 70
       0
  6
CONTINUOUS
 62
       7
  0
LAYER
  2
Lateral_Diode
 70
       0
  6
CONTINUOUS
 62
     123
  0
LAYER
  2
LPNP_Collector
 70
       0
  6
CONTINUOUS
 62
       7
  0
LAYER
  2
LPNP_Emitter
 70
       0
  6
CONTINUOUS
 62
       7
  0
LAYER
  2
n_well_wire
 70
       0
  6
CONTINUOUS
 62
       7
  0
LAYER
  2
Deep_N_Well_Wire
 70
       0
  6
CONTINUOUS
 62
       7
  0
LAYER
  2
N-Channel
 70
       0
  6
CONTINUOUS
 62
       7
  0
LAYER
  2
N-Channel_Deep
 70
       0
  6
CONTINUOUS
 62
       7
  0
LAYER
  2
NDiff_Diode
 70
       0
  6
CONTINUOUS
 62
      92
  0
LAYER
  2
NDiff_Resistor
 70
       0
  6
CONTINUOUS
 62
       7
  0
LAYER
  2
NMOS_Capacitor
 70
       0
  6
CONTINUOUS
 62
       7
  0
LAYER
  2
ntran
 70
       0
  6
CONTINUOUS
 62
     160
  0
LAYER
  2
ntran_Deep
 70
       0
  6
CONTINUOUS
 62
     160
  0
LAYER
  2
ntran_HV
 70
       0
  6
CONTINUOUS
 62
     160
  0
LAYER
  2
NWell_Resistor
 70
       0
  6
CONTINUOUS
 62
       7
  0
LAYER
  2
P-Channel
 70
       0
  6
CONTINUOUS
 62
       7
  0
LAYER
  2
PDiff_Diode
 70
       0
  6
CONTINUOUS
 62
     203
  0
LAYER
  2
PDiff_Resistor
 70
       0
  6
CONTINUOUS
 62
       7
  0
LAYER
  2
PMOS_Capacitor
 70
       0
  6
CONTINUOUS
 62
       7
  0
LAYER
  2
Poly_Resistor
 70
       0
  6
CONTINUOUS
 62
       7
  0
LAYER
  2
poly_wire
 70
       0
  6
CONTINUOUS
 62
     160
  0
LAYER
  2
ptran
 70
       0
  6
CONTINUOUS
 62
     160
  0
LAYER
  2
ptran_HV
 70
       0
  6
CONTINUOUS
 62
     160
  0
LAYER
  2
SB_NDiff_Resistor
 70
       0
  6
CONTINUOUS
 62
       7
  0
LAYER
  2
SB_PDiff_Resistor
 70
       0
  6
CONTINUOUS
 62
       7
  0
LAYER
  2
_____XS_Derived_Layers_____
 70
       0
  6
CONTINUOUS
 62
     160
  0
LAYER
  2
XS_Deep_N_Well
 70
       0
  6
CONTINUOUS
 62
       7
  0
LAYER
  2
XS_N_Well
 70
       0
  6
CONTINUOUS
 62
       7
  0
LAYER
  2
XS_P_Well
 70
       0
  6
CONTINUOUS
 62
       7
  0
LAYER
  2
Not_Active
 70
       0
  6
CONTINUOUS
 62
       7
  0
LAYER
  2
Not_Active_Contact
 70
       0
  6
CONTINUOUS
 62
       7
  0
LAYER
  2
Not_Metal1
 70
       0
  6
CONTINUOUS
 62
       7
  0
LAYER
  2
Not_Metal2
 70
       0
  6
CONTINUOUS
 62
       7
  0
LAYER
  2
Not_Metal3
 70
       0
  6
CONTINUOUS
 62
       7
  0
LAYER
  2
Not_Metal4
 70
       0
  6
CONTINUOUS
 62
       7
  0
LAYER
  2
Not_Poly_Contact
 70
       0
  6
CONTINUOUS
 62
       7
  0
LAYER
  2
Not_Thick_Channel
 70
       0
  6
CONTINUOUS
 62
       7
  0
LAYER
  2
Not_Thin_Channel
 70
       0
  6
CONTINUOUS
 62
       7
  0
LAYER
  2
NotPoly
 70
       0
  6
CONTINUOUS
 62
       7
  0
LAYER
  2
NotVia1
 70
       0
  6
CONTINUOUS
 62
       7
  0
LAYER
  2
NotVia2
 70
       0
  6
CONTINUOUS
 62
       7
  0
LAYER
  2
NotVia3
 70
       0
  6
CONTINUOUS
 62
       7
  0
ENDTAB
  0
ENDSEC
  0
SECTION
  2
BLOCKS
  0
BLOCK
  2
SilverRefElectrode
  3
SilverRefElectrode
  8
0
 67
       0
 70
       0
 10
0.0
 20
0.0
 30
0.0
  0
POLYLINE
  8
Active
 66
       1
 70
       1
 10
0.0
 20
0.0
 30
0.0
  0
VERTEX
  8
Active
 10
-125.000000
 20
5700.000000
 30
0.0
  0
VERTEX
  8
Active
 10
-124.900000
 20
5695.050000
 30
0.0
  0
VERTEX
  8
Active
 10
-124.750000
 20
5692.500000
 30
0.0
  0
VERTEX
  8
Active
 10
-124.600000
 20
5690.050000
 30
0.0
  0
VERTEX
  8
Active
 10
-124.350000
 20
5687.550000
 30
0.0
  0
VERTEX
  8
Active
 10
-124.100000
 20
5685.100000
 30
0.0
  0
VERTEX
  8
Active
 10
-123.400000
 20
5680.200000
 30
0.0
  0
VERTEX
  8
Active
 10
-123.000000
 20
5677.750000
 30
0.0
  0
VERTEX
  8
Active
 10
-122.000000
 20
5672.850000
 30
0.0
  0
VERTEX
  8
Active
 10
-121.450000
 20
5670.450000
 30
0.0
  0
VERTEX
  8
Active
 10
-120.200000
 20
5665.700000
 30
0.0
  0
VERTEX
  8
Active
 10
-119.450000
 20
5663.250000
 30
0.0
  0
VERTEX
  8
Active
 10
-118.700000
 20
5660.900000
 30
0.0
  0
VERTEX
  8
Active
 10
-117.900000
 20
5658.500000
 30
0.0
  0
VERTEX
  8
Active
 10
-117.050000
 20
5656.200000
 30
0.0
  0
VERTEX
  8
Active
 10
-116.150000
 20
5653.850000
 30
0.0
  0
VERTEX
  8
Active
 10
-115.200000
 20
5651.550000
 30
0.0
  0
VERTEX
  8
Active
 10
-114.250000
 20
5649.300000
 30
0.0
  0
VERTEX
  8
Active
 10
-113.200000
 20
5647.000000
 30
0.0
  0
VERTEX
  8
Active
 10
-112.150000
 20
5644.800000
 30
0.0
  0
VERTEX
  8
Active
 10
-111.000000
 20
5642.550000
 30
0.0
  0
VERTEX
  8
Active
 10
-109.850000
 20
5640.400000
 30
0.0
  0
VERTEX
  8
Active
 10
-108.650000
 20
5638.200000
 30
0.0
  0
VERTEX
  8
Active
 10
-107.400000
 20
5636.050000
 30
0.0
  0
VERTEX
  8
Active
 10
-106.100000
 20
5633.950000
 30
0.0
  0
VERTEX
  8
Active
 10
-104.800000
 20
5631.900000
 30
0.0
  0
VERTEX
  8
Active
 10
-103.400000
 20
5629.800000
 30
0.0
  0
VERTEX
  8
Active
 10
-102.000000
 20
5627.750000
 30
0.0
  0
VERTEX
  8
Active
 10
-100.550000
 20
5625.750000
 30
0.0
  0
VERTEX
  8
Active
 10
-99.050000
 20
5623.750000
 30
0.0
  0
VERTEX
  8
Active
 10
-97.500000
 20
5621.800000
 30
0.0
  0
VERTEX
  8
Active
 10
-95.950000
 20
5619.900000
 30
0.0
  0
VERTEX
  8
Active
 10
-94.300000
 20
5617.950000
 30
0.0
  0
VERTEX
  8
Active
 10
-92.700000
 20
5616.150000
 30
0.0
  0
VERTEX
  8
Active
 10
-90.950000
 20
5614.250000
 30
0.0
  0
VERTEX
  8
Active
 10
-89.250000
 20
5612.500000
 30
0.0
  0
VERTEX
  8
Active
 10
-87.500000
 20
5610.750000
 30
0.0
  0
VERTEX
  8
Active
 10
-85.750000
 20
5609.050000
 30
0.0
  0
VERTEX
  8
Active
 10
-83.850000
 20
5607.300000
 30
0.0
  0
VERTEX
  8
Active
 10
-82.050000
 20
5605.700000
 30
0.0
  0
VERTEX
  8
Active
 10
-80.100000
 20
5604.050000
 30
0.0
  0
VERTEX
  8
Active
 10
-78.200000
 20
5602.500000
 30
0.0
  0
VERTEX
  8
Active
 10
-76.250000
 20
5600.950000
 30
0.0
  0
VERTEX
  8
Active
 10
-74.250000
 20
5599.450000
 30
0.0
  0
VERTEX
  8
Active
 10
-72.250000
 20
5598.000000
 30
0.0
  0
VERTEX
  8
Active
 10
-70.200000
 20
5596.600000
 30
0.0
  0
VERTEX
  8
Active
 10
-68.100000
 20
5595.200000
 30
0.0
  0
VERTEX
  8
Active
 10
-66.050000
 20
5593.900000
 30
0.0
  0
VERTEX
  8
Active
 10
-63.950000
 20
5592.600000
 30
0.0
  0
VERTEX
  8
Active
 10
-61.800000
 20
5591.350000
 30
0.0
  0
VERTEX
  8
Active
 10
-59.600000
 20
5590.150000
 30
0.0
  0
VERTEX
  8
Active
 10
-57.450000
 20
5589.000000
 30
0.0
  0
VERTEX
  8
Active
 10
-55.200000
 20
5587.850000
 30
0.0
  0
VERTEX
  8
Active
 10
-53.000000
 20
5586.800000
 30
0.0
  0
VERTEX
  8
Active
 10
-50.700000
 20
5585.750000
 30
0.0
  0
VERTEX
  8
Active
 10
-48.450000
 20
5584.800000
 30
0.0
  0
VERTEX
  8
Active
 10
-46.150000
 20
5583.850000
 30
0.0
  0
VERTEX
  8
Active
 10
-43.800000
 20
5582.950000
 30
0.0
  0
VERTEX
  8
Active
 10
-41.500000
 20
5582.100000
 30
0.0
  0
VERTEX
  8
Active
 10
-39.100000
 20
5581.300000
 30
0.0
  0
VERTEX
  8
Active
 10
-36.750000
 20
5580.550000
 30
0.0
  0
VERTEX
  8
Active
 10
-34.300000
 20
5579.800000
 30
0.0
  0
VERTEX
  8
Active
 10
-29.550000
 20
5578.550000
 30
0.0
  0
VERTEX
  8
Active
 10
-27.150000
 20
5578.000000
 30
0.0
  0
VERTEX
  8
Active
 10
-22.250000
 20
5577.000000
 30
0.0
  0
VERTEX
  8
Active
 10
-19.800000
 20
5576.600000
 30
0.0
  0
VERTEX
  8
Active
 10
-14.900000
 20
5575.900000
 30
0.0
  0
VERTEX
  8
Active
 10
-12.450000
 20
5575.650000
 30
0.0
  0
VERTEX
  8
Active
 10
-9.950000
 20
5575.400000
 30
0.0
  0
VERTEX
  8
Active
 10
-7.500000
 20
5575.250000
 30
0.0
  0
VERTEX
  8
Active
 10
-4.950000
 20
5575.100000
 30
0.0
  0
VERTEX
  8
Active
 10
0.0
 20
5575.000000
 30
0.0
  0
VERTEX
  8
Active
 10
4.950000
 20
5575.100000
 30
0.0
  0
VERTEX
  8
Active
 10
7.500000
 20
5575.250000
 30
0.0
  0
VERTEX
  8
Active
 10
9.950000
 20
5575.400000
 30
0.0
  0
VERTEX
  8
Active
 10
12.450000
 20
5575.650000
 30
0.0
  0
VERTEX
  8
Active
 10
14.900000
 20
5575.900000
 30
0.0
  0
VERTEX
  8
Active
 10
19.800000
 20
5576.600000
 30
0.0
  0
VERTEX
  8
Active
 10
22.250000
 20
5577.000000
 30
0.0
  0
VERTEX
  8
Active
 10
27.150000
 20
5578.000000
 30
0.0
  0
VERTEX
  8
Active
 10
29.550000
 20
5578.550000
 30
0.0
  0
VERTEX
  8
Active
 10
34.300000
 20
5579.800000
 30
0.0
  0
VERTEX
  8
Active
 10
36.750000
 20
5580.550000
 30
0.0
  0
VERTEX
  8
Active
 10
39.100000
 20
5581.300000
 30
0.0
  0
VERTEX
  8
Active
 10
41.500000
 20
5582.100000
 30
0.0
  0
VERTEX
  8
Active
 10
43.800000
 20
5582.950000
 30
0.0
  0
VERTEX
  8
Active
 10
46.150000
 20
5583.850000
 30
0.0
  0
VERTEX
  8
Active
 10
48.450000
 20
5584.800000
 30
0.0
  0
VERTEX
  8
Active
 10
50.700000
 20
5585.750000
 30
0.0
  0
VERTEX
  8
Active
 10
53.000000
 20
5586.800000
 30
0.0
  0
VERTEX
  8
Active
 10
55.200000
 20
5587.850000
 30
0.0
  0
VERTEX
  8
Active
 10
57.450000
 20
5589.000000
 30
0.0
  0
VERTEX
  8
Active
 10
59.600000
 20
5590.150000
 30
0.0
  0
VERTEX
  8
Active
 10
61.800000
 20
5591.350000
 30
0.0
  0
VERTEX
  8
Active
 10
63.950000
 20
5592.600000
 30
0.0
  0
VERTEX
  8
Active
 10
66.050000
 20
5593.900000
 30
0.0
  0
VERTEX
  8
Active
 10
68.100000
 20
5595.200000
 30
0.0
  0
VERTEX
  8
Active
 10
70.200000
 20
5596.600000
 30
0.0
  0
VERTEX
  8
Active
 10
72.250000
 20
5598.000000
 30
0.0
  0
VERTEX
  8
Active
 10
74.250000
 20
5599.450000
 30
0.0
  0
VERTEX
  8
Active
 10
76.250000
 20
5600.950000
 30
0.0
  0
VERTEX
  8
Active
 10
78.200000
 20
5602.500000
 30
0.0
  0
VERTEX
  8
Active
 10
80.100000
 20
5604.050000
 30
0.0
  0
VERTEX
  8
Active
 10
82.050000
 20
5605.700000
 30
0.0
  0
VERTEX
  8
Active
 10
83.850000
 20
5607.300000
 30
0.0
  0
VERTEX
  8
Active
 10
85.750000
 20
5609.050000
 30
0.0
  0
VERTEX
  8
Active
 10
87.500000
 20
5610.750000
 30
0.0
  0
VERTEX
  8
Active
 10
89.250000
 20
5612.500000
 30
0.0
  0
VERTEX
  8
Active
 10
90.950000
 20
5614.250000
 30
0.0
  0
VERTEX
  8
Active
 10
92.700000
 20
5616.150000
 30
0.0
  0
VERTEX
  8
Active
 10
94.300000
 20
5617.950000
 30
0.0
  0
VERTEX
  8
Active
 10
95.950000
 20
5619.900000
 30
0.0
  0
VERTEX
  8
Active
 10
97.500000
 20
5621.800000
 30
0.0
  0
VERTEX
  8
Active
 10
99.050000
 20
5623.750000
 30
0.0
  0
VERTEX
  8
Active
 10
100.550000
 20
5625.750000
 30
0.0
  0
VERTEX
  8
Active
 10
102.000000
 20
5627.750000
 30
0.0
  0
VERTEX
  8
Active
 10
103.400000
 20
5629.800000
 30
0.0
  0
VERTEX
  8
Active
 10
104.800000
 20
5631.900000
 30
0.0
  0
VERTEX
  8
Active
 10
106.100000
 20
5633.950000
 30
0.0
  0
VERTEX
  8
Active
 10
107.400000
 20
5636.050000
 30
0.0
  0
VERTEX
  8
Active
 10
108.650000
 20
5638.200000
 30
0.0
  0
VERTEX
  8
Active
 10
109.850000
 20
5640.400000
 30
0.0
  0
VERTEX
  8
Active
 10
111.000000
 20
5642.550000
 30
0.0
  0
VERTEX
  8
Active
 10
112.150000
 20
5644.800000
 30
0.0
  0
VERTEX
  8
Active
 10
113.200000
 20
5647.000000
 30
0.0
  0
VERTEX
  8
Active
 10
114.250000
 20
5649.300000
 30
0.0
  0
VERTEX
  8
Active
 10
115.200000
 20
5651.550000
 30
0.0
  0
VERTEX
  8
Active
 10
116.150000
 20
5653.850000
 30
0.0
  0
VERTEX
  8
Active
 10
117.050000
 20
5656.200000
 30
0.0
  0
VERTEX
  8
Active
 10
117.900000
 20
5658.500000
 30
0.0
  0
VERTEX
  8
Active
 10
118.700000
 20
5660.900000
 30
0.0
  0
VERTEX
  8
Active
 10
119.450000
 20
5663.250000
 30
0.0
  0
VERTEX
  8
Active
 10
120.200000
 20
5665.700000
 30
0.0
  0
VERTEX
  8
Active
 10
121.450000
 20
5670.450000
 30
0.0
  0
VERTEX
  8
Active
 10
122.000000
 20
5672.850000
 30
0.0
  0
VERTEX
  8
Active
 10
123.000000
 20
5677.750000
 30
0.0
  0
VERTEX
  8
Active
 10
123.400000
 20
5680.200000
 30
0.0
  0
VERTEX
  8
Active
 10
124.100000
 20
5685.100000
 30
0.0
  0
VERTEX
  8
Active
 10
124.350000
 20
5687.550000
 30
0.0
  0
VERTEX
  8
Active
 10
124.600000
 20
5690.050000
 30
0.0
  0
VERTEX
  8
Active
 10
124.750000
 20
5692.500000
 30
0.0
  0
VERTEX
  8
Active
 10
124.900000
 20
5695.050000
 30
0.0
  0
VERTEX
  8
Active
 10
125.000000
 20
5700.000000
 30
0.0
  0
VERTEX
  8
Active
 10
125.000000
 20
5948.223000
 30
0.0
  0
VERTEX
  8
Active
 10
1401.777000
 20
7225.000000
 30
0.0
  0
VERTEX
  8
Active
 10
4650.000000
 20
7225.000000
 30
0.0
  0
VERTEX
  8
Active
 10
4654.950000
 20
7225.100000
 30
0.0
  0
VERTEX
  8
Active
 10
4657.500000
 20
7225.250000
 30
0.0
  0
VERTEX
  8
Active
 10
4659.950000
 20
7225.400000
 30
0.0
  0
VERTEX
  8
Active
 10
4662.450000
 20
7225.650000
 30
0.0
  0
VERTEX
  8
Active
 10
4664.900000
 20
7225.900000
 30
0.0
  0
VERTEX
  8
Active
 10
4669.800000
 20
7226.600000
 30
0.0
  0
VERTEX
  8
Active
 10
4672.250000
 20
7227.000000
 30
0.0
  0
VERTEX
  8
Active
 10
4677.150000
 20
7228.000000
 30
0.0
  0
VERTEX
  8
Active
 10
4679.550000
 20
7228.550000
 30
0.0
  0
VERTEX
  8
Active
 10
4684.300000
 20
7229.800000
 30
0.0
  0
VERTEX
  8
Active
 10
4686.750000
 20
7230.550000
 30
0.0
  0
VERTEX
  8
Active
 10
4689.100000
 20
7231.300000
 30
0.0
  0
VERTEX
  8
Active
 10
4691.500000
 20
7232.100000
 30
0.0
  0
VERTEX
  8
Active
 10
4693.800000
 20
7232.950000
 30
0.0
  0
VERTEX
  8
Active
 10
4696.150000
 20
7233.850000
 30
0.0
  0
VERTEX
  8
Active
 10
4698.450000
 20
7234.800000
 30
0.0
  0
VERTEX
  8
Active
 10
4700.700000
 20
7235.750000
 30
0.0
  0
VERTEX
  8
Active
 10
4703.000000
 20
7236.800000
 30
0.0
  0
VERTEX
  8
Active
 10
4705.200000
 20
7237.850000
 30
0.0
  0
VERTEX
  8
Active
 10
4707.450000
 20
7239.000000
 30
0.0
  0
VERTEX
  8
Active
 10
4709.600000
 20
7240.150000
 30
0.0
  0
VERTEX
  8
Active
 10
4711.800000
 20
7241.350000
 30
0.0
  0
VERTEX
  8
Active
 10
4713.950000
 20
7242.600000
 30
0.0
  0
VERTEX
  8
Active
 10
4716.050000
 20
7243.900000
 30
0.0
  0
VERTEX
  8
Active
 10
4718.100000
 20
7245.200000
 30
0.0
  0
VERTEX
  8
Active
 10
4720.200000
 20
7246.600000
 30
0.0
  0
VERTEX
  8
Active
 10
4722.250000
 20
7248.000000
 30
0.0
  0
VERTEX
  8
Active
 10
4724.250000
 20
7249.450000
 30
0.0
  0
VERTEX
  8
Active
 10
4726.250000
 20
7250.950000
 30
0.0
  0
VERTEX
  8
Active
 10
4728.200000
 20
7252.500000
 30
0.0
  0
VERTEX
  8
Active
 10
4730.100000
 20
7254.050000
 30
0.0
  0
VERTEX
  8
Active
 10
4732.050000
 20
7255.700000
 30
0.0
  0
VERTEX
  8
Active
 10
4733.850000
 20
7257.300000
 30
0.0
  0
VERTEX
  8
Active
 10
4735.750000
 20
7259.050000
 30
0.0
  0
VERTEX
  8
Active
 10
4737.500000
 20
7260.750000
 30
0.0
  0
VERTEX
  8
Active
 10
4739.250000
 20
7262.500000
 30
0.0
  0
VERTEX
  8
Active
 10
4740.950000
 20
7264.250000
 30
0.0
  0
VERTEX
  8
Active
 10
4742.700000
 20
7266.150000
 30
0.0
  0
VERTEX
  8
Active
 10
4744.300000
 20
7267.950000
 30
0.0
  0
VERTEX
  8
Active
 10
4745.950000
 20
7269.900000
 30
0.0
  0
VERTEX
  8
Active
 10
4747.500000
 20
7271.800000
 30
0.0
  0
VERTEX
  8
Active
 10
4749.050000
 20
7273.750000
 30
0.0
  0
VERTEX
  8
Active
 10
4750.550000
 20
7275.750000
 30
0.0
  0
VERTEX
  8
Active
 10
4752.000000
 20
7277.750000
 30
0.0
  0
VERTEX
  8
Active
 10
4753.400000
 20
7279.800000
 30
0.0
  0
VERTEX
  8
Active
 10
4754.800000
 20
7281.900000
 30
0.0
  0
VERTEX
  8
Active
 10
4756.100000
 20
7283.950000
 30
0.0
  0
VERTEX
  8
Active
 10
4757.400000
 20
7286.050000
 30
0.0
  0
VERTEX
  8
Active
 10
4758.650000
 20
7288.200000
 30
0.0
  0
VERTEX
  8
Active
 10
4759.850000
 20
7290.400000
 30
0.0
  0
VERTEX
  8
Active
 10
4761.000000
 20
7292.550000
 30
0.0
  0
VERTEX
  8
Active
 10
4762.150000
 20
7294.800000
 30
0.0
  0
VERTEX
  8
Active
 10
4763.200000
 20
7297.000000
 30
0.0
  0
VERTEX
  8
Active
 10
4764.250000
 20
7299.300000
 30
0.0
  0
VERTEX
  8
Active
 10
4765.200000
 20
7301.550000
 30
0.0
  0
VERTEX
  8
Active
 10
4766.150000
 20
7303.850000
 30
0.0
  0
VERTEX
  8
Active
 10
4767.050000
 20
7306.200000
 30
0.0
  0
VERTEX
  8
Active
 10
4767.900000
 20
7308.500000
 30
0.0
  0
VERTEX
  8
Active
 10
4768.700000
 20
7310.900000
 30
0.0
  0
VERTEX
  8
Active
 10
4769.450000
 20
7313.250000
 30
0.0
  0
VERTEX
  8
Active
 10
4770.200000
 20
7315.700000
 30
0.0
  0
VERTEX
  8
Active
 10
4771.450000
 20
7320.450000
 30
0.0
  0
VERTEX
  8
Active
 10
4772.000000
 20
7322.850000
 30
0.0
  0
VERTEX
  8
Active
 10
4773.000000
 20
7327.750000
 30
0.0
  0
VERTEX
  8
Active
 10
4773.400000
 20
7330.200000
 30
0.0
  0
VERTEX
  8
Active
 10
4774.100000
 20
7335.100000
 30
0.0
  0
VERTEX
  8
Active
 10
4774.350000
 20
7337.550000
 30
0.0
  0
VERTEX
  8
Active
 10
4774.600000
 20
7340.050000
 30
0.0
  0
VERTEX
  8
Active
 10
4774.750000
 20
7342.500000
 30
0.0
  0
VERTEX
  8
Active
 10
4774.900000
 20
7345.050000
 30
0.0
  0
VERTEX
  8
Active
 10
4775.000000
 20
7350.000000
 30
0.0
  0
VERTEX
  8
Active
 10
4774.900000
 20
7354.950000
 30
0.0
  0
VERTEX
  8
Active
 10
4774.750000
 20
7357.500000
 30
0.0
  0
VERTEX
  8
Active
 10
4774.600000
 20
7359.950000
 30
0.0
  0
VERTEX
  8
Active
 10
4774.350000
 20
7362.450000
 30
0.0
  0
VERTEX
  8
Active
 10
4774.100000
 20
7364.900000
 30
0.0
  0
VERTEX
  8
Active
 10
4773.400000
 20
7369.800000
 30
0.0
  0
VERTEX
  8
Active
 10
4773.000000
 20
7372.250000
 30
0.0
  0
VERTEX
  8
Active
 10
4772.000000
 20
7377.150000
 30
0.0
  0
VERTEX
  8
Active
 10
4771.450000
 20
7379.550000
 30
0.0
  0
VERTEX
  8
Active
 10
4770.200000
 20
7384.300000
 30
0.0
  0
VERTEX
  8
Active
 10
4769.450000
 20
7386.750000
 30
0.0
  0
VERTEX
  8
Active
 10
4768.700000
 20
7389.100000
 30
0.0
  0
VERTEX
  8
Active
 10
4767.900000
 20
7391.500000
 30
0.0
  0
VERTEX
  8
Active
 10
4767.050000
 20
7393.800000
 30
0.0
  0
VERTEX
  8
Active
 10
4766.150000
 20
7396.150000
 30
0.0
  0
VERTEX
  8
Active
 10
4765.200000
 20
7398.450000
 30
0.0
  0
VERTEX
  8
Active
 10
4764.250000
 20
7400.700000
 30
0.0
  0
VERTEX
  8
Active
 10
4763.200000
 20
7403.000000
 30
0.0
  0
VERTEX
  8
Active
 10
4762.150000
 20
7405.200000
 30
0.0
  0
VERTEX
  8
Active
 10
4761.000000
 20
7407.450000
 30
0.0
  0
VERTEX
  8
Active
 10
4759.850000
 20
7409.600000
 30
0.0
  0
VERTEX
  8
Active
 10
4758.650000
 20
7411.800000
 30
0.0
  0
VERTEX
  8
Active
 10
4757.400000
 20
7413.950000
 30
0.0
  0
VERTEX
  8
Active
 10
4756.100000
 20
7416.050000
 30
0.0
  0
VERTEX
  8
Active
 10
4754.800000
 20
7418.100000
 30
0.0
  0
VERTEX
  8
Active
 10
4753.400000
 20
7420.200000
 30
0.0
  0
VERTEX
  8
Active
 10
4752.000000
 20
7422.250000
 30
0.0
  0
VERTEX
  8
Active
 10
4750.550000
 20
7424.250000
 30
0.0
  0
VERTEX
  8
Active
 10
4749.050000
 20
7426.250000
 30
0.0
  0
VERTEX
  8
Active
 10
4747.500000
 20
7428.200000
 30
0.0
  0
VERTEX
  8
Active
 10
4745.950000
 20
7430.100000
 30
0.0
  0
VERTEX
  8
Active
 10
4744.300000
 20
7432.050000
 30
0.0
  0
VERTEX
  8
Active
 10
4742.700000
 20
7433.850000
 30
0.0
  0
VERTEX
  8
Active
 10
4740.950000
 20
7435.750000
 30
0.0
  0
VERTEX
  8
Active
 10
4739.250000
 20
7437.500000
 30
0.0
  0
VERTEX
  8
Active
 10
4737.500000
 20
7439.250000
 30
0.0
  0
VERTEX
  8
Active
 10
4735.750000
 20
7440.950000
 30
0.0
  0
VERTEX
  8
Active
 10
4733.850000
 20
7442.700000
 30
0.0
  0
VERTEX
  8
Active
 10
4732.050000
 20
7444.300000
 30
0.0
  0
VERTEX
  8
Active
 10
4730.100000
 20
7445.950000
 30
0.0
  0
VERTEX
  8
Active
 10
4728.200000
 20
7447.500000
 30
0.0
  0
VERTEX
  8
Active
 10
4726.250000
 20
7449.050000
 30
0.0
  0
VERTEX
  8
Active
 10
4724.250000
 20
7450.550000
 30
0.0
  0
VERTEX
  8
Active
 10
4722.250000
 20
7452.000000
 30
0.0
  0
VERTEX
  8
Active
 10
4720.200000
 20
7453.400000
 30
0.0
  0
VERTEX
  8
Active
 10
4718.100000
 20
7454.800000
 30
0.0
  0
VERTEX
  8
Active
 10
4716.050000
 20
7456.100000
 30
0.0
  0
VERTEX
  8
Active
 10
4713.950000
 20
7457.400000
 30
0.0
  0
VERTEX
  8
Active
 10
4711.800000
 20
7458.650000
 30
0.0
  0
VERTEX
  8
Active
 10
4709.600000
 20
7459.850000
 30
0.0
  0
VERTEX
  8
Active
 10
4707.450000
 20
7461.000000
 30
0.0
  0
VERTEX
  8
Active
 10
4705.200000
 20
7462.150000
 30
0.0
  0
VERTEX
  8
Active
 10
4703.000000
 20
7463.200000
 30
0.0
  0
VERTEX
  8
Active
 10
4700.700000
 20
7464.250000
 30
0.0
  0
VERTEX
  8
Active
 10
4698.450000
 20
7465.200000
 30
0.0
  0
VERTEX
  8
Active
 10
4696.150000
 20
7466.150000
 30
0.0
  0
VERTEX
  8
Active
 10
4693.800000
 20
7467.050000
 30
0.0
  0
VERTEX
  8
Active
 10
4691.500000
 20
7467.900000
 30
0.0
  0
VERTEX
  8
Active
 10
4689.100000
 20
7468.700000
 30
0.0
  0
VERTEX
  8
Active
 10
4686.750000
 20
7469.450000
 30
0.0
  0
VERTEX
  8
Active
 10
4684.300000
 20
7470.200000
 30
0.0
  0
VERTEX
  8
Active
 10
4679.550000
 20
7471.450000
 30
0.0
  0
VERTEX
  8
Active
 10
4677.150000
 20
7472.000000
 30
0.0
  0
VERTEX
  8
Active
 10
4672.250000
 20
7473.000000
 30
0.0
  0
VERTEX
  8
Active
 10
4669.800000
 20
7473.400000
 30
0.0
  0
VERTEX
  8
Active
 10
4664.900000
 20
7474.100000
 30
0.0
  0
VERTEX
  8
Active
 10
4662.450000
 20
7474.350000
 30
0.0
  0
VERTEX
  8
Active
 10
4659.950000
 20
7474.600000
 30
0.0
  0
VERTEX
  8
Active
 10
4657.500000
 20
7474.750000
 30
0.0
  0
VERTEX
  8
Active
 10
4654.950000
 20
7474.900000
 30
0.0
  0
VERTEX
  8
Active
 10
4650.000000
 20
7475.000000
 30
0.0
  0
VERTEX
  8
Active
 10
1298.223000
 20
7475.000000
 30
0.0
  0
VERTEX
  8
Active
 10
-125.000000
 20
6051.777000
 30
0.0
  0
SEQEND
  8
Active
  0
POLYLINE
  8
Active
 66
       1
 70
       1
 10
0.0
 20
0.0
 30
0.0
  0
VERTEX
  8
Active
 10
2200.000000
 20
3187.500000
 30
0.0
  0
VERTEX
  8
Active
 10
-2200.000000
 20
3187.500000
 30
0.0
  0
VERTEX
  8
Active
 10
-2200.000000
 20
3162.500000
 30
0.0
  0
VERTEX
  8
Active
 10
2200.000000
 20
3162.500000
 30
0.0
  0
SEQEND
  8
Active
  0
POLYLINE
  8
Active
 66
       1
 70
       1
 10
0.0
 20
0.0
 30
0.0
  0
VERTEX
  8
Active
 10
12.500000
 20
1000.000000
 30
0.0
  0
VERTEX
  8
Active
 10
12.500000
 20
5994.822000
 30
0.0
  0
VERTEX
  8
Active
 10
1355.178000
 20
7337.500000
 30
0.0
  0
VERTEX
  8
Active
 10
5000.000000
 20
7337.500000
 30
0.0
  0
VERTEX
  8
Active
 10
5000.000000
 20
7362.500000
 30
0.0
  0
VERTEX
  8
Active
 10
1344.822000
 20
7362.500000
 30
0.0
  0
VERTEX
  8
Active
 10
-12.500000
 20
6005.178000
 30
0.0
  0
VERTEX
  8
Active
 10
-12.500000
 20
1000.000000
 30
0.0
  0
SEQEND
  8
Active
  0
POLYLINE
  8
Active
 66
       1
 70
       1
 10
0.0
 20
0.0
 30
0.0
  0
VERTEX
  8
Active
 10
4215.000000
 20
6715.000000
 30
0.0
  0
VERTEX
  8
Active
 10
5485.000000
 20
6715.000000
 30
0.0
  0
VERTEX
  8
Active
 10
5485.000000
 20
7985.000000
 30
0.0
  0
VERTEX
  8
Active
 10
4215.000000
 20
7985.000000
 30
0.0
  0
SEQEND
  8
Active
  0
ENDBLK
  0
BLOCK
  2
silvermark
  3
silvermark
  8
0
 67
       0
 70
       0
 10
0.0
 20
0.0
 30
0.0
  0
POLYLINE
  8
Active
 66
       1
 70
       1
 10
0.0
 20
0.0
 30
0.0
  0
VERTEX
  8
Active
 10
-10.000000
 20
400.000000
 30
0.0
  0
VERTEX
  8
Active
 10
-10.000000
 20
1000.000000
 30
0.0
  0
VERTEX
  8
Active
 10
1000.000000
 20
1000.000000
 30
0.0
  0
VERTEX
  8
Active
 10
1000.000000
 20
-1000.000000
 30
0.0
  0
VERTEX
  8
Active
 10
-1000.000000
 20
-1000.000000
 30
0.0
  0
VERTEX
  8
Active
 10
-1000.000000
 20
1000.000000
 30
0.0
  0
VERTEX
  8
Active
 10
-10.000000
 20
1000.000000
 30
0.0
  0
VERTEX
  8
Active
 10
-10.000000
 20
310.000000
 30
0.0
  0
VERTEX
  8
Active
 10
-120.000000
 20
310.000000
 30
0.0
  0
VERTEX
  8
Active
 10
-120.000000
 20
290.000000
 30
0.0
  0
VERTEX
  8
Active
 10
-10.000000
 20
290.000000
 30
0.0
  0
VERTEX
  8
Active
 10
-10.000000
 20
210.000000
 30
0.0
  0
VERTEX
  8
Active
 10
-100.000000
 20
210.000000
 30
0.0
  0
VERTEX
  8
Active
 10
-100.000000
 20
190.000000
 30
0.0
  0
VERTEX
  8
Active
 10
-10.000000
 20
190.000000
 30
0.0
  0
VERTEX
  8
Active
 10
-10.000000
 20
10.000000
 30
0.0
  0
VERTEX
  8
Active
 10
-190.000000
 20
10.000000
 30
0.0
  0
VERTEX
  8
Active
 10
-190.000000
 20
100.000000
 30
0.0
  0
VERTEX
  8
Active
 10
-210.000000
 20
100.000000
 30
0.0
  0
VERTEX
  8
Active
 10
-210.000000
 20
10.000000
 30
0.0
  0
VERTEX
  8
Active
 10
-290.000000
 20
10.000000
 30
0.0
  0
VERTEX
  8
Active
 10
-290.000000
 20
120.000000
 30
0.0
  0
VERTEX
  8
Active
 10
-310.000000
 20
120.000000
 30
0.0
  0
VERTEX
  8
Active
 10
-310.000000
 20
10.000000
 30
0.0
  0
VERTEX
  8
Active
 10
-400.000000
 20
10.000000
 30
0.0
  0
VERTEX
  8
Active
 10
-400.000000
 20
-10.000000
 30
0.0
  0
VERTEX
  8
Active
 10
-310.000000
 20
-10.000000
 30
0.0
  0
VERTEX
  8
Active
 10
-310.000000
 20
-120.000000
 30
0.0
  0
VERTEX
  8
Active
 10
-290.000000
 20
-120.000000
 30
0.0
  0
VERTEX
  8
Active
 10
-290.000000
 20
-10.000000
 30
0.0
  0
VERTEX
  8
Active
 10
-210.000000
 20
-10.000000
 30
0.0
  0
VERTEX
  8
Active
 10
-210.000000
 20
-100.000000
 30
0.0
  0
VERTEX
  8
Active
 10
-190.000000
 20
-100.000000
 30
0.0
  0
VERTEX
  8
Active
 10
-190.000000
 20
-10.000000
 30
0.0
  0
VERTEX
  8
Active
 10
-10.000000
 20
-10.000000
 30
0.0
  0
VERTEX
  8
Active
 10
-10.000000
 20
-190.000000
 30
0.0
  0
VERTEX
  8
Active
 10
-100.000000
 20
-190.000000
 30
0.0
  0
VERTEX
  8
Active
 10
-100.000000
 20
-210.000000
 30
0.0
  0
VERTEX
  8
Active
 10
-10.000000
 20
-210.000000
 30
0.0
  0
VERTEX
  8
Active
 10
-10.000000
 20
-290.000000
 30
0.0
  0
VERTEX
  8
Active
 10
-120.000000
 20
-290.000000
 30
0.0
  0
VERTEX
  8
Active
 10
-120.000000
 20
-310.000000
 30
0.0
  0
VERTEX
  8
Active
 10
-10.000000
 20
-310.000000
 30
0.0
  0
VERTEX
  8
Active
 10
-10.000000
 20
-400.000000
 30
0.0
  0
VERTEX
  8
Active
 10
10.000000
 20
-400.000000
 30
0.0
  0
VERTEX
  8
Active
 10
10.000000
 20
-310.000000
 30
0.0
  0
VERTEX
  8
Active
 10
120.000000
 20
-310.000000
 30
0.0
  0
VERTEX
  8
Active
 10
120.000000
 20
-290.000000
 30
0.0
  0
VERTEX
  8
Active
 10
10.000000
 20
-290.000000
 30
0.0
  0
VERTEX
  8
Active
 10
10.000000
 20
-210.000000
 30
0.0
  0
VERTEX
  8
Active
 10
100.000000
 20
-210.000000
 30
0.0
  0
VERTEX
  8
Active
 10
100.000000
 20
-190.000000
 30
0.0
  0
VERTEX
  8
Active
 10
10.000000
 20
-190.000000
 30
0.0
  0
VERTEX
  8
Active
 10
10.000000
 20
-10.000000
 30
0.0
  0
VERTEX
  8
Active
 10
190.000000
 20
-10.000000
 30
0.0
  0
VERTEX
  8
Active
 10
190.000000
 20
-100.000000
 30
0.0
  0
VERTEX
  8
Active
 10
210.000000
 20
-100.000000
 30
0.0
  0
VERTEX
  8
Active
 10
210.000000
 20
-10.000000
 30
0.0
  0
VERTEX
  8
Active
 10
290.000000
 20
-10.000000
 30
0.0
  0
VERTEX
  8
Active
 10
290.000000
 20
-120.000000
 30
0.0
  0
VERTEX
  8
Active
 10
310.000000
 20
-120.000000
 30
0.0
  0
VERTEX
  8
Active
 10
310.000000
 20
-10.000000
 30
0.0
  0
VERTEX
  8
Active
 10
400.000000
 20
-10.000000
 30
0.0
  0
VERTEX
  8
Active
 10
400.000000
 20
10.000000
 30
0.0
  0
VERTEX
  8
Active
 10
310.000000
 20
10.000000
 30
0.0
  0
VERTEX
  8
Active
 10
310.000000
 20
120.000000
 30
0.0
  0
VERTEX
  8
Active
 10
290.000000
 20
120.000000
 30
0.0
  0
VERTEX
  8
Active
 10
290.000000
 20
10.000000
 30
0.0
  0
VERTEX
  8
Active
 10
210.000000
 20
10.000000
 30
0.0
  0
VERTEX
  8
Active
 10
210.000000
 20
100.000000
 30
0.0
  0
VERTEX
  8
Active
 10
190.000000
 20
100.000000
 30
0.0
  0
VERTEX
  8
Active
 10
190.000000
 20
10.000000
 30
0.0
  0
VERTEX
  8
Active
 10
10.000000
 20
10.000000
 30
0.0
  0
VERTEX
  8
Active
 10
10.000000
 20
190.000000
 30
0.0
  0
VERTEX
  8
Active
 10
100.000000
 20
190.000000
 30
0.0
  0
VERTEX
  8
Active
 10
100.000000
 20
210.000000
 30
0.0
  0
VERTEX
  8
Active
 10
10.000000
 20
210.000000
 30
0.0
  0
VERTEX
  8
Active
 10
10.000000
 20
290.000000
 30
0.0
  0
VERTEX
  8
Active
 10
120.000000
 20
290.000000
 30
0.0
  0
VERTEX
  8
Active
 10
120.000000
 20
310.000000
 30
0.0
  0
VERTEX
  8
Active
 10
10.000000
 20
310.000000
 30
0.0
  0
VERTEX
  8
Active
 10
10.000000
 20
400.000000
 30
0.0
  0
SEQEND
  8
Active
  0
ENDBLK
  0
ENDSEC
  0
SECTION
  2
ENTITIES
  0
POLYLINE
  8
Active
 66
       1
 70
       1
 10
0.0
 20
0.0
 30
0.0
  0
VERTEX
  8
Active
 10
-11348.865000
 20
-41975.958000
 30
0.0
  0
VERTEX
  8
Active
 10
-11118.096000
 20
-41745.188000
 30
0.0
  0
VERTEX
  8
Active
 10
-10425.788000
 20
-41745.188000
 30
0.0
  0
VERTEX
  8
Active
 10
-10195.019000
 20
-41975.958000
 30
0.0
  0
VERTEX
  8
Active
 10
-10195.019000
 20
-42322.112000
 30
0.0
  0
VERTEX
  8
Active
 10
-10425.788000
 20
-42322.112000
 30
0.0
  0
VERTEX
  8
Active
 10
-10425.788000
 20
-42091.342000
 30
0.0
  0
VERTEX
  8
Active
 10
-10541.173000
 20
-41975.958000
 30
0.0
  0
VERTEX
  8
Active
 10
-11002.712000
 20
-41975.958000
 30
0.0
  0
VERTEX
  8
Active
 10
-11118.096000
 20
-42091.342000
 30
0.0
  0
VERTEX
  8
Active
 10
-11118.096000
 20
-43475.958000
 30
0.0
  0
VERTEX
  8
Active
 10
-11002.712000
 20
-43591.342000
 30
0.0
  0
VERTEX
  8
Active
 10
-10541.173000
 20
-43591.342000
 30
0.0
  0
VERTEX
  8
Active
 10
-10425.788000
 20
-43475.958000
 30
0.0
  0
VERTEX
  8
Active
 10
-10425.788000
 20
-43245.188000
 30
0.0
  0
VERTEX
  8
Active
 10
-10195.019000
 20
-43245.188000
 30
0.0
  0
VERTEX
  8
Active
 10
-10195.019000
 20
-43591.342000
 30
0.0
  0
VERTEX
  8
Active
 10
-10425.788000
 20
-43822.112000
 30
0.0
  0
VERTEX
  8
Active
 10
-11118.096000
 20
-43822.112000
 30
0.0
  0
VERTEX
  8
Active
 10
-11348.865000
 20
-43591.342000
 30
0.0
  0
SEQEND
  8
Active
  0
POLYLINE
  8
Active
 66
       1
 70
       1
 10
0.0
 20
0.0
 30
0.0
  0
VERTEX
  8
Active
 10
-9618.096000
 20
-42899.035000
 30
0.0
  0
VERTEX
  8
Active
 10
-8925.788000
 20
-43822.112000
 30
0.0
  0
VERTEX
  8
Active
 10
-8695.019000
 20
-43822.112000
 30
0.0
  0
VERTEX
  8
Active
 10
-9387.327000
 20
-42783.650000
 30
0.0
  0
SEQEND
  8
Active
  0
POLYLINE
  8
Active
 66
       1
 70
       1
 10
0.0
 20
0.0
 30
0.0
  0
VERTEX
  8
Active
 10
-9848.865000
 20
-43822.112000
 30
0.0
  0
VERTEX
  8
Active
 10
-9618.096000
 20
-43822.112000
 30
0.0
  0
VERTEX
  8
Active
 10
-9618.096000
 20
-43245.188000
 30
0.0
  0
VERTEX
  8
Active
 10
-8695.019000
 20
-41745.188000
 30
0.0
  0
VERTEX
  8
Active
 10
-9041.173000
 20
-41745.188000
 30
0.0
  0
VERTEX
  8
Active
 10
-9618.096000
 20
-42783.650000
 30
0.0
  0
VERTEX
  8
Active
 10
-9618.096000
 20
-41745.188000
 30
0.0
  0
VERTEX
  8
Active
 10
-9848.865000
 20
-41745.188000
 30
0.0
  0
SEQEND
  8
Active
  0
POLYLINE
  8
Active
 66
       1
 70
       1
 10
0.0
 20
0.0
 30
0.0
  0
VERTEX
  8
Active
 10
-8348.865000
 20
-41745.188000
 30
0.0
  0
VERTEX
  8
Active
 10
-8118.096000
 20
-41745.188000
 30
0.0
  0
VERTEX
  8
Active
 10
-8118.096000
 20
-42668.265000
 30
0.0
  0
VERTEX
  8
Active
 10
-7425.788000
 20
-42668.265000
 30
0.0
  0
VERTEX
  8
Active
 10
-7425.788000
 20
-41745.188000
 30
0.0
  0
VERTEX
  8
Active
 10
-7195.019000
 20
-41745.188000
 30
0.0
  0
VERTEX
  8
Active
 10
-7195.019000
 20
-43822.112000
 30
0.0
  0
VERTEX
  8
Active
 10
-7425.788000
 20
-43822.112000
 30
0.0
  0
VERTEX
  8
Active
 10
-7425.788000
 20
-42899.035000
 30
0.0
  0
VERTEX
  8
Active
 10
-8118.096000
 20
-42899.035000
 30
0.0
  0
VERTEX
  8
Active
 10
-8118.096000
 20
-43822.112000
 30
0.0
  0
VERTEX
  8
Active
 10
-8348.865000
 20
-43822.112000
 30
0.0
  0
SEQEND
  8
Active
  0
POLYLINE
  8
Active
 66
       1
 70
       1
 10
0.0
 20
0.0
 30
0.0
  0
VERTEX
  8
Active
 10
-5118.096000
 20
-41745.188000
 30
0.0
  0
VERTEX
  8
Active
 10
-5118.096000
 20
-43475.958000
 30
0.0
  0
VERTEX
  8
Active
 10
-5002.712000
 20
-43591.342000
 30
0.0
  0
VERTEX
  8
Active
 10
-4541.173000
 20
-43591.342000
 30
0.0
  0
VERTEX
  8
Active
 10
-4425.788000
 20
-43475.958000
 30
0.0
  0
VERTEX
  8
Active
 10
-4425.788000
 20
-41745.188000
 30
0.0
  0
VERTEX
  8
Active
 10
-4195.019000
 20
-41745.188000
 30
0.0
  0
VERTEX
  8
Active
 10
-4195.019000
 20
-43591.342000
 30
0.0
  0
VERTEX
  8
Active
 10
-4425.788000
 20
-43822.112000
 30
0.0
  0
VERTEX
  8
Active
 10
-5118.096000
 20
-43822.112000
 30
0.0
  0
VERTEX
  8
Active
 10
-5348.865000
 20
-43591.342000
 30
0.0
  0
VERTEX
  8
Active
 10
-5348.865000
 20
-41745.188000
 30
0.0
  0
SEQEND
  8
Active
  0
POLYLINE
  8
Active
 66
       1
 70
       1
 10
0.0
 20
0.0
 30
0.0
  0
VERTEX
  8
Active
 10
-3848.865000
 20
-41975.958000
 30
0.0
  0
VERTEX
  8
Active
 10
-3618.096000
 20
-41745.188000
 30
0.0
  0
VERTEX
  8
Active
 10
-3502.712000
 20
-41745.188000
 30
0.0
  0
VERTEX
  8
Active
 10
-3502.712000
 20
-41975.958000
 30
0.0
  0
VERTEX
  8
Active
 10
-3618.096000
 20
-42091.342000
 30
0.0
  0
VERTEX
  8
Active
 10
-3618.096000
 20
-43475.958000
 30
0.0
  0
VERTEX
  8
Active
 10
-3502.712000
 20
-43591.342000
 30
0.0
  0
VERTEX
  8
Active
 10
-3041.173000
 20
-43591.342000
 30
0.0
  0
VERTEX
  8
Active
 10
-2925.788000
 20
-43475.958000
 30
0.0
  0
VERTEX
  8
Active
 10
-2925.788000
 20
-42091.342000
 30
0.0
  0
VERTEX
  8
Active
 10
-3041.173000
 20
-41975.958000
 30
0.0
  0
VERTEX
  8
Active
 10
-3502.712000
 20
-41975.958000
 30
0.0
  0
VERTEX
  8
Active
 10
-3502.712000
 20
-41745.188000
 30
0.0
  0
VERTEX
  8
Active
 10
-2925.788000
 20
-41745.188000
 30
0.0
  0
VERTEX
  8
Active
 10
-2695.019000
 20
-41975.958000
 30
0.0
  0
VERTEX
  8
Active
 10
-2695.019000
 20
-43591.342000
 30
0.0
  0
VERTEX
  8
Active
 10
-2925.788000
 20
-43822.112000
 30
0.0
  0
VERTEX
  8
Active
 10
-3618.096000
 20
-43822.112000
 30
0.0
  0
VERTEX
  8
Active
 10
-3848.865000
 20
-43591.342000
 30
0.0
  0
SEQEND
  8
Active
  0
POLYLINE
  8
Active
 66
       1
 70
       1
 10
0.0
 20
0.0
 30
0.0
  0
VERTEX
  8
Active
 10
-2348.865000
 20
-41745.188000
 30
0.0
  0
VERTEX
  8
Active
 10
-1195.019000
 20
-41745.188000
 30
0.0
  0
VERTEX
  8
Active
 10
-1195.019000
 20
-41975.958000
 30
0.0
  0
VERTEX
  8
Active
 10
-2118.096000
 20
-41975.958000
 30
0.0
  0
VERTEX
  8
Active
 10
-2118.096000
 20
-42668.265000
 30
0.0
  0
VERTEX
  8
Active
 10
-1541.173000
 20
-42668.265000
 30
0.0
  0
VERTEX
  8
Active
 10
-1541.173000
 20
-42899.035000
 30
0.0
  0
VERTEX
  8
Active
 10
-2118.096000
 20
-42899.035000
 30
0.0
  0
VERTEX
  8
Active
 10
-2118.096000
 20
-43822.112000
 30
0.0
  0
VERTEX
  8
Active
 10
-2348.865000
 20
-43822.112000
 30
0.0
  0
SEQEND
  8
Active
  0
POLYLINE
  8
Active
 66
       1
 70
       1
 10
0.0
 20
0.0
 30
0.0
  0
VERTEX
  8
Active
 10
-848.865000
 20
-41745.188000
 30
0.0
  0
VERTEX
  8
Active
 10
-618.096000
 20
-41745.188000
 30
0.0
  0
VERTEX
  8
Active
 10
-618.096000
 20
-43591.342000
 30
0.0
  0
VERTEX
  8
Active
 10
304.981000
 20
-43591.342000
 30
0.0
  0
VERTEX
  8
Active
 10
304.981000
 20
-43822.112000
 30
0.0
  0
VERTEX
  8
Active
 10
-848.865000
 20
-43822.112000
 30
0.0
  0
SEQEND
  8
Active
  0
POLYLINE
  8
Active
 66
       1
 70
       1
 10
0.0
 20
0.0
 30
0.0
  0
VERTEX
  8
Active
 10
2151.135000
 20
-41975.958000
 30
0.0
  0
VERTEX
  8
Active
 10
2381.904000
 20
-41745.188000
 30
0.0
  0
VERTEX
  8
Active
 10
2497.288000
 20
-41745.188000
 30
0.0
  0
VERTEX
  8
Active
 10
2497.288000
 20
-41975.958000
 30
0.0
  0
VERTEX
  8
Active
 10
2381.904000
 20
-42091.342000
 30
0.0
  0
VERTEX
  8
Active
 10
2381.904000
 20
-42552.881000
 30
0.0
  0
VERTEX
  8
Active
 10
2497.288000
 20
-42668.265000
 30
0.0
  0
VERTEX
  8
Active
 10
2497.288000
 20
-42899.035000
 30
0.0
  0
VERTEX
  8
Active
 10
2381.904000
 20
-43014.419000
 30
0.0
  0
VERTEX
  8
Active
 10
2381.904000
 20
-43475.958000
 30
0.0
  0
VERTEX
  8
Active
 10
2497.288000
 20
-43591.342000
 30
0.0
  0
VERTEX
  8
Active
 10
2958.827000
 20
-43591.342000
 30
0.0
  0
VERTEX
  8
Active
 10
3074.212000
 20
-43475.958000
 30
0.0
  0
VERTEX
  8
Active
 10
3074.212000
 20
-43014.419000
 30
0.0
  0
VERTEX
  8
Active
 10
2958.827000
 20
-42899.035000
 30
0.0
  0
VERTEX
  8
Active
 10
2497.288000
 20
-42899.035000
 30
0.0
  0
VERTEX
  8
Active
 10
2497.288000
 20
-42668.265000
 30
0.0
  0
VERTEX
  8
Active
 10
2958.827000
 20
-42668.265000
 30
0.0
  0
VERTEX
  8
Active
 10
3074.212000
 20
-42552.881000
 30
0.0
  0
VERTEX
  8
Active
 10
3074.212000
 20
-42091.342000
 30
0.0
  0
VERTEX
  8
Active
 10
2958.827000
 20
-41975.958000
 30
0.0
  0
VERTEX
  8
Active
 10
2497.288000
 20
-41975.958000
 30
0.0
  0
VERTEX
  8
Active
 10
2497.288000
 20
-41745.188000
 30
0.0
  0
VERTEX
  8
Active
 10
3074.212000
 20
-41745.188000
 30
0.0
  0
VERTEX
  8
Active
 10
3304.981000
 20
-41975.958000
 30
0.0
  0
VERTEX
  8
Active
 10
3304.981000
 20
-42668.265000
 30
0.0
  0
VERTEX
  8
Active
 10
3189.596000
 20
-42783.650000
 30
0.0
  0
VERTEX
  8
Active
 10
3304.981000
 20
-42899.035000
 30
0.0
  0
VERTEX
  8
Active
 10
3304.981000
 20
-43591.342000
 30
0.0
  0
VERTEX
  8
Active
 10
3074.212000
 20
-43822.112000
 30
0.0
  0
VERTEX
  8
Active
 10
2381.904000
 20
-43822.112000
 30
0.0
  0
VERTEX
  8
Active
 10
2151.135000
 20
-43591.342000
 30
0.0
  0
VERTEX
  8
Active
 10
2151.135000
 20
-42899.035000
 30
0.0
  0
VERTEX
  8
Active
 10
2266.519000
 20
-42783.650000
 30
0.0
  0
VERTEX
  8
Active
 10
2151.135000
 20
-42668.265000
 30
0.0
  0
SEQEND
  8
Active
  0
POLYLINE
  8
Active
 66
       1
 70
       1
 10
0.0
 20
0.0
 30
0.0
  0
VERTEX
  8
Active
 10
5266.519000
 20
-42206.727000
 30
0.0
  0
VERTEX
  8
Active
 10
5497.288000
 20
-41975.958000
 30
0.0
  0
VERTEX
  8
Active
 10
5958.827000
 20
-41975.958000
 30
0.0
  0
VERTEX
  8
Active
 10
6074.212000
 20
-42091.342000
 30
0.0
  0
VERTEX
  8
Active
 10
6074.212000
 20
-42552.881000
 30
0.0
  0
VERTEX
  8
Active
 10
5151.135000
 20
-43475.958000
 30
0.0
  0
VERTEX
  8
Active
 10
5151.135000
 20
-43822.112000
 30
0.0
  0
VERTEX
  8
Active
 10
6304.981000
 20
-43822.112000
 30
0.0
  0
VERTEX
  8
Active
 10
6304.981000
 20
-43591.342000
 30
0.0
  0
VERTEX
  8
Active
 10
5381.904000
 20
-43591.342000
 30
0.0
  0
VERTEX
  8
Active
 10
6304.981000
 20
-42668.265000
 30
0.0
  0
VERTEX
  8
Active
 10
6304.981000
 20
-41975.958000
 30
0.0
  0
VERTEX
  8
Active
 10
6074.212000
 20
-41745.188000
 30
0.0
  0
VERTEX
  8
Active
 10
5381.904000
 20
-41745.188000
 30
0.0
  0
VERTEX
  8
Active
 10
5151.135000
 20
-41975.958000
 30
0.0
  0
VERTEX
  8
Active
 10
5151.135000
 20
-42206.727000
 30
0.0
  0
SEQEND
  8
Active
  0
POLYLINE
  8
Active
 66
       1
 70
       1
 10
0.0
 20
0.0
 30
0.0
  0
VERTEX
  8
Active
 10
6881.904000
 20
-43706.727000
 30
0.0
  0
VERTEX
  8
Active
 10
7804.981000
 20
-41975.958000
 30
0.0
  0
VERTEX
  8
Active
 10
7574.212000
 20
-41860.573000
 30
0.0
  0
VERTEX
  8
Active
 10
6651.135000
 20
-43591.342000
 30
0.0
  0
SEQEND
  8
Active
  0
POLYLINE
  8
Active
 66
       1
 70
       1
 10
0.0
 20
0.0
 30
0.0
  0
VERTEX
  8
Active
 10
6651.135000
 20
-41975.958000
 30
0.0
  0
VERTEX
  8
Active
 10
6881.904000
 20
-41745.188000
 30
0.0
  0
VERTEX
  8
Active
 10
6997.288000
 20
-41745.188000
 30
0.0
  0
VERTEX
  8
Active
 10
6997.288000
 20
-41975.958000
 30
0.0
  0
VERTEX
  8
Active
 10
6881.904000
 20
-42091.342000
 30
0.0
  0
VERTEX
  8
Active
 10
6881.904000
 20
-43475.958000
 30
0.0
  0
VERTEX
  8
Active
 10
6997.288000
 20
-43591.342000
 30
0.0
  0
VERTEX
  8
Active
 10
7458.827000
 20
-43591.342000
 30
0.0
  0
VERTEX
  8
Active
 10
7574.212000
 20
-43475.958000
 30
0.0
  0
VERTEX
  8
Active
 10
7574.212000
 20
-42091.342000
 30
0.0
  0
VERTEX
  8
Active
 10
7458.827000
 20
-41975.958000
 30
0.0
  0
VERTEX
  8
Active
 10
6997.288000
 20
-41975.958000
 30
0.0
  0
VERTEX
  8
Active
 10
6997.288000
 20
-41745.188000
 30
0.0
  0
VERTEX
  8
Active
 10
7574.212000
 20
-41745.188000
 30
0.0
  0
VERTEX
  8
Active
 10
7804.981000
 20
-41975.958000
 30
0.0
  0
VERTEX
  8
Active
 10
7804.981000
 20
-43591.342000
 30
0.0
  0
VERTEX
  8
Active
 10
7574.212000
 20
-43822.112000
 30
0.0
  0
VERTEX
  8
Active
 10
6881.904000
 20
-43822.112000
 30
0.0
  0
VERTEX
  8
Active
 10
6651.135000
 20
-43591.342000
 30
0.0
  0
SEQEND
  8
Active
  0
POLYLINE
  8
Active
 66
       1
 70
       1
 10
0.0
 20
0.0
 30
0.0
  0
VERTEX
  8
Active
 10
8381.904000
 20
-43706.727000
 30
0.0
  0
VERTEX
  8
Active
 10
9304.981000
 20
-41975.958000
 30
0.0
  0
VERTEX
  8
Active
 10
9074.212000
 20
-41860.573000
 30
0.0
  0
VERTEX
  8
Active
 10
8151.135000
 20
-43591.342000
 30
0.0
  0
SEQEND
  8
Active
  0
POLYLINE
  8
Active
 66
       1
 70
       1
 10
0.0
 20
0.0
 30
0.0
  0
VERTEX
  8
Active
 10
8151.135000
 20
-41975.958000
 30
0.0
  0
VERTEX
  8
Active
 10
8381.904000
 20
-41745.188000
 30
0.0
  0
VERTEX
  8
Active
 10
8497.288000
 20
-41745.188000
 30
0.0
  0
VERTEX
  8
Active
 10
8497.288000
 20
-41975.958000
 30
0.0
  0
VERTEX
  8
Active
 10
8381.904000
 20
-42091.342000
 30
0.0
  0
VERTEX
  8
Active
 10
8381.904000
 20
-43475.958000
 30
0.0
  0
VERTEX
  8
Active
 10
8497.288000
 20
-43591.342000
 30
0.0
  0
VERTEX
  8
Active
 10
8958.827000
 20
-43591.342000
 30
0.0
  0
VERTEX
  8
Active
 10
9074.212000
 20
-43475.958000
 30
0.0
  0
VERTEX
  8
Active
 10
9074.212000
 20
-42091.342000
 30
0.0
  0
VERTEX
  8
Active
 10
8958.827000
 20
-41975.958000
 30
0.0
  0
VERTEX
  8
Active
 10
8497.288000
 20
-41975.958000
 30
0.0
  0
VERTEX
  8
Active
 10
8497.288000
 20
-41745.188000
 30
0.0
  0
VERTEX
  8
Active
 10
9074.212000
 20
-41745.188000
 30
0.0
  0
VERTEX
  8
Active
 10
9304.981000
 20
-41975.958000
 30
0.0
  0
VERTEX
  8
Active
 10
9304.981000
 20
-43591.342000
 30
0.0
  0
VERTEX
  8
Active
 10
9074.212000
 20
-43822.112000
 30
0.0
  0
VERTEX
  8
Active
 10
8381.904000
 20
-43822.112000
 30
0.0
  0
VERTEX
  8
Active
 10
8151.135000
 20
-43591.342000
 30
0.0
  0
SEQEND
  8
Active
  0
POLYLINE
  8
Active
 66
       1
 70
       1
 10
0.0
 20
0.0
 30
0.0
  0
VERTEX
  8
Active
 10
9651.135000
 20
-41975.958000
 30
0.0
  0
VERTEX
  8
Active
 10
9881.904000
 20
-41745.188000
 30
0.0
  0
VERTEX
  8
Active
 10
9997.288000
 20
-41745.188000
 30
0.0
  0
VERTEX
  8
Active
 10
9997.288000
 20
-41975.958000
 30
0.0
  0
VERTEX
  8
Active
 10
9881.904000
 20
-42091.342000
 30
0.0
  0
VERTEX
  8
Active
 10
9881.904000
 20
-42552.881000
 30
0.0
  0
VERTEX
  8
Active
 10
9997.288000
 20
-42668.265000
 30
0.0
  0
VERTEX
  8
Active
 10
9997.288000
 20
-42899.035000
 30
0.0
  0
VERTEX
  8
Active
 10
9881.904000
 20
-43014.419000
 30
0.0
  0
VERTEX
  8
Active
 10
9881.904000
 20
-43475.958000
 30
0.0
  0
VERTEX
  8
Active
 10
9997.288000
 20
-43591.342000
 30
0.0
  0
VERTEX
  8
Active
 10
10458.827000
 20
-43591.342000
 30
0.0
  0
VERTEX
  8
Active
 10
10574.212000
 20
-43475.958000
 30
0.0
  0
VERTEX
  8
Active
 10
10574.212000
 20
-43014.419000
 30
0.0
  0
VERTEX
  8
Active
 10
10458.827000
 20
-42899.035000
 30
0.0
  0
VERTEX
  8
Active
 10
9997.288000
 20
-42899.035000
 30
0.0
  0
VERTEX
  8
Active
 10
9997.288000
 20
-42668.265000
 30
0.0
  0
VERTEX
  8
Active
 10
10458.827000
 20
-42668.265000
 30
0.0
  0
VERTEX
  8
Active
 10
10574.212000
 20
-42552.881000
 30
0.0
  0
VERTEX
  8
Active
 10
10574.212000
 20
-42091.342000
 30
0.0
  0
VERTEX
  8
Active
 10
10458.827000
 20
-41975.958000
 30
0.0
  0
VERTEX
  8
Active
 10
9997.288000
 20
-41975.958000
 30
0.0
  0
VERTEX
  8
Active
 10
9997.288000
 20
-41745.188000
 30
0.0
  0
VERTEX
  8
Active
 10
10574.212000
 20
-41745.188000
 30
0.0
  0
VERTEX
  8
Active
 10
10804.981000
 20
-41975.958000
 30
0.0
  0
VERTEX
  8
Active
 10
10804.981000
 20
-42668.265000
 30
0.0
  0
VERTEX
  8
Active
 10
10689.596000
 20
-42783.650000
 30
0.0
  0
VERTEX
  8
Active
 10
10804.981000
 20
-42899.035000
 30
0.0
  0
VERTEX
  8
Active
 10
10804.981000
 20
-43591.342000
 30
0.0
  0
VERTEX
  8
Active
 10
10574.212000
 20
-43822.112000
 30
0.0
  0
VERTEX
  8
Active
 10
9881.904000
 20
-43822.112000
 30
0.0
  0
VERTEX
  8
Active
 10
9651.135000
 20
-43591.342000
 30
0.0
  0
VERTEX
  8
Active
 10
9651.135000
 20
-42899.035000
 30
0.0
  0
VERTEX
  8
Active
 10
9766.519000
 20
-42783.650000
 30
0.0
  0
VERTEX
  8
Active
 10
9651.135000
 20
-42668.265000
 30
0.0
  0
SEQEND
  8
Active
  0
POLYLINE
  8
Active
 66
       1
 70
       1
 10
0.0
 20
0.0
 30
0.0
  0
VERTEX
  8
Active
 10
-17466.631000
 20
46380.812000
 30
0.0
  0
VERTEX
  8
Active
 10
-17120.477000
 20
46380.812000
 30
0.0
  0
VERTEX
  8
Active
 10
-17120.477000
 20
46150.042000
 30
0.0
  0
VERTEX
  8
Active
 10
-17235.862000
 20
46034.658000
 30
0.0
  0
VERTEX
  8
Active
 10
-17235.862000
 20
45457.735000
 30
0.0
  0
VERTEX
  8
Active
 10
-16658.938000
 20
45457.735000
 30
0.0
  0
VERTEX
  8
Active
 10
-16543.554000
 20
45573.119000
 30
0.0
  0
VERTEX
  8
Active
 10
-16543.554000
 20
46034.658000
 30
0.0
  0
VERTEX
  8
Active
 10
-16658.938000
 20
46150.042000
 30
0.0
  0
VERTEX
  8
Active
 10
-17120.477000
 20
46150.042000
 30
0.0
  0
VERTEX
  8
Active
 10
-17120.477000
 20
46380.812000
 30
0.0
  0
VERTEX
  8
Active
 10
-16543.554000
 20
46380.812000
 30
0.0
  0
VERTEX
  8
Active
 10
-16312.785000
 20
46150.042000
 30
0.0
  0
VERTEX
  8
Active
 10
-16312.785000
 20
45457.735000
 30
0.0
  0
VERTEX
  8
Active
 10
-16543.554000
 20
45226.965000
 30
0.0
  0
VERTEX
  8
Active
 10
-17235.862000
 20
45226.965000
 30
0.0
  0
VERTEX
  8
Active
 10
-17235.862000
 20
44303.888000
 30
0.0
  0
VERTEX
  8
Active
 10
-17466.631000
 20
44303.888000
 30
0.0
  0
SEQEND
  8
Active
  0
POLYLINE
  8
Active
 66
       1
 70
       1
 10
0.0
 20
0.0
 30
0.0
  0
VERTEX
  8
Active
 10
-15966.631000
 20
46380.812000
 30
0.0
  0
VERTEX
  8
Active
 10
-15735.862000
 20
46380.812000
 30
0.0
  0
VERTEX
  8
Active
 10
-15735.862000
 20
44534.658000
 30
0.0
  0
VERTEX
  8
Active
 10
-14812.785000
 20
44534.658000
 30
0.0
  0
VERTEX
  8
Active
 10
-14812.785000
 20
44303.888000
 30
0.0
  0
VERTEX
  8
Active
 10
-15966.631000
 20
44303.888000
 30
0.0
  0
SEQEND
  8
Active
  0
POLYLINE
  8
Active
 66
       1
 70
       1
 10
0.0
 20
0.0
 30
0.0
  0
VERTEX
  8
Active
 10
-14235.862000
 20
44303.888000
 30
0.0
  0
VERTEX
  8
Active
 10
-14235.862000
 20
45111.581000
 30
0.0
  0
VERTEX
  8
Active
 10
-13889.708000
 20
46034.658000
 30
0.0
  0
VERTEX
  8
Active
 10
-13543.554000
 20
45111.581000
 30
0.0
  0
VERTEX
  8
Active
 10
-13543.554000
 20
44303.888000
 30
0.0
  0
VERTEX
  8
Active
 10
-13312.785000
 20
44303.888000
 30
0.0
  0
VERTEX
  8
Active
 10
-13312.785000
 20
45226.965000
 30
0.0
  0
VERTEX
  8
Active
 10
-13774.323000
 20
46380.812000
 30
0.0
  0
VERTEX
  8
Active
 10
-14005.092000
 20
46380.812000
 30
0.0
  0
VERTEX
  8
Active
 10
-14466.631000
 20
45226.965000
 30
0.0
  0
VERTEX
  8
Active
 10
-14466.631000
 20
44303.888000
 30
0.0
  0
SEQEND
  8
Active
  0
POLYLINE
  8
Active
 66
       1
 70
       1
 10
0.0
 20
0.0
 30
0.0
  0
VERTEX
  8
Active
 10
-12966.631000
 20
46380.812000
 30
0.0
  0
VERTEX
  8
Active
 10
-11812.785000
 20
46380.812000
 30
0.0
  0
VERTEX
  8
Active
 10
-11812.785000
 20
46150.042000
 30
0.0
  0
VERTEX
  8
Active
 10
-12274.323000
 20
46150.042000
 30
0.0
  0
VERTEX
  8
Active
 10
-12274.323000
 20
44303.888000
 30
0.0
  0
VERTEX
  8
Active
 10
-12505.092000
 20
44303.888000
 30
0.0
  0
VERTEX
  8
Active
 10
-12505.092000
 20
46150.042000
 30
0.0
  0
VERTEX
  8
Active
 10
-12966.631000
 20
46150.042000
 30
0.0
  0
SEQEND
  8
Active
  0
POLYLINE
  8
Active
 66
       1
 70
       1
 10
0.0
 20
0.0
 30
0.0
  0
VERTEX
  8
Active
 10
-11466.631000
 20
46380.812000
 30
0.0
  0
VERTEX
  8
Active
 10
-10312.785000
 20
46380.812000
 30
0.0
  0
VERTEX
  8
Active
 10
-10312.785000
 20
46150.042000
 30
0.0
  0
VERTEX
  8
Active
 10
-11235.862000
 20
46150.042000
 30
0.0
  0
VERTEX
  8
Active
 10
-11235.862000
 20
45457.735000
 30
0.0
  0
VERTEX
  8
Active
 10
-10658.938000
 20
45457.735000
 30
0.0
  0
VERTEX
  8
Active
 10
-10658.938000
 20
45226.965000
 30
0.0
  0
VERTEX
  8
Active
 10
-11235.862000
 20
45226.965000
 30
0.0
  0
VERTEX
  8
Active
 10
-11235.862000
 20
44534.658000
 30
0.0
  0
VERTEX
  8
Active
 10
-10312.785000
 20
44534.658000
 30
0.0
  0
VERTEX
  8
Active
 10
-10312.785000
 20
44303.888000
 30
0.0
  0
VERTEX
  8
Active
 10
-11466.631000
 20
44303.888000
 30
0.0
  0
SEQEND
  8
Active
  0
POLYLINE
  8
Active
 66
       1
 70
       1
 10
0.0
 20
0.0
 30
0.0
  0
VERTEX
  8
Active
 10
-9389.708000
 20
45226.965000
 30
0.0
  0
VERTEX
  8
Active
 10
-9043.554000
 20
44765.427000
 30
0.0
  0
VERTEX
  8
Active
 10
-9043.554000
 20
44303.888000
 30
0.0
  0
VERTEX
  8
Active
 10
-8812.785000
 20
44303.888000
 30
0.0
  0
VERTEX
  8
Active
 10
-8812.785000
 20
44880.812000
 30
0.0
  0
VERTEX
  8
Active
 10
-9043.554000
 20
45226.965000
 30
0.0
  0
SEQEND
  8
Active
  0
POLYLINE
  8
Active
 66
       1
 70
       1
 10
0.0
 20
0.0
 30
0.0
  0
VERTEX
  8
Active
 10
-9966.631000
 20
46380.812000
 30
0.0
  0
VERTEX
  8
Active
 10
-9620.477000
 20
46380.812000
 30
0.0
  0
VERTEX
  8
Active
 10
-9620.477000
 20
46150.042000
 30
0.0
  0
VERTEX
  8
Active
 10
-9735.862000
 20
46034.658000
 30
0.0
  0
VERTEX
  8
Active
 10
-9735.862000
 20
45457.735000
 30
0.0
  0
VERTEX
  8
Active
 10
-9158.938000
 20
45457.735000
 30
0.0
  0
VERTEX
  8
Active
 10
-9043.554000
 20
45573.119000
 30
0.0
  0
VERTEX
  8
Active
 10
-9043.554000
 20
46034.658000
 30
0.0
  0
VERTEX
  8
Active
 10
-9158.938000
 20
46150.042000
 30
0.0
  0
VERTEX
  8
Active
 10
-9620.477000
 20
46150.042000
 30
0.0
  0
VERTEX
  8
Active
 10
-9620.477000
 20
46380.812000
 30
0.0
  0
VERTEX
  8
Active
 10
-9043.554000
 20
46380.812000
 30
0.0
  0
VERTEX
  8
Active
 10
-8812.785000
 20
46150.042000
 30
0.0
  0
VERTEX
  8
Active
 10
-8812.785000
 20
45457.735000
 30
0.0
  0
VERTEX
  8
Active
 10
-9043.554000
 20
45226.965000
 30
0.0
  0
VERTEX
  8
Active
 10
-9735.862000
 20
45226.965000
 30
0.0
  0
VERTEX
  8
Active
 10
-9735.862000
 20
44303.888000
 30
0.0
  0
VERTEX
  8
Active
 10
-9966.631000
 20
44303.888000
 30
0.0
  0
SEQEND
  8
Active
  0
POLYLINE
  8
Active
 66
       1
 70
       1
 10
0.0
 20
0.0
 30
0.0
  0
VERTEX
  8
Active
 10
-8466.631000
 20
46150.042000
 30
0.0
  0
VERTEX
  8
Active
 10
-8235.862000
 20
46380.812000
 30
0.0
  0
VERTEX
  8
Active
 10
-7543.554000
 20
46380.812000
 30
0.0
  0
VERTEX
  8
Active
 10
-7312.785000
 20
46150.042000
 30
0.0
  0
VERTEX
  8
Active
 10
-7312.785000
 20
45803.888000
 30
0.0
  0
VERTEX
  8
Active
 10
-7543.554000
 20
45803.888000
 30
0.0
  0
VERTEX
  8
Active
 10
-7543.554000
 20
46034.658000
 30
0.0
  0
VERTEX
  8
Active
 10
-7658.938000
 20
46150.042000
 30
0.0
  0
VERTEX
  8
Active
 10
-8120.477000
 20
46150.042000
 30
0.0
  0
VERTEX
  8
Active
 10
-8235.862000
 20
46034.658000
 30
0.0
  0
VERTEX
  8
Active
 10
-8235.862000
 20
44650.042000
 30
0.0
  0
VERTEX
  8
Active
 10
-8120.477000
 20
44534.658000
 30
0.0
  0
VERTEX
  8
Active
 10
-7658.938000
 20
44534.658000
 30
0.0
  0
VERTEX
  8
Active
 10
-7543.554000
 20
44650.042000
 30
0.0
  0
VERTEX
  8
Active
 10
-7543.554000
 20
44880.812000
 30
0.0
  0
VERTEX
  8
Active
 10
-7312.785000
 20
44880.812000
 30
0.0
  0
VERTEX
  8
Active
 10
-7312.785000
 20
44534.658000
 30
0.0
  0
VERTEX
  8
Active
 10
-7543.554000
 20
44303.888000
 30
0.0
  0
VERTEX
  8
Active
 10
-8235.862000
 20
44303.888000
 30
0.0
  0
VERTEX
  8
Active
 10
-8466.631000
 20
44534.658000
 30
0.0
  0
SEQEND
  8
Active
  0
POLYLINE
  8
Active
 66
       1
 70
       1
 10
0.0
 20
0.0
 30
0.0
  0
VERTEX
  8
Active
 10
-6966.631000
 20
46380.812000
 30
0.0
  0
VERTEX
  8
Active
 10
-6735.862000
 20
46380.812000
 30
0.0
  0
VERTEX
  8
Active
 10
-6735.862000
 20
45457.735000
 30
0.0
  0
VERTEX
  8
Active
 10
-6043.554000
 20
45457.735000
 30
0.0
  0
VERTEX
  8
Active
 10
-6043.554000
 20
46380.812000
 30
0.0
  0
VERTEX
  8
Active
 10
-5812.785000
 20
46380.812000
 30
0.0
  0
VERTEX
  8
Active
 10
-5812.785000
 20
44303.888000
 30
0.0
  0
VERTEX
  8
Active
 10
-6043.554000
 20
44303.888000
 30
0.0
  0
VERTEX
  8
Active
 10
-6043.554000
 20
45226.965000
 30
0.0
  0
VERTEX
  8
Active
 10
-6735.862000
 20
45226.965000
 30
0.0
  0
VERTEX
  8
Active
 10
-6735.862000
 20
44303.888000
 30
0.0
  0
VERTEX
  8
Active
 10
-6966.631000
 20
44303.888000
 30
0.0
  0
SEQEND
  8
Active
  0
POLYLINE
  8
Active
 66
       1
 70
       1
 10
0.0
 20
0.0
 30
0.0
  0
VERTEX
  8
Active
 10
-5466.631000
 20
46380.812000
 30
0.0
  0
VERTEX
  8
Active
 10
-4543.554000
 20
46380.812000
 30
0.0
  0
VERTEX
  8
Active
 10
-4543.554000
 20
46150.042000
 30
0.0
  0
VERTEX
  8
Active
 10
-4889.708000
 20
46150.042000
 30
0.0
  0
VERTEX
  8
Active
 10
-4889.708000
 20
44534.658000
 30
0.0
  0
VERTEX
  8
Active
 10
-4543.554000
 20
44534.658000
 30
0.0
  0
VERTEX
  8
Active
 10
-4543.554000
 20
44303.888000
 30
0.0
  0
VERTEX
  8
Active
 10
-5466.631000
 20
44303.888000
 30
0.0
  0
VERTEX
  8
Active
 10
-5466.631000
 20
44534.658000
 30
0.0
  0
VERTEX
  8
Active
 10
-5120.477000
 20
44534.658000
 30
0.0
  0
VERTEX
  8
Active
 10
-5120.477000
 20
46150.042000
 30
0.0
  0
VERTEX
  8
Active
 10
-5466.631000
 20
46150.042000
 30
0.0
  0
SEQEND
  8
Active
  0
POLYLINE
  8
Active
 66
       1
 70
       1
 10
0.0
 20
0.0
 30
0.0
  0
VERTEX
  8
Active
 10
-4197.400000
 20
46380.812000
 30
0.0
  0
VERTEX
  8
Active
 10
-3851.246000
 20
46380.812000
 30
0.0
  0
VERTEX
  8
Active
 10
-3851.246000
 20
46150.042000
 30
0.0
  0
VERTEX
  8
Active
 10
-3966.631000
 20
46034.658000
 30
0.0
  0
VERTEX
  8
Active
 10
-3966.631000
 20
45457.735000
 30
0.0
  0
VERTEX
  8
Active
 10
-3389.708000
 20
45457.735000
 30
0.0
  0
VERTEX
  8
Active
 10
-3274.323000
 20
45573.119000
 30
0.0
  0
VERTEX
  8
Active
 10
-3274.323000
 20
46034.658000
 30
0.0
  0
VERTEX
  8
Active
 10
-3389.708000
 20
46150.042000
 30
0.0
  0
VERTEX
  8
Active
 10
-3851.246000
 20
46150.042000
 30
0.0
  0
VERTEX
  8
Active
 10
-3851.246000
 20
46380.812000
 30
0.0
  0
VERTEX
  8
Active
 10
-3274.323000
 20
46380.812000
 30
0.0
  0
VERTEX
  8
Active
 10
-3043.554000
 20
46150.042000
 30
0.0
  0
VERTEX
  8
Active
 10
-3043.554000
 20
45457.735000
 30
0.0
  0
VERTEX
  8
Active
 10
-3274.323000
 20
45226.965000
 30
0.0
  0
VERTEX
  8
Active
 10
-3966.631000
 20
45226.965000
 30
0.0
  0
VERTEX
  8
Active
 10
-3966.631000
 20
44303.888000
 30
0.0
  0
VERTEX
  8
Active
 10
-4197.400000
 20
44303.888000
 30
0.0
  0
SEQEND
  8
Active
  0
POLYLINE
  8
Active
 66
       1
 70
       1
 10
0.0
 20
0.0
 30
0.0
  0
VERTEX
  8
Active
 10
-620.477000
 20
45226.965000
 30
0.0
  0
VERTEX
  8
Active
 10
-274.323000
 20
44765.427000
 30
0.0
  0
VERTEX
  8
Active
 10
-274.323000
 20
44303.888000
 30
0.0
  0
VERTEX
  8
Active
 10
-43.554000
 20
44303.888000
 30
0.0
  0
VERTEX
  8
Active
 10
-43.554000
 20
44880.812000
 30
0.0
  0
VERTEX
  8
Active
 10
-274.323000
 20
45226.965000
 30
0.0
  0
SEQEND
  8
Active
  0
POLYLINE
  8
Active
 66
       1
 70
       1
 10
0.0
 20
0.0
 30
0.0
  0
VERTEX
  8
Active
 10
-1197.400000
 20
46380.812000
 30
0.0
  0
VERTEX
  8
Active
 10
-851.246000
 20
46380.812000
 30
0.0
  0
VERTEX
  8
Active
 10
-851.246000
 20
46150.042000
 30
0.0
  0
VERTEX
  8
Active
 10
-966.631000
 20
46034.658000
 30
0.0
  0
VERTEX
  8
Active
 10
-966.631000
 20
45457.735000
 30
0.0
  0
VERTEX
  8
Active
 10
-389.708000
 20
45457.735000
 30
0.0
  0
VERTEX
  8
Active
 10
-274.323000
 20
45573.119000
 30
0.0
  0
VERTEX
  8
Active
 10
-274.323000
 20
46034.658000
 30
0.0
  0
VERTEX
  8
Active
 10
-389.708000
 20
46150.042000
 30
0.0
  0
VERTEX
  8
Active
 10
-851.246000
 20
46150.042000
 30
0.0
  0
VERTEX
  8
Active
 10
-851.246000
 20
46380.812000
 30
0.0
  0
VERTEX
  8
Active
 10
-274.323000
 20
46380.812000
 30
0.0
  0
VERTEX
  8
Active
 10
-43.554000
 20
46150.042000
 30
0.0
  0
VERTEX
  8
Active
 10
-43.554000
 20
45457.735000
 30
0.0
  0
VERTEX
  8
Active
 10
-274.323000
 20
45226.965000
 30
0.0
  0
VERTEX
  8
Active
 10
-966.631000
 20
45226.965000
 30
0.0
  0
VERTEX
  8
Active
 10
-966.631000
 20
44303.888000
 30
0.0
  0
VERTEX
  8
Active
 10
-1197.400000
 20
44303.888000
 30
0.0
  0
SEQEND
  8
Active
  0
POLYLINE
  8
Active
 66
       1
 70
       1
 10
0.0
 20
0.0
 30
0.0
  0
VERTEX
  8
Active
 10
302.600000
 20
46380.812000
 30
0.0
  0
VERTEX
  8
Active
 10
1456.446000
 20
46380.812000
 30
0.0
  0
VERTEX
  8
Active
 10
1456.446000
 20
46150.042000
 30
0.0
  0
VERTEX
  8
Active
 10
533.369000
 20
46150.042000
 30
0.0
  0
VERTEX
  8
Active
 10
533.369000
 20
45457.735000
 30
0.0
  0
VERTEX
  8
Active
 10
1110.292000
 20
45457.735000
 30
0.0
  0
VERTEX
  8
Active
 10
1110.292000
 20
45226.965000
 30
0.0
  0
VERTEX
  8
Active
 10
533.369000
 20
45226.965000
 30
0.0
  0
VERTEX
  8
Active
 10
533.369000
 20
44534.658000
 30
0.0
  0
VERTEX
  8
Active
 10
1456.446000
 20
44534.658000
 30
0.0
  0
VERTEX
  8
Active
 10
1456.446000
 20
44303.888000
 30
0.0
  0
VERTEX
  8
Active
 10
302.600000
 20
44303.888000
 30
0.0
  0
SEQEND
  8
Active
  0
POLYLINE
  8
Active
 66
       1
 70
       1
 10
0.0
 20
0.0
 30
0.0
  0
VERTEX
  8
Active
 10
1802.600000
 20
46380.812000
 30
0.0
  0
VERTEX
  8
Active
 10
2956.446000
 20
46380.812000
 30
0.0
  0
VERTEX
  8
Active
 10
2956.446000
 20
46150.042000
 30
0.0
  0
VERTEX
  8
Active
 10
2033.369000
 20
46150.042000
 30
0.0
  0
VERTEX
  8
Active
 10
2033.369000
 20
45457.735000
 30
0.0
  0
VERTEX
  8
Active
 10
2610.292000
 20
45457.735000
 30
0.0
  0
VERTEX
  8
Active
 10
2610.292000
 20
45226.965000
 30
0.0
  0
VERTEX
  8
Active
 10
2033.369000
 20
45226.965000
 30
0.0
  0
VERTEX
  8
Active
 10
2033.369000
 20
44303.888000
 30
0.0
  0
VERTEX
  8
Active
 10
1802.600000
 20
44303.888000
 30
0.0
  0
SEQEND
  8
Active
  0
POLYLINE
  8
Active
 66
       1
 70
       1
 10
0.0
 20
0.0
 30
0.0
  0
VERTEX
  8
Active
 10
4802.600000
 20
46380.812000
 30
0.0
  0
VERTEX
  8
Active
 10
5956.446000
 20
46380.812000
 30
0.0
  0
VERTEX
  8
Active
 10
5956.446000
 20
46150.042000
 30
0.0
  0
VERTEX
  8
Active
 10
5033.369000
 20
46150.042000
 30
0.0
  0
VERTEX
  8
Active
 10
5033.369000
 20
45457.735000
 30
0.0
  0
VERTEX
  8
Active
 10
5610.292000
 20
45457.735000
 30
0.0
  0
VERTEX
  8
Active
 10
5610.292000
 20
45226.965000
 30
0.0
  0
VERTEX
  8
Active
 10
5033.369000
 20
45226.965000
 30
0.0
  0
VERTEX
  8
Active
 10
5033.369000
 20
44534.658000
 30
0.0
  0
VERTEX
  8
Active
 10
5956.446000
 20
44534.658000
 30
0.0
  0
VERTEX
  8
Active
 10
5956.446000
 20
44303.888000
 30
0.0
  0
VERTEX
  8
Active
 10
4802.600000
 20
44303.888000
 30
0.0
  0
SEQEND
  8
Active
  0
POLYLINE
  8
Active
 66
       1
 70
       1
 10
0.0
 20
0.0
 30
0.0
  0
VERTEX
  8
Active
 10
6302.600000
 20
46380.812000
 30
0.0
  0
VERTEX
  8
Active
 10
6533.369000
 20
46380.812000
 30
0.0
  0
VERTEX
  8
Active
 10
6533.369000
 20
44534.658000
 30
0.0
  0
VERTEX
  8
Active
 10
7456.446000
 20
44534.658000
 30
0.0
  0
VERTEX
  8
Active
 10
7456.446000
 20
44303.888000
 30
0.0
  0
VERTEX
  8
Active
 10
6302.600000
 20
44303.888000
 30
0.0
  0
SEQEND
  8
Active
  0
POLYLINE
  8
Active
 66
       1
 70
       1
 10
0.0
 20
0.0
 30
0.0
  0
VERTEX
  8
Active
 10
7802.600000
 20
46380.812000
 30
0.0
  0
VERTEX
  8
Active
 10
8956.446000
 20
46380.812000
 30
0.0
  0
VERTEX
  8
Active
 10
8956.446000
 20
46150.042000
 30
0.0
  0
VERTEX
  8
Active
 10
8033.369000
 20
46150.042000
 30
0.0
  0
VERTEX
  8
Active
 10
8033.369000
 20
45457.735000
 30
0.0
  0
VERTEX
  8
Active
 10
8610.292000
 20
45457.735000
 30
0.0
  0
VERTEX
  8
Active
 10
8610.292000
 20
45226.965000
 30
0.0
  0
VERTEX
  8
Active
 10
8033.369000
 20
45226.965000
 30
0.0
  0
VERTEX
  8
Active
 10
8033.369000
 20
44534.658000
 30
0.0
  0
VERTEX
  8
Active
 10
8956.446000
 20
44534.658000
 30
0.0
  0
VERTEX
  8
Active
 10
8956.446000
 20
44303.888000
 30
0.0
  0
VERTEX
  8
Active
 10
7802.600000
 20
44303.888000
 30
0.0
  0
SEQEND
  8
Active
  0
POLYLINE
  8
Active
 66
       1
 70
       1
 10
0.0
 20
0.0
 30
0.0
  0
VERTEX
  8
Active
 10
9302.600000
 20
46150.042000
 30
0.0
  0
VERTEX
  8
Active
 10
9533.369000
 20
46380.812000
 30
0.0
  0
VERTEX
  8
Active
 10
10225.677000
 20
46380.812000
 30
0.0
  0
VERTEX
  8
Active
 10
10456.446000
 20
46150.042000
 30
0.0
  0
VERTEX
  8
Active
 10
10456.446000
 20
45803.888000
 30
0.0
  0
VERTEX
  8
Active
 10
10225.677000
 20
45803.888000
 30
0.0
  0
VERTEX
  8
Active
 10
10225.677000
 20
46034.658000
 30
0.0
  0
VERTEX
  8
Active
 10
10110.292000
 20
46150.042000
 30
0.0
  0
VERTEX
  8
Active
 10
9648.754000
 20
46150.042000
 30
0.0
  0
VERTEX
  8
Active
 10
9533.369000
 20
46034.658000
 30
0.0
  0
VERTEX
  8
Active
 10
9533.369000
 20
44650.042000
 30
0.0
  0
VERTEX
  8
Active
 10
9648.754000
 20
44534.658000
 30
0.0
  0
VERTEX
  8
Active
 10
10110.292000
 20
44534.658000
 30
0.0
  0
VERTEX
  8
Active
 10
10225.677000
 20
44650.042000
 30
0.0
  0
VERTEX
  8
Active
 10
10225.677000
 20
44880.812000
 30
0.0
  0
VERTEX
  8
Active
 10
10456.446000
 20
44880.812000
 30
0.0
  0
VERTEX
  8
Active
 10
10456.446000
 20
44534.658000
 30
0.0
  0
VERTEX
  8
Active
 10
10225.677000
 20
44303.888000
 30
0.0
  0
VERTEX
  8
Active
 10
9533.369000
 20
44303.888000
 30
0.0
  0
VERTEX
  8
Active
 10
9302.600000
 20
44534.658000
 30
0.0
  0
SEQEND
  8
Active
  0
POLYLINE
  8
Active
 66
       1
 70
       1
 10
0.0
 20
0.0
 30
0.0
  0
VERTEX
  8
Active
 10
10802.600000
 20
46380.812000
 30
0.0
  0
VERTEX
  8
Active
 10
11956.446000
 20
46380.812000
 30
0.0
  0
VERTEX
  8
Active
 10
11956.446000
 20
46150.042000
 30
0.0
  0
VERTEX
  8
Active
 10
11494.908000
 20
46150.042000
 30
0.0
  0
VERTEX
  8
Active
 10
11494.908000
 20
44303.888000
 30
0.0
  0
VERTEX
  8
Active
 10
11264.138000
 20
44303.888000
 30
0.0
  0
VERTEX
  8
Active
 10
11264.138000
 20
46150.042000
 30
0.0
  0
VERTEX
  8
Active
 10
10802.600000
 20
46150.042000
 30
0.0
  0
SEQEND
  8
Active
  0
POLYLINE
  8
Active
 66
       1
 70
       1
 10
0.0
 20
0.0
 30
0.0
  0
VERTEX
  8
Active
 10
12879.523000
 20
45226.965000
 30
0.0
  0
VERTEX
  8
Active
 10
13225.677000
 20
44765.427000
 30
0.0
  0
VERTEX
  8
Active
 10
13225.677000
 20
44303.888000
 30
0.0
  0
VERTEX
  8
Active
 10
13456.446000
 20
44303.888000
 30
0.0
  0
VERTEX
  8
Active
 10
13456.446000
 20
44880.812000
 30
0.0
  0
VERTEX
  8
Active
 10
13225.677000
 20
45226.965000
 30
0.0
  0
SEQEND
  8
Active
  0
POLYLINE
  8
Active
 66
       1
 70
       1
 10
0.0
 20
0.0
 30
0.0
  0
VERTEX
  8
Active
 10
12302.600000
 20
46380.812000
 30
0.0
  0
VERTEX
  8
Active
 10
12648.754000
 20
46380.812000
 30
0.0
  0
VERTEX
  8
Active
 10
12648.754000
 20
46150.042000
 30
0.0
  0
VERTEX
  8
Active
 10
12533.369000
 20
46034.658000
 30
0.0
  0
VERTEX
  8
Active
 10
12533.369000
 20
45457.735000
 30
0.0
  0
VERTEX
  8
Active
 10
13110.292000
 20
45457.735000
 30
0.0
  0
VERTEX
  8
Active
 10
13225.677000
 20
45573.119000
 30
0.0
  0
VERTEX
  8
Active
 10
13225.677000
 20
46034.658000
 30
0.0
  0
VERTEX
  8
Active
 10
13110.292000
 20
46150.042000
 30
0.0
  0
VERTEX
  8
Active
 10
12648.754000
 20
46150.042000
 30
0.0
  0
VERTEX
  8
Active
 10
12648.754000
 20
46380.812000
 30
0.0
  0
VERTEX
  8
Active
 10
13225.677000
 20
46380.812000
 30
0.0
  0
VERTEX
  8
Active
 10
13456.446000
 20
46150.042000
 30
0.0
  0
VERTEX
  8
Active
 10
13456.446000
 20
45457.735000
 30
0.0
  0
VERTEX
  8
Active
 10
13225.677000
 20
45226.965000
 30
0.0
  0
VERTEX
  8
Active
 10
12533.369000
 20
45226.965000
 30
0.0
  0
VERTEX
  8
Active
 10
12533.369000
 20
44303.888000
 30
0.0
  0
VERTEX
  8
Active
 10
12302.600000
 20
44303.888000
 30
0.0
  0
SEQEND
  8
Active
  0
POLYLINE
  8
Active
 66
       1
 70
       1
 10
0.0
 20
0.0
 30
0.0
  0
VERTEX
  8
Active
 10
13802.600000
 20
46150.042000
 30
0.0
  0
VERTEX
  8
Active
 10
14033.369000
 20
46380.812000
 30
0.0
  0
VERTEX
  8
Active
 10
14148.754000
 20
46380.812000
 30
0.0
  0
VERTEX
  8
Active
 10
14148.754000
 20
46150.042000
 30
0.0
  0
VERTEX
  8
Active
 10
14033.369000
 20
46034.658000
 30
0.0
  0
VERTEX
  8
Active
 10
14033.369000
 20
44650.042000
 30
0.0
  0
VERTEX
  8
Active
 10
14148.754000
 20
44534.658000
 30
0.0
  0
VERTEX
  8
Active
 10
14610.292000
 20
44534.658000
 30
0.0
  0
VERTEX
  8
Active
 10
14725.677000
 20
44650.042000
 30
0.0
  0
VERTEX
  8
Active
 10
14725.677000
 20
46034.658000
 30
0.0
  0
VERTEX
  8
Active
 10
14610.292000
 20
46150.042000
 30
0.0
  0
VERTEX
  8
Active
 10
14148.754000
 20
46150.042000
 30
0.0
  0
VERTEX
  8
Active
 10
14148.754000
 20
46380.812000
 30
0.0
  0
VERTEX
  8
Active
 10
14725.677000
 20
46380.812000
 30
0.0
  0
VERTEX
  8
Active
 10
14956.446000
 20
46150.042000
 30
0.0
  0
VERTEX
  8
Active
 10
14956.446000
 20
44534.658000
 30
0.0
  0
VERTEX
  8
Active
 10
14725.677000
 20
44303.888000
 30
0.0
  0
VERTEX
  8
Active
 10
14033.369000
 20
44303.888000
 30
0.0
  0
VERTEX
  8
Active
 10
13802.600000
 20
44534.658000
 30
0.0
  0
SEQEND
  8
Active
  0
POLYLINE
  8
Active
 66
       1
 70
       1
 10
0.0
 20
0.0
 30
0.0
  0
VERTEX
  8
Active
 10
15302.600000
 20
46150.042000
 30
0.0
  0
VERTEX
  8
Active
 10
15994.908000
 20
46150.042000
 30
0.0
  0
VERTEX
  8
Active
 10
16225.677000
 20
45803.888000
 30
0.0
  0
VERTEX
  8
Active
 10
16225.677000
 20
44880.812000
 30
0.0
  0
VERTEX
  8
Active
 10
15994.908000
 20
44534.658000
 30
0.0
  0
VERTEX
  8
Active
 10
15302.600000
 20
44534.658000
 30
0.0
  0
VERTEX
  8
Active
 10
15302.600000
 20
44303.888000
 30
0.0
  0
VERTEX
  8
Active
 10
16110.292000
 20
44303.888000
 30
0.0
  0
VERTEX
  8
Active
 10
16456.446000
 20
44765.427000
 30
0.0
  0
VERTEX
  8
Active
 10
16456.446000
 20
45919.273000
 30
0.0
  0
VERTEX
  8
Active
 10
16110.292000
 20
46380.812000
 30
0.0
  0
VERTEX
  8
Active
 10
15302.600000
 20
46380.812000
 30
0.0
  0
SEQEND
  8
Active
  0
POLYLINE
  8
Active
 66
       1
 70
       1
 10
0.0
 20
0.0
 30
0.0
  0
VERTEX
  8
Active
 10
16802.600000
 20
46380.812000
 30
0.0
  0
VERTEX
  8
Active
 10
17956.446000
 20
46380.812000
 30
0.0
  0
VERTEX
  8
Active
 10
17956.446000
 20
46150.042000
 30
0.0
  0
VERTEX
  8
Active
 10
17033.369000
 20
46150.042000
 30
0.0
  0
VERTEX
  8
Active
 10
17033.369000
 20
45457.735000
 30
0.0
  0
VERTEX
  8
Active
 10
17610.292000
 20
45457.735000
 30
0.0
  0
VERTEX
  8
Active
 10
17610.292000
 20
45226.965000
 30
0.0
  0
VERTEX
  8
Active
 10
17033.369000
 20
45226.965000
 30
0.0
  0
VERTEX
  8
Active
 10
17033.369000
 20
44534.658000
 30
0.0
  0
VERTEX
  8
Active
 10
17956.446000
 20
44534.658000
 30
0.0
  0
VERTEX
  8
Active
 10
17956.446000
 20
44303.888000
 30
0.0
  0
VERTEX
  8
Active
 10
16802.600000
 20
44303.888000
 30
0.0
  0
SEQEND
  8
Active
  0
POLYLINE
  8
Active
 66
       1
 70
       1
 10
0.0
 20
0.0
 30
0.0
  0
VERTEX
  8
Active
 10
-9848.865000
 20
-43822.112000
 30
0.0
  0
VERTEX
  8
Active
 10
-9618.096000
 20
-43822.112000
 30
0.0
  0
VERTEX
  8
Active
 10
-9618.096000
 20
-41745.188000
 30
0.0
  0
VERTEX
  8
Active
 10
-9848.865000
 20
-41745.188000
 30
0.0
  0
SEQEND
  8
Active
  0
POLYLINE
  8
Active
 66
       1
 70
       1
 10
0.0
 20
0.0
 30
0.0
  0
VERTEX
  8
Active
 10
3651.135000
 20
-42899.035000
 30
0.0
  0
VERTEX
  8
Active
 10
4804.981000
 20
-42899.035000
 30
0.0
  0
VERTEX
  8
Active
 10
4804.981000
 20
-42668.265000
 30
0.0
  0
VERTEX
  8
Active
 10
3651.135000
 20
-42668.265000
 30
0.0
  0
SEQEND
  8
Active
  0
POLYLINE
  8
Active
 66
       1
 70
       1
 10
0.0
 20
0.0
 30
0.0
  0
VERTEX
  8
Active
 10
-14466.631000
 20
44996.196000
 30
0.0
  0
VERTEX
  8
Active
 10
-13312.785000
 20
44996.196000
 30
0.0
  0
VERTEX
  8
Active
 10
-13312.785000
 20
45226.965000
 30
0.0
  0
VERTEX
  8
Active
 10
-14466.631000
 20
45226.965000
 30
0.0
  0
SEQEND
  8
Active
  0
POLYLINE
  8
Active
 66
       1
 70
       1
 10
0.0
 20
0.0
 30
0.0
  0
VERTEX
  8
Active
 10
15302.600000
 20
44303.888000
 30
0.0
  0
VERTEX
  8
Active
 10
15533.369000
 20
44303.888000
 30
0.0
  0
VERTEX
  8
Active
 10
15533.369000
 20
46380.812000
 30
0.0
  0
VERTEX
  8
Active
 10
15302.600000
 20
46380.812000
 30
0.0
  0
SEQEND
  8
Active
  0
INSERT
  8
0
  2
SilverRefElectrode
 10
-22860.000000
 20
2000.000000
 30
0.0
  0
INSERT
  8
0
  2
SilverRefElectrode
 10
34290.000000
 20
-14510.000000
 30
0.0
  0
INSERT
  8
0
  2
SilverRefElectrode
 10
-22860.000000
 20
35020.000000
 30
0.0
  0
INSERT
  8
0
  2
SilverRefElectrode
 10
22860.000000
 20
-14510.000000
 30
0.0
  0
INSERT
  8
0
  2
SilverRefElectrode
 10
11430.000000
 20
18510.000000
 30
0.0
  0
INSERT
  8
0
  2
SilverRefElectrode
 10
11430.000000
 20
35020.000000
 30
0.0
  0
INSERT
  8
0
  2
SilverRefElectrode
 10
11430.000000
 20
2000.000000
 30
0.0
  0
INSERT
  8
0
  2
SilverRefElectrode
 10
34290.000000
 20
18510.000000
 30
0.0
  0
INSERT
  8
0
  2
SilverRefElectrode
 10
22860.000000
 20
35020.000000
 30
0.0
  0
INSERT
  8
0
  2
SilverRefElectrode
 10
0.0
 20
35020.000000
 30
0.0
  0
INSERT
  8
0
  2
SilverRefElectrode
 10
11430.000000
 20
-14510.000000
 30
0.0
  0
INSERT
  8
0
  2
SilverRefElectrode
 10
0.0
 20
18510.000000
 30
0.0
  0
INSERT
  8
0
  2
SilverRefElectrode
 10
-11430.000000
 20
-31020.000000
 30
0.0
  0
INSERT
  8
0
  2
silvermark
 10
-45000.000000
 20
0.0
 30
0.0
  0
INSERT
  8
0
  2
SilverRefElectrode
 10
-34290.000000
 20
2000.000000
 30
0.0
  0
INSERT
  8
0
  2
SilverRefElectrode
 10
0.0
 20
-31020.000000
 30
0.0
  0
INSERT
  8
0
  2
SilverRefElectrode
 10
-11430.000000
 20
-14510.000000
 30
0.0
  0
INSERT
  8
0
  2
silvermark
 10
45000.000000
 20
0.0
 30
0.0
  0
INSERT
  8
0
  2
SilverRefElectrode
 10
0.0
 20
2000.000000
 30
0.0
  0
INSERT
  8
0
  2
SilverRefElectrode
 10
-22860.000000
 20
18510.000000
 30
0.0
  0
INSERT
  8
0
  2
SilverRefElectrode
 10
-11430.000000
 20
18510.000000
 30
0.0
  0
INSERT
  8
0
  2
SilverRefElectrode
 10
-11430.000000
 20
2000.000000
 30
0.0
  0
INSERT
  8
0
  2
SilverRefElectrode
 10
-34290.000000
 20
18510.000000
 30
0.0
  0
INSERT
  8
0
  2
SilverRefElectrode
 10
-22860.000000
 20
-14510.000000
 30
0.0
  0
INSERT
  8
0
  2
SilverRefElectrode
 10
0.0
 20
-14510.000000
 30
0.0
  0
INSERT
  8
0
  2
SilverRefElectrode
 10
34290.000000
 20
2000.000000
 30
0.0
  0
INSERT
  8
0
  2
SilverRefElectrode
 10
-11430.000000
 20
35020.000000
 30
0.0
  0
INSERT
  8
0
  2
SilverRefElectrode
 10
-34290.000000
 20
-14510.000000
 30
0.0
  0
INSERT
  8
0
  2
SilverRefElectrode
 10
11430.000000
 20
-31020.000000
 30
0.0
  0
INSERT
  8
0
  2
SilverRefElectrode
 10
22860.000000
 20
-31020.000000
 30
0.0
  0
INSERT
  8
0
  2
SilverRefElectrode
 10
-22860.000000
 20
-31020.000000
 30
0.0
  0
INSERT
  8
0
  2
SilverRefElectrode
 10
22860.000000
 20
18510.000000
 30
0.0
  0
INSERT
  8
0
  2
SilverRefElectrode
 10
22860.000000
 20
2000.000000
 30
0.0
  0
ENDSEC
  0
EOF
