  0
SECTION
  2
HEADER
  9
$ACADVER
  1
AC1009
999
L-Edit DXF writer version 2.2
  9
$PLINEWID
 40
10.000000
  9
$EXTMIN
 10
-8550.000000
 20
-8785.000000
 30
0.0
  9
$EXTMAX
 10
8550.000000
 20
8785.000000
 30
0.0
  0
ENDSEC
  0
SECTION
  2
TABLES
  0
TABLE
  2
LTYPE
 70
       1
  0
LTYPE
  2
CONTINUOUS
 70
      64
  3
CONTINUOUS
 72
      65
 73
       0
 40
0.0
  0
ENDTAB
  0
TABLE
  2
LAYER
 70
       6
  0
LAYER
  2
0
 70
      64
  6
CONTINUOUS
 62
       7
  0
LAYER
  2
Icon_Outline
 70
       0
  6
CONTINUOUS
 62
     254
  0
LAYER
  2
Error_Layer
 70
       0
  6
CONTINUOUS
 62
       7
  0
LAYER
  2
New_Layer
 70
       0
  6
CONTINUOUS
 62
      20
  0
LAYER
  2
New_Layer_0
 70
       0
  6
CONTINUOUS
 62
       7
  0
LAYER
  2
New_Layer_1
 70
       0
  6
CONTINUOUS
 62
       7
  0
ENDTAB
  0
ENDSEC
  0
SECTION
  2
BLOCKS
  0
ENDSEC
  0
SECTION
  2
ENTITIES
  0
POLYLINE
  8
New_Layer
 66
       1
 70
       1
 10
0.0
 20
0.0
 30
0.0
  0
VERTEX
  8
New_Layer
 10
1350.000000
 20
0.0
 30
0.0
  0
VERTEX
  8
New_Layer
 10
1350.250000
 20
-6.250000
 30
0.0
  0
VERTEX
  8
New_Layer
 10
1350.500000
 20
-12.000000
 30
0.0
  0
VERTEX
  8
New_Layer
 10
1351.250000
 20
-18.250000
 30
0.0
  0
VERTEX
  8
New_Layer
 10
1352.000000
 20
-24.250000
 30
0.0
  0
VERTEX
  8
New_Layer
 10
1353.250000
 20
-30.250000
 30
0.0
  0
VERTEX
  8
New_Layer
 10
1354.500000
 20
-36.000000
 30
0.0
  0
VERTEX
  8
New_Layer
 10
1356.000000
 20
-41.750000
 30
0.0
  0
VERTEX
  8
New_Layer
 10
1357.750000
 20
-47.500000
 30
0.0
  0
VERTEX
  8
New_Layer
 10
1359.750000
 20
-53.000000
 30
0.0
  0
VERTEX
  8
New_Layer
 10
1362.000000
 20
-58.750000
 30
0.0
  0
VERTEX
  8
New_Layer
 10
1364.500000
 20
-64.250000
 30
0.0
  0
VERTEX
  8
New_Layer
 10
1367.250000
 20
-69.750000
 30
0.0
  0
VERTEX
  8
New_Layer
 10
1370.110000
 20
-74.994000
 30
0.0
  0
VERTEX
  8
New_Layer
 10
1370.097000
 20
-75.002000
 30
0.0
  0
VERTEX
  8
New_Layer
 10
5370.097000
 20
-7003.002000
 30
0.0
  0
VERTEX
  8
New_Layer
 10
5370.110000
 20
-7002.994000
 30
0.0
  0
VERTEX
  8
New_Layer
 10
5370.250000
 20
-7003.250000
 30
0.0
  0
VERTEX
  8
New_Layer
 10
5373.250000
 20
-7008.000000
 30
0.0
  0
VERTEX
  8
New_Layer
 10
5376.500000
 20
-7013.000000
 30
0.0
  0
VERTEX
  8
New_Layer
 10
5380.000000
 20
-7018.000000
 30
0.0
  0
VERTEX
  8
New_Layer
 10
5383.750000
 20
-7022.750000
 30
0.0
  0
VERTEX
  8
New_Layer
 10
5391.750000
 20
-7031.750000
 30
0.0
  0
VERTEX
  8
New_Layer
 10
5396.250000
 20
-7036.250000
 30
0.0
  0
VERTEX
  8
New_Layer
 10
5405.250000
 20
-7044.250000
 30
0.0
  0
VERTEX
  8
New_Layer
 10
5410.000000
 20
-7048.000000
 30
0.0
  0
VERTEX
  8
New_Layer
 10
5415.000000
 20
-7051.500000
 30
0.0
  0
VERTEX
  8
New_Layer
 10
5420.000000
 20
-7054.750000
 30
0.0
  0
VERTEX
  8
New_Layer
 10
5424.750000
 20
-7057.750000
 30
0.0
  0
VERTEX
  8
New_Layer
 10
5430.250000
 20
-7060.750000
 30
0.0
  0
VERTEX
  8
New_Layer
 10
5435.750000
 20
-7063.500000
 30
0.0
  0
VERTEX
  8
New_Layer
 10
5441.250000
 20
-7066.000000
 30
0.0
  0
VERTEX
  8
New_Layer
 10
5447.000000
 20
-7068.250000
 30
0.0
  0
VERTEX
  8
New_Layer
 10
5452.500000
 20
-7070.250000
 30
0.0
  0
VERTEX
  8
New_Layer
 10
5458.250000
 20
-7072.000000
 30
0.0
  0
VERTEX
  8
New_Layer
 10
5464.000000
 20
-7073.500000
 30
0.0
  0
VERTEX
  8
New_Layer
 10
5469.750000
 20
-7074.750000
 30
0.0
  0
VERTEX
  8
New_Layer
 10
5475.750000
 20
-7076.000000
 30
0.0
  0
VERTEX
  8
New_Layer
 10
5481.750000
 20
-7076.750000
 30
0.0
  0
VERTEX
  8
New_Layer
 10
5488.000000
 20
-7077.500000
 30
0.0
  0
VERTEX
  8
New_Layer
 10
5493.750000
 20
-7077.750000
 30
0.0
  0
VERTEX
  8
New_Layer
 10
5500.000000
 20
-7078.000000
 30
0.0
  0
VERTEX
  8
New_Layer
 10
5506.250000
 20
-7077.750000
 30
0.0
  0
VERTEX
  8
New_Layer
 10
5512.000000
 20
-7077.500000
 30
0.0
  0
VERTEX
  8
New_Layer
 10
5518.250000
 20
-7076.750000
 30
0.0
  0
VERTEX
  8
New_Layer
 10
5524.250000
 20
-7076.000000
 30
0.0
  0
VERTEX
  8
New_Layer
 10
5530.250000
 20
-7074.750000
 30
0.0
  0
VERTEX
  8
New_Layer
 10
5536.000000
 20
-7073.500000
 30
0.0
  0
VERTEX
  8
New_Layer
 10
5541.750000
 20
-7072.000000
 30
0.0
  0
VERTEX
  8
New_Layer
 10
5547.500000
 20
-7070.250000
 30
0.0
  0
VERTEX
  8
New_Layer
 10
5553.000000
 20
-7068.250000
 30
0.0
  0
VERTEX
  8
New_Layer
 10
5558.750000
 20
-7066.000000
 30
0.0
  0
VERTEX
  8
New_Layer
 10
5564.250000
 20
-7063.500000
 30
0.0
  0
VERTEX
  8
New_Layer
 10
5569.750000
 20
-7060.750000
 30
0.0
  0
VERTEX
  8
New_Layer
 10
5574.750000
 20
-7058.000000
 30
0.0
  0
VERTEX
  8
New_Layer
 10
5580.000000
 20
-7054.750000
 30
0.0
  0
VERTEX
  8
New_Layer
 10
5585.000000
 20
-7051.500000
 30
0.0
  0
VERTEX
  8
New_Layer
 10
5590.000000
 20
-7048.000000
 30
0.0
  0
VERTEX
  8
New_Layer
 10
5594.750000
 20
-7044.250000
 30
0.0
  0
VERTEX
  8
New_Layer
 10
5603.750000
 20
-7036.250000
 30
0.0
  0
VERTEX
  8
New_Layer
 10
5608.250000
 20
-7031.750000
 30
0.0
  0
VERTEX
  8
New_Layer
 10
5616.250000
 20
-7022.750000
 30
0.0
  0
VERTEX
  8
New_Layer
 10
5620.000000
 20
-7018.000000
 30
0.0
  0
VERTEX
  8
New_Layer
 10
5623.500000
 20
-7013.000000
 30
0.0
  0
VERTEX
  8
New_Layer
 10
5626.750000
 20
-7008.000000
 30
0.0
  0
VERTEX
  8
New_Layer
 10
5629.750000
 20
-7003.250000
 30
0.0
  0
VERTEX
  8
New_Layer
 10
5632.750000
 20
-6997.750000
 30
0.0
  0
VERTEX
  8
New_Layer
 10
5635.500000
 20
-6992.250000
 30
0.0
  0
VERTEX
  8
New_Layer
 10
5638.000000
 20
-6986.750000
 30
0.0
  0
VERTEX
  8
New_Layer
 10
5640.250000
 20
-6981.000000
 30
0.0
  0
VERTEX
  8
New_Layer
 10
5642.250000
 20
-6975.500000
 30
0.0
  0
VERTEX
  8
New_Layer
 10
5644.000000
 20
-6969.750000
 30
0.0
  0
VERTEX
  8
New_Layer
 10
5645.500000
 20
-6964.000000
 30
0.0
  0
VERTEX
  8
New_Layer
 10
5646.750000
 20
-6958.250000
 30
0.0
  0
VERTEX
  8
New_Layer
 10
5648.000000
 20
-6952.250000
 30
0.0
  0
VERTEX
  8
New_Layer
 10
5648.750000
 20
-6946.250000
 30
0.0
  0
VERTEX
  8
New_Layer
 10
5649.500000
 20
-6940.000000
 30
0.0
  0
VERTEX
  8
New_Layer
 10
5649.750000
 20
-6934.250000
 30
0.0
  0
VERTEX
  8
New_Layer
 10
5650.000000
 20
-6928.000000
 30
0.0
  0
VERTEX
  8
New_Layer
 10
5649.750000
 20
-6921.750000
 30
0.0
  0
VERTEX
  8
New_Layer
 10
5649.500000
 20
-6916.000000
 30
0.0
  0
VERTEX
  8
New_Layer
 10
5648.750000
 20
-6909.750000
 30
0.0
  0
VERTEX
  8
New_Layer
 10
5648.000000
 20
-6903.750000
 30
0.0
  0
VERTEX
  8
New_Layer
 10
5646.750000
 20
-6897.750000
 30
0.0
  0
VERTEX
  8
New_Layer
 10
5645.500000
 20
-6892.000000
 30
0.0
  0
VERTEX
  8
New_Layer
 10
5644.000000
 20
-6886.250000
 30
0.0
  0
VERTEX
  8
New_Layer
 10
5642.250000
 20
-6880.500000
 30
0.0
  0
VERTEX
  8
New_Layer
 10
5640.250000
 20
-6875.000000
 30
0.0
  0
VERTEX
  8
New_Layer
 10
5638.000000
 20
-6869.250000
 30
0.0
  0
VERTEX
  8
New_Layer
 10
5635.500000
 20
-6863.750000
 30
0.0
  0
VERTEX
  8
New_Layer
 10
5632.750000
 20
-6858.250000
 30
0.0
  0
VERTEX
  8
New_Layer
 10
5630.000000
 20
-6853.250000
 30
0.0
  0
VERTEX
  8
New_Layer
 10
5629.859000
 20
-6853.023000
 30
0.0
  0
VERTEX
  8
New_Layer
 10
5629.903000
 20
-6852.998000
 30
0.0
  0
VERTEX
  8
New_Layer
 10
1629.903000
 20
75.002000
 30
0.0
  0
VERTEX
  8
New_Layer
 10
1629.859000
 20
74.977000
 30
0.0
  0
VERTEX
  8
New_Layer
 10
1626.750000
 20
80.000000
 30
0.0
  0
VERTEX
  8
New_Layer
 10
1623.500000
 20
85.000000
 30
0.0
  0
VERTEX
  8
New_Layer
 10
1620.000000
 20
90.000000
 30
0.0
  0
VERTEX
  8
New_Layer
 10
1616.250000
 20
94.750000
 30
0.0
  0
VERTEX
  8
New_Layer
 10
1608.250000
 20
103.750000
 30
0.0
  0
VERTEX
  8
New_Layer
 10
1603.750000
 20
108.250000
 30
0.0
  0
VERTEX
  8
New_Layer
 10
1594.750000
 20
116.250000
 30
0.0
  0
VERTEX
  8
New_Layer
 10
1590.000000
 20
120.000000
 30
0.0
  0
VERTEX
  8
New_Layer
 10
1585.000000
 20
123.500000
 30
0.0
  0
VERTEX
  8
New_Layer
 10
1580.000000
 20
126.750000
 30
0.0
  0
VERTEX
  8
New_Layer
 10
1574.750000
 20
130.000000
 30
0.0
  0
VERTEX
  8
New_Layer
 10
1569.750000
 20
132.750000
 30
0.0
  0
VERTEX
  8
New_Layer
 10
1564.250000
 20
135.500000
 30
0.0
  0
VERTEX
  8
New_Layer
 10
1558.750000
 20
138.000000
 30
0.0
  0
VERTEX
  8
New_Layer
 10
1553.000000
 20
140.250000
 30
0.0
  0
VERTEX
  8
New_Layer
 10
1547.500000
 20
142.250000
 30
0.0
  0
VERTEX
  8
New_Layer
 10
1541.750000
 20
144.000000
 30
0.0
  0
VERTEX
  8
New_Layer
 10
1536.000000
 20
145.500000
 30
0.0
  0
VERTEX
  8
New_Layer
 10
1530.250000
 20
146.750000
 30
0.0
  0
VERTEX
  8
New_Layer
 10
1524.250000
 20
148.000000
 30
0.0
  0
VERTEX
  8
New_Layer
 10
1518.250000
 20
148.750000
 30
0.0
  0
VERTEX
  8
New_Layer
 10
1512.000000
 20
149.500000
 30
0.0
  0
VERTEX
  8
New_Layer
 10
1506.250000
 20
149.750000
 30
0.0
  0
VERTEX
  8
New_Layer
 10
1500.000000
 20
150.000000
 30
0.0
  0
VERTEX
  8
New_Layer
 10
1493.750000
 20
149.750000
 30
0.0
  0
VERTEX
  8
New_Layer
 10
1488.000000
 20
149.500000
 30
0.0
  0
VERTEX
  8
New_Layer
 10
1481.750000
 20
148.750000
 30
0.0
  0
VERTEX
  8
New_Layer
 10
1475.750000
 20
148.000000
 30
0.0
  0
VERTEX
  8
New_Layer
 10
1469.750000
 20
146.750000
 30
0.0
  0
VERTEX
  8
New_Layer
 10
1464.000000
 20
145.500000
 30
0.0
  0
VERTEX
  8
New_Layer
 10
1458.250000
 20
144.000000
 30
0.0
  0
VERTEX
  8
New_Layer
 10
1452.500000
 20
142.250000
 30
0.0
  0
VERTEX
  8
New_Layer
 10
1447.000000
 20
140.250000
 30
0.0
  0
VERTEX
  8
New_Layer
 10
1441.250000
 20
138.000000
 30
0.0
  0
VERTEX
  8
New_Layer
 10
1435.750000
 20
135.500000
 30
0.0
  0
VERTEX
  8
New_Layer
 10
1430.250000
 20
132.750000
 30
0.0
  0
VERTEX
  8
New_Layer
 10
1424.750000
 20
129.750000
 30
0.0
  0
VERTEX
  8
New_Layer
 10
1420.000000
 20
126.750000
 30
0.0
  0
VERTEX
  8
New_Layer
 10
1415.000000
 20
123.500000
 30
0.0
  0
VERTEX
  8
New_Layer
 10
1410.000000
 20
120.000000
 30
0.0
  0
VERTEX
  8
New_Layer
 10
1405.250000
 20
116.250000
 30
0.0
  0
VERTEX
  8
New_Layer
 10
1396.250000
 20
108.250000
 30
0.0
  0
VERTEX
  8
New_Layer
 10
1391.750000
 20
103.750000
 30
0.0
  0
VERTEX
  8
New_Layer
 10
1383.750000
 20
94.750000
 30
0.0
  0
VERTEX
  8
New_Layer
 10
1380.000000
 20
90.000000
 30
0.0
  0
VERTEX
  8
New_Layer
 10
1376.500000
 20
85.000000
 30
0.0
  0
VERTEX
  8
New_Layer
 10
1373.250000
 20
80.000000
 30
0.0
  0
VERTEX
  8
New_Layer
 10
1370.000000
 20
74.750000
 30
0.0
  0
VERTEX
  8
New_Layer
 10
1367.250000
 20
69.750000
 30
0.0
  0
VERTEX
  8
New_Layer
 10
1364.500000
 20
64.250000
 30
0.0
  0
VERTEX
  8
New_Layer
 10
1362.000000
 20
58.750000
 30
0.0
  0
VERTEX
  8
New_Layer
 10
1359.750000
 20
53.000000
 30
0.0
  0
VERTEX
  8
New_Layer
 10
1357.750000
 20
47.500000
 30
0.0
  0
VERTEX
  8
New_Layer
 10
1356.000000
 20
41.750000
 30
0.0
  0
VERTEX
  8
New_Layer
 10
1354.500000
 20
36.000000
 30
0.0
  0
VERTEX
  8
New_Layer
 10
1353.250000
 20
30.250000
 30
0.0
  0
VERTEX
  8
New_Layer
 10
1352.000000
 20
24.250000
 30
0.0
  0
VERTEX
  8
New_Layer
 10
1351.250000
 20
18.250000
 30
0.0
  0
VERTEX
  8
New_Layer
 10
1350.500000
 20
12.000000
 30
0.0
  0
VERTEX
  8
New_Layer
 10
1350.250000
 20
6.250000
 30
0.0
  0
SEQEND
  8
New_Layer
  0
POLYLINE
  8
New_Layer
 66
       1
 70
       1
 10
0.0
 20
0.0
 30
0.0
  0
VERTEX
  8
New_Layer
 10
350.000000
 20
0.0
 30
0.0
  0
VERTEX
  8
New_Layer
 10
350.250000
 20
-6.250000
 30
0.0
  0
VERTEX
  8
New_Layer
 10
350.500000
 20
-12.000000
 30
0.0
  0
VERTEX
  8
New_Layer
 10
351.250000
 20
-18.250000
 30
0.0
  0
VERTEX
  8
New_Layer
 10
352.000000
 20
-24.250000
 30
0.0
  0
VERTEX
  8
New_Layer
 10
353.250000
 20
-30.250000
 30
0.0
  0
VERTEX
  8
New_Layer
 10
354.500000
 20
-36.000000
 30
0.0
  0
VERTEX
  8
New_Layer
 10
356.000000
 20
-41.750000
 30
0.0
  0
VERTEX
  8
New_Layer
 10
357.750000
 20
-47.500000
 30
0.0
  0
VERTEX
  8
New_Layer
 10
359.750000
 20
-53.000000
 30
0.0
  0
VERTEX
  8
New_Layer
 10
362.000000
 20
-58.750000
 30
0.0
  0
VERTEX
  8
New_Layer
 10
364.500000
 20
-64.250000
 30
0.0
  0
VERTEX
  8
New_Layer
 10
367.250000
 20
-69.750000
 30
0.0
  0
VERTEX
  8
New_Layer
 10
370.250000
 20
-75.250000
 30
0.0
  0
VERTEX
  8
New_Layer
 10
373.250000
 20
-80.000000
 30
0.0
  0
VERTEX
  8
New_Layer
 10
376.500000
 20
-85.000000
 30
0.0
  0
VERTEX
  8
New_Layer
 10
380.000000
 20
-90.000000
 30
0.0
  0
VERTEX
  8
New_Layer
 10
383.750000
 20
-94.750000
 30
0.0
  0
VERTEX
  8
New_Layer
 10
391.750000
 20
-103.750000
 30
0.0
  0
VERTEX
  8
New_Layer
 10
396.250000
 20
-108.250000
 30
0.0
  0
VERTEX
  8
New_Layer
 10
405.250000
 20
-116.250000
 30
0.0
  0
VERTEX
  8
New_Layer
 10
410.000000
 20
-120.000000
 30
0.0
  0
VERTEX
  8
New_Layer
 10
415.000000
 20
-123.500000
 30
0.0
  0
VERTEX
  8
New_Layer
 10
420.000000
 20
-126.750000
 30
0.0
  0
VERTEX
  8
New_Layer
 10
424.750000
 20
-129.750000
 30
0.0
  0
VERTEX
  8
New_Layer
 10
430.250000
 20
-132.750000
 30
0.0
  0
VERTEX
  8
New_Layer
 10
435.750000
 20
-135.500000
 30
0.0
  0
VERTEX
  8
New_Layer
 10
441.250000
 20
-138.000000
 30
0.0
  0
VERTEX
  8
New_Layer
 10
447.000000
 20
-140.250000
 30
0.0
  0
VERTEX
  8
New_Layer
 10
452.500000
 20
-142.250000
 30
0.0
  0
VERTEX
  8
New_Layer
 10
458.250000
 20
-144.000000
 30
0.0
  0
VERTEX
  8
New_Layer
 10
464.000000
 20
-145.500000
 30
0.0
  0
VERTEX
  8
New_Layer
 10
469.750000
 20
-146.750000
 30
0.0
  0
VERTEX
  8
New_Layer
 10
475.750000
 20
-148.000000
 30
0.0
  0
VERTEX
  8
New_Layer
 10
481.750000
 20
-148.750000
 30
0.0
  0
VERTEX
  8
New_Layer
 10
488.000000
 20
-149.500000
 30
0.0
  0
VERTEX
  8
New_Layer
 10
493.750000
 20
-149.750000
 30
0.0
  0
VERTEX
  8
New_Layer
 10
500.000000
 20
-150.000000
 30
0.0
  0
VERTEX
  8
New_Layer
 10
8400.000000
 20
-150.000000
 30
0.0
  0
VERTEX
  8
New_Layer
 10
8406.250000
 20
-149.750000
 30
0.0
  0
VERTEX
  8
New_Layer
 10
8412.000000
 20
-149.500000
 30
0.0
  0
VERTEX
  8
New_Layer
 10
8418.250000
 20
-148.750000
 30
0.0
  0
VERTEX
  8
New_Layer
 10
8424.250000
 20
-148.000000
 30
0.0
  0
VERTEX
  8
New_Layer
 10
8430.250000
 20
-146.750000
 30
0.0
  0
VERTEX
  8
New_Layer
 10
8436.000000
 20
-145.500000
 30
0.0
  0
VERTEX
  8
New_Layer
 10
8441.750000
 20
-144.000000
 30
0.0
  0
VERTEX
  8
New_Layer
 10
8447.500000
 20
-142.250000
 30
0.0
  0
VERTEX
  8
New_Layer
 10
8453.000000
 20
-140.250000
 30
0.0
  0
VERTEX
  8
New_Layer
 10
8458.750000
 20
-138.000000
 30
0.0
  0
VERTEX
  8
New_Layer
 10
8464.250000
 20
-135.500000
 30
0.0
  0
VERTEX
  8
New_Layer
 10
8469.750000
 20
-132.750000
 30
0.0
  0
VERTEX
  8
New_Layer
 10
8474.750000
 20
-130.000000
 30
0.0
  0
VERTEX
  8
New_Layer
 10
8480.000000
 20
-126.750000
 30
0.0
  0
VERTEX
  8
New_Layer
 10
8485.000000
 20
-123.500000
 30
0.0
  0
VERTEX
  8
New_Layer
 10
8490.000000
 20
-120.000000
 30
0.0
  0
VERTEX
  8
New_Layer
 10
8494.750000
 20
-116.250000
 30
0.0
  0
VERTEX
  8
New_Layer
 10
8503.750000
 20
-108.250000
 30
0.0
  0
VERTEX
  8
New_Layer
 10
8508.250000
 20
-103.750000
 30
0.0
  0
VERTEX
  8
New_Layer
 10
8516.250000
 20
-94.750000
 30
0.0
  0
VERTEX
  8
New_Layer
 10
8520.000000
 20
-90.000000
 30
0.0
  0
VERTEX
  8
New_Layer
 10
8523.500000
 20
-85.000000
 30
0.0
  0
VERTEX
  8
New_Layer
 10
8526.750000
 20
-80.000000
 30
0.0
  0
VERTEX
  8
New_Layer
 10
8529.750000
 20
-75.250000
 30
0.0
  0
VERTEX
  8
New_Layer
 10
8532.750000
 20
-69.750000
 30
0.0
  0
VERTEX
  8
New_Layer
 10
8535.500000
 20
-64.250000
 30
0.0
  0
VERTEX
  8
New_Layer
 10
8538.000000
 20
-58.750000
 30
0.0
  0
VERTEX
  8
New_Layer
 10
8540.250000
 20
-53.000000
 30
0.0
  0
VERTEX
  8
New_Layer
 10
8542.250000
 20
-47.500000
 30
0.0
  0
VERTEX
  8
New_Layer
 10
8544.000000
 20
-41.750000
 30
0.0
  0
VERTEX
  8
New_Layer
 10
8545.500000
 20
-36.000000
 30
0.0
  0
VERTEX
  8
New_Layer
 10
8546.750000
 20
-30.250000
 30
0.0
  0
VERTEX
  8
New_Layer
 10
8548.000000
 20
-24.250000
 30
0.0
  0
VERTEX
  8
New_Layer
 10
8548.750000
 20
-18.250000
 30
0.0
  0
VERTEX
  8
New_Layer
 10
8549.500000
 20
-12.000000
 30
0.0
  0
VERTEX
  8
New_Layer
 10
8549.750000
 20
-6.250000
 30
0.0
  0
VERTEX
  8
New_Layer
 10
8550.000000
 20
0.0
 30
0.0
  0
VERTEX
  8
New_Layer
 10
8549.750000
 20
6.250000
 30
0.0
  0
VERTEX
  8
New_Layer
 10
8549.500000
 20
12.000000
 30
0.0
  0
VERTEX
  8
New_Layer
 10
8548.750000
 20
18.250000
 30
0.0
  0
VERTEX
  8
New_Layer
 10
8548.000000
 20
24.250000
 30
0.0
  0
VERTEX
  8
New_Layer
 10
8546.750000
 20
30.250000
 30
0.0
  0
VERTEX
  8
New_Layer
 10
8545.500000
 20
36.000000
 30
0.0
  0
VERTEX
  8
New_Layer
 10
8544.000000
 20
41.750000
 30
0.0
  0
VERTEX
  8
New_Layer
 10
8542.250000
 20
47.500000
 30
0.0
  0
VERTEX
  8
New_Layer
 10
8540.250000
 20
53.000000
 30
0.0
  0
VERTEX
  8
New_Layer
 10
8538.000000
 20
58.750000
 30
0.0
  0
VERTEX
  8
New_Layer
 10
8535.500000
 20
64.250000
 30
0.0
  0
VERTEX
  8
New_Layer
 10
8532.750000
 20
69.750000
 30
0.0
  0
VERTEX
  8
New_Layer
 10
8530.000000
 20
74.750000
 30
0.0
  0
VERTEX
  8
New_Layer
 10
8526.750000
 20
80.000000
 30
0.0
  0
VERTEX
  8
New_Layer
 10
8523.500000
 20
85.000000
 30
0.0
  0
VERTEX
  8
New_Layer
 10
8520.000000
 20
90.000000
 30
0.0
  0
VERTEX
  8
New_Layer
 10
8516.250000
 20
94.750000
 30
0.0
  0
VERTEX
  8
New_Layer
 10
8508.250000
 20
103.750000
 30
0.0
  0
VERTEX
  8
New_Layer
 10
8503.750000
 20
108.250000
 30
0.0
  0
VERTEX
  8
New_Layer
 10
8494.750000
 20
116.250000
 30
0.0
  0
VERTEX
  8
New_Layer
 10
8490.000000
 20
120.000000
 30
0.0
  0
VERTEX
  8
New_Layer
 10
8485.000000
 20
123.500000
 30
0.0
  0
VERTEX
  8
New_Layer
 10
8480.000000
 20
126.750000
 30
0.0
  0
VERTEX
  8
New_Layer
 10
8474.750000
 20
130.000000
 30
0.0
  0
VERTEX
  8
New_Layer
 10
8469.750000
 20
132.750000
 30
0.0
  0
VERTEX
  8
New_Layer
 10
8464.250000
 20
135.500000
 30
0.0
  0
VERTEX
  8
New_Layer
 10
8458.750000
 20
138.000000
 30
0.0
  0
VERTEX
  8
New_Layer
 10
8453.000000
 20
140.250000
 30
0.0
  0
VERTEX
  8
New_Layer
 10
8447.500000
 20
142.250000
 30
0.0
  0
VERTEX
  8
New_Layer
 10
8441.750000
 20
144.000000
 30
0.0
  0
VERTEX
  8
New_Layer
 10
8436.000000
 20
145.500000
 30
0.0
  0
VERTEX
  8
New_Layer
 10
8430.250000
 20
146.750000
 30
0.0
  0
VERTEX
  8
New_Layer
 10
8424.250000
 20
148.000000
 30
0.0
  0
VERTEX
  8
New_Layer
 10
8418.250000
 20
148.750000
 30
0.0
  0
VERTEX
  8
New_Layer
 10
8412.000000
 20
149.500000
 30
0.0
  0
VERTEX
  8
New_Layer
 10
8406.250000
 20
149.750000
 30
0.0
  0
VERTEX
  8
New_Layer
 10
8400.000000
 20
150.000000
 30
0.0
  0
VERTEX
  8
New_Layer
 10
500.000000
 20
150.000000
 30
0.0
  0
VERTEX
  8
New_Layer
 10
493.750000
 20
149.750000
 30
0.0
  0
VERTEX
  8
New_Layer
 10
488.000000
 20
149.500000
 30
0.0
  0
VERTEX
  8
New_Layer
 10
481.750000
 20
148.750000
 30
0.0
  0
VERTEX
  8
New_Layer
 10
475.750000
 20
148.000000
 30
0.0
  0
VERTEX
  8
New_Layer
 10
469.750000
 20
146.750000
 30
0.0
  0
VERTEX
  8
New_Layer
 10
464.000000
 20
145.500000
 30
0.0
  0
VERTEX
  8
New_Layer
 10
458.250000
 20
144.000000
 30
0.0
  0
VERTEX
  8
New_Layer
 10
452.500000
 20
142.250000
 30
0.0
  0
VERTEX
  8
New_Layer
 10
447.000000
 20
140.250000
 30
0.0
  0
VERTEX
  8
New_Layer
 10
441.250000
 20
138.000000
 30
0.0
  0
VERTEX
  8
New_Layer
 10
435.750000
 20
135.500000
 30
0.0
  0
VERTEX
  8
New_Layer
 10
430.250000
 20
132.750000
 30
0.0
  0
VERTEX
  8
New_Layer
 10
424.750000
 20
129.750000
 30
0.0
  0
VERTEX
  8
New_Layer
 10
420.000000
 20
126.750000
 30
0.0
  0
VERTEX
  8
New_Layer
 10
415.000000
 20
123.500000
 30
0.0
  0
VERTEX
  8
New_Layer
 10
410.000000
 20
120.000000
 30
0.0
  0
VERTEX
  8
New_Layer
 10
405.250000
 20
116.250000
 30
0.0
  0
VERTEX
  8
New_Layer
 10
396.250000
 20
108.250000
 30
0.0
  0
VERTEX
  8
New_Layer
 10
391.750000
 20
103.750000
 30
0.0
  0
VERTEX
  8
New_Layer
 10
383.750000
 20
94.750000
 30
0.0
  0
VERTEX
  8
New_Layer
 10
380.000000
 20
90.000000
 30
0.0
  0
VERTEX
  8
New_Layer
 10
376.500000
 20
85.000000
 30
0.0
  0
VERTEX
  8
New_Layer
 10
373.250000
 20
80.000000
 30
0.0
  0
VERTEX
  8
New_Layer
 10
370.000000
 20
74.750000
 30
0.0
  0
VERTEX
  8
New_Layer
 10
367.250000
 20
69.750000
 30
0.0
  0
VERTEX
  8
New_Layer
 10
364.500000
 20
64.250000
 30
0.0
  0
VERTEX
  8
New_Layer
 10
362.000000
 20
58.750000
 30
0.0
  0
VERTEX
  8
New_Layer
 10
359.750000
 20
53.000000
 30
0.0
  0
VERTEX
  8
New_Layer
 10
357.750000
 20
47.500000
 30
0.0
  0
VERTEX
  8
New_Layer
 10
356.000000
 20
41.750000
 30
0.0
  0
VERTEX
  8
New_Layer
 10
354.500000
 20
36.000000
 30
0.0
  0
VERTEX
  8
New_Layer
 10
353.250000
 20
30.250000
 30
0.0
  0
VERTEX
  8
New_Layer
 10
352.000000
 20
24.250000
 30
0.0
  0
VERTEX
  8
New_Layer
 10
351.250000
 20
18.250000
 30
0.0
  0
VERTEX
  8
New_Layer
 10
350.500000
 20
12.000000
 30
0.0
  0
VERTEX
  8
New_Layer
 10
350.250000
 20
6.250000
 30
0.0
  0
SEQEND
  8
New_Layer
  0
POLYLINE
  8
New_Layer
 66
       1
 70
       1
 10
0.0
 20
0.0
 30
0.0
  0
VERTEX
  8
New_Layer
 10
-5650.000000
 20
-6928.000000
 30
0.0
  0
VERTEX
  8
New_Layer
 10
-5649.750000
 20
-6934.250000
 30
0.0
  0
VERTEX
  8
New_Layer
 10
-5649.500000
 20
-6940.000000
 30
0.0
  0
VERTEX
  8
New_Layer
 10
-5648.750000
 20
-6946.250000
 30
0.0
  0
VERTEX
  8
New_Layer
 10
-5648.000000
 20
-6952.250000
 30
0.0
  0
VERTEX
  8
New_Layer
 10
-5646.750000
 20
-6958.250000
 30
0.0
  0
VERTEX
  8
New_Layer
 10
-5645.500000
 20
-6964.000000
 30
0.0
  0
VERTEX
  8
New_Layer
 10
-5644.000000
 20
-6969.750000
 30
0.0
  0
VERTEX
  8
New_Layer
 10
-5642.250000
 20
-6975.500000
 30
0.0
  0
VERTEX
  8
New_Layer
 10
-5640.250000
 20
-6981.000000
 30
0.0
  0
VERTEX
  8
New_Layer
 10
-5638.000000
 20
-6986.750000
 30
0.0
  0
VERTEX
  8
New_Layer
 10
-5635.500000
 20
-6992.250000
 30
0.0
  0
VERTEX
  8
New_Layer
 10
-5632.750000
 20
-6997.750000
 30
0.0
  0
VERTEX
  8
New_Layer
 10
-5629.750000
 20
-7003.250000
 30
0.0
  0
VERTEX
  8
New_Layer
 10
-5626.750000
 20
-7008.000000
 30
0.0
  0
VERTEX
  8
New_Layer
 10
-5623.500000
 20
-7013.000000
 30
0.0
  0
VERTEX
  8
New_Layer
 10
-5620.000000
 20
-7018.000000
 30
0.0
  0
VERTEX
  8
New_Layer
 10
-5616.250000
 20
-7022.750000
 30
0.0
  0
VERTEX
  8
New_Layer
 10
-5608.250000
 20
-7031.750000
 30
0.0
  0
VERTEX
  8
New_Layer
 10
-5603.750000
 20
-7036.250000
 30
0.0
  0
VERTEX
  8
New_Layer
 10
-5594.750000
 20
-7044.250000
 30
0.0
  0
VERTEX
  8
New_Layer
 10
-5590.000000
 20
-7048.000000
 30
0.0
  0
VERTEX
  8
New_Layer
 10
-5585.000000
 20
-7051.500000
 30
0.0
  0
VERTEX
  8
New_Layer
 10
-5580.000000
 20
-7054.750000
 30
0.0
  0
VERTEX
  8
New_Layer
 10
-5575.250000
 20
-7057.750000
 30
0.0
  0
VERTEX
  8
New_Layer
 10
-5569.750000
 20
-7060.750000
 30
0.0
  0
VERTEX
  8
New_Layer
 10
-5564.250000
 20
-7063.500000
 30
0.0
  0
VERTEX
  8
New_Layer
 10
-5558.750000
 20
-7066.000000
 30
0.0
  0
VERTEX
  8
New_Layer
 10
-5553.000000
 20
-7068.250000
 30
0.0
  0
VERTEX
  8
New_Layer
 10
-5547.500000
 20
-7070.250000
 30
0.0
  0
VERTEX
  8
New_Layer
 10
-5541.750000
 20
-7072.000000
 30
0.0
  0
VERTEX
  8
New_Layer
 10
-5536.000000
 20
-7073.500000
 30
0.0
  0
VERTEX
  8
New_Layer
 10
-5530.250000
 20
-7074.750000
 30
0.0
  0
VERTEX
  8
New_Layer
 10
-5524.250000
 20
-7076.000000
 30
0.0
  0
VERTEX
  8
New_Layer
 10
-5518.250000
 20
-7076.750000
 30
0.0
  0
VERTEX
  8
New_Layer
 10
-5512.000000
 20
-7077.500000
 30
0.0
  0
VERTEX
  8
New_Layer
 10
-5506.250000
 20
-7077.750000
 30
0.0
  0
VERTEX
  8
New_Layer
 10
-5500.000000
 20
-7078.000000
 30
0.0
  0
VERTEX
  8
New_Layer
 10
-5493.750000
 20
-7077.750000
 30
0.0
  0
VERTEX
  8
New_Layer
 10
-5488.000000
 20
-7077.500000
 30
0.0
  0
VERTEX
  8
New_Layer
 10
-5481.750000
 20
-7076.750000
 30
0.0
  0
VERTEX
  8
New_Layer
 10
-5475.750000
 20
-7076.000000
 30
0.0
  0
VERTEX
  8
New_Layer
 10
-5469.750000
 20
-7074.750000
 30
0.0
  0
VERTEX
  8
New_Layer
 10
-5464.000000
 20
-7073.500000
 30
0.0
  0
VERTEX
  8
New_Layer
 10
-5458.250000
 20
-7072.000000
 30
0.0
  0
VERTEX
  8
New_Layer
 10
-5452.500000
 20
-7070.250000
 30
0.0
  0
VERTEX
  8
New_Layer
 10
-5447.000000
 20
-7068.250000
 30
0.0
  0
VERTEX
  8
New_Layer
 10
-5441.250000
 20
-7066.000000
 30
0.0
  0
VERTEX
  8
New_Layer
 10
-5435.750000
 20
-7063.500000
 30
0.0
  0
VERTEX
  8
New_Layer
 10
-5430.250000
 20
-7060.750000
 30
0.0
  0
VERTEX
  8
New_Layer
 10
-5425.250000
 20
-7058.000000
 30
0.0
  0
VERTEX
  8
New_Layer
 10
-5420.000000
 20
-7054.750000
 30
0.0
  0
VERTEX
  8
New_Layer
 10
-5415.000000
 20
-7051.500000
 30
0.0
  0
VERTEX
  8
New_Layer
 10
-5410.000000
 20
-7048.000000
 30
0.0
  0
VERTEX
  8
New_Layer
 10
-5405.250000
 20
-7044.250000
 30
0.0
  0
VERTEX
  8
New_Layer
 10
-5396.250000
 20
-7036.250000
 30
0.0
  0
VERTEX
  8
New_Layer
 10
-5391.750000
 20
-7031.750000
 30
0.0
  0
VERTEX
  8
New_Layer
 10
-5383.750000
 20
-7022.750000
 30
0.0
  0
VERTEX
  8
New_Layer
 10
-5380.000000
 20
-7018.000000
 30
0.0
  0
VERTEX
  8
New_Layer
 10
-5376.500000
 20
-7013.000000
 30
0.0
  0
VERTEX
  8
New_Layer
 10
-5373.250000
 20
-7008.000000
 30
0.0
  0
VERTEX
  8
New_Layer
 10
-5370.250000
 20
-7003.250000
 30
0.0
  0
VERTEX
  8
New_Layer
 10
-5370.111000
 20
-7002.994000
 30
0.0
  0
VERTEX
  8
New_Layer
 10
-5370.097000
 20
-7003.002000
 30
0.0
  0
VERTEX
  8
New_Layer
 10
-1370.097000
 20
-75.002000
 30
0.0
  0
VERTEX
  8
New_Layer
 10
-1370.111000
 20
-74.994000
 30
0.0
  0
VERTEX
  8
New_Layer
 10
-1367.250000
 20
-69.750000
 30
0.0
  0
VERTEX
  8
New_Layer
 10
-1364.500000
 20
-64.250000
 30
0.0
  0
VERTEX
  8
New_Layer
 10
-1362.000000
 20
-58.750000
 30
0.0
  0
VERTEX
  8
New_Layer
 10
-1359.750000
 20
-53.000000
 30
0.0
  0
VERTEX
  8
New_Layer
 10
-1357.750000
 20
-47.500000
 30
0.0
  0
VERTEX
  8
New_Layer
 10
-1356.000000
 20
-41.750000
 30
0.0
  0
VERTEX
  8
New_Layer
 10
-1354.500000
 20
-36.000000
 30
0.0
  0
VERTEX
  8
New_Layer
 10
-1353.250000
 20
-30.250000
 30
0.0
  0
VERTEX
  8
New_Layer
 10
-1352.000000
 20
-24.250000
 30
0.0
  0
VERTEX
  8
New_Layer
 10
-1351.250000
 20
-18.250000
 30
0.0
  0
VERTEX
  8
New_Layer
 10
-1350.500000
 20
-12.000000
 30
0.0
  0
VERTEX
  8
New_Layer
 10
-1350.250000
 20
-6.250000
 30
0.0
  0
VERTEX
  8
New_Layer
 10
-1350.000000
 20
0.0
 30
0.0
  0
VERTEX
  8
New_Layer
 10
-1350.250000
 20
6.250000
 30
0.0
  0
VERTEX
  8
New_Layer
 10
-1350.500000
 20
12.000000
 30
0.0
  0
VERTEX
  8
New_Layer
 10
-1351.250000
 20
18.250000
 30
0.0
  0
VERTEX
  8
New_Layer
 10
-1352.000000
 20
24.250000
 30
0.0
  0
VERTEX
  8
New_Layer
 10
-1353.250000
 20
30.250000
 30
0.0
  0
VERTEX
  8
New_Layer
 10
-1354.500000
 20
36.000000
 30
0.0
  0
VERTEX
  8
New_Layer
 10
-1356.000000
 20
41.750000
 30
0.0
  0
VERTEX
  8
New_Layer
 10
-1357.750000
 20
47.500000
 30
0.0
  0
VERTEX
  8
New_Layer
 10
-1359.750000
 20
53.000000
 30
0.0
  0
VERTEX
  8
New_Layer
 10
-1362.000000
 20
58.750000
 30
0.0
  0
VERTEX
  8
New_Layer
 10
-1364.500000
 20
64.250000
 30
0.0
  0
VERTEX
  8
New_Layer
 10
-1367.250000
 20
69.750000
 30
0.0
  0
VERTEX
  8
New_Layer
 10
-1370.000000
 20
74.750000
 30
0.0
  0
VERTEX
  8
New_Layer
 10
-1373.250000
 20
80.000000
 30
0.0
  0
VERTEX
  8
New_Layer
 10
-1376.500000
 20
85.000000
 30
0.0
  0
VERTEX
  8
New_Layer
 10
-1380.000000
 20
90.000000
 30
0.0
  0
VERTEX
  8
New_Layer
 10
-1383.750000
 20
94.750000
 30
0.0
  0
VERTEX
  8
New_Layer
 10
-1391.750000
 20
103.750000
 30
0.0
  0
VERTEX
  8
New_Layer
 10
-1396.250000
 20
108.250000
 30
0.0
  0
VERTEX
  8
New_Layer
 10
-1405.250000
 20
116.250000
 30
0.0
  0
VERTEX
  8
New_Layer
 10
-1410.000000
 20
120.000000
 30
0.0
  0
VERTEX
  8
New_Layer
 10
-1415.000000
 20
123.500000
 30
0.0
  0
VERTEX
  8
New_Layer
 10
-1420.000000
 20
126.750000
 30
0.0
  0
VERTEX
  8
New_Layer
 10
-1425.250000
 20
130.000000
 30
0.0
  0
VERTEX
  8
New_Layer
 10
-1430.250000
 20
132.750000
 30
0.0
  0
VERTEX
  8
New_Layer
 10
-1435.750000
 20
135.500000
 30
0.0
  0
VERTEX
  8
New_Layer
 10
-1441.250000
 20
138.000000
 30
0.0
  0
VERTEX
  8
New_Layer
 10
-1447.000000
 20
140.250000
 30
0.0
  0
VERTEX
  8
New_Layer
 10
-1452.500000
 20
142.250000
 30
0.0
  0
VERTEX
  8
New_Layer
 10
-1458.250000
 20
144.000000
 30
0.0
  0
VERTEX
  8
New_Layer
 10
-1464.000000
 20
145.500000
 30
0.0
  0
VERTEX
  8
New_Layer
 10
-1469.750000
 20
146.750000
 30
0.0
  0
VERTEX
  8
New_Layer
 10
-1475.750000
 20
148.000000
 30
0.0
  0
VERTEX
  8
New_Layer
 10
-1481.750000
 20
148.750000
 30
0.0
  0
VERTEX
  8
New_Layer
 10
-1488.000000
 20
149.500000
 30
0.0
  0
VERTEX
  8
New_Layer
 10
-1493.750000
 20
149.750000
 30
0.0
  0
VERTEX
  8
New_Layer
 10
-1500.000000
 20
150.000000
 30
0.0
  0
VERTEX
  8
New_Layer
 10
-1506.250000
 20
149.750000
 30
0.0
  0
VERTEX
  8
New_Layer
 10
-1512.000000
 20
149.500000
 30
0.0
  0
VERTEX
  8
New_Layer
 10
-1518.250000
 20
148.750000
 30
0.0
  0
VERTEX
  8
New_Layer
 10
-1524.250000
 20
148.000000
 30
0.0
  0
VERTEX
  8
New_Layer
 10
-1530.250000
 20
146.750000
 30
0.0
  0
VERTEX
  8
New_Layer
 10
-1536.000000
 20
145.500000
 30
0.0
  0
VERTEX
  8
New_Layer
 10
-1541.750000
 20
144.000000
 30
0.0
  0
VERTEX
  8
New_Layer
 10
-1547.500000
 20
142.250000
 30
0.0
  0
VERTEX
  8
New_Layer
 10
-1553.000000
 20
140.250000
 30
0.0
  0
VERTEX
  8
New_Layer
 10
-1558.750000
 20
138.000000
 30
0.0
  0
VERTEX
  8
New_Layer
 10
-1564.250000
 20
135.500000
 30
0.0
  0
VERTEX
  8
New_Layer
 10
-1569.750000
 20
132.750000
 30
0.0
  0
VERTEX
  8
New_Layer
 10
-1575.250000
 20
129.750000
 30
0.0
  0
VERTEX
  8
New_Layer
 10
-1580.000000
 20
126.750000
 30
0.0
  0
VERTEX
  8
New_Layer
 10
-1585.000000
 20
123.500000
 30
0.0
  0
VERTEX
  8
New_Layer
 10
-1590.000000
 20
120.000000
 30
0.0
  0
VERTEX
  8
New_Layer
 10
-1594.750000
 20
116.250000
 30
0.0
  0
VERTEX
  8
New_Layer
 10
-1603.750000
 20
108.250000
 30
0.0
  0
VERTEX
  8
New_Layer
 10
-1608.250000
 20
103.750000
 30
0.0
  0
VERTEX
  8
New_Layer
 10
-1616.250000
 20
94.750000
 30
0.0
  0
VERTEX
  8
New_Layer
 10
-1620.000000
 20
90.000000
 30
0.0
  0
VERTEX
  8
New_Layer
 10
-1623.500000
 20
85.000000
 30
0.0
  0
VERTEX
  8
New_Layer
 10
-1626.750000
 20
80.000000
 30
0.0
  0
VERTEX
  8
New_Layer
 10
-1629.860000
 20
74.977000
 30
0.0
  0
VERTEX
  8
New_Layer
 10
-1629.903000
 20
75.002000
 30
0.0
  0
VERTEX
  8
New_Layer
 10
-5629.903000
 20
-6852.998000
 30
0.0
  0
VERTEX
  8
New_Layer
 10
-5629.860000
 20
-6853.023000
 30
0.0
  0
VERTEX
  8
New_Layer
 10
-5630.000000
 20
-6853.250000
 30
0.0
  0
VERTEX
  8
New_Layer
 10
-5632.750000
 20
-6858.250000
 30
0.0
  0
VERTEX
  8
New_Layer
 10
-5635.500000
 20
-6863.750000
 30
0.0
  0
VERTEX
  8
New_Layer
 10
-5638.000000
 20
-6869.250000
 30
0.0
  0
VERTEX
  8
New_Layer
 10
-5640.250000
 20
-6875.000000
 30
0.0
  0
VERTEX
  8
New_Layer
 10
-5642.250000
 20
-6880.500000
 30
0.0
  0
VERTEX
  8
New_Layer
 10
-5644.000000
 20
-6886.250000
 30
0.0
  0
VERTEX
  8
New_Layer
 10
-5645.500000
 20
-6892.000000
 30
0.0
  0
VERTEX
  8
New_Layer
 10
-5646.750000
 20
-6897.750000
 30
0.0
  0
VERTEX
  8
New_Layer
 10
-5648.000000
 20
-6903.750000
 30
0.0
  0
VERTEX
  8
New_Layer
 10
-5648.750000
 20
-6909.750000
 30
0.0
  0
VERTEX
  8
New_Layer
 10
-5649.500000
 20
-6916.000000
 30
0.0
  0
VERTEX
  8
New_Layer
 10
-5649.750000
 20
-6921.750000
 30
0.0
  0
SEQEND
  8
New_Layer
  0
POLYLINE
  8
New_Layer
 66
       1
 70
       1
 10
0.0
 20
0.0
 30
0.0
  0
VERTEX
  8
New_Layer
 10
-8550.000000
 20
0.0
 30
0.0
  0
VERTEX
  8
New_Layer
 10
-8549.750000
 20
-6.250000
 30
0.0
  0
VERTEX
  8
New_Layer
 10
-8549.500000
 20
-12.000000
 30
0.0
  0
VERTEX
  8
New_Layer
 10
-8548.750000
 20
-18.250000
 30
0.0
  0
VERTEX
  8
New_Layer
 10
-8548.000000
 20
-24.250000
 30
0.0
  0
VERTEX
  8
New_Layer
 10
-8546.750000
 20
-30.250000
 30
0.0
  0
VERTEX
  8
New_Layer
 10
-8545.500000
 20
-36.000000
 30
0.0
  0
VERTEX
  8
New_Layer
 10
-8544.000000
 20
-41.750000
 30
0.0
  0
VERTEX
  8
New_Layer
 10
-8542.250000
 20
-47.500000
 30
0.0
  0
VERTEX
  8
New_Layer
 10
-8540.250000
 20
-53.000000
 30
0.0
  0
VERTEX
  8
New_Layer
 10
-8538.000000
 20
-58.750000
 30
0.0
  0
VERTEX
  8
New_Layer
 10
-8535.500000
 20
-64.250000
 30
0.0
  0
VERTEX
  8
New_Layer
 10
-8532.750000
 20
-69.750000
 30
0.0
  0
VERTEX
  8
New_Layer
 10
-8529.750000
 20
-75.250000
 30
0.0
  0
VERTEX
  8
New_Layer
 10
-8526.750000
 20
-80.000000
 30
0.0
  0
VERTEX
  8
New_Layer
 10
-8523.500000
 20
-85.000000
 30
0.0
  0
VERTEX
  8
New_Layer
 10
-8520.000000
 20
-90.000000
 30
0.0
  0
VERTEX
  8
New_Layer
 10
-8516.250000
 20
-94.750000
 30
0.0
  0
VERTEX
  8
New_Layer
 10
-8508.250000
 20
-103.750000
 30
0.0
  0
VERTEX
  8
New_Layer
 10
-8503.750000
 20
-108.250000
 30
0.0
  0
VERTEX
  8
New_Layer
 10
-8494.750000
 20
-116.250000
 30
0.0
  0
VERTEX
  8
New_Layer
 10
-8490.000000
 20
-120.000000
 30
0.0
  0
VERTEX
  8
New_Layer
 10
-8485.000000
 20
-123.500000
 30
0.0
  0
VERTEX
  8
New_Layer
 10
-8480.000000
 20
-126.750000
 30
0.0
  0
VERTEX
  8
New_Layer
 10
-8475.250000
 20
-129.750000
 30
0.0
  0
VERTEX
  8
New_Layer
 10
-8469.750000
 20
-132.750000
 30
0.0
  0
VERTEX
  8
New_Layer
 10
-8464.250000
 20
-135.500000
 30
0.0
  0
VERTEX
  8
New_Layer
 10
-8458.750000
 20
-138.000000
 30
0.0
  0
VERTEX
  8
New_Layer
 10
-8453.000000
 20
-140.250000
 30
0.0
  0
VERTEX
  8
New_Layer
 10
-8447.500000
 20
-142.250000
 30
0.0
  0
VERTEX
  8
New_Layer
 10
-8441.750000
 20
-144.000000
 30
0.0
  0
VERTEX
  8
New_Layer
 10
-8436.000000
 20
-145.500000
 30
0.0
  0
VERTEX
  8
New_Layer
 10
-8430.250000
 20
-146.750000
 30
0.0
  0
VERTEX
  8
New_Layer
 10
-8424.250000
 20
-148.000000
 30
0.0
  0
VERTEX
  8
New_Layer
 10
-8418.250000
 20
-148.750000
 30
0.0
  0
VERTEX
  8
New_Layer
 10
-8412.000000
 20
-149.500000
 30
0.0
  0
VERTEX
  8
New_Layer
 10
-8406.250000
 20
-149.750000
 30
0.0
  0
VERTEX
  8
New_Layer
 10
-8400.000000
 20
-150.000000
 30
0.0
  0
VERTEX
  8
New_Layer
 10
-500.000000
 20
-150.000000
 30
0.0
  0
VERTEX
  8
New_Layer
 10
-493.750000
 20
-149.750000
 30
0.0
  0
VERTEX
  8
New_Layer
 10
-488.000000
 20
-149.500000
 30
0.0
  0
VERTEX
  8
New_Layer
 10
-481.750000
 20
-148.750000
 30
0.0
  0
VERTEX
  8
New_Layer
 10
-475.750000
 20
-148.000000
 30
0.0
  0
VERTEX
  8
New_Layer
 10
-469.750000
 20
-146.750000
 30
0.0
  0
VERTEX
  8
New_Layer
 10
-464.000000
 20
-145.500000
 30
0.0
  0
VERTEX
  8
New_Layer
 10
-458.250000
 20
-144.000000
 30
0.0
  0
VERTEX
  8
New_Layer
 10
-452.500000
 20
-142.250000
 30
0.0
  0
VERTEX
  8
New_Layer
 10
-447.000000
 20
-140.250000
 30
0.0
  0
VERTEX
  8
New_Layer
 10
-441.250000
 20
-138.000000
 30
0.0
  0
VERTEX
  8
New_Layer
 10
-435.750000
 20
-135.500000
 30
0.0
  0
VERTEX
  8
New_Layer
 10
-430.250000
 20
-132.750000
 30
0.0
  0
VERTEX
  8
New_Layer
 10
-425.250000
 20
-130.000000
 30
0.0
  0
VERTEX
  8
New_Layer
 10
-420.000000
 20
-126.750000
 30
0.0
  0
VERTEX
  8
New_Layer
 10
-415.000000
 20
-123.500000
 30
0.0
  0
VERTEX
  8
New_Layer
 10
-410.000000
 20
-120.000000
 30
0.0
  0
VERTEX
  8
New_Layer
 10
-405.250000
 20
-116.250000
 30
0.0
  0
VERTEX
  8
New_Layer
 10
-396.250000
 20
-108.250000
 30
0.0
  0
VERTEX
  8
New_Layer
 10
-391.750000
 20
-103.750000
 30
0.0
  0
VERTEX
  8
New_Layer
 10
-383.750000
 20
-94.750000
 30
0.0
  0
VERTEX
  8
New_Layer
 10
-380.000000
 20
-90.000000
 30
0.0
  0
VERTEX
  8
New_Layer
 10
-376.500000
 20
-85.000000
 30
0.0
  0
VERTEX
  8
New_Layer
 10
-373.250000
 20
-80.000000
 30
0.0
  0
VERTEX
  8
New_Layer
 10
-370.250000
 20
-75.250000
 30
0.0
  0
VERTEX
  8
New_Layer
 10
-367.250000
 20
-69.750000
 30
0.0
  0
VERTEX
  8
New_Layer
 10
-364.500000
 20
-64.250000
 30
0.0
  0
VERTEX
  8
New_Layer
 10
-362.000000
 20
-58.750000
 30
0.0
  0
VERTEX
  8
New_Layer
 10
-359.750000
 20
-53.000000
 30
0.0
  0
VERTEX
  8
New_Layer
 10
-357.750000
 20
-47.500000
 30
0.0
  0
VERTEX
  8
New_Layer
 10
-356.000000
 20
-41.750000
 30
0.0
  0
VERTEX
  8
New_Layer
 10
-354.500000
 20
-36.000000
 30
0.0
  0
VERTEX
  8
New_Layer
 10
-353.250000
 20
-30.250000
 30
0.0
  0
VERTEX
  8
New_Layer
 10
-352.000000
 20
-24.250000
 30
0.0
  0
VERTEX
  8
New_Layer
 10
-351.250000
 20
-18.250000
 30
0.0
  0
VERTEX
  8
New_Layer
 10
-350.500000
 20
-12.000000
 30
0.0
  0
VERTEX
  8
New_Layer
 10
-350.250000
 20
-6.250000
 30
0.0
  0
VERTEX
  8
New_Layer
 10
-350.000000
 20
0.0
 30
0.0
  0
VERTEX
  8
New_Layer
 10
-350.250000
 20
6.250000
 30
0.0
  0
VERTEX
  8
New_Layer
 10
-350.500000
 20
12.000000
 30
0.0
  0
VERTEX
  8
New_Layer
 10
-351.250000
 20
18.250000
 30
0.0
  0
VERTEX
  8
New_Layer
 10
-352.000000
 20
24.250000
 30
0.0
  0
VERTEX
  8
New_Layer
 10
-353.250000
 20
30.250000
 30
0.0
  0
VERTEX
  8
New_Layer
 10
-354.500000
 20
36.000000
 30
0.0
  0
VERTEX
  8
New_Layer
 10
-356.000000
 20
41.750000
 30
0.0
  0
VERTEX
  8
New_Layer
 10
-357.750000
 20
47.500000
 30
0.0
  0
VERTEX
  8
New_Layer
 10
-359.750000
 20
53.000000
 30
0.0
  0
VERTEX
  8
New_Layer
 10
-362.000000
 20
58.750000
 30
0.0
  0
VERTEX
  8
New_Layer
 10
-364.500000
 20
64.250000
 30
0.0
  0
VERTEX
  8
New_Layer
 10
-367.250000
 20
69.750000
 30
0.0
  0
VERTEX
  8
New_Layer
 10
-370.000000
 20
74.750000
 30
0.0
  0
VERTEX
  8
New_Layer
 10
-373.250000
 20
80.000000
 30
0.0
  0
VERTEX
  8
New_Layer
 10
-376.500000
 20
85.000000
 30
0.0
  0
VERTEX
  8
New_Layer
 10
-380.000000
 20
90.000000
 30
0.0
  0
VERTEX
  8
New_Layer
 10
-383.750000
 20
94.750000
 30
0.0
  0
VERTEX
  8
New_Layer
 10
-391.750000
 20
103.750000
 30
0.0
  0
VERTEX
  8
New_Layer
 10
-396.250000
 20
108.250000
 30
0.0
  0
VERTEX
  8
New_Layer
 10
-405.250000
 20
116.250000
 30
0.0
  0
VERTEX
  8
New_Layer
 10
-410.000000
 20
120.000000
 30
0.0
  0
VERTEX
  8
New_Layer
 10
-415.000000
 20
123.500000
 30
0.0
  0
VERTEX
  8
New_Layer
 10
-420.000000
 20
126.750000
 30
0.0
  0
VERTEX
  8
New_Layer
 10
-425.250000
 20
130.000000
 30
0.0
  0
VERTEX
  8
New_Layer
 10
-430.250000
 20
132.750000
 30
0.0
  0
VERTEX
  8
New_Layer
 10
-435.750000
 20
135.500000
 30
0.0
  0
VERTEX
  8
New_Layer
 10
-441.250000
 20
138.000000
 30
0.0
  0
VERTEX
  8
New_Layer
 10
-447.000000
 20
140.250000
 30
0.0
  0
VERTEX
  8
New_Layer
 10
-452.500000
 20
142.250000
 30
0.0
  0
VERTEX
  8
New_Layer
 10
-458.250000
 20
144.000000
 30
0.0
  0
VERTEX
  8
New_Layer
 10
-464.000000
 20
145.500000
 30
0.0
  0
VERTEX
  8
New_Layer
 10
-469.750000
 20
146.750000
 30
0.0
  0
VERTEX
  8
New_Layer
 10
-475.750000
 20
148.000000
 30
0.0
  0
VERTEX
  8
New_Layer
 10
-481.750000
 20
148.750000
 30
0.0
  0
VERTEX
  8
New_Layer
 10
-488.000000
 20
149.500000
 30
0.0
  0
VERTEX
  8
New_Layer
 10
-493.750000
 20
149.750000
 30
0.0
  0
VERTEX
  8
New_Layer
 10
-500.000000
 20
150.000000
 30
0.0
  0
VERTEX
  8
New_Layer
 10
-8400.000000
 20
150.000000
 30
0.0
  0
VERTEX
  8
New_Layer
 10
-8406.250000
 20
149.750000
 30
0.0
  0
VERTEX
  8
New_Layer
 10
-8412.000000
 20
149.500000
 30
0.0
  0
VERTEX
  8
New_Layer
 10
-8418.250000
 20
148.750000
 30
0.0
  0
VERTEX
  8
New_Layer
 10
-8424.250000
 20
148.000000
 30
0.0
  0
VERTEX
  8
New_Layer
 10
-8430.250000
 20
146.750000
 30
0.0
  0
VERTEX
  8
New_Layer
 10
-8436.000000
 20
145.500000
 30
0.0
  0
VERTEX
  8
New_Layer
 10
-8441.750000
 20
144.000000
 30
0.0
  0
VERTEX
  8
New_Layer
 10
-8447.500000
 20
142.250000
 30
0.0
  0
VERTEX
  8
New_Layer
 10
-8453.000000
 20
140.250000
 30
0.0
  0
VERTEX
  8
New_Layer
 10
-8458.750000
 20
138.000000
 30
0.0
  0
VERTEX
  8
New_Layer
 10
-8464.250000
 20
135.500000
 30
0.0
  0
VERTEX
  8
New_Layer
 10
-8469.750000
 20
132.750000
 30
0.0
  0
VERTEX
  8
New_Layer
 10
-8475.250000
 20
129.750000
 30
0.0
  0
VERTEX
  8
New_Layer
 10
-8480.000000
 20
126.750000
 30
0.0
  0
VERTEX
  8
New_Layer
 10
-8485.000000
 20
123.500000
 30
0.0
  0
VERTEX
  8
New_Layer
 10
-8490.000000
 20
120.000000
 30
0.0
  0
VERTEX
  8
New_Layer
 10
-8494.750000
 20
116.250000
 30
0.0
  0
VERTEX
  8
New_Layer
 10
-8503.750000
 20
108.250000
 30
0.0
  0
VERTEX
  8
New_Layer
 10
-8508.250000
 20
103.750000
 30
0.0
  0
VERTEX
  8
New_Layer
 10
-8516.250000
 20
94.750000
 30
0.0
  0
VERTEX
  8
New_Layer
 10
-8520.000000
 20
90.000000
 30
0.0
  0
VERTEX
  8
New_Layer
 10
-8523.500000
 20
85.000000
 30
0.0
  0
VERTEX
  8
New_Layer
 10
-8526.750000
 20
80.000000
 30
0.0
  0
VERTEX
  8
New_Layer
 10
-8530.000000
 20
74.750000
 30
0.0
  0
VERTEX
  8
New_Layer
 10
-8532.750000
 20
69.750000
 30
0.0
  0
VERTEX
  8
New_Layer
 10
-8535.500000
 20
64.250000
 30
0.0
  0
VERTEX
  8
New_Layer
 10
-8538.000000
 20
58.750000
 30
0.0
  0
VERTEX
  8
New_Layer
 10
-8540.250000
 20
53.000000
 30
0.0
  0
VERTEX
  8
New_Layer
 10
-8542.250000
 20
47.500000
 30
0.0
  0
VERTEX
  8
New_Layer
 10
-8544.000000
 20
41.750000
 30
0.0
  0
VERTEX
  8
New_Layer
 10
-8545.500000
 20
36.000000
 30
0.0
  0
VERTEX
  8
New_Layer
 10
-8546.750000
 20
30.250000
 30
0.0
  0
VERTEX
  8
New_Layer
 10
-8548.000000
 20
24.250000
 30
0.0
  0
VERTEX
  8
New_Layer
 10
-8548.750000
 20
18.250000
 30
0.0
  0
VERTEX
  8
New_Layer
 10
-8549.500000
 20
12.000000
 30
0.0
  0
VERTEX
  8
New_Layer
 10
-8549.750000
 20
6.250000
 30
0.0
  0
SEQEND
  8
New_Layer
  0
POLYLINE
  8
New_Layer_0
 66
       1
 70
       1
 10
0.0
 20
0.0
 30
0.0
  0
VERTEX
  8
New_Layer_0
 10
1699.500000
 20
-14.000000
 30
0.0
  0
VERTEX
  8
New_Layer_0
 10
1698.000000
 20
-28.000000
 30
0.0
  0
VERTEX
  8
New_Layer_0
 10
1697.000000
 20
-34.500000
 30
0.0
  0
VERTEX
  8
New_Layer_0
 10
1695.500000
 20
-41.750000
 30
0.0
  0
VERTEX
  8
New_Layer_0
 10
1694.000000
 20
-48.500000
 30
0.0
  0
VERTEX
  8
New_Layer_0
 10
1692.250000
 20
-55.000000
 30
0.0
  0
VERTEX
  8
New_Layer_0
 10
1690.000000
 20
-62.000000
 30
0.0
  0
VERTEX
  8
New_Layer_0
 10
1687.750000
 20
-68.500000
 30
0.0
  0
VERTEX
  8
New_Layer_0
 10
1685.500000
 20
-74.750000
 30
0.0
  0
VERTEX
  8
New_Layer_0
 10
1682.750000
 20
-81.250000
 30
0.0
  0
VERTEX
  8
New_Layer_0
 10
1679.750000
 20
-87.500000
 30
0.0
  0
VERTEX
  8
New_Layer_0
 10
1676.500000
 20
-94.000000
 30
0.0
  0
VERTEX
  8
New_Layer_0
 10
1673.250000
 20
-99.750000
 30
0.0
  0
VERTEX
  8
New_Layer_0
 10
1669.750000
 20
-105.750000
 30
0.0
  0
VERTEX
  8
New_Layer_0
 10
1665.750000
 20
-111.750000
 30
0.0
  0
VERTEX
  8
New_Layer_0
 10
1661.750000
 20
-117.500000
 30
0.0
  0
VERTEX
  8
New_Layer_0
 10
1657.500000
 20
-123.250000
 30
0.0
  0
VERTEX
  8
New_Layer_0
 10
1653.250000
 20
-128.500000
 30
0.0
  0
VERTEX
  8
New_Layer_0
 10
1644.000000
 20
-138.750000
 30
0.0
  0
VERTEX
  8
New_Layer_0
 10
1638.750000
 20
-144.000000
 30
0.0
  0
VERTEX
  8
New_Layer_0
 10
1628.500000
 20
-153.250000
 30
0.0
  0
VERTEX
  8
New_Layer_0
 10
1623.250000
 20
-157.500000
 30
0.0
  0
VERTEX
  8
New_Layer_0
 10
1617.500000
 20
-161.750000
 30
0.0
  0
VERTEX
  8
New_Layer_0
 10
1611.750000
 20
-165.750000
 30
0.0
  0
VERTEX
  8
New_Layer_0
 10
1605.750000
 20
-169.750000
 30
0.0
  0
VERTEX
  8
New_Layer_0
 10
1599.750000
 20
-173.250000
 30
0.0
  0
VERTEX
  8
New_Layer_0
 10
1594.000000
 20
-176.500000
 30
0.0
  0
VERTEX
  8
New_Layer_0
 10
1587.500000
 20
-179.750000
 30
0.0
  0
VERTEX
  8
New_Layer_0
 10
1581.250000
 20
-182.750000
 30
0.0
  0
VERTEX
  8
New_Layer_0
 10
1574.750000
 20
-185.500000
 30
0.0
  0
VERTEX
  8
New_Layer_0
 10
1568.500000
 20
-187.750000
 30
0.0
  0
VERTEX
  8
New_Layer_0
 10
1562.000000
 20
-190.000000
 30
0.0
  0
VERTEX
  8
New_Layer_0
 10
1555.000000
 20
-192.250000
 30
0.0
  0
VERTEX
  8
New_Layer_0
 10
1548.500000
 20
-194.000000
 30
0.0
  0
VERTEX
  8
New_Layer_0
 10
1541.750000
 20
-195.500000
 30
0.0
  0
VERTEX
  8
New_Layer_0
 10
1534.500000
 20
-197.000000
 30
0.0
  0
VERTEX
  8
New_Layer_0
 10
1528.000000
 20
-198.000000
 30
0.0
  0
VERTEX
  8
New_Layer_0
 10
1514.000000
 20
-199.500000
 30
0.0
  0
VERTEX
  8
New_Layer_0
 10
1500.000000
 20
-200.000000
 30
0.0
  0
VERTEX
  8
New_Layer_0
 10
1486.000000
 20
-199.500000
 30
0.0
  0
VERTEX
  8
New_Layer_0
 10
1472.000000
 20
-198.000000
 30
0.0
  0
VERTEX
  8
New_Layer_0
 10
1465.500000
 20
-197.000000
 30
0.0
  0
VERTEX
  8
New_Layer_0
 10
1458.250000
 20
-195.500000
 30
0.0
  0
VERTEX
  8
New_Layer_0
 10
1451.500000
 20
-194.000000
 30
0.0
  0
VERTEX
  8
New_Layer_0
 10
1445.000000
 20
-192.250000
 30
0.0
  0
VERTEX
  8
New_Layer_0
 10
1438.000000
 20
-190.000000
 30
0.0
  0
VERTEX
  8
New_Layer_0
 10
1431.500000
 20
-187.750000
 30
0.0
  0
VERTEX
  8
New_Layer_0
 10
1425.250000
 20
-185.500000
 30
0.0
  0
VERTEX
  8
New_Layer_0
 10
1418.750000
 20
-182.750000
 30
0.0
  0
VERTEX
  8
New_Layer_0
 10
1412.500000
 20
-179.750000
 30
0.0
  0
VERTEX
  8
New_Layer_0
 10
1406.000000
 20
-176.500000
 30
0.0
  0
VERTEX
  8
New_Layer_0
 10
1399.750000
 20
-173.000000
 30
0.0
  0
VERTEX
  8
New_Layer_0
 10
1394.250000
 20
-169.750000
 30
0.0
  0
VERTEX
  8
New_Layer_0
 10
1388.250000
 20
-165.750000
 30
0.0
  0
VERTEX
  8
New_Layer_0
 10
1382.500000
 20
-161.750000
 30
0.0
  0
VERTEX
  8
New_Layer_0
 10
1376.750000
 20
-157.500000
 30
0.0
  0
VERTEX
  8
New_Layer_0
 10
1371.500000
 20
-153.250000
 30
0.0
  0
VERTEX
  8
New_Layer_0
 10
1361.250000
 20
-144.000000
 30
0.0
  0
VERTEX
  8
New_Layer_0
 10
1356.000000
 20
-138.750000
 30
0.0
  0
VERTEX
  8
New_Layer_0
 10
1346.750000
 20
-128.500000
 30
0.0
  0
VERTEX
  8
New_Layer_0
 10
1342.500000
 20
-123.250000
 30
0.0
  0
VERTEX
  8
New_Layer_0
 10
1338.250000
 20
-117.500000
 30
0.0
  0
VERTEX
  8
New_Layer_0
 10
1334.250000
 20
-111.750000
 30
0.0
  0
VERTEX
  8
New_Layer_0
 10
1330.250000
 20
-105.750000
 30
0.0
  0
VERTEX
  8
New_Layer_0
 10
1326.750000
 20
-99.750000
 30
0.0
  0
VERTEX
  8
New_Layer_0
 10
1323.500000
 20
-94.000000
 30
0.0
  0
VERTEX
  8
New_Layer_0
 10
1320.250000
 20
-87.500000
 30
0.0
  0
VERTEX
  8
New_Layer_0
 10
1317.250000
 20
-81.250000
 30
0.0
  0
VERTEX
  8
New_Layer_0
 10
1314.500000
 20
-74.750000
 30
0.0
  0
VERTEX
  8
New_Layer_0
 10
1312.250000
 20
-68.500000
 30
0.0
  0
VERTEX
  8
New_Layer_0
 10
1310.000000
 20
-62.000000
 30
0.0
  0
VERTEX
  8
New_Layer_0
 10
1307.750000
 20
-55.000000
 30
0.0
  0
VERTEX
  8
New_Layer_0
 10
1306.000000
 20
-48.500000
 30
0.0
  0
VERTEX
  8
New_Layer_0
 10
1304.500000
 20
-41.750000
 30
0.0
  0
VERTEX
  8
New_Layer_0
 10
1303.000000
 20
-34.500000
 30
0.0
  0
VERTEX
  8
New_Layer_0
 10
1302.000000
 20
-28.000000
 30
0.0
  0
VERTEX
  8
New_Layer_0
 10
1300.500000
 20
-14.000000
 30
0.0
  0
VERTEX
  8
New_Layer_0
 10
1300.000000
 20
0.0
 30
0.0
  0
VERTEX
  8
New_Layer_0
 10
1300.500000
 20
14.000000
 30
0.0
  0
VERTEX
  8
New_Layer_0
 10
1302.000000
 20
28.000000
 30
0.0
  0
VERTEX
  8
New_Layer_0
 10
1303.000000
 20
34.500000
 30
0.0
  0
VERTEX
  8
New_Layer_0
 10
1304.500000
 20
41.750000
 30
0.0
  0
VERTEX
  8
New_Layer_0
 10
1306.000000
 20
48.500000
 30
0.0
  0
VERTEX
  8
New_Layer_0
 10
1307.750000
 20
55.000000
 30
0.0
  0
VERTEX
  8
New_Layer_0
 10
1310.000000
 20
62.000000
 30
0.0
  0
VERTEX
  8
New_Layer_0
 10
1312.250000
 20
68.500000
 30
0.0
  0
VERTEX
  8
New_Layer_0
 10
1314.500000
 20
74.750000
 30
0.0
  0
VERTEX
  8
New_Layer_0
 10
1317.250000
 20
81.250000
 30
0.0
  0
VERTEX
  8
New_Layer_0
 10
1320.250000
 20
87.500000
 30
0.0
  0
VERTEX
  8
New_Layer_0
 10
1323.500000
 20
94.000000
 30
0.0
  0
VERTEX
  8
New_Layer_0
 10
1326.750000
 20
99.750000
 30
0.0
  0
VERTEX
  8
New_Layer_0
 10
1330.250000
 20
105.750000
 30
0.0
  0
VERTEX
  8
New_Layer_0
 10
1334.250000
 20
111.750000
 30
0.0
  0
VERTEX
  8
New_Layer_0
 10
1338.250000
 20
117.500000
 30
0.0
  0
VERTEX
  8
New_Layer_0
 10
1342.500000
 20
123.250000
 30
0.0
  0
VERTEX
  8
New_Layer_0
 10
1346.750000
 20
128.500000
 30
0.0
  0
VERTEX
  8
New_Layer_0
 10
1356.000000
 20
138.750000
 30
0.0
  0
VERTEX
  8
New_Layer_0
 10
1361.250000
 20
144.000000
 30
0.0
  0
VERTEX
  8
New_Layer_0
 10
1371.500000
 20
153.250000
 30
0.0
  0
VERTEX
  8
New_Layer_0
 10
1376.750000
 20
157.500000
 30
0.0
  0
VERTEX
  8
New_Layer_0
 10
1382.500000
 20
161.750000
 30
0.0
  0
VERTEX
  8
New_Layer_0
 10
1388.250000
 20
165.750000
 30
0.0
  0
VERTEX
  8
New_Layer_0
 10
1394.250000
 20
169.750000
 30
0.0
  0
VERTEX
  8
New_Layer_0
 10
1399.750000
 20
173.000000
 30
0.0
  0
VERTEX
  8
New_Layer_0
 10
1406.000000
 20
176.500000
 30
0.0
  0
VERTEX
  8
New_Layer_0
 10
1412.500000
 20
179.750000
 30
0.0
  0
VERTEX
  8
New_Layer_0
 10
1418.750000
 20
182.750000
 30
0.0
  0
VERTEX
  8
New_Layer_0
 10
1425.250000
 20
185.500000
 30
0.0
  0
VERTEX
  8
New_Layer_0
 10
1431.500000
 20
187.750000
 30
0.0
  0
VERTEX
  8
New_Layer_0
 10
1438.000000
 20
190.000000
 30
0.0
  0
VERTEX
  8
New_Layer_0
 10
1445.000000
 20
192.250000
 30
0.0
  0
VERTEX
  8
New_Layer_0
 10
1451.500000
 20
194.000000
 30
0.0
  0
VERTEX
  8
New_Layer_0
 10
1458.250000
 20
195.500000
 30
0.0
  0
VERTEX
  8
New_Layer_0
 10
1465.500000
 20
197.000000
 30
0.0
  0
VERTEX
  8
New_Layer_0
 10
1472.000000
 20
198.000000
 30
0.0
  0
VERTEX
  8
New_Layer_0
 10
1486.000000
 20
199.500000
 30
0.0
  0
VERTEX
  8
New_Layer_0
 10
1500.000000
 20
200.000000
 30
0.0
  0
VERTEX
  8
New_Layer_0
 10
1514.000000
 20
199.500000
 30
0.0
  0
VERTEX
  8
New_Layer_0
 10
1528.000000
 20
198.000000
 30
0.0
  0
VERTEX
  8
New_Layer_0
 10
1534.500000
 20
197.000000
 30
0.0
  0
VERTEX
  8
New_Layer_0
 10
1541.750000
 20
195.500000
 30
0.0
  0
VERTEX
  8
New_Layer_0
 10
1548.500000
 20
194.000000
 30
0.0
  0
VERTEX
  8
New_Layer_0
 10
1555.000000
 20
192.250000
 30
0.0
  0
VERTEX
  8
New_Layer_0
 10
1562.000000
 20
190.000000
 30
0.0
  0
VERTEX
  8
New_Layer_0
 10
1568.500000
 20
187.750000
 30
0.0
  0
VERTEX
  8
New_Layer_0
 10
1574.750000
 20
185.500000
 30
0.0
  0
VERTEX
  8
New_Layer_0
 10
1581.250000
 20
182.750000
 30
0.0
  0
VERTEX
  8
New_Layer_0
 10
1587.500000
 20
179.750000
 30
0.0
  0
VERTEX
  8
New_Layer_0
 10
1594.000000
 20
176.500000
 30
0.0
  0
VERTEX
  8
New_Layer_0
 10
1599.750000
 20
173.250000
 30
0.0
  0
VERTEX
  8
New_Layer_0
 10
1605.750000
 20
169.750000
 30
0.0
  0
VERTEX
  8
New_Layer_0
 10
1611.750000
 20
165.750000
 30
0.0
  0
VERTEX
  8
New_Layer_0
 10
1617.500000
 20
161.750000
 30
0.0
  0
VERTEX
  8
New_Layer_0
 10
1623.250000
 20
157.500000
 30
0.0
  0
VERTEX
  8
New_Layer_0
 10
1628.500000
 20
153.250000
 30
0.0
  0
VERTEX
  8
New_Layer_0
 10
1638.750000
 20
144.000000
 30
0.0
  0
VERTEX
  8
New_Layer_0
 10
1644.000000
 20
138.750000
 30
0.0
  0
VERTEX
  8
New_Layer_0
 10
1653.250000
 20
128.500000
 30
0.0
  0
VERTEX
  8
New_Layer_0
 10
1657.500000
 20
123.250000
 30
0.0
  0
VERTEX
  8
New_Layer_0
 10
1661.750000
 20
117.500000
 30
0.0
  0
VERTEX
  8
New_Layer_0
 10
1665.750000
 20
111.750000
 30
0.0
  0
VERTEX
  8
New_Layer_0
 10
1669.750000
 20
105.750000
 30
0.0
  0
VERTEX
  8
New_Layer_0
 10
1673.250000
 20
99.750000
 30
0.0
  0
VERTEX
  8
New_Layer_0
 10
1676.500000
 20
94.000000
 30
0.0
  0
VERTEX
  8
New_Layer_0
 10
1679.750000
 20
87.500000
 30
0.0
  0
VERTEX
  8
New_Layer_0
 10
1682.750000
 20
81.250000
 30
0.0
  0
VERTEX
  8
New_Layer_0
 10
1685.500000
 20
74.750000
 30
0.0
  0
VERTEX
  8
New_Layer_0
 10
1687.750000
 20
68.500000
 30
0.0
  0
VERTEX
  8
New_Layer_0
 10
1690.000000
 20
62.000000
 30
0.0
  0
VERTEX
  8
New_Layer_0
 10
1692.250000
 20
55.000000
 30
0.0
  0
VERTEX
  8
New_Layer_0
 10
1694.000000
 20
48.500000
 30
0.0
  0
VERTEX
  8
New_Layer_0
 10
1695.500000
 20
41.750000
 30
0.0
  0
VERTEX
  8
New_Layer_0
 10
1697.000000
 20
34.500000
 30
0.0
  0
VERTEX
  8
New_Layer_0
 10
1698.000000
 20
28.000000
 30
0.0
  0
VERTEX
  8
New_Layer_0
 10
1699.500000
 20
14.000000
 30
0.0
  0
VERTEX
  8
New_Layer_0
 10
1700.000000
 20
0.0
 30
0.0
  0
SEQEND
  8
New_Layer_0
  0
POLYLINE
  8
New_Layer_0
 66
       1
 70
       1
 10
0.0
 20
0.0
 30
0.0
  0
VERTEX
  8
New_Layer_0
 10
-1300.500000
 20
-14.000000
 30
0.0
  0
VERTEX
  8
New_Layer_0
 10
-1302.000000
 20
-28.000000
 30
0.0
  0
VERTEX
  8
New_Layer_0
 10
-1303.000000
 20
-34.500000
 30
0.0
  0
VERTEX
  8
New_Layer_0
 10
-1304.500000
 20
-41.750000
 30
0.0
  0
VERTEX
  8
New_Layer_0
 10
-1306.000000
 20
-48.500000
 30
0.0
  0
VERTEX
  8
New_Layer_0
 10
-1307.750000
 20
-55.000000
 30
0.0
  0
VERTEX
  8
New_Layer_0
 10
-1310.000000
 20
-62.000000
 30
0.0
  0
VERTEX
  8
New_Layer_0
 10
-1312.250000
 20
-68.500000
 30
0.0
  0
VERTEX
  8
New_Layer_0
 10
-1314.500000
 20
-74.750000
 30
0.0
  0
VERTEX
  8
New_Layer_0
 10
-1317.250000
 20
-81.250000
 30
0.0
  0
VERTEX
  8
New_Layer_0
 10
-1320.250000
 20
-87.500000
 30
0.0
  0
VERTEX
  8
New_Layer_0
 10
-1323.500000
 20
-94.000000
 30
0.0
  0
VERTEX
  8
New_Layer_0
 10
-1326.750000
 20
-99.750000
 30
0.0
  0
VERTEX
  8
New_Layer_0
 10
-1330.250000
 20
-105.750000
 30
0.0
  0
VERTEX
  8
New_Layer_0
 10
-1334.250000
 20
-111.750000
 30
0.0
  0
VERTEX
  8
New_Layer_0
 10
-1338.250000
 20
-117.500000
 30
0.0
  0
VERTEX
  8
New_Layer_0
 10
-1342.500000
 20
-123.250000
 30
0.0
  0
VERTEX
  8
New_Layer_0
 10
-1346.750000
 20
-128.500000
 30
0.0
  0
VERTEX
  8
New_Layer_0
 10
-1356.000000
 20
-138.750000
 30
0.0
  0
VERTEX
  8
New_Layer_0
 10
-1361.250000
 20
-144.000000
 30
0.0
  0
VERTEX
  8
New_Layer_0
 10
-1371.500000
 20
-153.250000
 30
0.0
  0
VERTEX
  8
New_Layer_0
 10
-1376.750000
 20
-157.500000
 30
0.0
  0
VERTEX
  8
New_Layer_0
 10
-1382.500000
 20
-161.750000
 30
0.0
  0
VERTEX
  8
New_Layer_0
 10
-1388.250000
 20
-165.750000
 30
0.0
  0
VERTEX
  8
New_Layer_0
 10
-1394.250000
 20
-169.750000
 30
0.0
  0
VERTEX
  8
New_Layer_0
 10
-1400.250000
 20
-173.250000
 30
0.0
  0
VERTEX
  8
New_Layer_0
 10
-1406.000000
 20
-176.500000
 30
0.0
  0
VERTEX
  8
New_Layer_0
 10
-1412.500000
 20
-179.750000
 30
0.0
  0
VERTEX
  8
New_Layer_0
 10
-1418.750000
 20
-182.750000
 30
0.0
  0
VERTEX
  8
New_Layer_0
 10
-1425.250000
 20
-185.500000
 30
0.0
  0
VERTEX
  8
New_Layer_0
 10
-1431.500000
 20
-187.750000
 30
0.0
  0
VERTEX
  8
New_Layer_0
 10
-1438.000000
 20
-190.000000
 30
0.0
  0
VERTEX
  8
New_Layer_0
 10
-1445.000000
 20
-192.250000
 30
0.0
  0
VERTEX
  8
New_Layer_0
 10
-1451.500000
 20
-194.000000
 30
0.0
  0
VERTEX
  8
New_Layer_0
 10
-1458.250000
 20
-195.500000
 30
0.0
  0
VERTEX
  8
New_Layer_0
 10
-1465.500000
 20
-197.000000
 30
0.0
  0
VERTEX
  8
New_Layer_0
 10
-1472.000000
 20
-198.000000
 30
0.0
  0
VERTEX
  8
New_Layer_0
 10
-1486.000000
 20
-199.500000
 30
0.0
  0
VERTEX
  8
New_Layer_0
 10
-1500.000000
 20
-200.000000
 30
0.0
  0
VERTEX
  8
New_Layer_0
 10
-1514.000000
 20
-199.500000
 30
0.0
  0
VERTEX
  8
New_Layer_0
 10
-1528.000000
 20
-198.000000
 30
0.0
  0
VERTEX
  8
New_Layer_0
 10
-1534.500000
 20
-197.000000
 30
0.0
  0
VERTEX
  8
New_Layer_0
 10
-1541.750000
 20
-195.500000
 30
0.0
  0
VERTEX
  8
New_Layer_0
 10
-1548.500000
 20
-194.000000
 30
0.0
  0
VERTEX
  8
New_Layer_0
 10
-1555.000000
 20
-192.250000
 30
0.0
  0
VERTEX
  8
New_Layer_0
 10
-1562.000000
 20
-190.000000
 30
0.0
  0
VERTEX
  8
New_Layer_0
 10
-1568.500000
 20
-187.750000
 30
0.0
  0
VERTEX
  8
New_Layer_0
 10
-1574.750000
 20
-185.500000
 30
0.0
  0
VERTEX
  8
New_Layer_0
 10
-1581.250000
 20
-182.750000
 30
0.0
  0
VERTEX
  8
New_Layer_0
 10
-1587.500000
 20
-179.750000
 30
0.0
  0
VERTEX
  8
New_Layer_0
 10
-1594.000000
 20
-176.500000
 30
0.0
  0
VERTEX
  8
New_Layer_0
 10
-1600.250000
 20
-173.000000
 30
0.0
  0
VERTEX
  8
New_Layer_0
 10
-1605.750000
 20
-169.750000
 30
0.0
  0
VERTEX
  8
New_Layer_0
 10
-1611.750000
 20
-165.750000
 30
0.0
  0
VERTEX
  8
New_Layer_0
 10
-1617.500000
 20
-161.750000
 30
0.0
  0
VERTEX
  8
New_Layer_0
 10
-1623.250000
 20
-157.500000
 30
0.0
  0
VERTEX
  8
New_Layer_0
 10
-1628.500000
 20
-153.250000
 30
0.0
  0
VERTEX
  8
New_Layer_0
 10
-1638.750000
 20
-144.000000
 30
0.0
  0
VERTEX
  8
New_Layer_0
 10
-1644.000000
 20
-138.750000
 30
0.0
  0
VERTEX
  8
New_Layer_0
 10
-1653.250000
 20
-128.500000
 30
0.0
  0
VERTEX
  8
New_Layer_0
 10
-1657.500000
 20
-123.250000
 30
0.0
  0
VERTEX
  8
New_Layer_0
 10
-1661.750000
 20
-117.500000
 30
0.0
  0
VERTEX
  8
New_Layer_0
 10
-1665.750000
 20
-111.750000
 30
0.0
  0
VERTEX
  8
New_Layer_0
 10
-1669.750000
 20
-105.750000
 30
0.0
  0
VERTEX
  8
New_Layer_0
 10
-1673.250000
 20
-99.750000
 30
0.0
  0
VERTEX
  8
New_Layer_0
 10
-1676.500000
 20
-94.000000
 30
0.0
  0
VERTEX
  8
New_Layer_0
 10
-1679.750000
 20
-87.500000
 30
0.0
  0
VERTEX
  8
New_Layer_0
 10
-1682.750000
 20
-81.250000
 30
0.0
  0
VERTEX
  8
New_Layer_0
 10
-1685.500000
 20
-74.750000
 30
0.0
  0
VERTEX
  8
New_Layer_0
 10
-1687.750000
 20
-68.500000
 30
0.0
  0
VERTEX
  8
New_Layer_0
 10
-1690.000000
 20
-62.000000
 30
0.0
  0
VERTEX
  8
New_Layer_0
 10
-1692.250000
 20
-55.000000
 30
0.0
  0
VERTEX
  8
New_Layer_0
 10
-1694.000000
 20
-48.500000
 30
0.0
  0
VERTEX
  8
New_Layer_0
 10
-1695.500000
 20
-41.750000
 30
0.0
  0
VERTEX
  8
New_Layer_0
 10
-1697.000000
 20
-34.500000
 30
0.0
  0
VERTEX
  8
New_Layer_0
 10
-1698.000000
 20
-28.000000
 30
0.0
  0
VERTEX
  8
New_Layer_0
 10
-1699.500000
 20
-14.000000
 30
0.0
  0
VERTEX
  8
New_Layer_0
 10
-1700.000000
 20
0.0
 30
0.0
  0
VERTEX
  8
New_Layer_0
 10
-1699.500000
 20
14.000000
 30
0.0
  0
VERTEX
  8
New_Layer_0
 10
-1698.000000
 20
28.000000
 30
0.0
  0
VERTEX
  8
New_Layer_0
 10
-1697.000000
 20
34.500000
 30
0.0
  0
VERTEX
  8
New_Layer_0
 10
-1695.500000
 20
41.750000
 30
0.0
  0
VERTEX
  8
New_Layer_0
 10
-1694.000000
 20
48.500000
 30
0.0
  0
VERTEX
  8
New_Layer_0
 10
-1692.250000
 20
55.000000
 30
0.0
  0
VERTEX
  8
New_Layer_0
 10
-1690.000000
 20
62.000000
 30
0.0
  0
VERTEX
  8
New_Layer_0
 10
-1687.750000
 20
68.500000
 30
0.0
  0
VERTEX
  8
New_Layer_0
 10
-1685.500000
 20
74.750000
 30
0.0
  0
VERTEX
  8
New_Layer_0
 10
-1682.750000
 20
81.250000
 30
0.0
  0
VERTEX
  8
New_Layer_0
 10
-1679.750000
 20
87.500000
 30
0.0
  0
VERTEX
  8
New_Layer_0
 10
-1676.500000
 20
94.000000
 30
0.0
  0
VERTEX
  8
New_Layer_0
 10
-1673.250000
 20
99.750000
 30
0.0
  0
VERTEX
  8
New_Layer_0
 10
-1669.750000
 20
105.750000
 30
0.0
  0
VERTEX
  8
New_Layer_0
 10
-1665.750000
 20
111.750000
 30
0.0
  0
VERTEX
  8
New_Layer_0
 10
-1661.750000
 20
117.500000
 30
0.0
  0
VERTEX
  8
New_Layer_0
 10
-1657.500000
 20
123.250000
 30
0.0
  0
VERTEX
  8
New_Layer_0
 10
-1653.250000
 20
128.500000
 30
0.0
  0
VERTEX
  8
New_Layer_0
 10
-1644.000000
 20
138.750000
 30
0.0
  0
VERTEX
  8
New_Layer_0
 10
-1638.750000
 20
144.000000
 30
0.0
  0
VERTEX
  8
New_Layer_0
 10
-1628.500000
 20
153.250000
 30
0.0
  0
VERTEX
  8
New_Layer_0
 10
-1623.250000
 20
157.500000
 30
0.0
  0
VERTEX
  8
New_Layer_0
 10
-1617.500000
 20
161.750000
 30
0.0
  0
VERTEX
  8
New_Layer_0
 10
-1611.750000
 20
165.750000
 30
0.0
  0
VERTEX
  8
New_Layer_0
 10
-1605.750000
 20
169.750000
 30
0.0
  0
VERTEX
  8
New_Layer_0
 10
-1600.250000
 20
173.000000
 30
0.0
  0
VERTEX
  8
New_Layer_0
 10
-1594.000000
 20
176.500000
 30
0.0
  0
VERTEX
  8
New_Layer_0
 10
-1587.500000
 20
179.750000
 30
0.0
  0
VERTEX
  8
New_Layer_0
 10
-1581.250000
 20
182.750000
 30
0.0
  0
VERTEX
  8
New_Layer_0
 10
-1574.750000
 20
185.500000
 30
0.0
  0
VERTEX
  8
New_Layer_0
 10
-1568.500000
 20
187.750000
 30
0.0
  0
VERTEX
  8
New_Layer_0
 10
-1562.000000
 20
190.000000
 30
0.0
  0
VERTEX
  8
New_Layer_0
 10
-1555.000000
 20
192.250000
 30
0.0
  0
VERTEX
  8
New_Layer_0
 10
-1548.500000
 20
194.000000
 30
0.0
  0
VERTEX
  8
New_Layer_0
 10
-1541.750000
 20
195.500000
 30
0.0
  0
VERTEX
  8
New_Layer_0
 10
-1534.500000
 20
197.000000
 30
0.0
  0
VERTEX
  8
New_Layer_0
 10
-1528.000000
 20
198.000000
 30
0.0
  0
VERTEX
  8
New_Layer_0
 10
-1514.000000
 20
199.500000
 30
0.0
  0
VERTEX
  8
New_Layer_0
 10
-1500.000000
 20
200.000000
 30
0.0
  0
VERTEX
  8
New_Layer_0
 10
-1486.000000
 20
199.500000
 30
0.0
  0
VERTEX
  8
New_Layer_0
 10
-1472.000000
 20
198.000000
 30
0.0
  0
VERTEX
  8
New_Layer_0
 10
-1465.500000
 20
197.000000
 30
0.0
  0
VERTEX
  8
New_Layer_0
 10
-1458.250000
 20
195.500000
 30
0.0
  0
VERTEX
  8
New_Layer_0
 10
-1451.500000
 20
194.000000
 30
0.0
  0
VERTEX
  8
New_Layer_0
 10
-1445.000000
 20
192.250000
 30
0.0
  0
VERTEX
  8
New_Layer_0
 10
-1438.000000
 20
190.000000
 30
0.0
  0
VERTEX
  8
New_Layer_0
 10
-1431.500000
 20
187.750000
 30
0.0
  0
VERTEX
  8
New_Layer_0
 10
-1425.250000
 20
185.500000
 30
0.0
  0
VERTEX
  8
New_Layer_0
 10
-1418.750000
 20
182.750000
 30
0.0
  0
VERTEX
  8
New_Layer_0
 10
-1412.500000
 20
179.750000
 30
0.0
  0
VERTEX
  8
New_Layer_0
 10
-1406.000000
 20
176.500000
 30
0.0
  0
VERTEX
  8
New_Layer_0
 10
-1400.250000
 20
173.250000
 30
0.0
  0
VERTEX
  8
New_Layer_0
 10
-1394.250000
 20
169.750000
 30
0.0
  0
VERTEX
  8
New_Layer_0
 10
-1388.250000
 20
165.750000
 30
0.0
  0
VERTEX
  8
New_Layer_0
 10
-1382.500000
 20
161.750000
 30
0.0
  0
VERTEX
  8
New_Layer_0
 10
-1376.750000
 20
157.500000
 30
0.0
  0
VERTEX
  8
New_Layer_0
 10
-1371.500000
 20
153.250000
 30
0.0
  0
VERTEX
  8
New_Layer_0
 10
-1361.250000
 20
144.000000
 30
0.0
  0
VERTEX
  8
New_Layer_0
 10
-1356.000000
 20
138.750000
 30
0.0
  0
VERTEX
  8
New_Layer_0
 10
-1346.750000
 20
128.500000
 30
0.0
  0
VERTEX
  8
New_Layer_0
 10
-1342.500000
 20
123.250000
 30
0.0
  0
VERTEX
  8
New_Layer_0
 10
-1338.250000
 20
117.500000
 30
0.0
  0
VERTEX
  8
New_Layer_0
 10
-1334.250000
 20
111.750000
 30
0.0
  0
VERTEX
  8
New_Layer_0
 10
-1330.250000
 20
105.750000
 30
0.0
  0
VERTEX
  8
New_Layer_0
 10
-1326.750000
 20
99.750000
 30
0.0
  0
VERTEX
  8
New_Layer_0
 10
-1323.500000
 20
94.000000
 30
0.0
  0
VERTEX
  8
New_Layer_0
 10
-1320.250000
 20
87.500000
 30
0.0
  0
VERTEX
  8
New_Layer_0
 10
-1317.250000
 20
81.250000
 30
0.0
  0
VERTEX
  8
New_Layer_0
 10
-1314.500000
 20
74.750000
 30
0.0
  0
VERTEX
  8
New_Layer_0
 10
-1312.250000
 20
68.500000
 30
0.0
  0
VERTEX
  8
New_Layer_0
 10
-1310.000000
 20
62.000000
 30
0.0
  0
VERTEX
  8
New_Layer_0
 10
-1307.750000
 20
55.000000
 30
0.0
  0
VERTEX
  8
New_Layer_0
 10
-1306.000000
 20
48.500000
 30
0.0
  0
VERTEX
  8
New_Layer_0
 10
-1304.500000
 20
41.750000
 30
0.0
  0
VERTEX
  8
New_Layer_0
 10
-1303.000000
 20
34.500000
 30
0.0
  0
VERTEX
  8
New_Layer_0
 10
-1302.000000
 20
28.000000
 30
0.0
  0
VERTEX
  8
New_Layer_0
 10
-1300.500000
 20
14.000000
 30
0.0
  0
VERTEX
  8
New_Layer_0
 10
-1300.000000
 20
0.0
 30
0.0
  0
SEQEND
  8
New_Layer_0
  0
POLYLINE
  8
New_Layer_1
 66
       1
 70
       1
 10
0.0
 20
0.0
 30
0.0
  0
VERTEX
  8
New_Layer_1
 10
-625.000000
 20
0.0
 30
0.0
  0
VERTEX
  8
New_Layer_1
 10
-624.500000
 20
-11.000000
 30
0.0
  0
VERTEX
  8
New_Layer_1
 10
-623.750000
 20
-16.500000
 30
0.0
  0
VERTEX
  8
New_Layer_1
 10
-623.000000
 20
-21.750000
 30
0.0
  0
VERTEX
  8
New_Layer_1
 10
-622.000000
 20
-27.000000
 30
0.0
  0
VERTEX
  8
New_Layer_1
 10
-620.750000
 20
-32.250000
 30
0.0
  0
VERTEX
  8
New_Layer_1
 10
-619.000000
 20
-37.750000
 30
0.0
  0
VERTEX
  8
New_Layer_1
 10
-617.250000
 20
-43.000000
 30
0.0
  0
VERTEX
  8
New_Layer_1
 10
-615.500000
 20
-47.750000
 30
0.0
  0
VERTEX
  8
New_Layer_1
 10
-613.250000
 20
-52.750000
 30
0.0
  0
VERTEX
  8
New_Layer_1
 10
-610.750000
 20
-57.750000
 30
0.0
  0
VERTEX
  8
New_Layer_1
 10
-608.250000
 20
-62.500000
 30
0.0
  0
VERTEX
  8
New_Layer_1
 10
-605.500000
 20
-67.000000
 30
0.0
  0
VERTEX
  8
New_Layer_1
 10
-602.500000
 20
-71.500000
 30
0.0
  0
VERTEX
  8
New_Layer_1
 10
-599.000000
 20
-76.250000
 30
0.0
  0
VERTEX
  8
New_Layer_1
 10
-595.750000
 20
-80.250000
 30
0.0
  0
VERTEX
  8
New_Layer_1
 10
-592.250000
 20
-84.250000
 30
0.0
  0
VERTEX
  8
New_Layer_1
 10
-588.500000
 20
-88.250000
 30
0.0
  0
VERTEX
  8
New_Layer_1
 10
-584.250000
 20
-92.250000
 30
0.0
  0
VERTEX
  8
New_Layer_1
 10
-580.250000
 20
-95.750000
 30
0.0
  0
VERTEX
  8
New_Layer_1
 10
-576.250000
 20
-99.000000
 30
0.0
  0
VERTEX
  8
New_Layer_1
 10
-571.500000
 20
-102.500000
 30
0.0
  0
VERTEX
  8
New_Layer_1
 10
-567.000000
 20
-105.500000
 30
0.0
  0
VERTEX
  8
New_Layer_1
 10
-562.500000
 20
-108.250000
 30
0.0
  0
VERTEX
  8
New_Layer_1
 10
-557.750000
 20
-110.750000
 30
0.0
  0
VERTEX
  8
New_Layer_1
 10
-552.750000
 20
-113.250000
 30
0.0
  0
VERTEX
  8
New_Layer_1
 10
-547.750000
 20
-115.500000
 30
0.0
  0
VERTEX
  8
New_Layer_1
 10
-543.000000
 20
-117.250000
 30
0.0
  0
VERTEX
  8
New_Layer_1
 10
-537.750000
 20
-119.000000
 30
0.0
  0
VERTEX
  8
New_Layer_1
 10
-532.250000
 20
-120.750000
 30
0.0
  0
VERTEX
  8
New_Layer_1
 10
-527.000000
 20
-122.000000
 30
0.0
  0
VERTEX
  8
New_Layer_1
 10
-521.750000
 20
-123.000000
 30
0.0
  0
VERTEX
  8
New_Layer_1
 10
-516.500000
 20
-123.750000
 30
0.0
  0
VERTEX
  8
New_Layer_1
 10
-511.000000
 20
-124.500000
 30
0.0
  0
VERTEX
  8
New_Layer_1
 10
-500.000000
 20
-125.000000
 30
0.0
  0
VERTEX
  8
New_Layer_1
 10
500.000000
 20
-125.000000
 30
0.0
  0
VERTEX
  8
New_Layer_1
 10
511.000000
 20
-124.500000
 30
0.0
  0
VERTEX
  8
New_Layer_1
 10
516.500000
 20
-123.750000
 30
0.0
  0
VERTEX
  8
New_Layer_1
 10
521.750000
 20
-123.000000
 30
0.0
  0
VERTEX
  8
New_Layer_1
 10
527.000000
 20
-122.000000
 30
0.0
  0
VERTEX
  8
New_Layer_1
 10
532.250000
 20
-120.750000
 30
0.0
  0
VERTEX
  8
New_Layer_1
 10
537.750000
 20
-119.000000
 30
0.0
  0
VERTEX
  8
New_Layer_1
 10
543.000000
 20
-117.250000
 30
0.0
  0
VERTEX
  8
New_Layer_1
 10
547.750000
 20
-115.500000
 30
0.0
  0
VERTEX
  8
New_Layer_1
 10
552.750000
 20
-113.250000
 30
0.0
  0
VERTEX
  8
New_Layer_1
 10
557.750000
 20
-110.750000
 30
0.0
  0
VERTEX
  8
New_Layer_1
 10
562.500000
 20
-108.250000
 30
0.0
  0
VERTEX
  8
New_Layer_1
 10
567.000000
 20
-105.500000
 30
0.0
  0
VERTEX
  8
New_Layer_1
 10
571.500000
 20
-102.500000
 30
0.0
  0
VERTEX
  8
New_Layer_1
 10
576.250000
 20
-99.000000
 30
0.0
  0
VERTEX
  8
New_Layer_1
 10
580.250000
 20
-95.750000
 30
0.0
  0
VERTEX
  8
New_Layer_1
 10
584.250000
 20
-92.250000
 30
0.0
  0
VERTEX
  8
New_Layer_1
 10
588.500000
 20
-88.250000
 30
0.0
  0
VERTEX
  8
New_Layer_1
 10
592.250000
 20
-84.250000
 30
0.0
  0
VERTEX
  8
New_Layer_1
 10
595.750000
 20
-80.250000
 30
0.0
  0
VERTEX
  8
New_Layer_1
 10
599.000000
 20
-76.250000
 30
0.0
  0
VERTEX
  8
New_Layer_1
 10
602.500000
 20
-71.500000
 30
0.0
  0
VERTEX
  8
New_Layer_1
 10
605.500000
 20
-67.000000
 30
0.0
  0
VERTEX
  8
New_Layer_1
 10
608.250000
 20
-62.500000
 30
0.0
  0
VERTEX
  8
New_Layer_1
 10
610.750000
 20
-57.750000
 30
0.0
  0
VERTEX
  8
New_Layer_1
 10
613.250000
 20
-52.750000
 30
0.0
  0
VERTEX
  8
New_Layer_1
 10
615.500000
 20
-47.750000
 30
0.0
  0
VERTEX
  8
New_Layer_1
 10
617.250000
 20
-43.000000
 30
0.0
  0
VERTEX
  8
New_Layer_1
 10
619.000000
 20
-37.750000
 30
0.0
  0
VERTEX
  8
New_Layer_1
 10
620.750000
 20
-32.250000
 30
0.0
  0
VERTEX
  8
New_Layer_1
 10
622.000000
 20
-27.000000
 30
0.0
  0
VERTEX
  8
New_Layer_1
 10
623.000000
 20
-21.750000
 30
0.0
  0
VERTEX
  8
New_Layer_1
 10
623.750000
 20
-16.500000
 30
0.0
  0
VERTEX
  8
New_Layer_1
 10
624.500000
 20
-11.000000
 30
0.0
  0
VERTEX
  8
New_Layer_1
 10
625.000000
 20
0.0
 30
0.0
  0
VERTEX
  8
New_Layer_1
 10
624.500000
 20
11.000000
 30
0.0
  0
VERTEX
  8
New_Layer_1
 10
623.750000
 20
16.500000
 30
0.0
  0
VERTEX
  8
New_Layer_1
 10
623.000000
 20
21.750000
 30
0.0
  0
VERTEX
  8
New_Layer_1
 10
622.000000
 20
27.000000
 30
0.0
  0
VERTEX
  8
New_Layer_1
 10
620.750000
 20
32.250000
 30
0.0
  0
VERTEX
  8
New_Layer_1
 10
619.000000
 20
37.750000
 30
0.0
  0
VERTEX
  8
New_Layer_1
 10
617.250000
 20
43.000000
 30
0.0
  0
VERTEX
  8
New_Layer_1
 10
615.500000
 20
47.750000
 30
0.0
  0
VERTEX
  8
New_Layer_1
 10
613.250000
 20
52.750000
 30
0.0
  0
VERTEX
  8
New_Layer_1
 10
610.750000
 20
57.750000
 30
0.0
  0
VERTEX
  8
New_Layer_1
 10
608.250000
 20
62.500000
 30
0.0
  0
VERTEX
  8
New_Layer_1
 10
605.500000
 20
67.000000
 30
0.0
  0
VERTEX
  8
New_Layer_1
 10
602.500000
 20
71.500000
 30
0.0
  0
VERTEX
  8
New_Layer_1
 10
599.000000
 20
76.250000
 30
0.0
  0
VERTEX
  8
New_Layer_1
 10
595.750000
 20
80.250000
 30
0.0
  0
VERTEX
  8
New_Layer_1
 10
592.250000
 20
84.250000
 30
0.0
  0
VERTEX
  8
New_Layer_1
 10
588.500000
 20
88.250000
 30
0.0
  0
VERTEX
  8
New_Layer_1
 10
584.250000
 20
92.250000
 30
0.0
  0
VERTEX
  8
New_Layer_1
 10
580.250000
 20
95.750000
 30
0.0
  0
VERTEX
  8
New_Layer_1
 10
576.250000
 20
99.000000
 30
0.0
  0
VERTEX
  8
New_Layer_1
 10
571.500000
 20
102.500000
 30
0.0
  0
VERTEX
  8
New_Layer_1
 10
567.000000
 20
105.500000
 30
0.0
  0
VERTEX
  8
New_Layer_1
 10
562.500000
 20
108.250000
 30
0.0
  0
VERTEX
  8
New_Layer_1
 10
557.750000
 20
110.750000
 30
0.0
  0
VERTEX
  8
New_Layer_1
 10
552.750000
 20
113.250000
 30
0.0
  0
VERTEX
  8
New_Layer_1
 10
547.750000
 20
115.500000
 30
0.0
  0
VERTEX
  8
New_Layer_1
 10
543.000000
 20
117.250000
 30
0.0
  0
VERTEX
  8
New_Layer_1
 10
537.750000
 20
119.000000
 30
0.0
  0
VERTEX
  8
New_Layer_1
 10
532.250000
 20
120.750000
 30
0.0
  0
VERTEX
  8
New_Layer_1
 10
527.000000
 20
122.000000
 30
0.0
  0
VERTEX
  8
New_Layer_1
 10
521.750000
 20
123.000000
 30
0.0
  0
VERTEX
  8
New_Layer_1
 10
516.500000
 20
123.750000
 30
0.0
  0
VERTEX
  8
New_Layer_1
 10
511.000000
 20
124.500000
 30
0.0
  0
VERTEX
  8
New_Layer_1
 10
500.000000
 20
125.000000
 30
0.0
  0
VERTEX
  8
New_Layer_1
 10
-500.000000
 20
125.000000
 30
0.0
  0
VERTEX
  8
New_Layer_1
 10
-511.000000
 20
124.500000
 30
0.0
  0
VERTEX
  8
New_Layer_1
 10
-516.500000
 20
123.750000
 30
0.0
  0
VERTEX
  8
New_Layer_1
 10
-521.750000
 20
123.000000
 30
0.0
  0
VERTEX
  8
New_Layer_1
 10
-527.000000
 20
122.000000
 30
0.0
  0
VERTEX
  8
New_Layer_1
 10
-532.250000
 20
120.750000
 30
0.0
  0
VERTEX
  8
New_Layer_1
 10
-537.750000
 20
119.000000
 30
0.0
  0
VERTEX
  8
New_Layer_1
 10
-543.000000
 20
117.250000
 30
0.0
  0
VERTEX
  8
New_Layer_1
 10
-547.750000
 20
115.500000
 30
0.0
  0
VERTEX
  8
New_Layer_1
 10
-552.750000
 20
113.250000
 30
0.0
  0
VERTEX
  8
New_Layer_1
 10
-557.750000
 20
110.750000
 30
0.0
  0
VERTEX
  8
New_Layer_1
 10
-562.500000
 20
108.250000
 30
0.0
  0
VERTEX
  8
New_Layer_1
 10
-567.000000
 20
105.500000
 30
0.0
  0
VERTEX
  8
New_Layer_1
 10
-571.500000
 20
102.500000
 30
0.0
  0
VERTEX
  8
New_Layer_1
 10
-576.250000
 20
99.000000
 30
0.0
  0
VERTEX
  8
New_Layer_1
 10
-580.250000
 20
95.750000
 30
0.0
  0
VERTEX
  8
New_Layer_1
 10
-584.250000
 20
92.250000
 30
0.0
  0
VERTEX
  8
New_Layer_1
 10
-588.500000
 20
88.250000
 30
0.0
  0
VERTEX
  8
New_Layer_1
 10
-592.250000
 20
84.250000
 30
0.0
  0
VERTEX
  8
New_Layer_1
 10
-595.750000
 20
80.250000
 30
0.0
  0
VERTEX
  8
New_Layer_1
 10
-599.000000
 20
76.250000
 30
0.0
  0
VERTEX
  8
New_Layer_1
 10
-602.500000
 20
71.500000
 30
0.0
  0
VERTEX
  8
New_Layer_1
 10
-605.500000
 20
67.000000
 30
0.0
  0
VERTEX
  8
New_Layer_1
 10
-608.250000
 20
62.500000
 30
0.0
  0
VERTEX
  8
New_Layer_1
 10
-610.750000
 20
57.750000
 30
0.0
  0
VERTEX
  8
New_Layer_1
 10
-613.250000
 20
52.750000
 30
0.0
  0
VERTEX
  8
New_Layer_1
 10
-615.500000
 20
47.750000
 30
0.0
  0
VERTEX
  8
New_Layer_1
 10
-617.250000
 20
43.000000
 30
0.0
  0
VERTEX
  8
New_Layer_1
 10
-619.000000
 20
37.750000
 30
0.0
  0
VERTEX
  8
New_Layer_1
 10
-620.750000
 20
32.250000
 30
0.0
  0
VERTEX
  8
New_Layer_1
 10
-622.000000
 20
27.000000
 30
0.0
  0
VERTEX
  8
New_Layer_1
 10
-623.000000
 20
21.750000
 30
0.0
  0
VERTEX
  8
New_Layer_1
 10
-623.750000
 20
16.500000
 30
0.0
  0
VERTEX
  8
New_Layer_1
 10
-624.500000
 20
11.000000
 30
0.0
  0
SEQEND
  8
New_Layer_1
  0
POLYLINE
  8
New_Layer_1
 66
       1
 70
       1
 10
0.0
 20
0.0
 30
0.0
  0
VERTEX
  8
New_Layer_1
 10
48.250000
 20
300.000000
 30
0.0
  0
VERTEX
  8
New_Layer_1
 10
48.750000
 20
289.000000
 30
0.0
  0
VERTEX
  8
New_Layer_1
 10
49.500000
 20
283.500000
 30
0.0
  0
VERTEX
  8
New_Layer_1
 10
50.250000
 20
278.250000
 30
0.0
  0
VERTEX
  8
New_Layer_1
 10
51.250000
 20
272.750000
 30
0.0
  0
VERTEX
  8
New_Layer_1
 10
52.500000
 20
267.500000
 30
0.0
  0
VERTEX
  8
New_Layer_1
 10
54.000000
 20
262.500000
 30
0.0
  0
VERTEX
  8
New_Layer_1
 10
55.750000
 20
257.250000
 30
0.0
  0
VERTEX
  8
New_Layer_1
 10
57.750000
 20
252.250000
 30
0.0
  0
VERTEX
  8
New_Layer_1
 10
60.000000
 20
247.000000
 30
0.0
  0
VERTEX
  8
New_Layer_1
 10
62.250000
 20
242.500000
 30
0.0
  0
VERTEX
  8
New_Layer_1
 10
65.000000
 20
237.500000
 30
0.0
  0
VERTEX
  8
New_Layer_1
 10
67.750000
 20
233.000000
 30
0.0
  0
VERTEX
  8
New_Layer_1
 10
70.750000
 20
228.500000
 30
0.0
  0
VERTEX
  8
New_Layer_1
 10
74.000000
 20
224.000000
 30
0.0
  0
VERTEX
  8
New_Layer_1
 10
77.500000
 20
219.750000
 30
0.0
  0
VERTEX
  8
New_Layer_1
 10
81.000000
 20
215.750000
 30
0.0
  0
VERTEX
  8
New_Layer_1
 10
85.000000
 20
211.500000
 30
0.0
  0
VERTEX
  8
New_Layer_1
 10
89.000000
 20
207.750000
 30
0.0
  0
VERTEX
  8
New_Layer_1
 10
93.000000
 20
204.250000
 30
0.0
  0
VERTEX
  8
New_Layer_1
 10
97.250000
 20
200.750000
 30
0.0
  0
VERTEX
  8
New_Layer_1
 10
101.750000
 20
197.500000
 30
0.0
  0
VERTEX
  8
New_Layer_1
 10
106.250000
 20
194.500000
 30
0.0
  0
VERTEX
  8
New_Layer_1
 10
110.750000
 20
191.750000
 30
0.0
  0
VERTEX
  8
New_Layer_1
 10
115.250000
 20
189.250000
 30
0.0
  0
VERTEX
  8
New_Layer_1
 10
120.500000
 20
186.750000
 30
0.0
  0
VERTEX
  8
New_Layer_1
 10
125.500000
 20
184.500000
 30
0.0
  0
VERTEX
  8
New_Layer_1
 10
130.250000
 20
182.750000
 30
0.0
  0
VERTEX
  8
New_Layer_1
 10
135.750000
 20
180.750000
 30
0.0
  0
VERTEX
  8
New_Layer_1
 10
141.000000
 20
179.250000
 30
0.0
  0
VERTEX
  8
New_Layer_1
 10
146.000000
 20
178.000000
 30
0.0
  0
VERTEX
  8
New_Layer_1
 10
151.250000
 20
177.000000
 30
0.0
  0
VERTEX
  8
New_Layer_1
 10
162.250000
 20
175.500000
 30
0.0
  0
VERTEX
  8
New_Layer_1
 10
173.250000
 20
174.750000
 30
0.0
  0
VERTEX
  8
New_Layer_1
 10
184.250000
 20
175.500000
 30
0.0
  0
VERTEX
  8
New_Layer_1
 10
189.750000
 20
176.250000
 30
0.0
  0
VERTEX
  8
New_Layer_1
 10
195.000000
 20
177.000000
 30
0.0
  0
VERTEX
  8
New_Layer_1
 10
200.250000
 20
178.000000
 30
0.0
  0
VERTEX
  8
New_Layer_1
 10
205.500000
 20
179.250000
 30
0.0
  0
VERTEX
  8
New_Layer_1
 10
215.750000
 20
182.500000
 30
0.0
  0
VERTEX
  8
New_Layer_1
 10
221.250000
 20
184.750000
 30
0.0
  0
VERTEX
  8
New_Layer_1
 10
226.000000
 20
186.750000
 30
0.0
  0
VERTEX
  8
New_Layer_1
 10
231.000000
 20
189.250000
 30
0.0
  0
VERTEX
  8
New_Layer_1
 10
235.500000
 20
191.750000
 30
0.0
  0
VERTEX
  8
New_Layer_1
 10
240.500000
 20
194.750000
 30
0.0
  0
VERTEX
  8
New_Layer_1
 10
245.000000
 20
197.750000
 30
0.0
  0
VERTEX
  8
New_Layer_1
 10
249.500000
 20
201.000000
 30
0.0
  0
VERTEX
  8
New_Layer_1
 10
253.500000
 20
204.250000
 30
0.0
  0
VERTEX
  8
New_Layer_1
 10
257.500000
 20
207.750000
 30
0.0
  0
VERTEX
  8
New_Layer_1
 10
265.500000
 20
215.750000
 30
0.0
  0
VERTEX
  8
New_Layer_1
 10
269.000000
 20
219.750000
 30
0.0
  0
VERTEX
  8
New_Layer_1
 10
272.250000
 20
223.750000
 30
0.0
  0
VERTEX
  8
New_Layer_1
 10
275.500000
 20
228.250000
 30
0.0
  0
VERTEX
  8
New_Layer_1
 10
278.500000
 20
232.750000
 30
0.0
  0
VERTEX
  8
New_Layer_1
 10
281.250000
 20
237.250000
 30
0.0
  0
VERTEX
  8
New_Layer_1
 10
281.403000
 20
237.529000
 30
0.0
  0
VERTEX
  8
New_Layer_1
 10
281.453000
 20
237.500000
 30
0.0
  0
VERTEX
  8
New_Layer_1
 10
5108.253000
 20
8597.700000
 30
0.0
  0
VERTEX
  8
New_Layer_1
 10
5108.228000
 20
8597.714000
 30
0.0
  0
VERTEX
  8
New_Layer_1
 10
5108.250000
 20
8597.750000
 30
0.0
  0
VERTEX
  8
New_Layer_1
 10
5110.750000
 20
8602.250000
 30
0.0
  0
VERTEX
  8
New_Layer_1
 10
5113.250000
 20
8607.500000
 30
0.0
  0
VERTEX
  8
New_Layer_1
 10
5115.500000
 20
8612.500000
 30
0.0
  0
VERTEX
  8
New_Layer_1
 10
5117.250000
 20
8617.250000
 30
0.0
  0
VERTEX
  8
New_Layer_1
 10
5119.250000
 20
8622.750000
 30
0.0
  0
VERTEX
  8
New_Layer_1
 10
5120.750000
 20
8628.000000
 30
0.0
  0
VERTEX
  8
New_Layer_1
 10
5122.000000
 20
8633.000000
 30
0.0
  0
VERTEX
  8
New_Layer_1
 10
5123.000000
 20
8638.250000
 30
0.0
  0
VERTEX
  8
New_Layer_1
 10
5124.500000
 20
8649.250000
 30
0.0
  0
VERTEX
  8
New_Layer_1
 10
5124.750000
 20
8654.500000
 30
0.0
  0
VERTEX
  8
New_Layer_1
 10
5124.750000
 20
8665.750000
 30
0.0
  0
VERTEX
  8
New_Layer_1
 10
5124.500000
 20
8671.250000
 30
0.0
  0
VERTEX
  8
New_Layer_1
 10
5123.750000
 20
8676.750000
 30
0.0
  0
VERTEX
  8
New_Layer_1
 10
5123.000000
 20
8682.000000
 30
0.0
  0
VERTEX
  8
New_Layer_1
 10
5122.000000
 20
8687.250000
 30
0.0
  0
VERTEX
  8
New_Layer_1
 10
5120.750000
 20
8692.500000
 30
0.0
  0
VERTEX
  8
New_Layer_1
 10
5117.500000
 20
8702.750000
 30
0.0
  0
VERTEX
  8
New_Layer_1
 10
5115.250000
 20
8708.250000
 30
0.0
  0
VERTEX
  8
New_Layer_1
 10
5113.250000
 20
8713.000000
 30
0.0
  0
VERTEX
  8
New_Layer_1
 10
5110.750000
 20
8718.000000
 30
0.0
  0
VERTEX
  8
New_Layer_1
 10
5108.250000
 20
8722.500000
 30
0.0
  0
VERTEX
  8
New_Layer_1
 10
5105.250000
 20
8727.500000
 30
0.0
  0
VERTEX
  8
New_Layer_1
 10
5102.250000
 20
8732.000000
 30
0.0
  0
VERTEX
  8
New_Layer_1
 10
5099.000000
 20
8736.500000
 30
0.0
  0
VERTEX
  8
New_Layer_1
 10
5095.750000
 20
8740.500000
 30
0.0
  0
VERTEX
  8
New_Layer_1
 10
5092.250000
 20
8744.500000
 30
0.0
  0
VERTEX
  8
New_Layer_1
 10
5084.250000
 20
8752.500000
 30
0.0
  0
VERTEX
  8
New_Layer_1
 10
5080.250000
 20
8756.000000
 30
0.0
  0
VERTEX
  8
New_Layer_1
 10
5076.250000
 20
8759.250000
 30
0.0
  0
VERTEX
  8
New_Layer_1
 10
5071.750000
 20
8762.500000
 30
0.0
  0
VERTEX
  8
New_Layer_1
 10
5067.250000
 20
8765.500000
 30
0.0
  0
VERTEX
  8
New_Layer_1
 10
5062.250000
 20
8768.500000
 30
0.0
  0
VERTEX
  8
New_Layer_1
 10
5057.750000
 20
8771.000000
 30
0.0
  0
VERTEX
  8
New_Layer_1
 10
5052.750000
 20
8773.500000
 30
0.0
  0
VERTEX
  8
New_Layer_1
 10
5048.000000
 20
8775.500000
 30
0.0
  0
VERTEX
  8
New_Layer_1
 10
5043.000000
 20
8777.500000
 30
0.0
  0
VERTEX
  8
New_Layer_1
 10
5037.750000
 20
8779.250000
 30
0.0
  0
VERTEX
  8
New_Layer_1
 10
5032.500000
 20
8780.750000
 30
0.0
  0
VERTEX
  8
New_Layer_1
 10
5027.250000
 20
8782.000000
 30
0.0
  0
VERTEX
  8
New_Layer_1
 10
5021.750000
 20
8783.250000
 30
0.0
  0
VERTEX
  8
New_Layer_1
 10
5016.500000
 20
8784.000000
 30
0.0
  0
VERTEX
  8
New_Layer_1
 10
5005.500000
 20
8785.000000
 30
0.0
  0
VERTEX
  8
New_Layer_1
 10
4994.500000
 20
8785.000000
 30
0.0
  0
VERTEX
  8
New_Layer_1
 10
4983.500000
 20
8784.000000
 30
0.0
  0
VERTEX
  8
New_Layer_1
 10
4978.250000
 20
8783.250000
 30
0.0
  0
VERTEX
  8
New_Layer_1
 10
4972.750000
 20
8782.000000
 30
0.0
  0
VERTEX
  8
New_Layer_1
 10
4967.500000
 20
8780.750000
 30
0.0
  0
VERTEX
  8
New_Layer_1
 10
4962.250000
 20
8779.250000
 30
0.0
  0
VERTEX
  8
New_Layer_1
 10
4957.000000
 20
8777.500000
 30
0.0
  0
VERTEX
  8
New_Layer_1
 10
4952.000000
 20
8775.500000
 30
0.0
  0
VERTEX
  8
New_Layer_1
 10
4947.250000
 20
8773.500000
 30
0.0
  0
VERTEX
  8
New_Layer_1
 10
4942.250000
 20
8771.000000
 30
0.0
  0
VERTEX
  8
New_Layer_1
 10
4937.250000
 20
8768.250000
 30
0.0
  0
VERTEX
  8
New_Layer_1
 10
4932.750000
 20
8765.500000
 30
0.0
  0
VERTEX
  8
New_Layer_1
 10
4928.250000
 20
8762.500000
 30
0.0
  0
VERTEX
  8
New_Layer_1
 10
4923.750000
 20
8759.250000
 30
0.0
  0
VERTEX
  8
New_Layer_1
 10
4919.750000
 20
8756.000000
 30
0.0
  0
VERTEX
  8
New_Layer_1
 10
4915.750000
 20
8752.500000
 30
0.0
  0
VERTEX
  8
New_Layer_1
 10
4907.750000
 20
8744.500000
 30
0.0
  0
VERTEX
  8
New_Layer_1
 10
4904.250000
 20
8740.500000
 30
0.0
  0
VERTEX
  8
New_Layer_1
 10
4901.000000
 20
8736.500000
 30
0.0
  0
VERTEX
  8
New_Layer_1
 10
4897.750000
 20
8732.000000
 30
0.0
  0
VERTEX
  8
New_Layer_1
 10
4894.750000
 20
8727.500000
 30
0.0
  0
VERTEX
  8
New_Layer_1
 10
4891.838000
 20
8722.647000
 30
0.0
  0
VERTEX
  8
New_Layer_1
 10
4891.747000
 20
8722.700000
 30
0.0
  0
VERTEX
  8
New_Layer_1
 10
64.947000
 20
362.500000
 30
0.0
  0
VERTEX
  8
New_Layer_1
 10
64.987000
 20
362.477000
 30
0.0
  0
VERTEX
  8
New_Layer_1
 10
62.250000
 20
357.500000
 30
0.0
  0
VERTEX
  8
New_Layer_1
 10
60.000000
 20
353.000000
 30
0.0
  0
VERTEX
  8
New_Layer_1
 10
57.750000
 20
347.750000
 30
0.0
  0
VERTEX
  8
New_Layer_1
 10
55.750000
 20
342.750000
 30
0.0
  0
VERTEX
  8
New_Layer_1
 10
54.000000
 20
337.500000
 30
0.0
  0
VERTEX
  8
New_Layer_1
 10
52.500000
 20
332.500000
 30
0.0
  0
VERTEX
  8
New_Layer_1
 10
51.250000
 20
327.250000
 30
0.0
  0
VERTEX
  8
New_Layer_1
 10
50.250000
 20
321.750000
 30
0.0
  0
VERTEX
  8
New_Layer_1
 10
49.500000
 20
316.500000
 30
0.0
  0
VERTEX
  8
New_Layer_1
 10
48.750000
 20
311.000000
 30
0.0
  0
SEQEND
  8
New_Layer_1
  0
POLYLINE
  8
New_Layer_1
 66
       1
 70
       1
 10
0.0
 20
0.0
 30
0.0
  0
VERTEX
  8
New_Layer_1
 10
-5125.250000
 20
8660.250000
 30
0.0
  0
VERTEX
  8
New_Layer_1
 10
-5124.500000
 20
8649.250000
 30
0.0
  0
VERTEX
  8
New_Layer_1
 10
-5123.000000
 20
8638.250000
 30
0.0
  0
VERTEX
  8
New_Layer_1
 10
-5122.000000
 20
8633.000000
 30
0.0
  0
VERTEX
  8
New_Layer_1
 10
-5120.750000
 20
8628.000000
 30
0.0
  0
VERTEX
  8
New_Layer_1
 10
-5119.250000
 20
8622.750000
 30
0.0
  0
VERTEX
  8
New_Layer_1
 10
-5117.250000
 20
8617.250000
 30
0.0
  0
VERTEX
  8
New_Layer_1
 10
-5115.500000
 20
8612.500000
 30
0.0
  0
VERTEX
  8
New_Layer_1
 10
-5113.250000
 20
8607.500000
 30
0.0
  0
VERTEX
  8
New_Layer_1
 10
-5110.750000
 20
8602.250000
 30
0.0
  0
VERTEX
  8
New_Layer_1
 10
-5108.229000
 20
8597.714000
 30
0.0
  0
VERTEX
  8
New_Layer_1
 10
-5108.253000
 20
8597.700000
 30
0.0
  0
VERTEX
  8
New_Layer_1
 10
-281.453000
 20
237.500000
 30
0.0
  0
VERTEX
  8
New_Layer_1
 10
-281.404000
 20
237.529000
 30
0.0
  0
VERTEX
  8
New_Layer_1
 10
-281.250000
 20
237.250000
 30
0.0
  0
VERTEX
  8
New_Layer_1
 10
-278.500000
 20
232.750000
 30
0.0
  0
VERTEX
  8
New_Layer_1
 10
-275.500000
 20
228.250000
 30
0.0
  0
VERTEX
  8
New_Layer_1
 10
-272.250000
 20
223.750000
 30
0.0
  0
VERTEX
  8
New_Layer_1
 10
-269.000000
 20
219.750000
 30
0.0
  0
VERTEX
  8
New_Layer_1
 10
-265.500000
 20
215.750000
 30
0.0
  0
VERTEX
  8
New_Layer_1
 10
-257.500000
 20
207.750000
 30
0.0
  0
VERTEX
  8
New_Layer_1
 10
-253.500000
 20
204.250000
 30
0.0
  0
VERTEX
  8
New_Layer_1
 10
-249.500000
 20
201.000000
 30
0.0
  0
VERTEX
  8
New_Layer_1
 10
-245.000000
 20
197.750000
 30
0.0
  0
VERTEX
  8
New_Layer_1
 10
-240.500000
 20
194.750000
 30
0.0
  0
VERTEX
  8
New_Layer_1
 10
-235.500000
 20
191.750000
 30
0.0
  0
VERTEX
  8
New_Layer_1
 10
-231.000000
 20
189.250000
 30
0.0
  0
VERTEX
  8
New_Layer_1
 10
-226.000000
 20
186.750000
 30
0.0
  0
VERTEX
  8
New_Layer_1
 10
-221.250000
 20
184.750000
 30
0.0
  0
VERTEX
  8
New_Layer_1
 10
-215.750000
 20
182.500000
 30
0.0
  0
VERTEX
  8
New_Layer_1
 10
-205.500000
 20
179.250000
 30
0.0
  0
VERTEX
  8
New_Layer_1
 10
-200.250000
 20
178.000000
 30
0.0
  0
VERTEX
  8
New_Layer_1
 10
-195.000000
 20
177.000000
 30
0.0
  0
VERTEX
  8
New_Layer_1
 10
-189.750000
 20
176.250000
 30
0.0
  0
VERTEX
  8
New_Layer_1
 10
-184.250000
 20
175.500000
 30
0.0
  0
VERTEX
  8
New_Layer_1
 10
-173.250000
 20
174.750000
 30
0.0
  0
VERTEX
  8
New_Layer_1
 10
-162.250000
 20
175.500000
 30
0.0
  0
VERTEX
  8
New_Layer_1
 10
-151.250000
 20
177.000000
 30
0.0
  0
VERTEX
  8
New_Layer_1
 10
-146.000000
 20
178.000000
 30
0.0
  0
VERTEX
  8
New_Layer_1
 10
-141.000000
 20
179.250000
 30
0.0
  0
VERTEX
  8
New_Layer_1
 10
-135.750000
 20
180.750000
 30
0.0
  0
VERTEX
  8
New_Layer_1
 10
-130.250000
 20
182.750000
 30
0.0
  0
VERTEX
  8
New_Layer_1
 10
-125.500000
 20
184.500000
 30
0.0
  0
VERTEX
  8
New_Layer_1
 10
-120.500000
 20
186.750000
 30
0.0
  0
VERTEX
  8
New_Layer_1
 10
-115.250000
 20
189.250000
 30
0.0
  0
VERTEX
  8
New_Layer_1
 10
-110.750000
 20
191.750000
 30
0.0
  0
VERTEX
  8
New_Layer_1
 10
-106.250000
 20
194.500000
 30
0.0
  0
VERTEX
  8
New_Layer_1
 10
-101.750000
 20
197.500000
 30
0.0
  0
VERTEX
  8
New_Layer_1
 10
-97.250000
 20
200.750000
 30
0.0
  0
VERTEX
  8
New_Layer_1
 10
-93.000000
 20
204.250000
 30
0.0
  0
VERTEX
  8
New_Layer_1
 10
-89.000000
 20
207.750000
 30
0.0
  0
VERTEX
  8
New_Layer_1
 10
-85.000000
 20
211.500000
 30
0.0
  0
VERTEX
  8
New_Layer_1
 10
-81.000000
 20
215.750000
 30
0.0
  0
VERTEX
  8
New_Layer_1
 10
-77.500000
 20
219.750000
 30
0.0
  0
VERTEX
  8
New_Layer_1
 10
-74.000000
 20
224.000000
 30
0.0
  0
VERTEX
  8
New_Layer_1
 10
-70.750000
 20
228.500000
 30
0.0
  0
VERTEX
  8
New_Layer_1
 10
-67.750000
 20
233.000000
 30
0.0
  0
VERTEX
  8
New_Layer_1
 10
-65.000000
 20
237.500000
 30
0.0
  0
VERTEX
  8
New_Layer_1
 10
-62.250000
 20
242.500000
 30
0.0
  0
VERTEX
  8
New_Layer_1
 10
-60.000000
 20
247.000000
 30
0.0
  0
VERTEX
  8
New_Layer_1
 10
-57.750000
 20
252.250000
 30
0.0
  0
VERTEX
  8
New_Layer_1
 10
-55.750000
 20
257.250000
 30
0.0
  0
VERTEX
  8
New_Layer_1
 10
-54.000000
 20
262.500000
 30
0.0
  0
VERTEX
  8
New_Layer_1
 10
-52.500000
 20
267.500000
 30
0.0
  0
VERTEX
  8
New_Layer_1
 10
-51.250000
 20
272.750000
 30
0.0
  0
VERTEX
  8
New_Layer_1
 10
-50.250000
 20
278.250000
 30
0.0
  0
VERTEX
  8
New_Layer_1
 10
-49.500000
 20
283.500000
 30
0.0
  0
VERTEX
  8
New_Layer_1
 10
-48.750000
 20
289.000000
 30
0.0
  0
VERTEX
  8
New_Layer_1
 10
-48.250000
 20
300.000000
 30
0.0
  0
VERTEX
  8
New_Layer_1
 10
-48.750000
 20
311.000000
 30
0.0
  0
VERTEX
  8
New_Layer_1
 10
-49.500000
 20
316.500000
 30
0.0
  0
VERTEX
  8
New_Layer_1
 10
-50.250000
 20
321.750000
 30
0.0
  0
VERTEX
  8
New_Layer_1
 10
-51.250000
 20
327.250000
 30
0.0
  0
VERTEX
  8
New_Layer_1
 10
-52.500000
 20
332.500000
 30
0.0
  0
VERTEX
  8
New_Layer_1
 10
-54.000000
 20
337.500000
 30
0.0
  0
VERTEX
  8
New_Layer_1
 10
-55.750000
 20
342.750000
 30
0.0
  0
VERTEX
  8
New_Layer_1
 10
-57.750000
 20
347.750000
 30
0.0
  0
VERTEX
  8
New_Layer_1
 10
-60.000000
 20
353.000000
 30
0.0
  0
VERTEX
  8
New_Layer_1
 10
-62.250000
 20
357.500000
 30
0.0
  0
VERTEX
  8
New_Layer_1
 10
-64.988000
 20
362.477000
 30
0.0
  0
VERTEX
  8
New_Layer_1
 10
-64.947000
 20
362.500000
 30
0.0
  0
VERTEX
  8
New_Layer_1
 10
-4891.747000
 20
8722.700000
 30
0.0
  0
VERTEX
  8
New_Layer_1
 10
-4891.839000
 20
8722.647000
 30
0.0
  0
VERTEX
  8
New_Layer_1
 10
-4894.750000
 20
8727.500000
 30
0.0
  0
VERTEX
  8
New_Layer_1
 10
-4897.750000
 20
8732.000000
 30
0.0
  0
VERTEX
  8
New_Layer_1
 10
-4901.000000
 20
8736.500000
 30
0.0
  0
VERTEX
  8
New_Layer_1
 10
-4904.250000
 20
8740.500000
 30
0.0
  0
VERTEX
  8
New_Layer_1
 10
-4907.750000
 20
8744.500000
 30
0.0
  0
VERTEX
  8
New_Layer_1
 10
-4915.750000
 20
8752.500000
 30
0.0
  0
VERTEX
  8
New_Layer_1
 10
-4919.750000
 20
8756.000000
 30
0.0
  0
VERTEX
  8
New_Layer_1
 10
-4923.750000
 20
8759.250000
 30
0.0
  0
VERTEX
  8
New_Layer_1
 10
-4928.250000
 20
8762.500000
 30
0.0
  0
VERTEX
  8
New_Layer_1
 10
-4932.750000
 20
8765.500000
 30
0.0
  0
VERTEX
  8
New_Layer_1
 10
-4937.750000
 20
8768.500000
 30
0.0
  0
VERTEX
  8
New_Layer_1
 10
-4942.250000
 20
8771.000000
 30
0.0
  0
VERTEX
  8
New_Layer_1
 10
-4947.250000
 20
8773.500000
 30
0.0
  0
VERTEX
  8
New_Layer_1
 10
-4952.000000
 20
8775.500000
 30
0.0
  0
VERTEX
  8
New_Layer_1
 10
-4957.000000
 20
8777.500000
 30
0.0
  0
VERTEX
  8
New_Layer_1
 10
-4962.250000
 20
8779.250000
 30
0.0
  0
VERTEX
  8
New_Layer_1
 10
-4967.500000
 20
8780.750000
 30
0.0
  0
VERTEX
  8
New_Layer_1
 10
-4972.750000
 20
8782.000000
 30
0.0
  0
VERTEX
  8
New_Layer_1
 10
-4978.250000
 20
8783.250000
 30
0.0
  0
VERTEX
  8
New_Layer_1
 10
-4983.500000
 20
8784.000000
 30
0.0
  0
VERTEX
  8
New_Layer_1
 10
-4994.500000
 20
8785.000000
 30
0.0
  0
VERTEX
  8
New_Layer_1
 10
-5005.500000
 20
8785.000000
 30
0.0
  0
VERTEX
  8
New_Layer_1
 10
-5016.500000
 20
8784.000000
 30
0.0
  0
VERTEX
  8
New_Layer_1
 10
-5021.750000
 20
8783.250000
 30
0.0
  0
VERTEX
  8
New_Layer_1
 10
-5027.250000
 20
8782.000000
 30
0.0
  0
VERTEX
  8
New_Layer_1
 10
-5032.500000
 20
8780.750000
 30
0.0
  0
VERTEX
  8
New_Layer_1
 10
-5037.750000
 20
8779.250000
 30
0.0
  0
VERTEX
  8
New_Layer_1
 10
-5043.000000
 20
8777.500000
 30
0.0
  0
VERTEX
  8
New_Layer_1
 10
-5048.000000
 20
8775.500000
 30
0.0
  0
VERTEX
  8
New_Layer_1
 10
-5052.750000
 20
8773.500000
 30
0.0
  0
VERTEX
  8
New_Layer_1
 10
-5057.750000
 20
8771.000000
 30
0.0
  0
VERTEX
  8
New_Layer_1
 10
-5062.750000
 20
8768.250000
 30
0.0
  0
VERTEX
  8
New_Layer_1
 10
-5067.250000
 20
8765.500000
 30
0.0
  0
VERTEX
  8
New_Layer_1
 10
-5071.750000
 20
8762.500000
 30
0.0
  0
VERTEX
  8
New_Layer_1
 10
-5076.250000
 20
8759.250000
 30
0.0
  0
VERTEX
  8
New_Layer_1
 10
-5080.250000
 20
8756.000000
 30
0.0
  0
VERTEX
  8
New_Layer_1
 10
-5084.250000
 20
8752.500000
 30
0.0
  0
VERTEX
  8
New_Layer_1
 10
-5092.250000
 20
8744.500000
 30
0.0
  0
VERTEX
  8
New_Layer_1
 10
-5095.750000
 20
8740.500000
 30
0.0
  0
VERTEX
  8
New_Layer_1
 10
-5099.000000
 20
8736.500000
 30
0.0
  0
VERTEX
  8
New_Layer_1
 10
-5102.250000
 20
8732.000000
 30
0.0
  0
VERTEX
  8
New_Layer_1
 10
-5105.250000
 20
8727.500000
 30
0.0
  0
VERTEX
  8
New_Layer_1
 10
-5108.250000
 20
8722.500000
 30
0.0
  0
VERTEX
  8
New_Layer_1
 10
-5110.750000
 20
8718.000000
 30
0.0
  0
VERTEX
  8
New_Layer_1
 10
-5113.250000
 20
8713.000000
 30
0.0
  0
VERTEX
  8
New_Layer_1
 10
-5115.250000
 20
8708.250000
 30
0.0
  0
VERTEX
  8
New_Layer_1
 10
-5117.500000
 20
8702.750000
 30
0.0
  0
VERTEX
  8
New_Layer_1
 10
-5120.750000
 20
8692.500000
 30
0.0
  0
VERTEX
  8
New_Layer_1
 10
-5122.000000
 20
8687.250000
 30
0.0
  0
VERTEX
  8
New_Layer_1
 10
-5123.000000
 20
8682.000000
 30
0.0
  0
VERTEX
  8
New_Layer_1
 10
-5123.750000
 20
8676.750000
 30
0.0
  0
VERTEX
  8
New_Layer_1
 10
-5124.500000
 20
8671.250000
 30
0.0
  0
SEQEND
  8
New_Layer_1
  0
POLYLINE
  8
New_Layer_1
 66
       1
 70
       1
 10
0.0
 20
0.0
 30
0.0
  0
VERTEX
  8
New_Layer_1
 10
-5125.250000
 20
-8660.250000
 30
0.0
  0
VERTEX
  8
New_Layer_1
 10
-5124.500000
 20
-8671.250000
 30
0.0
  0
VERTEX
  8
New_Layer_1
 10
-5123.750000
 20
-8676.750000
 30
0.0
  0
VERTEX
  8
New_Layer_1
 10
-5123.000000
 20
-8682.000000
 30
0.0
  0
VERTEX
  8
New_Layer_1
 10
-5122.000000
 20
-8687.250000
 30
0.0
  0
VERTEX
  8
New_Layer_1
 10
-5120.750000
 20
-8692.500000
 30
0.0
  0
VERTEX
  8
New_Layer_1
 10
-5117.500000
 20
-8702.750000
 30
0.0
  0
VERTEX
  8
New_Layer_1
 10
-5115.250000
 20
-8708.250000
 30
0.0
  0
VERTEX
  8
New_Layer_1
 10
-5113.250000
 20
-8713.000000
 30
0.0
  0
VERTEX
  8
New_Layer_1
 10
-5110.750000
 20
-8718.000000
 30
0.0
  0
VERTEX
  8
New_Layer_1
 10
-5108.250000
 20
-8722.500000
 30
0.0
  0
VERTEX
  8
New_Layer_1
 10
-5105.250000
 20
-8727.500000
 30
0.0
  0
VERTEX
  8
New_Layer_1
 10
-5102.250000
 20
-8732.000000
 30
0.0
  0
VERTEX
  8
New_Layer_1
 10
-5099.000000
 20
-8736.500000
 30
0.0
  0
VERTEX
  8
New_Layer_1
 10
-5095.750000
 20
-8740.500000
 30
0.0
  0
VERTEX
  8
New_Layer_1
 10
-5092.250000
 20
-8744.500000
 30
0.0
  0
VERTEX
  8
New_Layer_1
 10
-5084.250000
 20
-8752.500000
 30
0.0
  0
VERTEX
  8
New_Layer_1
 10
-5080.250000
 20
-8756.000000
 30
0.0
  0
VERTEX
  8
New_Layer_1
 10
-5076.250000
 20
-8759.250000
 30
0.0
  0
VERTEX
  8
New_Layer_1
 10
-5071.750000
 20
-8762.500000
 30
0.0
  0
VERTEX
  8
New_Layer_1
 10
-5067.250000
 20
-8765.500000
 30
0.0
  0
VERTEX
  8
New_Layer_1
 10
-5062.750000
 20
-8768.250000
 30
0.0
  0
VERTEX
  8
New_Layer_1
 10
-5057.750000
 20
-8771.000000
 30
0.0
  0
VERTEX
  8
New_Layer_1
 10
-5052.750000
 20
-8773.500000
 30
0.0
  0
VERTEX
  8
New_Layer_1
 10
-5048.000000
 20
-8775.500000
 30
0.0
  0
VERTEX
  8
New_Layer_1
 10
-5043.000000
 20
-8777.500000
 30
0.0
  0
VERTEX
  8
New_Layer_1
 10
-5037.750000
 20
-8779.250000
 30
0.0
  0
VERTEX
  8
New_Layer_1
 10
-5032.500000
 20
-8780.750000
 30
0.0
  0
VERTEX
  8
New_Layer_1
 10
-5027.250000
 20
-8782.000000
 30
0.0
  0
VERTEX
  8
New_Layer_1
 10
-5021.750000
 20
-8783.250000
 30
0.0
  0
VERTEX
  8
New_Layer_1
 10
-5016.500000
 20
-8784.000000
 30
0.0
  0
VERTEX
  8
New_Layer_1
 10
-5005.500000
 20
-8785.000000
 30
0.0
  0
VERTEX
  8
New_Layer_1
 10
-4994.500000
 20
-8785.000000
 30
0.0
  0
VERTEX
  8
New_Layer_1
 10
-4983.500000
 20
-8784.000000
 30
0.0
  0
VERTEX
  8
New_Layer_1
 10
-4978.250000
 20
-8783.250000
 30
0.0
  0
VERTEX
  8
New_Layer_1
 10
-4972.750000
 20
-8782.000000
 30
0.0
  0
VERTEX
  8
New_Layer_1
 10
-4967.500000
 20
-8780.750000
 30
0.0
  0
VERTEX
  8
New_Layer_1
 10
-4962.250000
 20
-8779.250000
 30
0.0
  0
VERTEX
  8
New_Layer_1
 10
-4957.000000
 20
-8777.500000
 30
0.0
  0
VERTEX
  8
New_Layer_1
 10
-4952.000000
 20
-8775.500000
 30
0.0
  0
VERTEX
  8
New_Layer_1
 10
-4947.250000
 20
-8773.500000
 30
0.0
  0
VERTEX
  8
New_Layer_1
 10
-4942.250000
 20
-8771.000000
 30
0.0
  0
VERTEX
  8
New_Layer_1
 10
-4937.750000
 20
-8768.500000
 30
0.0
  0
VERTEX
  8
New_Layer_1
 10
-4932.750000
 20
-8765.500000
 30
0.0
  0
VERTEX
  8
New_Layer_1
 10
-4928.250000
 20
-8762.500000
 30
0.0
  0
VERTEX
  8
New_Layer_1
 10
-4923.750000
 20
-8759.250000
 30
0.0
  0
VERTEX
  8
New_Layer_1
 10
-4919.750000
 20
-8756.000000
 30
0.0
  0
VERTEX
  8
New_Layer_1
 10
-4915.750000
 20
-8752.500000
 30
0.0
  0
VERTEX
  8
New_Layer_1
 10
-4907.750000
 20
-8744.500000
 30
0.0
  0
VERTEX
  8
New_Layer_1
 10
-4904.250000
 20
-8740.500000
 30
0.0
  0
VERTEX
  8
New_Layer_1
 10
-4901.000000
 20
-8736.500000
 30
0.0
  0
VERTEX
  8
New_Layer_1
 10
-4897.750000
 20
-8732.000000
 30
0.0
  0
VERTEX
  8
New_Layer_1
 10
-4894.750000
 20
-8727.500000
 30
0.0
  0
VERTEX
  8
New_Layer_1
 10
-4891.839000
 20
-8722.647000
 30
0.0
  0
VERTEX
  8
New_Layer_1
 10
-4891.747000
 20
-8722.700000
 30
0.0
  0
VERTEX
  8
New_Layer_1
 10
-64.947000
 20
-362.500000
 30
0.0
  0
VERTEX
  8
New_Layer_1
 10
-64.988000
 20
-362.477000
 30
0.0
  0
VERTEX
  8
New_Layer_1
 10
-62.250000
 20
-357.500000
 30
0.0
  0
VERTEX
  8
New_Layer_1
 10
-60.000000
 20
-353.000000
 30
0.0
  0
VERTEX
  8
New_Layer_1
 10
-57.750000
 20
-347.750000
 30
0.0
  0
VERTEX
  8
New_Layer_1
 10
-55.750000
 20
-342.750000
 30
0.0
  0
VERTEX
  8
New_Layer_1
 10
-54.000000
 20
-337.500000
 30
0.0
  0
VERTEX
  8
New_Layer_1
 10
-52.500000
 20
-332.500000
 30
0.0
  0
VERTEX
  8
New_Layer_1
 10
-51.250000
 20
-327.250000
 30
0.0
  0
VERTEX
  8
New_Layer_1
 10
-50.250000
 20
-321.750000
 30
0.0
  0
VERTEX
  8
New_Layer_1
 10
-49.500000
 20
-316.500000
 30
0.0
  0
VERTEX
  8
New_Layer_1
 10
-48.750000
 20
-311.000000
 30
0.0
  0
VERTEX
  8
New_Layer_1
 10
-48.250000
 20
-300.000000
 30
0.0
  0
VERTEX
  8
New_Layer_1
 10
-48.750000
 20
-289.000000
 30
0.0
  0
VERTEX
  8
New_Layer_1
 10
-49.500000
 20
-283.500000
 30
0.0
  0
VERTEX
  8
New_Layer_1
 10
-50.250000
 20
-278.250000
 30
0.0
  0
VERTEX
  8
New_Layer_1
 10
-51.250000
 20
-272.750000
 30
0.0
  0
VERTEX
  8
New_Layer_1
 10
-52.500000
 20
-267.500000
 30
0.0
  0
VERTEX
  8
New_Layer_1
 10
-54.000000
 20
-262.500000
 30
0.0
  0
VERTEX
  8
New_Layer_1
 10
-55.750000
 20
-257.250000
 30
0.0
  0
VERTEX
  8
New_Layer_1
 10
-57.750000
 20
-252.250000
 30
0.0
  0
VERTEX
  8
New_Layer_1
 10
-60.000000
 20
-247.000000
 30
0.0
  0
VERTEX
  8
New_Layer_1
 10
-62.250000
 20
-242.500000
 30
0.0
  0
VERTEX
  8
New_Layer_1
 10
-65.000000
 20
-237.500000
 30
0.0
  0
VERTEX
  8
New_Layer_1
 10
-67.750000
 20
-233.000000
 30
0.0
  0
VERTEX
  8
New_Layer_1
 10
-70.750000
 20
-228.500000
 30
0.0
  0
VERTEX
  8
New_Layer_1
 10
-74.000000
 20
-224.000000
 30
0.0
  0
VERTEX
  8
New_Layer_1
 10
-77.500000
 20
-219.750000
 30
0.0
  0
VERTEX
  8
New_Layer_1
 10
-81.000000
 20
-215.750000
 30
0.0
  0
VERTEX
  8
New_Layer_1
 10
-85.000000
 20
-211.500000
 30
0.0
  0
VERTEX
  8
New_Layer_1
 10
-89.000000
 20
-207.750000
 30
0.0
  0
VERTEX
  8
New_Layer_1
 10
-93.000000
 20
-204.250000
 30
0.0
  0
VERTEX
  8
New_Layer_1
 10
-97.250000
 20
-200.750000
 30
0.0
  0
VERTEX
  8
New_Layer_1
 10
-101.750000
 20
-197.500000
 30
0.0
  0
VERTEX
  8
New_Layer_1
 10
-106.250000
 20
-194.500000
 30
0.0
  0
VERTEX
  8
New_Layer_1
 10
-110.750000
 20
-191.750000
 30
0.0
  0
VERTEX
  8
New_Layer_1
 10
-115.250000
 20
-189.250000
 30
0.0
  0
VERTEX
  8
New_Layer_1
 10
-120.500000
 20
-186.750000
 30
0.0
  0
VERTEX
  8
New_Layer_1
 10
-125.500000
 20
-184.500000
 30
0.0
  0
VERTEX
  8
New_Layer_1
 10
-130.250000
 20
-182.750000
 30
0.0
  0
VERTEX
  8
New_Layer_1
 10
-135.750000
 20
-180.750000
 30
0.0
  0
VERTEX
  8
New_Layer_1
 10
-141.000000
 20
-179.250000
 30
0.0
  0
VERTEX
  8
New_Layer_1
 10
-146.000000
 20
-178.000000
 30
0.0
  0
VERTEX
  8
New_Layer_1
 10
-151.250000
 20
-177.000000
 30
0.0
  0
VERTEX
  8
New_Layer_1
 10
-162.250000
 20
-175.500000
 30
0.0
  0
VERTEX
  8
New_Layer_1
 10
-167.500000
 20
-175.250000
 30
0.0
  0
VERTEX
  8
New_Layer_1
 10
-178.750000
 20
-175.250000
 30
0.0
  0
VERTEX
  8
New_Layer_1
 10
-184.250000
 20
-175.500000
 30
0.0
  0
VERTEX
  8
New_Layer_1
 10
-189.750000
 20
-176.250000
 30
0.0
  0
VERTEX
  8
New_Layer_1
 10
-195.000000
 20
-177.000000
 30
0.0
  0
VERTEX
  8
New_Layer_1
 10
-200.250000
 20
-178.000000
 30
0.0
  0
VERTEX
  8
New_Layer_1
 10
-205.500000
 20
-179.250000
 30
0.0
  0
VERTEX
  8
New_Layer_1
 10
-215.750000
 20
-182.500000
 30
0.0
  0
VERTEX
  8
New_Layer_1
 10
-221.250000
 20
-184.750000
 30
0.0
  0
VERTEX
  8
New_Layer_1
 10
-226.000000
 20
-186.750000
 30
0.0
  0
VERTEX
  8
New_Layer_1
 10
-231.000000
 20
-189.250000
 30
0.0
  0
VERTEX
  8
New_Layer_1
 10
-235.500000
 20
-191.750000
 30
0.0
  0
VERTEX
  8
New_Layer_1
 10
-240.500000
 20
-194.750000
 30
0.0
  0
VERTEX
  8
New_Layer_1
 10
-245.000000
 20
-197.750000
 30
0.0
  0
VERTEX
  8
New_Layer_1
 10
-249.500000
 20
-201.000000
 30
0.0
  0
VERTEX
  8
New_Layer_1
 10
-253.500000
 20
-204.250000
 30
0.0
  0
VERTEX
  8
New_Layer_1
 10
-257.500000
 20
-207.750000
 30
0.0
  0
VERTEX
  8
New_Layer_1
 10
-265.500000
 20
-215.750000
 30
0.0
  0
VERTEX
  8
New_Layer_1
 10
-269.000000
 20
-219.750000
 30
0.0
  0
VERTEX
  8
New_Layer_1
 10
-272.250000
 20
-223.750000
 30
0.0
  0
VERTEX
  8
New_Layer_1
 10
-275.500000
 20
-228.250000
 30
0.0
  0
VERTEX
  8
New_Layer_1
 10
-278.500000
 20
-232.750000
 30
0.0
  0
VERTEX
  8
New_Layer_1
 10
-281.377000
 20
-237.544000
 30
0.0
  0
VERTEX
  8
New_Layer_1
 10
-281.453000
 20
-237.500000
 30
0.0
  0
VERTEX
  8
New_Layer_1
 10
-5108.253000
 20
-8597.700000
 30
0.0
  0
VERTEX
  8
New_Layer_1
 10
-5108.229000
 20
-8597.714000
 30
0.0
  0
VERTEX
  8
New_Layer_1
 10
-5108.250000
 20
-8597.750000
 30
0.0
  0
VERTEX
  8
New_Layer_1
 10
-5110.750000
 20
-8602.250000
 30
0.0
  0
VERTEX
  8
New_Layer_1
 10
-5113.250000
 20
-8607.500000
 30
0.0
  0
VERTEX
  8
New_Layer_1
 10
-5115.500000
 20
-8612.500000
 30
0.0
  0
VERTEX
  8
New_Layer_1
 10
-5117.250000
 20
-8617.250000
 30
0.0
  0
VERTEX
  8
New_Layer_1
 10
-5119.250000
 20
-8622.750000
 30
0.0
  0
VERTEX
  8
New_Layer_1
 10
-5120.750000
 20
-8628.000000
 30
0.0
  0
VERTEX
  8
New_Layer_1
 10
-5122.000000
 20
-8633.000000
 30
0.0
  0
VERTEX
  8
New_Layer_1
 10
-5123.000000
 20
-8638.250000
 30
0.0
  0
VERTEX
  8
New_Layer_1
 10
-5124.500000
 20
-8649.250000
 30
0.0
  0
SEQEND
  8
New_Layer_1
  0
POLYLINE
  8
New_Layer_1
 66
       1
 70
       1
 10
0.0
 20
0.0
 30
0.0
  0
VERTEX
  8
New_Layer_1
 10
48.250000
 20
-300.000000
 30
0.0
  0
VERTEX
  8
New_Layer_1
 10
48.750000
 20
-311.000000
 30
0.0
  0
VERTEX
  8
New_Layer_1
 10
49.500000
 20
-316.500000
 30
0.0
  0
VERTEX
  8
New_Layer_1
 10
50.250000
 20
-321.750000
 30
0.0
  0
VERTEX
  8
New_Layer_1
 10
51.250000
 20
-327.250000
 30
0.0
  0
VERTEX
  8
New_Layer_1
 10
52.500000
 20
-332.500000
 30
0.0
  0
VERTEX
  8
New_Layer_1
 10
54.000000
 20
-337.500000
 30
0.0
  0
VERTEX
  8
New_Layer_1
 10
55.750000
 20
-342.750000
 30
0.0
  0
VERTEX
  8
New_Layer_1
 10
57.750000
 20
-347.750000
 30
0.0
  0
VERTEX
  8
New_Layer_1
 10
60.000000
 20
-353.000000
 30
0.0
  0
VERTEX
  8
New_Layer_1
 10
62.250000
 20
-357.500000
 30
0.0
  0
VERTEX
  8
New_Layer_1
 10
64.987000
 20
-362.477000
 30
0.0
  0
VERTEX
  8
New_Layer_1
 10
64.947000
 20
-362.500000
 30
0.0
  0
VERTEX
  8
New_Layer_1
 10
4891.747000
 20
-8722.700000
 30
0.0
  0
VERTEX
  8
New_Layer_1
 10
4891.838000
 20
-8722.647000
 30
0.0
  0
VERTEX
  8
New_Layer_1
 10
4894.750000
 20
-8727.500000
 30
0.0
  0
VERTEX
  8
New_Layer_1
 10
4897.750000
 20
-8732.000000
 30
0.0
  0
VERTEX
  8
New_Layer_1
 10
4901.000000
 20
-8736.500000
 30
0.0
  0
VERTEX
  8
New_Layer_1
 10
4904.250000
 20
-8740.500000
 30
0.0
  0
VERTEX
  8
New_Layer_1
 10
4907.750000
 20
-8744.500000
 30
0.0
  0
VERTEX
  8
New_Layer_1
 10
4915.750000
 20
-8752.500000
 30
0.0
  0
VERTEX
  8
New_Layer_1
 10
4919.750000
 20
-8756.000000
 30
0.0
  0
VERTEX
  8
New_Layer_1
 10
4923.750000
 20
-8759.250000
 30
0.0
  0
VERTEX
  8
New_Layer_1
 10
4928.250000
 20
-8762.500000
 30
0.0
  0
VERTEX
  8
New_Layer_1
 10
4932.750000
 20
-8765.500000
 30
0.0
  0
VERTEX
  8
New_Layer_1
 10
4937.250000
 20
-8768.250000
 30
0.0
  0
VERTEX
  8
New_Layer_1
 10
4942.250000
 20
-8771.000000
 30
0.0
  0
VERTEX
  8
New_Layer_1
 10
4947.250000
 20
-8773.500000
 30
0.0
  0
VERTEX
  8
New_Layer_1
 10
4952.000000
 20
-8775.500000
 30
0.0
  0
VERTEX
  8
New_Layer_1
 10
4957.000000
 20
-8777.500000
 30
0.0
  0
VERTEX
  8
New_Layer_1
 10
4962.250000
 20
-8779.250000
 30
0.0
  0
VERTEX
  8
New_Layer_1
 10
4967.500000
 20
-8780.750000
 30
0.0
  0
VERTEX
  8
New_Layer_1
 10
4972.750000
 20
-8782.000000
 30
0.0
  0
VERTEX
  8
New_Layer_1
 10
4978.250000
 20
-8783.250000
 30
0.0
  0
VERTEX
  8
New_Layer_1
 10
4983.500000
 20
-8784.000000
 30
0.0
  0
VERTEX
  8
New_Layer_1
 10
4994.500000
 20
-8785.000000
 30
0.0
  0
VERTEX
  8
New_Layer_1
 10
5005.500000
 20
-8785.000000
 30
0.0
  0
VERTEX
  8
New_Layer_1
 10
5016.500000
 20
-8784.000000
 30
0.0
  0
VERTEX
  8
New_Layer_1
 10
5021.750000
 20
-8783.250000
 30
0.0
  0
VERTEX
  8
New_Layer_1
 10
5027.250000
 20
-8782.000000
 30
0.0
  0
VERTEX
  8
New_Layer_1
 10
5032.500000
 20
-8780.750000
 30
0.0
  0
VERTEX
  8
New_Layer_1
 10
5037.750000
 20
-8779.250000
 30
0.0
  0
VERTEX
  8
New_Layer_1
 10
5043.000000
 20
-8777.500000
 30
0.0
  0
VERTEX
  8
New_Layer_1
 10
5048.000000
 20
-8775.500000
 30
0.0
  0
VERTEX
  8
New_Layer_1
 10
5052.750000
 20
-8773.500000
 30
0.0
  0
VERTEX
  8
New_Layer_1
 10
5057.750000
 20
-8771.000000
 30
0.0
  0
VERTEX
  8
New_Layer_1
 10
5062.250000
 20
-8768.500000
 30
0.0
  0
VERTEX
  8
New_Layer_1
 10
5067.250000
 20
-8765.500000
 30
0.0
  0
VERTEX
  8
New_Layer_1
 10
5071.750000
 20
-8762.500000
 30
0.0
  0
VERTEX
  8
New_Layer_1
 10
5076.250000
 20
-8759.250000
 30
0.0
  0
VERTEX
  8
New_Layer_1
 10
5080.250000
 20
-8756.000000
 30
0.0
  0
VERTEX
  8
New_Layer_1
 10
5084.250000
 20
-8752.500000
 30
0.0
  0
VERTEX
  8
New_Layer_1
 10
5092.250000
 20
-8744.500000
 30
0.0
  0
VERTEX
  8
New_Layer_1
 10
5095.750000
 20
-8740.500000
 30
0.0
  0
VERTEX
  8
New_Layer_1
 10
5099.000000
 20
-8736.500000
 30
0.0
  0
VERTEX
  8
New_Layer_1
 10
5102.250000
 20
-8732.000000
 30
0.0
  0
VERTEX
  8
New_Layer_1
 10
5105.250000
 20
-8727.500000
 30
0.0
  0
VERTEX
  8
New_Layer_1
 10
5108.250000
 20
-8722.500000
 30
0.0
  0
VERTEX
  8
New_Layer_1
 10
5110.750000
 20
-8718.000000
 30
0.0
  0
VERTEX
  8
New_Layer_1
 10
5113.250000
 20
-8713.000000
 30
0.0
  0
VERTEX
  8
New_Layer_1
 10
5115.250000
 20
-8708.250000
 30
0.0
  0
VERTEX
  8
New_Layer_1
 10
5117.500000
 20
-8702.750000
 30
0.0
  0
VERTEX
  8
New_Layer_1
 10
5120.750000
 20
-8692.500000
 30
0.0
  0
VERTEX
  8
New_Layer_1
 10
5122.000000
 20
-8687.250000
 30
0.0
  0
VERTEX
  8
New_Layer_1
 10
5123.000000
 20
-8682.000000
 30
0.0
  0
VERTEX
  8
New_Layer_1
 10
5123.750000
 20
-8676.750000
 30
0.0
  0
VERTEX
  8
New_Layer_1
 10
5124.500000
 20
-8671.250000
 30
0.0
  0
VERTEX
  8
New_Layer_1
 10
5124.750000
 20
-8665.750000
 30
0.0
  0
VERTEX
  8
New_Layer_1
 10
5124.750000
 20
-8654.500000
 30
0.0
  0
VERTEX
  8
New_Layer_1
 10
5124.500000
 20
-8649.250000
 30
0.0
  0
VERTEX
  8
New_Layer_1
 10
5123.000000
 20
-8638.250000
 30
0.0
  0
VERTEX
  8
New_Layer_1
 10
5122.000000
 20
-8633.000000
 30
0.0
  0
VERTEX
  8
New_Layer_1
 10
5120.750000
 20
-8628.000000
 30
0.0
  0
VERTEX
  8
New_Layer_1
 10
5119.250000
 20
-8622.750000
 30
0.0
  0
VERTEX
  8
New_Layer_1
 10
5117.250000
 20
-8617.250000
 30
0.0
  0
VERTEX
  8
New_Layer_1
 10
5115.500000
 20
-8612.500000
 30
0.0
  0
VERTEX
  8
New_Layer_1
 10
5113.250000
 20
-8607.500000
 30
0.0
  0
VERTEX
  8
New_Layer_1
 10
5110.750000
 20
-8602.250000
 30
0.0
  0
VERTEX
  8
New_Layer_1
 10
5108.228000
 20
-8597.714000
 30
0.0
  0
VERTEX
  8
New_Layer_1
 10
5108.253000
 20
-8597.700000
 30
0.0
  0
VERTEX
  8
New_Layer_1
 10
281.453000
 20
-237.500000
 30
0.0
  0
VERTEX
  8
New_Layer_1
 10
281.376000
 20
-237.544000
 30
0.0
  0
VERTEX
  8
New_Layer_1
 10
278.500000
 20
-232.750000
 30
0.0
  0
VERTEX
  8
New_Layer_1
 10
275.500000
 20
-228.250000
 30
0.0
  0
VERTEX
  8
New_Layer_1
 10
272.250000
 20
-223.750000
 30
0.0
  0
VERTEX
  8
New_Layer_1
 10
269.000000
 20
-219.750000
 30
0.0
  0
VERTEX
  8
New_Layer_1
 10
265.500000
 20
-215.750000
 30
0.0
  0
VERTEX
  8
New_Layer_1
 10
257.500000
 20
-207.750000
 30
0.0
  0
VERTEX
  8
New_Layer_1
 10
253.500000
 20
-204.250000
 30
0.0
  0
VERTEX
  8
New_Layer_1
 10
249.500000
 20
-201.000000
 30
0.0
  0
VERTEX
  8
New_Layer_1
 10
245.000000
 20
-197.750000
 30
0.0
  0
VERTEX
  8
New_Layer_1
 10
240.500000
 20
-194.750000
 30
0.0
  0
VERTEX
  8
New_Layer_1
 10
235.500000
 20
-191.750000
 30
0.0
  0
VERTEX
  8
New_Layer_1
 10
231.000000
 20
-189.250000
 30
0.0
  0
VERTEX
  8
New_Layer_1
 10
226.000000
 20
-186.750000
 30
0.0
  0
VERTEX
  8
New_Layer_1
 10
221.250000
 20
-184.750000
 30
0.0
  0
VERTEX
  8
New_Layer_1
 10
215.750000
 20
-182.500000
 30
0.0
  0
VERTEX
  8
New_Layer_1
 10
205.500000
 20
-179.250000
 30
0.0
  0
VERTEX
  8
New_Layer_1
 10
200.250000
 20
-178.000000
 30
0.0
  0
VERTEX
  8
New_Layer_1
 10
195.000000
 20
-177.000000
 30
0.0
  0
VERTEX
  8
New_Layer_1
 10
189.750000
 20
-176.250000
 30
0.0
  0
VERTEX
  8
New_Layer_1
 10
184.250000
 20
-175.500000
 30
0.0
  0
VERTEX
  8
New_Layer_1
 10
178.750000
 20
-175.250000
 30
0.0
  0
VERTEX
  8
New_Layer_1
 10
167.500000
 20
-175.250000
 30
0.0
  0
VERTEX
  8
New_Layer_1
 10
162.250000
 20
-175.500000
 30
0.0
  0
VERTEX
  8
New_Layer_1
 10
151.250000
 20
-177.000000
 30
0.0
  0
VERTEX
  8
New_Layer_1
 10
146.000000
 20
-178.000000
 30
0.0
  0
VERTEX
  8
New_Layer_1
 10
141.000000
 20
-179.250000
 30
0.0
  0
VERTEX
  8
New_Layer_1
 10
135.750000
 20
-180.750000
 30
0.0
  0
VERTEX
  8
New_Layer_1
 10
130.250000
 20
-182.750000
 30
0.0
  0
VERTEX
  8
New_Layer_1
 10
125.500000
 20
-184.500000
 30
0.0
  0
VERTEX
  8
New_Layer_1
 10
120.500000
 20
-186.750000
 30
0.0
  0
VERTEX
  8
New_Layer_1
 10
115.250000
 20
-189.250000
 30
0.0
  0
VERTEX
  8
New_Layer_1
 10
110.750000
 20
-191.750000
 30
0.0
  0
VERTEX
  8
New_Layer_1
 10
106.250000
 20
-194.500000
 30
0.0
  0
VERTEX
  8
New_Layer_1
 10
101.750000
 20
-197.500000
 30
0.0
  0
VERTEX
  8
New_Layer_1
 10
97.250000
 20
-200.750000
 30
0.0
  0
VERTEX
  8
New_Layer_1
 10
93.000000
 20
-204.250000
 30
0.0
  0
VERTEX
  8
New_Layer_1
 10
89.000000
 20
-207.750000
 30
0.0
  0
VERTEX
  8
New_Layer_1
 10
85.000000
 20
-211.500000
 30
0.0
  0
VERTEX
  8
New_Layer_1
 10
81.000000
 20
-215.750000
 30
0.0
  0
VERTEX
  8
New_Layer_1
 10
77.500000
 20
-219.750000
 30
0.0
  0
VERTEX
  8
New_Layer_1
 10
74.000000
 20
-224.000000
 30
0.0
  0
VERTEX
  8
New_Layer_1
 10
70.750000
 20
-228.500000
 30
0.0
  0
VERTEX
  8
New_Layer_1
 10
67.750000
 20
-233.000000
 30
0.0
  0
VERTEX
  8
New_Layer_1
 10
65.000000
 20
-237.500000
 30
0.0
  0
VERTEX
  8
New_Layer_1
 10
62.250000
 20
-242.500000
 30
0.0
  0
VERTEX
  8
New_Layer_1
 10
60.000000
 20
-247.000000
 30
0.0
  0
VERTEX
  8
New_Layer_1
 10
57.750000
 20
-252.250000
 30
0.0
  0
VERTEX
  8
New_Layer_1
 10
55.750000
 20
-257.250000
 30
0.0
  0
VERTEX
  8
New_Layer_1
 10
54.000000
 20
-262.500000
 30
0.0
  0
VERTEX
  8
New_Layer_1
 10
52.500000
 20
-267.500000
 30
0.0
  0
VERTEX
  8
New_Layer_1
 10
51.250000
 20
-272.750000
 30
0.0
  0
VERTEX
  8
New_Layer_1
 10
50.250000
 20
-278.250000
 30
0.0
  0
VERTEX
  8
New_Layer_1
 10
49.500000
 20
-283.500000
 30
0.0
  0
VERTEX
  8
New_Layer_1
 10
48.750000
 20
-289.000000
 30
0.0
  0
SEQEND
  8
New_Layer_1
  0
ENDSEC
  0
EOF
