  0
SECTION
  2
HEADER
  9
$ACADVER
  1
AC1009
999
L-Edit DXF writer version 2.0a2
  9
$PLINEWID
 40
10.000000
  9
$EXTMIN
 10
-47500.000000
 20
-46310.712000
 30
0.0
  9
$EXTMAX
 10
47500.000000
 20
44685.912000
 30
0.0
  0
ENDSEC
  0
SECTION
  2
TABLES
  0
TABLE
  2
LTYPE
 70
       1
  0
LTYPE
  2
CONTINUOUS
 70
      64
  3
CONTINUOUS
 72
      65
 73
       0
 40
0.0
  0
ENDTAB
  0
TABLE
  2
LAYER
 70
     115
  0
LAYER
  2
0
 70
      64
  6
CONTINUOUS
 62
       7
  0
LAYER
  2
_____Special_Layers_____
 70
       0
  6
CONTINUOUS
 62
     160
  0
LAYER
  2
Icon_Outline
 70
       0
  6
CONTINUOUS
 62
     254
  0
LAYER
  2
Error_Layer
 70
       0
  6
CONTINUOUS
 62
       7
  0
LAYER
  2
_____Special_Utility_Laye2549
 70
       0
  6
CONTINUOUS
 62
     160
  0
LAYER
  2
Label
 70
       0
  6
CONTINUOUS
 62
       7
  0
LAYER
  2
Label_Filled
 70
       0
  6
CONTINUOUS
 62
     172
  0
LAYER
  2
Ruler
 70
       0
  6
CONTINUOUS
 62
       7
  0
LAYER
  2
Device_Label
 70
       0
  6
CONTINUOUS
 62
       7
  0
LAYER
  2
NotExists
 70
       4
  6
CONTINUOUS
 62
     160
  0
LAYER
  2
_____Drawn_Layers______
 70
       0
  6
CONTINUOUS
 62
     160
  0
LAYER
  2
N_Well
 70
       0
  6
CONTINUOUS
 62
       7
  0
LAYER
  2
Deep_N_Well
 70
       0
  6
CONTINUOUS
 62
       7
  0
LAYER
  2
P_Well
 70
       0
  6
CONTINUOUS
 62
       7
  0
LAYER
  2
Active
 70
       0
  6
CONTINUOUS
 62
      80
  0
LAYER
  2
Thick_Active
 70
       0
  6
CONTINUOUS
 62
      92
  0
LAYER
  2
N_Select
 70
       0
  6
CONTINUOUS
 62
     123
  0
LAYER
  2
P_Select
 70
       0
  6
CONTINUOUS
 62
     203
  0
LAYER
  2
Poly
 70
       0
  6
CONTINUOUS
 62
      20
  0
LAYER
  2
Silicide_Block
 70
       0
  6
CONTINUOUS
 62
       7
  0
LAYER
  2
Active_Contact
 70
       0
  6
CONTINUOUS
 62
     138
  0
LAYER
  2
Poly_Contact
 70
       0
  6
CONTINUOUS
 62
     254
  0
LAYER
  2
Metal1
 70
       0
  6
CONTINUOUS
 62
     160
  0
LAYER
  2
Via1
 70
       0
  6
CONTINUOUS
 62
       7
  0
LAYER
  2
Metal2
 70
       0
  6
CONTINUOUS
 62
     254
  0
LAYER
  2
Via2
 70
       0
  6
CONTINUOUS
 62
       7
  0
LAYER
  2
Metal3
 70
       0
  6
CONTINUOUS
 62
     203
  0
LAYER
  2
Via3
 70
       0
  6
CONTINUOUS
 62
       7
  0
LAYER
  2
Metal4
 70
       0
  6
CONTINUOUS
 62
      43
  0
LAYER
  2
Overglass
 70
       0
  6
CONTINUOUS
 62
     203
  0
LAYER
  2
_____Drawn_ID_Layers_____
 70
       0
  6
CONTINUOUS
 62
     160
  0
LAYER
  2
SubCkt_ID
 70
       0
  6
CONTINUOUS
 62
       7
  0
LAYER
  2
Capacitor_ID
 70
       0
  6
CONTINUOUS
 62
       7
  0
LAYER
  2
Resistor_ID
 70
       0
  6
CONTINUOUS
 62
       7
  0
LAYER
  2
Diode_ID
 70
       0
  6
CONTINUOUS
 62
     254
  0
LAYER
  2
LPNP_ID
 70
       0
  6
CONTINUOUS
 62
       7
  0
LAYER
  2
PNP_Emitter_ID
 70
       0
  6
CONTINUOUS
 62
       7
  0
LAYER
  2
_____Common_Derived_Layers_____
 70
       0
  6
CONTINUOUS
 62
     160
  0
LAYER
  2
field_active
 70
       0
  6
CONTINUOUS
 62
     160
  0
LAYER
  2
ChipSubstrate
 70
       0
  6
CONTINUOUS
 62
       7
  0
LAYER
  2
diff
 70
       0
  6
CONTINUOUS
 62
     160
  0
LAYER
  2
Gate
 70
       0
  6
CONTINUOUS
 62
     160
  0
LAYER
  2
HV_Gate
 70
       0
  6
CONTINUOUS
 62
       7
  0
LAYER
  2
Metal4_-_Pad
 70
       0
  6
CONTINUOUS
 62
     160
  0
LAYER
  2
ndiff
 70
       0
  6
CONTINUOUS
 62
       7
  0
LAYER
  2
pdiff
 70
       0
  6
CONTINUOUS
 62
       7
  0
LAYER
  2
Poly_Silicide_Block_Resistor
 70
       0
  6
CONTINUOUS
 62
       7
  0
LAYER
  2
_____DRC_Derived_Layers_____
 70
       0
  6
CONTINUOUS
 62
     160
  0
LAYER
  2
Select
 70
       0
  6
CONTINUOUS
 62
     160
  0
LAYER
  2
Active_Contact_not_on_Active
 70
       0
  6
CONTINUOUS
 62
      20
  0
LAYER
  2
Metal1_Density
 70
       0
  6
CONTINUOUS
 62
      20
  0
LAYER
  2
Metal1_W_1_2__-0_6
 70
       0
  6
CONTINUOUS
 62
       7
  0
LAYER
  2
Metal1_W_1_2_
 70
       0
  6
CONTINUOUS
 62
       7
  0
LAYER
  2
Metal2_Density
 70
       0
  6
CONTINUOUS
 62
      20
  0
LAYER
  2
Metal2_W_1_2_-0_6
 70
       0
  6
CONTINUOUS
 62
       7
  0
LAYER
  2
Metal2_W_1_2_
 70
       0
  6
CONTINUOUS
 62
       7
  0
LAYER
  2
Metal3_Density
 70
       0
  6
CONTINUOUS
 62
      20
  0
LAYER
  2
Metal3_W_1_2_-0_6
 70
       0
  6
CONTINUOUS
 62
       7
  0
LAYER
  2
Metal3_W_1_2_
 70
       0
  6
CONTINUOUS
 62
       7
  0
LAYER
  2
Metal4_Density
 70
       0
  6
CONTINUOUS
 62
      20
  0
LAYER
  2
Metal4_W_1_2_-0_6
 70
       0
  6
CONTINUOUS
 62
       7
  0
LAYER
  2
Metal4_W_1_2_
 70
       0
  6
CONTINUOUS
 62
       7
  0
LAYER
  2
n_Active
 70
       0
  6
CONTINUOUS
 62
      20
  0
LAYER
  2
Not_Selected_Active
 70
       0
  6
CONTINUOUS
 62
      20
  0
LAYER
  2
p_Active
 70
       0
  6
CONTINUOUS
 62
      20
  0
LAYER
  2
Poly_Contact_not_on_Poly
 70
       0
  6
CONTINUOUS
 62
      20
  0
LAYER
  2
Poly_Density
 70
       0
  6
CONTINUOUS
 62
      20
  0
LAYER
  2
pSelect_nSelect
 70
       0
  6
CONTINUOUS
 62
      20
  0
LAYER
  2
_____Extract_Derived_Laye2526
 70
       0
  6
CONTINUOUS
 62
     160
  0
LAYER
  2
Substrate
 70
       0
  6
CONTINUOUS
 62
     254
  0
LAYER
  2
ActNSelNotPoly
 70
       0
  6
CONTINUOUS
 62
      92
  0
LAYER
  2
ActPSelNotPoly
 70
       0
  6
CONTINUOUS
 62
      80
  0
LAYER
  2
ActPSelNotPoly_and_NOT_SB
 70
       0
  6
CONTINUOUS
 62
       7
  0
LAYER
  2
ActPSelNotPoly_and_SB
 70
       0
  6
CONTINUOUS
 62
       7
  0
LAYER
  2
Lateral_Diode
 70
       0
  6
CONTINUOUS
 62
     123
  0
LAYER
  2
LPNP_Collector
 70
       0
  6
CONTINUOUS
 62
       7
  0
LAYER
  2
LPNP_Emitter
 70
       0
  6
CONTINUOUS
 62
       7
  0
LAYER
  2
n_well_wire
 70
       0
  6
CONTINUOUS
 62
       7
  0
LAYER
  2
Deep_N_Well_Wire
 70
       0
  6
CONTINUOUS
 62
       7
  0
LAYER
  2
N-Channel
 70
       0
  6
CONTINUOUS
 62
       7
  0
LAYER
  2
N-Channel_Deep
 70
       0
  6
CONTINUOUS
 62
       7
  0
LAYER
  2
NDiff_Diode
 70
       0
  6
CONTINUOUS
 62
      92
  0
LAYER
  2
NDiff_Resistor
 70
       0
  6
CONTINUOUS
 62
       7
  0
LAYER
  2
NMOS_Capacitor
 70
       0
  6
CONTINUOUS
 62
       7
  0
LAYER
  2
ntran
 70
       0
  6
CONTINUOUS
 62
     160
  0
LAYER
  2
ntran_Deep
 70
       0
  6
CONTINUOUS
 62
     160
  0
LAYER
  2
ntran_HV
 70
       0
  6
CONTINUOUS
 62
     160
  0
LAYER
  2
NWell_Resistor
 70
       0
  6
CONTINUOUS
 62
       7
  0
LAYER
  2
P-Channel
 70
       0
  6
CONTINUOUS
 62
       7
  0
LAYER
  2
PDiff_Diode
 70
       0
  6
CONTINUOUS
 62
     203
  0
LAYER
  2
PDiff_Resistor
 70
       0
  6
CONTINUOUS
 62
       7
  0
LAYER
  2
PMOS_Capacitor
 70
       0
  6
CONTINUOUS
 62
       7
  0
LAYER
  2
Poly_Resistor
 70
       0
  6
CONTINUOUS
 62
       7
  0
LAYER
  2
poly_wire
 70
       0
  6
CONTINUOUS
 62
     160
  0
LAYER
  2
ptran
 70
       0
  6
CONTINUOUS
 62
     160
  0
LAYER
  2
ptran_HV
 70
       0
  6
CONTINUOUS
 62
     160
  0
LAYER
  2
SB_NDiff_Resistor
 70
       0
  6
CONTINUOUS
 62
       7
  0
LAYER
  2
SB_PDiff_Resistor
 70
       0
  6
CONTINUOUS
 62
       7
  0
LAYER
  2
_____XS_Derived_Layers_____
 70
       0
  6
CONTINUOUS
 62
     160
  0
LAYER
  2
XS_Deep_N_Well
 70
       0
  6
CONTINUOUS
 62
       7
  0
LAYER
  2
XS_N_Well
 70
       0
  6
CONTINUOUS
 62
       7
  0
LAYER
  2
XS_P_Well
 70
       0
  6
CONTINUOUS
 62
       7
  0
LAYER
  2
Not_Active
 70
       0
  6
CONTINUOUS
 62
       7
  0
LAYER
  2
Not_Active_Contact
 70
       0
  6
CONTINUOUS
 62
       7
  0
LAYER
  2
Not_Metal1
 70
       0
  6
CONTINUOUS
 62
       7
  0
LAYER
  2
Not_Metal2
 70
       0
  6
CONTINUOUS
 62
       7
  0
LAYER
  2
Not_Metal3
 70
       0
  6
CONTINUOUS
 62
       7
  0
LAYER
  2
Not_Metal4
 70
       0
  6
CONTINUOUS
 62
       7
  0
LAYER
  2
Not_Poly_Contact
 70
       0
  6
CONTINUOUS
 62
       7
  0
LAYER
  2
Not_Thick_Channel
 70
       0
  6
CONTINUOUS
 62
       7
  0
LAYER
  2
Not_Thin_Channel
 70
       0
  6
CONTINUOUS
 62
       7
  0
LAYER
  2
NotPoly
 70
       0
  6
CONTINUOUS
 62
       7
  0
LAYER
  2
NotVia1
 70
       0
  6
CONTINUOUS
 62
       7
  0
LAYER
  2
NotVia2
 70
       0
  6
CONTINUOUS
 62
       7
  0
LAYER
  2
NotVia3
 70
       0
  6
CONTINUOUS
 62
       7
  0
ENDTAB
  0
ENDSEC
  0
SECTION
  2
BLOCKS
  0
BLOCK
  2
polymark
  3
polymark
  8
0
 67
       0
 70
       0
 10
0.0
 20
0.0
 30
0.0
  0
POLYLINE
  8
Metal1
 66
       1
 70
       1
 10
0.0
 20
0.0
 30
0.0
  0
VERTEX
  8
Metal1
 10
-10.000000
 20
400.000000
 30
0.0
  0
VERTEX
  8
Metal1
 10
-10.000000
 20
1000.000000
 30
0.0
  0
VERTEX
  8
Metal1
 10
1000.000000
 20
1000.000000
 30
0.0
  0
VERTEX
  8
Metal1
 10
1000.000000
 20
-1000.000000
 30
0.0
  0
VERTEX
  8
Metal1
 10
-1000.000000
 20
-1000.000000
 30
0.0
  0
VERTEX
  8
Metal1
 10
-1000.000000
 20
1000.000000
 30
0.0
  0
VERTEX
  8
Metal1
 10
-10.000000
 20
1000.000000
 30
0.0
  0
VERTEX
  8
Metal1
 10
-10.000000
 20
310.000000
 30
0.0
  0
VERTEX
  8
Metal1
 10
-120.000000
 20
310.000000
 30
0.0
  0
VERTEX
  8
Metal1
 10
-120.000000
 20
290.000000
 30
0.0
  0
VERTEX
  8
Metal1
 10
-10.000000
 20
290.000000
 30
0.0
  0
VERTEX
  8
Metal1
 10
-10.000000
 20
210.000000
 30
0.0
  0
VERTEX
  8
Metal1
 10
-100.000000
 20
210.000000
 30
0.0
  0
VERTEX
  8
Metal1
 10
-100.000000
 20
190.000000
 30
0.0
  0
VERTEX
  8
Metal1
 10
-10.000000
 20
190.000000
 30
0.0
  0
VERTEX
  8
Metal1
 10
-10.000000
 20
10.000000
 30
0.0
  0
VERTEX
  8
Metal1
 10
-190.000000
 20
10.000000
 30
0.0
  0
VERTEX
  8
Metal1
 10
-190.000000
 20
100.000000
 30
0.0
  0
VERTEX
  8
Metal1
 10
-210.000000
 20
100.000000
 30
0.0
  0
VERTEX
  8
Metal1
 10
-210.000000
 20
10.000000
 30
0.0
  0
VERTEX
  8
Metal1
 10
-290.000000
 20
10.000000
 30
0.0
  0
VERTEX
  8
Metal1
 10
-290.000000
 20
120.000000
 30
0.0
  0
VERTEX
  8
Metal1
 10
-310.000000
 20
120.000000
 30
0.0
  0
VERTEX
  8
Metal1
 10
-310.000000
 20
10.000000
 30
0.0
  0
VERTEX
  8
Metal1
 10
-400.000000
 20
10.000000
 30
0.0
  0
VERTEX
  8
Metal1
 10
-400.000000
 20
-10.000000
 30
0.0
  0
VERTEX
  8
Metal1
 10
-310.000000
 20
-10.000000
 30
0.0
  0
VERTEX
  8
Metal1
 10
-310.000000
 20
-120.000000
 30
0.0
  0
VERTEX
  8
Metal1
 10
-290.000000
 20
-120.000000
 30
0.0
  0
VERTEX
  8
Metal1
 10
-290.000000
 20
-10.000000
 30
0.0
  0
VERTEX
  8
Metal1
 10
-210.000000
 20
-10.000000
 30
0.0
  0
VERTEX
  8
Metal1
 10
-210.000000
 20
-100.000000
 30
0.0
  0
VERTEX
  8
Metal1
 10
-190.000000
 20
-100.000000
 30
0.0
  0
VERTEX
  8
Metal1
 10
-190.000000
 20
-10.000000
 30
0.0
  0
VERTEX
  8
Metal1
 10
-10.000000
 20
-10.000000
 30
0.0
  0
VERTEX
  8
Metal1
 10
-10.000000
 20
-190.000000
 30
0.0
  0
VERTEX
  8
Metal1
 10
-100.000000
 20
-190.000000
 30
0.0
  0
VERTEX
  8
Metal1
 10
-100.000000
 20
-210.000000
 30
0.0
  0
VERTEX
  8
Metal1
 10
-10.000000
 20
-210.000000
 30
0.0
  0
VERTEX
  8
Metal1
 10
-10.000000
 20
-290.000000
 30
0.0
  0
VERTEX
  8
Metal1
 10
-120.000000
 20
-290.000000
 30
0.0
  0
VERTEX
  8
Metal1
 10
-120.000000
 20
-310.000000
 30
0.0
  0
VERTEX
  8
Metal1
 10
-10.000000
 20
-310.000000
 30
0.0
  0
VERTEX
  8
Metal1
 10
-10.000000
 20
-400.000000
 30
0.0
  0
VERTEX
  8
Metal1
 10
10.000000
 20
-400.000000
 30
0.0
  0
VERTEX
  8
Metal1
 10
10.000000
 20
-310.000000
 30
0.0
  0
VERTEX
  8
Metal1
 10
120.000000
 20
-310.000000
 30
0.0
  0
VERTEX
  8
Metal1
 10
120.000000
 20
-290.000000
 30
0.0
  0
VERTEX
  8
Metal1
 10
10.000000
 20
-290.000000
 30
0.0
  0
VERTEX
  8
Metal1
 10
10.000000
 20
-210.000000
 30
0.0
  0
VERTEX
  8
Metal1
 10
100.000000
 20
-210.000000
 30
0.0
  0
VERTEX
  8
Metal1
 10
100.000000
 20
-190.000000
 30
0.0
  0
VERTEX
  8
Metal1
 10
10.000000
 20
-190.000000
 30
0.0
  0
VERTEX
  8
Metal1
 10
10.000000
 20
-10.000000
 30
0.0
  0
VERTEX
  8
Metal1
 10
190.000000
 20
-10.000000
 30
0.0
  0
VERTEX
  8
Metal1
 10
190.000000
 20
-100.000000
 30
0.0
  0
VERTEX
  8
Metal1
 10
210.000000
 20
-100.000000
 30
0.0
  0
VERTEX
  8
Metal1
 10
210.000000
 20
-10.000000
 30
0.0
  0
VERTEX
  8
Metal1
 10
290.000000
 20
-10.000000
 30
0.0
  0
VERTEX
  8
Metal1
 10
290.000000
 20
-120.000000
 30
0.0
  0
VERTEX
  8
Metal1
 10
310.000000
 20
-120.000000
 30
0.0
  0
VERTEX
  8
Metal1
 10
310.000000
 20
-10.000000
 30
0.0
  0
VERTEX
  8
Metal1
 10
400.000000
 20
-10.000000
 30
0.0
  0
VERTEX
  8
Metal1
 10
400.000000
 20
10.000000
 30
0.0
  0
VERTEX
  8
Metal1
 10
310.000000
 20
10.000000
 30
0.0
  0
VERTEX
  8
Metal1
 10
310.000000
 20
120.000000
 30
0.0
  0
VERTEX
  8
Metal1
 10
290.000000
 20
120.000000
 30
0.0
  0
VERTEX
  8
Metal1
 10
290.000000
 20
10.000000
 30
0.0
  0
VERTEX
  8
Metal1
 10
210.000000
 20
10.000000
 30
0.0
  0
VERTEX
  8
Metal1
 10
210.000000
 20
100.000000
 30
0.0
  0
VERTEX
  8
Metal1
 10
190.000000
 20
100.000000
 30
0.0
  0
VERTEX
  8
Metal1
 10
190.000000
 20
10.000000
 30
0.0
  0
VERTEX
  8
Metal1
 10
10.000000
 20
10.000000
 30
0.0
  0
VERTEX
  8
Metal1
 10
10.000000
 20
190.000000
 30
0.0
  0
VERTEX
  8
Metal1
 10
100.000000
 20
190.000000
 30
0.0
  0
VERTEX
  8
Metal1
 10
100.000000
 20
210.000000
 30
0.0
  0
VERTEX
  8
Metal1
 10
10.000000
 20
210.000000
 30
0.0
  0
VERTEX
  8
Metal1
 10
10.000000
 20
290.000000
 30
0.0
  0
VERTEX
  8
Metal1
 10
120.000000
 20
290.000000
 30
0.0
  0
VERTEX
  8
Metal1
 10
120.000000
 20
310.000000
 30
0.0
  0
VERTEX
  8
Metal1
 10
10.000000
 20
310.000000
 30
0.0
  0
VERTEX
  8
Metal1
 10
10.000000
 20
400.000000
 30
0.0
  0
SEQEND
  8
Metal1
  0
POLYLINE
  8
Metal1
 66
       1
 70
       1
 10
0.0
 20
0.0
 30
0.0
  0
VERTEX
  8
Metal1
 10
-10.000000
 20
400.000000
 30
0.0
  0
VERTEX
  8
Metal1
 10
-10.000000
 20
1000.000000
 30
0.0
  0
VERTEX
  8
Metal1
 10
1000.000000
 20
1000.000000
 30
0.0
  0
VERTEX
  8
Metal1
 10
1000.000000
 20
-1000.000000
 30
0.0
  0
VERTEX
  8
Metal1
 10
-1000.000000
 20
-1000.000000
 30
0.0
  0
VERTEX
  8
Metal1
 10
-1000.000000
 20
1000.000000
 30
0.0
  0
VERTEX
  8
Metal1
 10
-10.000000
 20
1000.000000
 30
0.0
  0
VERTEX
  8
Metal1
 10
-10.000000
 20
310.000000
 30
0.0
  0
VERTEX
  8
Metal1
 10
-120.000000
 20
310.000000
 30
0.0
  0
VERTEX
  8
Metal1
 10
-120.000000
 20
290.000000
 30
0.0
  0
VERTEX
  8
Metal1
 10
-10.000000
 20
290.000000
 30
0.0
  0
VERTEX
  8
Metal1
 10
-10.000000
 20
210.000000
 30
0.0
  0
VERTEX
  8
Metal1
 10
-100.000000
 20
210.000000
 30
0.0
  0
VERTEX
  8
Metal1
 10
-100.000000
 20
190.000000
 30
0.0
  0
VERTEX
  8
Metal1
 10
-10.000000
 20
190.000000
 30
0.0
  0
VERTEX
  8
Metal1
 10
-10.000000
 20
10.000000
 30
0.0
  0
VERTEX
  8
Metal1
 10
-190.000000
 20
10.000000
 30
0.0
  0
VERTEX
  8
Metal1
 10
-190.000000
 20
100.000000
 30
0.0
  0
VERTEX
  8
Metal1
 10
-210.000000
 20
100.000000
 30
0.0
  0
VERTEX
  8
Metal1
 10
-210.000000
 20
10.000000
 30
0.0
  0
VERTEX
  8
Metal1
 10
-290.000000
 20
10.000000
 30
0.0
  0
VERTEX
  8
Metal1
 10
-290.000000
 20
120.000000
 30
0.0
  0
VERTEX
  8
Metal1
 10
-310.000000
 20
120.000000
 30
0.0
  0
VERTEX
  8
Metal1
 10
-310.000000
 20
10.000000
 30
0.0
  0
VERTEX
  8
Metal1
 10
-400.000000
 20
10.000000
 30
0.0
  0
VERTEX
  8
Metal1
 10
-400.000000
 20
-10.000000
 30
0.0
  0
VERTEX
  8
Metal1
 10
-310.000000
 20
-10.000000
 30
0.0
  0
VERTEX
  8
Metal1
 10
-310.000000
 20
-120.000000
 30
0.0
  0
VERTEX
  8
Metal1
 10
-290.000000
 20
-120.000000
 30
0.0
  0
VERTEX
  8
Metal1
 10
-290.000000
 20
-10.000000
 30
0.0
  0
VERTEX
  8
Metal1
 10
-210.000000
 20
-10.000000
 30
0.0
  0
VERTEX
  8
Metal1
 10
-210.000000
 20
-100.000000
 30
0.0
  0
VERTEX
  8
Metal1
 10
-190.000000
 20
-100.000000
 30
0.0
  0
VERTEX
  8
Metal1
 10
-190.000000
 20
-10.000000
 30
0.0
  0
VERTEX
  8
Metal1
 10
-10.000000
 20
-10.000000
 30
0.0
  0
VERTEX
  8
Metal1
 10
-10.000000
 20
-190.000000
 30
0.0
  0
VERTEX
  8
Metal1
 10
-100.000000
 20
-190.000000
 30
0.0
  0
VERTEX
  8
Metal1
 10
-100.000000
 20
-210.000000
 30
0.0
  0
VERTEX
  8
Metal1
 10
-10.000000
 20
-210.000000
 30
0.0
  0
VERTEX
  8
Metal1
 10
-10.000000
 20
-290.000000
 30
0.0
  0
VERTEX
  8
Metal1
 10
-120.000000
 20
-290.000000
 30
0.0
  0
VERTEX
  8
Metal1
 10
-120.000000
 20
-310.000000
 30
0.0
  0
VERTEX
  8
Metal1
 10
-10.000000
 20
-310.000000
 30
0.0
  0
VERTEX
  8
Metal1
 10
-10.000000
 20
-400.000000
 30
0.0
  0
VERTEX
  8
Metal1
 10
10.000000
 20
-400.000000
 30
0.0
  0
VERTEX
  8
Metal1
 10
10.000000
 20
-310.000000
 30
0.0
  0
VERTEX
  8
Metal1
 10
120.000000
 20
-310.000000
 30
0.0
  0
VERTEX
  8
Metal1
 10
120.000000
 20
-290.000000
 30
0.0
  0
VERTEX
  8
Metal1
 10
10.000000
 20
-290.000000
 30
0.0
  0
VERTEX
  8
Metal1
 10
10.000000
 20
-210.000000
 30
0.0
  0
VERTEX
  8
Metal1
 10
100.000000
 20
-210.000000
 30
0.0
  0
VERTEX
  8
Metal1
 10
100.000000
 20
-190.000000
 30
0.0
  0
VERTEX
  8
Metal1
 10
10.000000
 20
-190.000000
 30
0.0
  0
VERTEX
  8
Metal1
 10
10.000000
 20
-10.000000
 30
0.0
  0
VERTEX
  8
Metal1
 10
190.000000
 20
-10.000000
 30
0.0
  0
VERTEX
  8
Metal1
 10
190.000000
 20
-100.000000
 30
0.0
  0
VERTEX
  8
Metal1
 10
210.000000
 20
-100.000000
 30
0.0
  0
VERTEX
  8
Metal1
 10
210.000000
 20
-10.000000
 30
0.0
  0
VERTEX
  8
Metal1
 10
290.000000
 20
-10.000000
 30
0.0
  0
VERTEX
  8
Metal1
 10
290.000000
 20
-120.000000
 30
0.0
  0
VERTEX
  8
Metal1
 10
310.000000
 20
-120.000000
 30
0.0
  0
VERTEX
  8
Metal1
 10
310.000000
 20
-10.000000
 30
0.0
  0
VERTEX
  8
Metal1
 10
400.000000
 20
-10.000000
 30
0.0
  0
VERTEX
  8
Metal1
 10
400.000000
 20
10.000000
 30
0.0
  0
VERTEX
  8
Metal1
 10
310.000000
 20
10.000000
 30
0.0
  0
VERTEX
  8
Metal1
 10
310.000000
 20
120.000000
 30
0.0
  0
VERTEX
  8
Metal1
 10
290.000000
 20
120.000000
 30
0.0
  0
VERTEX
  8
Metal1
 10
290.000000
 20
10.000000
 30
0.0
  0
VERTEX
  8
Metal1
 10
210.000000
 20
10.000000
 30
0.0
  0
VERTEX
  8
Metal1
 10
210.000000
 20
100.000000
 30
0.0
  0
VERTEX
  8
Metal1
 10
190.000000
 20
100.000000
 30
0.0
  0
VERTEX
  8
Metal1
 10
190.000000
 20
10.000000
 30
0.0
  0
VERTEX
  8
Metal1
 10
10.000000
 20
10.000000
 30
0.0
  0
VERTEX
  8
Metal1
 10
10.000000
 20
190.000000
 30
0.0
  0
VERTEX
  8
Metal1
 10
100.000000
 20
190.000000
 30
0.0
  0
VERTEX
  8
Metal1
 10
100.000000
 20
210.000000
 30
0.0
  0
VERTEX
  8
Metal1
 10
10.000000
 20
210.000000
 30
0.0
  0
VERTEX
  8
Metal1
 10
10.000000
 20
290.000000
 30
0.0
  0
VERTEX
  8
Metal1
 10
120.000000
 20
290.000000
 30
0.0
  0
VERTEX
  8
Metal1
 10
120.000000
 20
310.000000
 30
0.0
  0
VERTEX
  8
Metal1
 10
10.000000
 20
310.000000
 30
0.0
  0
VERTEX
  8
Metal1
 10
10.000000
 20
400.000000
 30
0.0
  0
SEQEND
  8
Metal1
  0
ENDBLK
  0
BLOCK
  2
almark
  3
almark
  8
0
 67
       0
 70
       0
 10
0.0
 20
0.0
 30
0.0
  0
POLYLINE
  8
Poly
 66
       1
 70
       1
 10
0.0
 20
0.0
 30
0.0
  0
VERTEX
  8
Poly
 10
-400.000000
 20
-400.000000
 30
0.0
  0
VERTEX
  8
Poly
 10
-100.000000
 20
-400.000000
 30
0.0
  0
VERTEX
  8
Poly
 10
-100.000000
 20
-100.000000
 30
0.0
  0
VERTEX
  8
Poly
 10
-400.000000
 20
-100.000000
 30
0.0
  0
SEQEND
  8
Poly
  0
POLYLINE
  8
Poly
 66
       1
 70
       1
 10
0.0
 20
0.0
 30
0.0
  0
VERTEX
  8
Poly
 10
-5.000000
 20
-4500.000000
 30
0.0
  0
VERTEX
  8
Poly
 10
5.000000
 20
-4500.000000
 30
0.0
  0
VERTEX
  8
Poly
 10
5.000000
 20
-1000.000000
 30
0.0
  0
VERTEX
  8
Poly
 10
-5.000000
 20
-1000.000000
 30
0.0
  0
SEQEND
  8
Poly
  0
POLYLINE
  8
Poly
 66
       1
 70
       1
 10
0.0
 20
0.0
 30
0.0
  0
VERTEX
  8
Poly
 10
-400.000000
 20
100.000000
 30
0.0
  0
VERTEX
  8
Poly
 10
-100.000000
 20
100.000000
 30
0.0
  0
VERTEX
  8
Poly
 10
-100.000000
 20
400.000000
 30
0.0
  0
VERTEX
  8
Poly
 10
-400.000000
 20
400.000000
 30
0.0
  0
SEQEND
  8
Poly
  0
POLYLINE
  8
Poly
 66
       1
 70
       1
 10
0.0
 20
0.0
 30
0.0
  0
VERTEX
  8
Poly
 10
-4500.000000
 20
-5.000000
 30
0.0
  0
VERTEX
  8
Poly
 10
-1000.000000
 20
-5.000000
 30
0.0
  0
VERTEX
  8
Poly
 10
-1000.000000
 20
5.000000
 30
0.0
  0
VERTEX
  8
Poly
 10
-4500.000000
 20
5.000000
 30
0.0
  0
SEQEND
  8
Poly
  0
POLYLINE
  8
Poly
 66
       1
 70
       1
 10
0.0
 20
0.0
 30
0.0
  0
VERTEX
  8
Poly
 10
100.000000
 20
100.000000
 30
0.0
  0
VERTEX
  8
Poly
 10
400.000000
 20
100.000000
 30
0.0
  0
VERTEX
  8
Poly
 10
400.000000
 20
400.000000
 30
0.0
  0
VERTEX
  8
Poly
 10
100.000000
 20
400.000000
 30
0.0
  0
SEQEND
  8
Poly
  0
POLYLINE
  8
Poly
 66
       1
 70
       1
 10
0.0
 20
0.0
 30
0.0
  0
VERTEX
  8
Poly
 10
-5.000000
 20
1000.000000
 30
0.0
  0
VERTEX
  8
Poly
 10
5.000000
 20
1000.000000
 30
0.0
  0
VERTEX
  8
Poly
 10
5.000000
 20
4500.000000
 30
0.0
  0
VERTEX
  8
Poly
 10
-5.000000
 20
4500.000000
 30
0.0
  0
SEQEND
  8
Poly
  0
POLYLINE
  8
Poly
 66
       1
 70
       1
 10
0.0
 20
0.0
 30
0.0
  0
VERTEX
  8
Poly
 10
-4500.000000
 20
-5.000000
 30
0.0
  0
VERTEX
  8
Poly
 10
-1000.000000
 20
-5.000000
 30
0.0
  0
VERTEX
  8
Poly
 10
-1000.000000
 20
5.000000
 30
0.0
  0
VERTEX
  8
Poly
 10
-4500.000000
 20
5.000000
 30
0.0
  0
SEQEND
  8
Poly
  0
POLYLINE
  8
Poly
 66
       1
 70
       1
 10
0.0
 20
0.0
 30
0.0
  0
VERTEX
  8
Poly
 10
1000.000000
 20
-5.000000
 30
0.0
  0
VERTEX
  8
Poly
 10
4500.000000
 20
-5.000000
 30
0.0
  0
VERTEX
  8
Poly
 10
4500.000000
 20
5.000000
 30
0.0
  0
VERTEX
  8
Poly
 10
1000.000000
 20
5.000000
 30
0.0
  0
SEQEND
  8
Poly
  0
POLYLINE
  8
Poly
 66
       1
 70
       1
 10
0.0
 20
0.0
 30
0.0
  0
VERTEX
  8
Poly
 10
100.000000
 20
-400.000000
 30
0.0
  0
VERTEX
  8
Poly
 10
400.000000
 20
-400.000000
 30
0.0
  0
VERTEX
  8
Poly
 10
400.000000
 20
-100.000000
 30
0.0
  0
VERTEX
  8
Poly
 10
100.000000
 20
-100.000000
 30
0.0
  0
SEQEND
  8
Poly
  0
INSERT
  8
0
  2
polymark
 10
0.0
 20
0.0
 30
0.0
  0
ENDBLK
  0
BLOCK
  2
2InputPhotoCytoCellNoElect
  3
2InputPhotoCytoCellNoElect
  8
0
 67
       0
 70
       0
 10
0.0
 20
0.0
 30
0.0
  0
POLYLINE
  8
Poly
 66
       1
 70
       1
 10
0.0
 20
0.0
 30
0.0
  0
VERTEX
  8
Poly
 10
-10050.000000
 20
0.0
 30
0.0
  0
VERTEX
  8
Poly
 10
-10050.000000
 20
-3050.000000
 30
0.0
  0
VERTEX
  8
Poly
 10
450.000000
 20
-3050.000000
 30
0.0
  0
VERTEX
  8
Poly
 10
450.000000
 20
3050.000000
 30
0.0
  0
VERTEX
  8
Poly
 10
-10050.000000
 20
3050.000000
 30
0.0
  0
VERTEX
  8
Poly
 10
-10050.000000
 20
0.0
 30
0.0
  0
VERTEX
  8
Poly
 10
-9950.000000
 20
0.0
 30
0.0
  0
VERTEX
  8
Poly
 10
-9950.000000
 20
2950.000000
 30
0.0
  0
VERTEX
  8
Poly
 10
350.000000
 20
2950.000000
 30
0.0
  0
VERTEX
  8
Poly
 10
350.000000
 20
-2950.000000
 30
0.0
  0
VERTEX
  8
Poly
 10
-9950.000000
 20
-2950.000000
 30
0.0
  0
VERTEX
  8
Poly
 10
-9950.000000
 20
0.0
 30
0.0
  0
SEQEND
  8
Poly
  0
POLYLINE
  8
Poly
 66
       1
 70
       1
 10
0.0
 20
0.0
 30
0.0
  0
VERTEX
  8
Poly
 10
6000.000000
 20
50.000000
 30
0.0
  0
VERTEX
  8
Poly
 10
5.000000
 20
50.000000
 30
0.0
  0
VERTEX
  8
Poly
 10
5.000000
 20
-50.000000
 30
0.0
  0
VERTEX
  8
Poly
 10
6000.000000
 20
-50.000000
 30
0.0
  0
SEQEND
  8
Poly
  0
CIRCLE
  8
Poly
 10
-6000.000000
 20
0.0
 40
1000.000000
  0
CIRCLE
  8
Poly
 10
6000.000000
 20
0.0
 40
1000.000000
  0
POLYLINE
  8
Poly
 66
       1
 70
       1
 10
0.0
 20
0.0
 30
0.0
  0
VERTEX
  8
Poly
 10
-6000.000000
 20
-25.000000
 30
0.0
  0
VERTEX
  8
Poly
 10
6000.000000
 20
-25.000000
 30
0.0
  0
VERTEX
  8
Poly
 10
6000.000000
 20
25.000000
 30
0.0
  0
VERTEX
  8
Poly
 10
-6000.000000
 20
25.000000
 30
0.0
  0
SEQEND
  8
Poly
  0
CIRCLE
  8
Metal1
 10
-6000.000000
 20
0.0
 40
1000.000000
  0
CIRCLE
  8
Metal1
 10
-10000.000000
 20
0.0
 40
1000.000000
  0
POLYLINE
  8
Metal1
 66
       1
 70
       1
 10
0.0
 20
0.0
 30
0.0
  0
VERTEX
  8
Metal1
 10
-10100.000000
 20
-3100.000000
 30
0.0
  0
VERTEX
  8
Metal1
 10
-9900.000000
 20
-3100.000000
 30
0.0
  0
VERTEX
  8
Metal1
 10
-9900.000000
 20
3100.000000
 30
0.0
  0
VERTEX
  8
Metal1
 10
-10100.000000
 20
3100.000000
 30
0.0
  0
SEQEND
  8
Metal1
  0
POLYLINE
  8
Metal1
 66
       1
 70
       1
 10
0.0
 20
0.0
 30
0.0
  0
VERTEX
  8
Metal1
 10
-100.000000
 20
-3100.000000
 30
0.0
  0
VERTEX
  8
Metal1
 10
100.000000
 20
-3100.000000
 30
0.0
  0
VERTEX
  8
Metal1
 10
100.000000
 20
3100.000000
 30
0.0
  0
VERTEX
  8
Metal1
 10
-100.000000
 20
3100.000000
 30
0.0
  0
SEQEND
  8
Metal1
  0
POLYLINE
  8
Metal1
 66
       1
 70
       1
 10
0.0
 20
0.0
 30
0.0
  0
VERTEX
  8
Metal1
 10
0.0
 20
-50.000000
 30
0.0
  0
VERTEX
  8
Metal1
 10
700.000000
 20
-50.000000
 30
0.0
  0
VERTEX
  8
Metal1
 10
700.000000
 20
50.000000
 30
0.0
  0
VERTEX
  8
Metal1
 10
0.0
 20
50.000000
 30
0.0
  0
SEQEND
  8
Metal1
  0
POLYLINE
  8
Metal1
 66
       1
 70
       1
 10
0.0
 20
0.0
 30
0.0
  0
VERTEX
  8
Metal1
 10
-10100.000000
 20
-3100.000000
 30
0.0
  0
VERTEX
  8
Metal1
 10
100.000000
 20
-3100.000000
 30
0.0
  0
VERTEX
  8
Metal1
 10
100.000000
 20
-2900.000000
 30
0.0
  0
VERTEX
  8
Metal1
 10
-10100.000000
 20
-2900.000000
 30
0.0
  0
SEQEND
  8
Metal1
  0
POLYLINE
  8
Metal1
 66
       1
 70
       1
 10
0.0
 20
0.0
 30
0.0
  0
VERTEX
  8
Metal1
 10
-10100.000000
 20
2900.000000
 30
0.0
  0
VERTEX
  8
Metal1
 10
100.000000
 20
2900.000000
 30
0.0
  0
VERTEX
  8
Metal1
 10
100.000000
 20
3100.000000
 30
0.0
  0
VERTEX
  8
Metal1
 10
-10100.000000
 20
3100.000000
 30
0.0
  0
SEQEND
  8
Metal1
  0
ENDBLK
  0
BLOCK
  2
PhotothermalCytoCellNoElect
  3
PhotothermalCytoCellNoElect
  8
0
 67
       0
 70
       0
 10
0.0
 20
0.0
 30
0.0
  0
POLYLINE
  8
Poly
 66
       1
 70
       1
 10
0.0
 20
0.0
 30
0.0
  0
VERTEX
  8
Poly
 10
350.000000
 20
0.0
 30
0.0
  0
VERTEX
  8
Poly
 10
350.000000
 20
-3450.000000
 30
0.0
  0
VERTEX
  8
Poly
 10
-13950.000000
 20
-3450.000000
 30
0.0
  0
VERTEX
  8
Poly
 10
-13950.000000
 20
3450.000000
 30
0.0
  0
VERTEX
  8
Poly
 10
350.000000
 20
3450.000000
 30
0.0
  0
VERTEX
  8
Poly
 10
350.000000
 20
0.0
 30
0.0
  0
VERTEX
  8
Poly
 10
450.000000
 20
0.0
 30
0.0
  0
VERTEX
  8
Poly
 10
450.000000
 20
3550.000000
 30
0.0
  0
VERTEX
  8
Poly
 10
-14050.000000
 20
3550.000000
 30
0.0
  0
VERTEX
  8
Poly
 10
-14050.000000
 20
-3550.000000
 30
0.0
  0
VERTEX
  8
Poly
 10
450.000000
 20
-3550.000000
 30
0.0
  0
VERTEX
  8
Poly
 10
450.000000
 20
0.0
 30
0.0
  0
SEQEND
  8
Poly
  0
POLYLINE
  8
Poly
 66
       1
 70
       1
 10
0.0
 20
0.0
 30
0.0
  0
VERTEX
  8
Poly
 10
-13975.000000
 20
-3525.000000
 30
0.0
  0
VERTEX
  8
Poly
 10
-13975.000000
 20
3475.000000
 30
0.0
  0
VERTEX
  8
Poly
 10
375.000000
 20
3475.000000
 30
0.0
  0
VERTEX
  8
Poly
 10
375.000000
 20
-3475.000000
 30
0.0
  0
VERTEX
  8
Poly
 10
-14025.000000
 20
-3475.000000
 30
0.0
  0
VERTEX
  8
Poly
 10
-14025.000000
 20
-3525.000000
 30
0.0
  0
VERTEX
  8
Poly
 10
425.000000
 20
-3525.000000
 30
0.0
  0
VERTEX
  8
Poly
 10
425.000000
 20
3525.000000
 30
0.0
  0
VERTEX
  8
Poly
 10
-14025.000000
 20
3525.000000
 30
0.0
  0
VERTEX
  8
Poly
 10
-14025.000000
 20
-3525.000000
 30
0.0
  0
SEQEND
  8
Poly
  0
POLYLINE
  8
Poly
 66
       1
 70
       1
 10
0.0
 20
0.0
 30
0.0
  0
VERTEX
  8
Poly
 10
6000.000000
 20
50.000000
 30
0.0
  0
VERTEX
  8
Poly
 10
5.000000
 20
50.000000
 30
0.0
  0
VERTEX
  8
Poly
 10
5.000000
 20
-50.000000
 30
0.0
  0
VERTEX
  8
Poly
 10
6000.000000
 20
-50.000000
 30
0.0
  0
SEQEND
  8
Poly
  0
CIRCLE
  8
Poly
 10
-6000.000000
 20
0.0
 40
1000.000000
  0
CIRCLE
  8
Poly
 10
6000.000000
 20
0.0
 40
1000.000000
  0
POLYLINE
  8
Poly
 66
       1
 70
       1
 10
0.0
 20
0.0
 30
0.0
  0
VERTEX
  8
Poly
 10
-6000.000000
 20
-25.000000
 30
0.0
  0
VERTEX
  8
Poly
 10
6000.000000
 20
-25.000000
 30
0.0
  0
VERTEX
  8
Poly
 10
6000.000000
 20
25.000000
 30
0.0
  0
VERTEX
  8
Poly
 10
-6000.000000
 20
25.000000
 30
0.0
  0
SEQEND
  8
Poly
  0
CIRCLE
  8
Metal1
 10
-10000.000000
 20
0.0
 40
1000.000000
  0
CIRCLE
  8
Metal1
 10
-14000.000000
 20
0.0
 40
1000.000000
  0
CIRCLE
  8
Metal1
 10
-6000.000000
 20
0.0
 40
1000.000000
  0
POLYLINE
  8
Metal1
 66
       1
 70
       1
 10
0.0
 20
0.0
 30
0.0
  0
VERTEX
  8
Metal1
 10
-10100.000000
 20
-3100.000000
 30
0.0
  0
VERTEX
  8
Metal1
 10
-9900.000000
 20
-3100.000000
 30
0.0
  0
VERTEX
  8
Metal1
 10
-9900.000000
 20
3100.000000
 30
0.0
  0
VERTEX
  8
Metal1
 10
-10100.000000
 20
3100.000000
 30
0.0
  0
SEQEND
  8
Metal1
  0
POLYLINE
  8
Metal1
 66
       1
 70
       1
 10
0.0
 20
0.0
 30
0.0
  0
VERTEX
  8
Metal1
 10
-100.000000
 20
-3100.000000
 30
0.0
  0
VERTEX
  8
Metal1
 10
100.000000
 20
-3100.000000
 30
0.0
  0
VERTEX
  8
Metal1
 10
100.000000
 20
3100.000000
 30
0.0
  0
VERTEX
  8
Metal1
 10
-100.000000
 20
3100.000000
 30
0.0
  0
SEQEND
  8
Metal1
  0
POLYLINE
  8
Metal1
 66
       1
 70
       1
 10
0.0
 20
0.0
 30
0.0
  0
VERTEX
  8
Metal1
 10
0.0
 20
-50.000000
 30
0.0
  0
VERTEX
  8
Metal1
 10
700.000000
 20
-50.000000
 30
0.0
  0
VERTEX
  8
Metal1
 10
700.000000
 20
50.000000
 30
0.0
  0
VERTEX
  8
Metal1
 10
0.0
 20
50.000000
 30
0.0
  0
SEQEND
  8
Metal1
  0
POLYLINE
  8
Metal1
 66
       1
 70
       1
 10
0.0
 20
0.0
 30
0.0
  0
VERTEX
  8
Metal1
 10
-10100.000000
 20
-3100.000000
 30
0.0
  0
VERTEX
  8
Metal1
 10
100.000000
 20
-3100.000000
 30
0.0
  0
VERTEX
  8
Metal1
 10
100.000000
 20
-2900.000000
 30
0.0
  0
VERTEX
  8
Metal1
 10
-10100.000000
 20
-2900.000000
 30
0.0
  0
SEQEND
  8
Metal1
  0
POLYLINE
  8
Metal1
 66
       1
 70
       1
 10
0.0
 20
0.0
 30
0.0
  0
VERTEX
  8
Metal1
 10
-10100.000000
 20
2900.000000
 30
0.0
  0
VERTEX
  8
Metal1
 10
100.000000
 20
2900.000000
 30
0.0
  0
VERTEX
  8
Metal1
 10
100.000000
 20
3100.000000
 30
0.0
  0
VERTEX
  8
Metal1
 10
-10100.000000
 20
3100.000000
 30
0.0
  0
SEQEND
  8
Metal1
  0
ENDBLK
  0
ENDSEC
  0
SECTION
  2
ENTITIES
  0
POLYLINE
  8
Poly
 66
       1
 70
       1
 10
0.0
 20
0.0
 30
0.0
  0
VERTEX
  8
Poly
 10
-14735.815000
 20
44455.142000
 30
0.0
  0
VERTEX
  8
Poly
 10
-14505.046000
 20
44685.912000
 30
0.0
  0
VERTEX
  8
Poly
 10
-13812.738000
 20
44685.912000
 30
0.0
  0
VERTEX
  8
Poly
 10
-13581.969000
 20
44455.142000
 30
0.0
  0
VERTEX
  8
Poly
 10
-13581.969000
 20
44108.988000
 30
0.0
  0
VERTEX
  8
Poly
 10
-13812.738000
 20
44108.988000
 30
0.0
  0
VERTEX
  8
Poly
 10
-13812.738000
 20
44339.758000
 30
0.0
  0
VERTEX
  8
Poly
 10
-13928.123000
 20
44455.142000
 30
0.0
  0
VERTEX
  8
Poly
 10
-14389.662000
 20
44455.142000
 30
0.0
  0
VERTEX
  8
Poly
 10
-14505.046000
 20
44339.758000
 30
0.0
  0
VERTEX
  8
Poly
 10
-14505.046000
 20
42955.142000
 30
0.0
  0
VERTEX
  8
Poly
 10
-14389.662000
 20
42839.758000
 30
0.0
  0
VERTEX
  8
Poly
 10
-13928.123000
 20
42839.758000
 30
0.0
  0
VERTEX
  8
Poly
 10
-13812.738000
 20
42955.142000
 30
0.0
  0
VERTEX
  8
Poly
 10
-13812.738000
 20
43185.912000
 30
0.0
  0
VERTEX
  8
Poly
 10
-13581.969000
 20
43185.912000
 30
0.0
  0
VERTEX
  8
Poly
 10
-13581.969000
 20
42839.758000
 30
0.0
  0
VERTEX
  8
Poly
 10
-13812.738000
 20
42608.988000
 30
0.0
  0
VERTEX
  8
Poly
 10
-14505.046000
 20
42608.988000
 30
0.0
  0
VERTEX
  8
Poly
 10
-14735.815000
 20
42839.758000
 30
0.0
  0
SEQEND
  8
Poly
  0
POLYLINE
  8
Poly
 66
       1
 70
       1
 10
0.0
 20
0.0
 30
0.0
  0
VERTEX
  8
Poly
 10
-13005.046000
 20
43532.065000
 30
0.0
  0
VERTEX
  8
Poly
 10
-12312.738000
 20
42608.988000
 30
0.0
  0
VERTEX
  8
Poly
 10
-12081.969000
 20
42608.988000
 30
0.0
  0
VERTEX
  8
Poly
 10
-12774.277000
 20
43647.450000
 30
0.0
  0
SEQEND
  8
Poly
  0
POLYLINE
  8
Poly
 66
       1
 70
       1
 10
0.0
 20
0.0
 30
0.0
  0
VERTEX
  8
Poly
 10
-13235.815000
 20
42608.988000
 30
0.0
  0
VERTEX
  8
Poly
 10
-13005.046000
 20
42608.988000
 30
0.0
  0
VERTEX
  8
Poly
 10
-13005.046000
 20
43185.912000
 30
0.0
  0
VERTEX
  8
Poly
 10
-12081.969000
 20
44685.912000
 30
0.0
  0
VERTEX
  8
Poly
 10
-12428.123000
 20
44685.912000
 30
0.0
  0
VERTEX
  8
Poly
 10
-13005.046000
 20
43647.450000
 30
0.0
  0
VERTEX
  8
Poly
 10
-13005.046000
 20
44685.912000
 30
0.0
  0
VERTEX
  8
Poly
 10
-13235.815000
 20
44685.912000
 30
0.0
  0
SEQEND
  8
Poly
  0
POLYLINE
  8
Poly
 66
       1
 70
       1
 10
0.0
 20
0.0
 30
0.0
  0
VERTEX
  8
Poly
 10
-11735.815000
 20
44685.912000
 30
0.0
  0
VERTEX
  8
Poly
 10
-11505.046000
 20
44685.912000
 30
0.0
  0
VERTEX
  8
Poly
 10
-11505.046000
 20
43762.835000
 30
0.0
  0
VERTEX
  8
Poly
 10
-10812.738000
 20
43762.835000
 30
0.0
  0
VERTEX
  8
Poly
 10
-10812.738000
 20
44685.912000
 30
0.0
  0
VERTEX
  8
Poly
 10
-10581.969000
 20
44685.912000
 30
0.0
  0
VERTEX
  8
Poly
 10
-10581.969000
 20
42608.988000
 30
0.0
  0
VERTEX
  8
Poly
 10
-10812.738000
 20
42608.988000
 30
0.0
  0
VERTEX
  8
Poly
 10
-10812.738000
 20
43532.065000
 30
0.0
  0
VERTEX
  8
Poly
 10
-11505.046000
 20
43532.065000
 30
0.0
  0
VERTEX
  8
Poly
 10
-11505.046000
 20
42608.988000
 30
0.0
  0
VERTEX
  8
Poly
 10
-11735.815000
 20
42608.988000
 30
0.0
  0
SEQEND
  8
Poly
  0
POLYLINE
  8
Poly
 66
       1
 70
       1
 10
0.0
 20
0.0
 30
0.0
  0
VERTEX
  8
Poly
 10
-8735.815000
 20
44455.142000
 30
0.0
  0
VERTEX
  8
Poly
 10
-8505.046000
 20
44685.912000
 30
0.0
  0
VERTEX
  8
Poly
 10
-8389.662000
 20
44685.912000
 30
0.0
  0
VERTEX
  8
Poly
 10
-8389.662000
 20
44455.142000
 30
0.0
  0
VERTEX
  8
Poly
 10
-8505.046000
 20
44339.758000
 30
0.0
  0
VERTEX
  8
Poly
 10
-8505.046000
 20
43878.219000
 30
0.0
  0
VERTEX
  8
Poly
 10
-8389.662000
 20
43762.835000
 30
0.0
  0
VERTEX
  8
Poly
 10
-8389.662000
 20
43532.065000
 30
0.0
  0
VERTEX
  8
Poly
 10
-8505.046000
 20
43416.681000
 30
0.0
  0
VERTEX
  8
Poly
 10
-8505.046000
 20
42955.142000
 30
0.0
  0
VERTEX
  8
Poly
 10
-8389.662000
 20
42839.758000
 30
0.0
  0
VERTEX
  8
Poly
 10
-7928.123000
 20
42839.758000
 30
0.0
  0
VERTEX
  8
Poly
 10
-7812.738000
 20
42955.142000
 30
0.0
  0
VERTEX
  8
Poly
 10
-7812.738000
 20
43416.681000
 30
0.0
  0
VERTEX
  8
Poly
 10
-7928.123000
 20
43532.065000
 30
0.0
  0
VERTEX
  8
Poly
 10
-8389.662000
 20
43532.065000
 30
0.0
  0
VERTEX
  8
Poly
 10
-8389.662000
 20
43762.835000
 30
0.0
  0
VERTEX
  8
Poly
 10
-7928.123000
 20
43762.835000
 30
0.0
  0
VERTEX
  8
Poly
 10
-7812.738000
 20
43878.219000
 30
0.0
  0
VERTEX
  8
Poly
 10
-7812.738000
 20
44339.758000
 30
0.0
  0
VERTEX
  8
Poly
 10
-7928.123000
 20
44455.142000
 30
0.0
  0
VERTEX
  8
Poly
 10
-8389.662000
 20
44455.142000
 30
0.0
  0
VERTEX
  8
Poly
 10
-8389.662000
 20
44685.912000
 30
0.0
  0
VERTEX
  8
Poly
 10
-7812.738000
 20
44685.912000
 30
0.0
  0
VERTEX
  8
Poly
 10
-7581.969000
 20
44455.142000
 30
0.0
  0
VERTEX
  8
Poly
 10
-7581.969000
 20
43762.835000
 30
0.0
  0
VERTEX
  8
Poly
 10
-7697.354000
 20
43647.450000
 30
0.0
  0
VERTEX
  8
Poly
 10
-7581.969000
 20
43532.065000
 30
0.0
  0
VERTEX
  8
Poly
 10
-7581.969000
 20
42839.758000
 30
0.0
  0
VERTEX
  8
Poly
 10
-7812.738000
 20
42608.988000
 30
0.0
  0
VERTEX
  8
Poly
 10
-8505.046000
 20
42608.988000
 30
0.0
  0
VERTEX
  8
Poly
 10
-8735.815000
 20
42839.758000
 30
0.0
  0
VERTEX
  8
Poly
 10
-8735.815000
 20
43532.065000
 30
0.0
  0
VERTEX
  8
Poly
 10
-8620.431000
 20
43647.450000
 30
0.0
  0
VERTEX
  8
Poly
 10
-8735.815000
 20
43762.835000
 30
0.0
  0
SEQEND
  8
Poly
  0
POLYLINE
  8
Poly
 66
       1
 70
       1
 10
0.0
 20
0.0
 30
0.0
  0
VERTEX
  8
Poly
 10
-5620.431000
 20
44224.373000
 30
0.0
  0
VERTEX
  8
Poly
 10
-5389.662000
 20
44455.142000
 30
0.0
  0
VERTEX
  8
Poly
 10
-4928.123000
 20
44455.142000
 30
0.0
  0
VERTEX
  8
Poly
 10
-4812.738000
 20
44339.758000
 30
0.0
  0
VERTEX
  8
Poly
 10
-4812.738000
 20
43878.219000
 30
0.0
  0
VERTEX
  8
Poly
 10
-5735.815000
 20
42955.142000
 30
0.0
  0
VERTEX
  8
Poly
 10
-5735.815000
 20
42608.988000
 30
0.0
  0
VERTEX
  8
Poly
 10
-4581.969000
 20
42608.988000
 30
0.0
  0
VERTEX
  8
Poly
 10
-4581.969000
 20
42839.758000
 30
0.0
  0
VERTEX
  8
Poly
 10
-5505.046000
 20
42839.758000
 30
0.0
  0
VERTEX
  8
Poly
 10
-4581.969000
 20
43762.835000
 30
0.0
  0
VERTEX
  8
Poly
 10
-4581.969000
 20
44455.142000
 30
0.0
  0
VERTEX
  8
Poly
 10
-4812.738000
 20
44685.912000
 30
0.0
  0
VERTEX
  8
Poly
 10
-5505.046000
 20
44685.912000
 30
0.0
  0
VERTEX
  8
Poly
 10
-5735.815000
 20
44455.142000
 30
0.0
  0
VERTEX
  8
Poly
 10
-5735.815000
 20
44224.373000
 30
0.0
  0
SEQEND
  8
Poly
  0
POLYLINE
  8
Poly
 66
       1
 70
       1
 10
0.0
 20
0.0
 30
0.0
  0
VERTEX
  8
Poly
 10
-4005.046000
 20
42724.373000
 30
0.0
  0
VERTEX
  8
Poly
 10
-3081.969000
 20
44455.142000
 30
0.0
  0
VERTEX
  8
Poly
 10
-3312.738000
 20
44570.527000
 30
0.0
  0
VERTEX
  8
Poly
 10
-4235.815000
 20
42839.758000
 30
0.0
  0
SEQEND
  8
Poly
  0
POLYLINE
  8
Poly
 66
       1
 70
       1
 10
0.0
 20
0.0
 30
0.0
  0
VERTEX
  8
Poly
 10
-4235.815000
 20
44455.142000
 30
0.0
  0
VERTEX
  8
Poly
 10
-4005.046000
 20
44685.912000
 30
0.0
  0
VERTEX
  8
Poly
 10
-3889.662000
 20
44685.912000
 30
0.0
  0
VERTEX
  8
Poly
 10
-3889.662000
 20
44455.142000
 30
0.0
  0
VERTEX
  8
Poly
 10
-4005.046000
 20
44339.758000
 30
0.0
  0
VERTEX
  8
Poly
 10
-4005.046000
 20
42955.142000
 30
0.0
  0
VERTEX
  8
Poly
 10
-3889.662000
 20
42839.758000
 30
0.0
  0
VERTEX
  8
Poly
 10
-3428.123000
 20
42839.758000
 30
0.0
  0
VERTEX
  8
Poly
 10
-3312.738000
 20
42955.142000
 30
0.0
  0
VERTEX
  8
Poly
 10
-3312.738000
 20
44339.758000
 30
0.0
  0
VERTEX
  8
Poly
 10
-3428.123000
 20
44455.142000
 30
0.0
  0
VERTEX
  8
Poly
 10
-3889.662000
 20
44455.142000
 30
0.0
  0
VERTEX
  8
Poly
 10
-3889.662000
 20
44685.912000
 30
0.0
  0
VERTEX
  8
Poly
 10
-3312.738000
 20
44685.912000
 30
0.0
  0
VERTEX
  8
Poly
 10
-3081.969000
 20
44455.142000
 30
0.0
  0
VERTEX
  8
Poly
 10
-3081.969000
 20
42839.758000
 30
0.0
  0
VERTEX
  8
Poly
 10
-3312.738000
 20
42608.988000
 30
0.0
  0
VERTEX
  8
Poly
 10
-4005.046000
 20
42608.988000
 30
0.0
  0
VERTEX
  8
Poly
 10
-4235.815000
 20
42839.758000
 30
0.0
  0
SEQEND
  8
Poly
  0
POLYLINE
  8
Poly
 66
       1
 70
       1
 10
0.0
 20
0.0
 30
0.0
  0
VERTEX
  8
Poly
 10
-2505.046000
 20
42724.373000
 30
0.0
  0
VERTEX
  8
Poly
 10
-1581.969000
 20
44455.142000
 30
0.0
  0
VERTEX
  8
Poly
 10
-1812.738000
 20
44570.527000
 30
0.0
  0
VERTEX
  8
Poly
 10
-2735.815000
 20
42839.758000
 30
0.0
  0
SEQEND
  8
Poly
  0
POLYLINE
  8
Poly
 66
       1
 70
       1
 10
0.0
 20
0.0
 30
0.0
  0
VERTEX
  8
Poly
 10
-2735.815000
 20
44455.142000
 30
0.0
  0
VERTEX
  8
Poly
 10
-2505.046000
 20
44685.912000
 30
0.0
  0
VERTEX
  8
Poly
 10
-2389.662000
 20
44685.912000
 30
0.0
  0
VERTEX
  8
Poly
 10
-2389.662000
 20
44455.142000
 30
0.0
  0
VERTEX
  8
Poly
 10
-2505.046000
 20
44339.758000
 30
0.0
  0
VERTEX
  8
Poly
 10
-2505.046000
 20
42955.142000
 30
0.0
  0
VERTEX
  8
Poly
 10
-2389.662000
 20
42839.758000
 30
0.0
  0
VERTEX
  8
Poly
 10
-1928.123000
 20
42839.758000
 30
0.0
  0
VERTEX
  8
Poly
 10
-1812.738000
 20
42955.142000
 30
0.0
  0
VERTEX
  8
Poly
 10
-1812.738000
 20
44339.758000
 30
0.0
  0
VERTEX
  8
Poly
 10
-1928.123000
 20
44455.142000
 30
0.0
  0
VERTEX
  8
Poly
 10
-2389.662000
 20
44455.142000
 30
0.0
  0
VERTEX
  8
Poly
 10
-2389.662000
 20
44685.912000
 30
0.0
  0
VERTEX
  8
Poly
 10
-1812.738000
 20
44685.912000
 30
0.0
  0
VERTEX
  8
Poly
 10
-1581.969000
 20
44455.142000
 30
0.0
  0
VERTEX
  8
Poly
 10
-1581.969000
 20
42839.758000
 30
0.0
  0
VERTEX
  8
Poly
 10
-1812.738000
 20
42608.988000
 30
0.0
  0
VERTEX
  8
Poly
 10
-2505.046000
 20
42608.988000
 30
0.0
  0
VERTEX
  8
Poly
 10
-2735.815000
 20
42839.758000
 30
0.0
  0
SEQEND
  8
Poly
  0
POLYLINE
  8
Poly
 66
       1
 70
       1
 10
0.0
 20
0.0
 30
0.0
  0
VERTEX
  8
Poly
 10
-1235.815000
 20
44455.142000
 30
0.0
  0
VERTEX
  8
Poly
 10
-1005.046000
 20
44685.912000
 30
0.0
  0
VERTEX
  8
Poly
 10
-889.662000
 20
44685.912000
 30
0.0
  0
VERTEX
  8
Poly
 10
-889.662000
 20
44455.142000
 30
0.0
  0
VERTEX
  8
Poly
 10
-1005.046000
 20
44339.758000
 30
0.0
  0
VERTEX
  8
Poly
 10
-1005.046000
 20
43878.219000
 30
0.0
  0
VERTEX
  8
Poly
 10
-889.662000
 20
43762.835000
 30
0.0
  0
VERTEX
  8
Poly
 10
-889.662000
 20
43532.065000
 30
0.0
  0
VERTEX
  8
Poly
 10
-1005.046000
 20
43416.681000
 30
0.0
  0
VERTEX
  8
Poly
 10
-1005.046000
 20
42955.142000
 30
0.0
  0
VERTEX
  8
Poly
 10
-889.662000
 20
42839.758000
 30
0.0
  0
VERTEX
  8
Poly
 10
-428.123000
 20
42839.758000
 30
0.0
  0
VERTEX
  8
Poly
 10
-312.738000
 20
42955.142000
 30
0.0
  0
VERTEX
  8
Poly
 10
-312.738000
 20
43416.681000
 30
0.0
  0
VERTEX
  8
Poly
 10
-428.123000
 20
43532.065000
 30
0.0
  0
VERTEX
  8
Poly
 10
-889.662000
 20
43532.065000
 30
0.0
  0
VERTEX
  8
Poly
 10
-889.662000
 20
43762.835000
 30
0.0
  0
VERTEX
  8
Poly
 10
-428.123000
 20
43762.835000
 30
0.0
  0
VERTEX
  8
Poly
 10
-312.738000
 20
43878.219000
 30
0.0
  0
VERTEX
  8
Poly
 10
-312.738000
 20
44339.758000
 30
0.0
  0
VERTEX
  8
Poly
 10
-428.123000
 20
44455.142000
 30
0.0
  0
VERTEX
  8
Poly
 10
-889.662000
 20
44455.142000
 30
0.0
  0
VERTEX
  8
Poly
 10
-889.662000
 20
44685.912000
 30
0.0
  0
VERTEX
  8
Poly
 10
-312.738000
 20
44685.912000
 30
0.0
  0
VERTEX
  8
Poly
 10
-81.969000
 20
44455.142000
 30
0.0
  0
VERTEX
  8
Poly
 10
-81.969000
 20
43762.835000
 30
0.0
  0
VERTEX
  8
Poly
 10
-197.354000
 20
43647.450000
 30
0.0
  0
VERTEX
  8
Poly
 10
-81.969000
 20
43532.065000
 30
0.0
  0
VERTEX
  8
Poly
 10
-81.969000
 20
42839.758000
 30
0.0
  0
VERTEX
  8
Poly
 10
-312.738000
 20
42608.988000
 30
0.0
  0
VERTEX
  8
Poly
 10
-1005.046000
 20
42608.988000
 30
0.0
  0
VERTEX
  8
Poly
 10
-1235.815000
 20
42839.758000
 30
0.0
  0
VERTEX
  8
Poly
 10
-1235.815000
 20
43532.065000
 30
0.0
  0
VERTEX
  8
Poly
 10
-1120.431000
 20
43647.450000
 30
0.0
  0
VERTEX
  8
Poly
 10
-1235.815000
 20
43762.835000
 30
0.0
  0
SEQEND
  8
Poly
  0
POLYLINE
  8
Poly
 66
       1
 70
       1
 10
0.0
 20
0.0
 30
0.0
  0
VERTEX
  8
Poly
 10
1764.185000
 20
44685.912000
 30
0.0
  0
VERTEX
  8
Poly
 10
2110.338000
 20
44685.912000
 30
0.0
  0
VERTEX
  8
Poly
 10
2110.338000
 20
44455.142000
 30
0.0
  0
VERTEX
  8
Poly
 10
1994.954000
 20
44339.758000
 30
0.0
  0
VERTEX
  8
Poly
 10
1994.954000
 20
43762.835000
 30
0.0
  0
VERTEX
  8
Poly
 10
2571.877000
 20
43762.835000
 30
0.0
  0
VERTEX
  8
Poly
 10
2687.262000
 20
43878.219000
 30
0.0
  0
VERTEX
  8
Poly
 10
2687.262000
 20
44339.758000
 30
0.0
  0
VERTEX
  8
Poly
 10
2571.877000
 20
44455.142000
 30
0.0
  0
VERTEX
  8
Poly
 10
2110.338000
 20
44455.142000
 30
0.0
  0
VERTEX
  8
Poly
 10
2110.338000
 20
44685.912000
 30
0.0
  0
VERTEX
  8
Poly
 10
2687.262000
 20
44685.912000
 30
0.0
  0
VERTEX
  8
Poly
 10
2918.031000
 20
44455.142000
 30
0.0
  0
VERTEX
  8
Poly
 10
2918.031000
 20
43762.835000
 30
0.0
  0
VERTEX
  8
Poly
 10
2687.262000
 20
43532.065000
 30
0.0
  0
VERTEX
  8
Poly
 10
1994.954000
 20
43532.065000
 30
0.0
  0
VERTEX
  8
Poly
 10
1994.954000
 20
42608.988000
 30
0.0
  0
VERTEX
  8
Poly
 10
1764.185000
 20
42608.988000
 30
0.0
  0
SEQEND
  8
Poly
  0
POLYLINE
  8
Poly
 66
       1
 70
       1
 10
0.0
 20
0.0
 30
0.0
  0
VERTEX
  8
Poly
 10
3264.185000
 20
44685.912000
 30
0.0
  0
VERTEX
  8
Poly
 10
3494.954000
 20
44685.912000
 30
0.0
  0
VERTEX
  8
Poly
 10
3494.954000
 20
43762.835000
 30
0.0
  0
VERTEX
  8
Poly
 10
4187.262000
 20
43762.835000
 30
0.0
  0
VERTEX
  8
Poly
 10
4187.262000
 20
44685.912000
 30
0.0
  0
VERTEX
  8
Poly
 10
4418.031000
 20
44685.912000
 30
0.0
  0
VERTEX
  8
Poly
 10
4418.031000
 20
42608.988000
 30
0.0
  0
VERTEX
  8
Poly
 10
4187.262000
 20
42608.988000
 30
0.0
  0
VERTEX
  8
Poly
 10
4187.262000
 20
43532.065000
 30
0.0
  0
VERTEX
  8
Poly
 10
3494.954000
 20
43532.065000
 30
0.0
  0
VERTEX
  8
Poly
 10
3494.954000
 20
42608.988000
 30
0.0
  0
VERTEX
  8
Poly
 10
3264.185000
 20
42608.988000
 30
0.0
  0
SEQEND
  8
Poly
  0
POLYLINE
  8
Poly
 66
       1
 70
       1
 10
0.0
 20
0.0
 30
0.0
  0
VERTEX
  8
Poly
 10
4764.185000
 20
44455.142000
 30
0.0
  0
VERTEX
  8
Poly
 10
4994.954000
 20
44685.912000
 30
0.0
  0
VERTEX
  8
Poly
 10
5110.338000
 20
44685.912000
 30
0.0
  0
VERTEX
  8
Poly
 10
5110.338000
 20
44455.142000
 30
0.0
  0
VERTEX
  8
Poly
 10
4994.954000
 20
44339.758000
 30
0.0
  0
VERTEX
  8
Poly
 10
4994.954000
 20
42955.142000
 30
0.0
  0
VERTEX
  8
Poly
 10
5110.338000
 20
42839.758000
 30
0.0
  0
VERTEX
  8
Poly
 10
5571.877000
 20
42839.758000
 30
0.0
  0
VERTEX
  8
Poly
 10
5687.262000
 20
42955.142000
 30
0.0
  0
VERTEX
  8
Poly
 10
5687.262000
 20
44339.758000
 30
0.0
  0
VERTEX
  8
Poly
 10
5571.877000
 20
44455.142000
 30
0.0
  0
VERTEX
  8
Poly
 10
5110.338000
 20
44455.142000
 30
0.0
  0
VERTEX
  8
Poly
 10
5110.338000
 20
44685.912000
 30
0.0
  0
VERTEX
  8
Poly
 10
5687.262000
 20
44685.912000
 30
0.0
  0
VERTEX
  8
Poly
 10
5918.031000
 20
44455.142000
 30
0.0
  0
VERTEX
  8
Poly
 10
5918.031000
 20
42839.758000
 30
0.0
  0
VERTEX
  8
Poly
 10
5687.262000
 20
42608.988000
 30
0.0
  0
VERTEX
  8
Poly
 10
4994.954000
 20
42608.988000
 30
0.0
  0
VERTEX
  8
Poly
 10
4764.185000
 20
42839.758000
 30
0.0
  0
SEQEND
  8
Poly
  0
POLYLINE
  8
Poly
 66
       1
 70
       1
 10
0.0
 20
0.0
 30
0.0
  0
VERTEX
  8
Poly
 10
6264.185000
 20
44685.912000
 30
0.0
  0
VERTEX
  8
Poly
 10
7418.031000
 20
44685.912000
 30
0.0
  0
VERTEX
  8
Poly
 10
7418.031000
 20
44455.142000
 30
0.0
  0
VERTEX
  8
Poly
 10
6956.492000
 20
44455.142000
 30
0.0
  0
VERTEX
  8
Poly
 10
6956.492000
 20
42608.988000
 30
0.0
  0
VERTEX
  8
Poly
 10
6725.723000
 20
42608.988000
 30
0.0
  0
VERTEX
  8
Poly
 10
6725.723000
 20
44455.142000
 30
0.0
  0
VERTEX
  8
Poly
 10
6264.185000
 20
44455.142000
 30
0.0
  0
SEQEND
  8
Poly
  0
POLYLINE
  8
Poly
 66
       1
 70
       1
 10
0.0
 20
0.0
 30
0.0
  0
VERTEX
  8
Poly
 10
7764.185000
 20
44455.142000
 30
0.0
  0
VERTEX
  8
Poly
 10
7994.954000
 20
44685.912000
 30
0.0
  0
VERTEX
  8
Poly
 10
8110.338000
 20
44685.912000
 30
0.0
  0
VERTEX
  8
Poly
 10
8110.338000
 20
44455.142000
 30
0.0
  0
VERTEX
  8
Poly
 10
7994.954000
 20
44339.758000
 30
0.0
  0
VERTEX
  8
Poly
 10
7994.954000
 20
42955.142000
 30
0.0
  0
VERTEX
  8
Poly
 10
8110.338000
 20
42839.758000
 30
0.0
  0
VERTEX
  8
Poly
 10
8571.877000
 20
42839.758000
 30
0.0
  0
VERTEX
  8
Poly
 10
8687.262000
 20
42955.142000
 30
0.0
  0
VERTEX
  8
Poly
 10
8687.262000
 20
44339.758000
 30
0.0
  0
VERTEX
  8
Poly
 10
8571.877000
 20
44455.142000
 30
0.0
  0
VERTEX
  8
Poly
 10
8110.338000
 20
44455.142000
 30
0.0
  0
VERTEX
  8
Poly
 10
8110.338000
 20
44685.912000
 30
0.0
  0
VERTEX
  8
Poly
 10
8687.262000
 20
44685.912000
 30
0.0
  0
VERTEX
  8
Poly
 10
8918.031000
 20
44455.142000
 30
0.0
  0
VERTEX
  8
Poly
 10
8918.031000
 20
42839.758000
 30
0.0
  0
VERTEX
  8
Poly
 10
8687.262000
 20
42608.988000
 30
0.0
  0
VERTEX
  8
Poly
 10
7994.954000
 20
42608.988000
 30
0.0
  0
VERTEX
  8
Poly
 10
7764.185000
 20
42839.758000
 30
0.0
  0
SEQEND
  8
Poly
  0
POLYLINE
  8
Poly
 66
       1
 70
       1
 10
0.0
 20
0.0
 30
0.0
  0
VERTEX
  8
Poly
 10
9264.185000
 20
44455.142000
 30
0.0
  0
VERTEX
  8
Poly
 10
9494.954000
 20
44685.912000
 30
0.0
  0
VERTEX
  8
Poly
 10
10187.262000
 20
44685.912000
 30
0.0
  0
VERTEX
  8
Poly
 10
10418.031000
 20
44455.142000
 30
0.0
  0
VERTEX
  8
Poly
 10
10418.031000
 20
44108.988000
 30
0.0
  0
VERTEX
  8
Poly
 10
10187.262000
 20
44108.988000
 30
0.0
  0
VERTEX
  8
Poly
 10
10187.262000
 20
44339.758000
 30
0.0
  0
VERTEX
  8
Poly
 10
10071.877000
 20
44455.142000
 30
0.0
  0
VERTEX
  8
Poly
 10
9610.338000
 20
44455.142000
 30
0.0
  0
VERTEX
  8
Poly
 10
9494.954000
 20
44339.758000
 30
0.0
  0
VERTEX
  8
Poly
 10
9494.954000
 20
42955.142000
 30
0.0
  0
VERTEX
  8
Poly
 10
9610.338000
 20
42839.758000
 30
0.0
  0
VERTEX
  8
Poly
 10
10071.877000
 20
42839.758000
 30
0.0
  0
VERTEX
  8
Poly
 10
10187.262000
 20
42955.142000
 30
0.0
  0
VERTEX
  8
Poly
 10
10187.262000
 20
43185.912000
 30
0.0
  0
VERTEX
  8
Poly
 10
10418.031000
 20
43185.912000
 30
0.0
  0
VERTEX
  8
Poly
 10
10418.031000
 20
42839.758000
 30
0.0
  0
VERTEX
  8
Poly
 10
10187.262000
 20
42608.988000
 30
0.0
  0
VERTEX
  8
Poly
 10
9494.954000
 20
42608.988000
 30
0.0
  0
VERTEX
  8
Poly
 10
9264.185000
 20
42839.758000
 30
0.0
  0
SEQEND
  8
Poly
  0
POLYLINE
  8
Poly
 66
       1
 70
       1
 10
0.0
 20
0.0
 30
0.0
  0
VERTEX
  8
Poly
 10
11802.646000
 20
44685.912000
 30
0.0
  0
VERTEX
  8
Poly
 10
11225.723000
 20
43762.835000
 30
0.0
  0
VERTEX
  8
Poly
 10
11225.723000
 20
43416.681000
 30
0.0
  0
VERTEX
  8
Poly
 10
11341.108000
 20
43416.681000
 30
0.0
  0
VERTEX
  8
Poly
 10
11918.031000
 20
44339.758000
 30
0.0
  0
VERTEX
  8
Poly
 10
11918.031000
 20
44685.912000
 30
0.0
  0
SEQEND
  8
Poly
  0
POLYLINE
  8
Poly
 66
       1
 70
       1
 10
0.0
 20
0.0
 30
0.0
  0
VERTEX
  8
Poly
 10
10879.569000
 20
44685.912000
 30
0.0
  0
VERTEX
  8
Poly
 10
11456.492000
 20
43762.835000
 30
0.0
  0
VERTEX
  8
Poly
 10
11456.492000
 20
43416.681000
 30
0.0
  0
VERTEX
  8
Poly
 10
11341.108000
 20
43416.681000
 30
0.0
  0
VERTEX
  8
Poly
 10
10764.185000
 20
44339.758000
 30
0.0
  0
VERTEX
  8
Poly
 10
10764.185000
 20
44685.912000
 30
0.0
  0
SEQEND
  8
Poly
  0
POLYLINE
  8
Poly
 66
       1
 70
       1
 10
0.0
 20
0.0
 30
0.0
  0
VERTEX
  8
Poly
 10
12264.185000
 20
44685.912000
 30
0.0
  0
VERTEX
  8
Poly
 10
13418.031000
 20
44685.912000
 30
0.0
  0
VERTEX
  8
Poly
 10
13418.031000
 20
44455.142000
 30
0.0
  0
VERTEX
  8
Poly
 10
12956.492000
 20
44455.142000
 30
0.0
  0
VERTEX
  8
Poly
 10
12956.492000
 20
42608.988000
 30
0.0
  0
VERTEX
  8
Poly
 10
12725.723000
 20
42608.988000
 30
0.0
  0
VERTEX
  8
Poly
 10
12725.723000
 20
44455.142000
 30
0.0
  0
VERTEX
  8
Poly
 10
12264.185000
 20
44455.142000
 30
0.0
  0
SEQEND
  8
Poly
  0
POLYLINE
  8
Poly
 66
       1
 70
       1
 10
0.0
 20
0.0
 30
0.0
  0
VERTEX
  8
Poly
 10
-13235.815000
 20
42608.988000
 30
0.0
  0
VERTEX
  8
Poly
 10
-13005.046000
 20
42608.988000
 30
0.0
  0
VERTEX
  8
Poly
 10
-13005.046000
 20
44685.912000
 30
0.0
  0
VERTEX
  8
Poly
 10
-13235.815000
 20
44685.912000
 30
0.0
  0
SEQEND
  8
Poly
  0
POLYLINE
  8
Poly
 66
       1
 70
       1
 10
0.0
 20
0.0
 30
0.0
  0
VERTEX
  8
Poly
 10
-10235.815000
 20
43532.065000
 30
0.0
  0
VERTEX
  8
Poly
 10
-9081.969000
 20
43532.065000
 30
0.0
  0
VERTEX
  8
Poly
 10
-9081.969000
 20
43762.835000
 30
0.0
  0
VERTEX
  8
Poly
 10
-10235.815000
 20
43762.835000
 30
0.0
  0
SEQEND
  8
Poly
  0
POLYLINE
  8
Poly
 66
       1
 70
       1
 10
0.0
 20
0.0
 30
0.0
  0
VERTEX
  8
Poly
 10
-7235.815000
 20
43532.065000
 30
0.0
  0
VERTEX
  8
Poly
 10
-6081.969000
 20
43532.065000
 30
0.0
  0
VERTEX
  8
Poly
 10
-6081.969000
 20
43762.835000
 30
0.0
  0
VERTEX
  8
Poly
 10
-7235.815000
 20
43762.835000
 30
0.0
  0
SEQEND
  8
Poly
  0
POLYLINE
  8
Poly
 66
       1
 70
       1
 10
0.0
 20
0.0
 30
0.0
  0
VERTEX
  8
Poly
 10
264.185000
 20
43532.065000
 30
0.0
  0
VERTEX
  8
Poly
 10
1418.031000
 20
43532.065000
 30
0.0
  0
VERTEX
  8
Poly
 10
1418.031000
 20
43762.835000
 30
0.0
  0
VERTEX
  8
Poly
 10
264.185000
 20
43762.835000
 30
0.0
  0
SEQEND
  8
Poly
  0
POLYLINE
  8
Poly
 66
       1
 70
       1
 10
0.0
 20
0.0
 30
0.0
  0
VERTEX
  8
Poly
 10
11225.723000
 20
42608.988000
 30
0.0
  0
VERTEX
  8
Poly
 10
11456.492000
 20
42608.988000
 30
0.0
  0
VERTEX
  8
Poly
 10
11456.492000
 20
43993.604000
 30
0.0
  0
VERTEX
  8
Poly
 10
11225.723000
 20
43993.604000
 30
0.0
  0
SEQEND
  8
Poly
  0
POLYLINE
  8
Metal1
 66
       1
 70
       1
 10
0.0
 20
0.0
 30
0.0
  0
VERTEX
  8
Metal1
 10
-14312.365000
 20
-44464.558000
 30
0.0
  0
VERTEX
  8
Metal1
 10
-14081.596000
 20
-44233.788000
 30
0.0
  0
VERTEX
  8
Metal1
 10
-13389.288000
 20
-44233.788000
 30
0.0
  0
VERTEX
  8
Metal1
 10
-13158.519000
 20
-44464.558000
 30
0.0
  0
VERTEX
  8
Metal1
 10
-13158.519000
 20
-44810.712000
 30
0.0
  0
VERTEX
  8
Metal1
 10
-13389.288000
 20
-44810.712000
 30
0.0
  0
VERTEX
  8
Metal1
 10
-13389.288000
 20
-44579.942000
 30
0.0
  0
VERTEX
  8
Metal1
 10
-13504.673000
 20
-44464.558000
 30
0.0
  0
VERTEX
  8
Metal1
 10
-13966.212000
 20
-44464.558000
 30
0.0
  0
VERTEX
  8
Metal1
 10
-14081.596000
 20
-44579.942000
 30
0.0
  0
VERTEX
  8
Metal1
 10
-14081.596000
 20
-45964.558000
 30
0.0
  0
VERTEX
  8
Metal1
 10
-13966.212000
 20
-46079.942000
 30
0.0
  0
VERTEX
  8
Metal1
 10
-13504.673000
 20
-46079.942000
 30
0.0
  0
VERTEX
  8
Metal1
 10
-13389.288000
 20
-45964.558000
 30
0.0
  0
VERTEX
  8
Metal1
 10
-13389.288000
 20
-45733.788000
 30
0.0
  0
VERTEX
  8
Metal1
 10
-13158.519000
 20
-45733.788000
 30
0.0
  0
VERTEX
  8
Metal1
 10
-13158.519000
 20
-46079.942000
 30
0.0
  0
VERTEX
  8
Metal1
 10
-13389.288000
 20
-46310.712000
 30
0.0
  0
VERTEX
  8
Metal1
 10
-14081.596000
 20
-46310.712000
 30
0.0
  0
VERTEX
  8
Metal1
 10
-14312.365000
 20
-46079.942000
 30
0.0
  0
SEQEND
  8
Metal1
  0
POLYLINE
  8
Metal1
 66
       1
 70
       1
 10
0.0
 20
0.0
 30
0.0
  0
VERTEX
  8
Metal1
 10
-12581.596000
 20
-45387.635000
 30
0.0
  0
VERTEX
  8
Metal1
 10
-11889.288000
 20
-46310.712000
 30
0.0
  0
VERTEX
  8
Metal1
 10
-11658.519000
 20
-46310.712000
 30
0.0
  0
VERTEX
  8
Metal1
 10
-12350.827000
 20
-45272.250000
 30
0.0
  0
SEQEND
  8
Metal1
  0
POLYLINE
  8
Metal1
 66
       1
 70
       1
 10
0.0
 20
0.0
 30
0.0
  0
VERTEX
  8
Metal1
 10
-12812.365000
 20
-46310.712000
 30
0.0
  0
VERTEX
  8
Metal1
 10
-12581.596000
 20
-46310.712000
 30
0.0
  0
VERTEX
  8
Metal1
 10
-12581.596000
 20
-45733.788000
 30
0.0
  0
VERTEX
  8
Metal1
 10
-11658.519000
 20
-44233.788000
 30
0.0
  0
VERTEX
  8
Metal1
 10
-12004.673000
 20
-44233.788000
 30
0.0
  0
VERTEX
  8
Metal1
 10
-12581.596000
 20
-45272.250000
 30
0.0
  0
VERTEX
  8
Metal1
 10
-12581.596000
 20
-44233.788000
 30
0.0
  0
VERTEX
  8
Metal1
 10
-12812.365000
 20
-44233.788000
 30
0.0
  0
SEQEND
  8
Metal1
  0
POLYLINE
  8
Metal1
 66
       1
 70
       1
 10
0.0
 20
0.0
 30
0.0
  0
VERTEX
  8
Metal1
 10
-11312.365000
 20
-44233.788000
 30
0.0
  0
VERTEX
  8
Metal1
 10
-11081.596000
 20
-44233.788000
 30
0.0
  0
VERTEX
  8
Metal1
 10
-11081.596000
 20
-45156.865000
 30
0.0
  0
VERTEX
  8
Metal1
 10
-10389.288000
 20
-45156.865000
 30
0.0
  0
VERTEX
  8
Metal1
 10
-10389.288000
 20
-44233.788000
 30
0.0
  0
VERTEX
  8
Metal1
 10
-10158.519000
 20
-44233.788000
 30
0.0
  0
VERTEX
  8
Metal1
 10
-10158.519000
 20
-46310.712000
 30
0.0
  0
VERTEX
  8
Metal1
 10
-10389.288000
 20
-46310.712000
 30
0.0
  0
VERTEX
  8
Metal1
 10
-10389.288000
 20
-45387.635000
 30
0.0
  0
VERTEX
  8
Metal1
 10
-11081.596000
 20
-45387.635000
 30
0.0
  0
VERTEX
  8
Metal1
 10
-11081.596000
 20
-46310.712000
 30
0.0
  0
VERTEX
  8
Metal1
 10
-11312.365000
 20
-46310.712000
 30
0.0
  0
SEQEND
  8
Metal1
  0
POLYLINE
  8
Metal1
 66
       1
 70
       1
 10
0.0
 20
0.0
 30
0.0
  0
VERTEX
  8
Metal1
 10
-8312.365000
 20
-44464.558000
 30
0.0
  0
VERTEX
  8
Metal1
 10
-8081.596000
 20
-44233.788000
 30
0.0
  0
VERTEX
  8
Metal1
 10
-7966.212000
 20
-44233.788000
 30
0.0
  0
VERTEX
  8
Metal1
 10
-7966.212000
 20
-44464.558000
 30
0.0
  0
VERTEX
  8
Metal1
 10
-8081.596000
 20
-44579.942000
 30
0.0
  0
VERTEX
  8
Metal1
 10
-8081.596000
 20
-45041.481000
 30
0.0
  0
VERTEX
  8
Metal1
 10
-7966.212000
 20
-45156.865000
 30
0.0
  0
VERTEX
  8
Metal1
 10
-7966.212000
 20
-45387.635000
 30
0.0
  0
VERTEX
  8
Metal1
 10
-8081.596000
 20
-45503.019000
 30
0.0
  0
VERTEX
  8
Metal1
 10
-8081.596000
 20
-45964.558000
 30
0.0
  0
VERTEX
  8
Metal1
 10
-7966.212000
 20
-46079.942000
 30
0.0
  0
VERTEX
  8
Metal1
 10
-7504.673000
 20
-46079.942000
 30
0.0
  0
VERTEX
  8
Metal1
 10
-7389.288000
 20
-45964.558000
 30
0.0
  0
VERTEX
  8
Metal1
 10
-7389.288000
 20
-45503.019000
 30
0.0
  0
VERTEX
  8
Metal1
 10
-7504.673000
 20
-45387.635000
 30
0.0
  0
VERTEX
  8
Metal1
 10
-7966.212000
 20
-45387.635000
 30
0.0
  0
VERTEX
  8
Metal1
 10
-7966.212000
 20
-45156.865000
 30
0.0
  0
VERTEX
  8
Metal1
 10
-7504.673000
 20
-45156.865000
 30
0.0
  0
VERTEX
  8
Metal1
 10
-7389.288000
 20
-45041.481000
 30
0.0
  0
VERTEX
  8
Metal1
 10
-7389.288000
 20
-44579.942000
 30
0.0
  0
VERTEX
  8
Metal1
 10
-7504.673000
 20
-44464.558000
 30
0.0
  0
VERTEX
  8
Metal1
 10
-7966.212000
 20
-44464.558000
 30
0.0
  0
VERTEX
  8
Metal1
 10
-7966.212000
 20
-44233.788000
 30
0.0
  0
VERTEX
  8
Metal1
 10
-7389.288000
 20
-44233.788000
 30
0.0
  0
VERTEX
  8
Metal1
 10
-7158.519000
 20
-44464.558000
 30
0.0
  0
VERTEX
  8
Metal1
 10
-7158.519000
 20
-45156.865000
 30
0.0
  0
VERTEX
  8
Metal1
 10
-7273.904000
 20
-45272.250000
 30
0.0
  0
VERTEX
  8
Metal1
 10
-7158.519000
 20
-45387.635000
 30
0.0
  0
VERTEX
  8
Metal1
 10
-7158.519000
 20
-46079.942000
 30
0.0
  0
VERTEX
  8
Metal1
 10
-7389.288000
 20
-46310.712000
 30
0.0
  0
VERTEX
  8
Metal1
 10
-8081.596000
 20
-46310.712000
 30
0.0
  0
VERTEX
  8
Metal1
 10
-8312.365000
 20
-46079.942000
 30
0.0
  0
VERTEX
  8
Metal1
 10
-8312.365000
 20
-45387.635000
 30
0.0
  0
VERTEX
  8
Metal1
 10
-8196.981000
 20
-45272.250000
 30
0.0
  0
VERTEX
  8
Metal1
 10
-8312.365000
 20
-45156.865000
 30
0.0
  0
SEQEND
  8
Metal1
  0
POLYLINE
  8
Metal1
 66
       1
 70
       1
 10
0.0
 20
0.0
 30
0.0
  0
VERTEX
  8
Metal1
 10
-5196.981000
 20
-44695.327000
 30
0.0
  0
VERTEX
  8
Metal1
 10
-4966.212000
 20
-44464.558000
 30
0.0
  0
VERTEX
  8
Metal1
 10
-4504.673000
 20
-44464.558000
 30
0.0
  0
VERTEX
  8
Metal1
 10
-4389.288000
 20
-44579.942000
 30
0.0
  0
VERTEX
  8
Metal1
 10
-4389.288000
 20
-45041.481000
 30
0.0
  0
VERTEX
  8
Metal1
 10
-5312.365000
 20
-45964.558000
 30
0.0
  0
VERTEX
  8
Metal1
 10
-5312.365000
 20
-46310.712000
 30
0.0
  0
VERTEX
  8
Metal1
 10
-4158.519000
 20
-46310.712000
 30
0.0
  0
VERTEX
  8
Metal1
 10
-4158.519000
 20
-46079.942000
 30
0.0
  0
VERTEX
  8
Metal1
 10
-5081.596000
 20
-46079.942000
 30
0.0
  0
VERTEX
  8
Metal1
 10
-4158.519000
 20
-45156.865000
 30
0.0
  0
VERTEX
  8
Metal1
 10
-4158.519000
 20
-44464.558000
 30
0.0
  0
VERTEX
  8
Metal1
 10
-4389.288000
 20
-44233.788000
 30
0.0
  0
VERTEX
  8
Metal1
 10
-5081.596000
 20
-44233.788000
 30
0.0
  0
VERTEX
  8
Metal1
 10
-5312.365000
 20
-44464.558000
 30
0.0
  0
VERTEX
  8
Metal1
 10
-5312.365000
 20
-44695.327000
 30
0.0
  0
SEQEND
  8
Metal1
  0
POLYLINE
  8
Metal1
 66
       1
 70
       1
 10
0.0
 20
0.0
 30
0.0
  0
VERTEX
  8
Metal1
 10
-3581.596000
 20
-46195.327000
 30
0.0
  0
VERTEX
  8
Metal1
 10
-2658.519000
 20
-44464.558000
 30
0.0
  0
VERTEX
  8
Metal1
 10
-2889.288000
 20
-44349.173000
 30
0.0
  0
VERTEX
  8
Metal1
 10
-3812.365000
 20
-46079.942000
 30
0.0
  0
SEQEND
  8
Metal1
  0
POLYLINE
  8
Metal1
 66
       1
 70
       1
 10
0.0
 20
0.0
 30
0.0
  0
VERTEX
  8
Metal1
 10
-3812.365000
 20
-44464.558000
 30
0.0
  0
VERTEX
  8
Metal1
 10
-3581.596000
 20
-44233.788000
 30
0.0
  0
VERTEX
  8
Metal1
 10
-3466.212000
 20
-44233.788000
 30
0.0
  0
VERTEX
  8
Metal1
 10
-3466.212000
 20
-44464.558000
 30
0.0
  0
VERTEX
  8
Metal1
 10
-3581.596000
 20
-44579.942000
 30
0.0
  0
VERTEX
  8
Metal1
 10
-3581.596000
 20
-45964.558000
 30
0.0
  0
VERTEX
  8
Metal1
 10
-3466.212000
 20
-46079.942000
 30
0.0
  0
VERTEX
  8
Metal1
 10
-3004.673000
 20
-46079.942000
 30
0.0
  0
VERTEX
  8
Metal1
 10
-2889.288000
 20
-45964.558000
 30
0.0
  0
VERTEX
  8
Metal1
 10
-2889.288000
 20
-44579.942000
 30
0.0
  0
VERTEX
  8
Metal1
 10
-3004.673000
 20
-44464.558000
 30
0.0
  0
VERTEX
  8
Metal1
 10
-3466.212000
 20
-44464.558000
 30
0.0
  0
VERTEX
  8
Metal1
 10
-3466.212000
 20
-44233.788000
 30
0.0
  0
VERTEX
  8
Metal1
 10
-2889.288000
 20
-44233.788000
 30
0.0
  0
VERTEX
  8
Metal1
 10
-2658.519000
 20
-44464.558000
 30
0.0
  0
VERTEX
  8
Metal1
 10
-2658.519000
 20
-46079.942000
 30
0.0
  0
VERTEX
  8
Metal1
 10
-2889.288000
 20
-46310.712000
 30
0.0
  0
VERTEX
  8
Metal1
 10
-3581.596000
 20
-46310.712000
 30
0.0
  0
VERTEX
  8
Metal1
 10
-3812.365000
 20
-46079.942000
 30
0.0
  0
SEQEND
  8
Metal1
  0
POLYLINE
  8
Metal1
 66
       1
 70
       1
 10
0.0
 20
0.0
 30
0.0
  0
VERTEX
  8
Metal1
 10
-2081.596000
 20
-46195.327000
 30
0.0
  0
VERTEX
  8
Metal1
 10
-1158.519000
 20
-44464.558000
 30
0.0
  0
VERTEX
  8
Metal1
 10
-1389.288000
 20
-44349.173000
 30
0.0
  0
VERTEX
  8
Metal1
 10
-2312.365000
 20
-46079.942000
 30
0.0
  0
SEQEND
  8
Metal1
  0
POLYLINE
  8
Metal1
 66
       1
 70
       1
 10
0.0
 20
0.0
 30
0.0
  0
VERTEX
  8
Metal1
 10
-2312.365000
 20
-44464.558000
 30
0.0
  0
VERTEX
  8
Metal1
 10
-2081.596000
 20
-44233.788000
 30
0.0
  0
VERTEX
  8
Metal1
 10
-1966.212000
 20
-44233.788000
 30
0.0
  0
VERTEX
  8
Metal1
 10
-1966.212000
 20
-44464.558000
 30
0.0
  0
VERTEX
  8
Metal1
 10
-2081.596000
 20
-44579.942000
 30
0.0
  0
VERTEX
  8
Metal1
 10
-2081.596000
 20
-45964.558000
 30
0.0
  0
VERTEX
  8
Metal1
 10
-1966.212000
 20
-46079.942000
 30
0.0
  0
VERTEX
  8
Metal1
 10
-1504.673000
 20
-46079.942000
 30
0.0
  0
VERTEX
  8
Metal1
 10
-1389.288000
 20
-45964.558000
 30
0.0
  0
VERTEX
  8
Metal1
 10
-1389.288000
 20
-44579.942000
 30
0.0
  0
VERTEX
  8
Metal1
 10
-1504.673000
 20
-44464.558000
 30
0.0
  0
VERTEX
  8
Metal1
 10
-1966.212000
 20
-44464.558000
 30
0.0
  0
VERTEX
  8
Metal1
 10
-1966.212000
 20
-44233.788000
 30
0.0
  0
VERTEX
  8
Metal1
 10
-1389.288000
 20
-44233.788000
 30
0.0
  0
VERTEX
  8
Metal1
 10
-1158.519000
 20
-44464.558000
 30
0.0
  0
VERTEX
  8
Metal1
 10
-1158.519000
 20
-46079.942000
 30
0.0
  0
VERTEX
  8
Metal1
 10
-1389.288000
 20
-46310.712000
 30
0.0
  0
VERTEX
  8
Metal1
 10
-2081.596000
 20
-46310.712000
 30
0.0
  0
VERTEX
  8
Metal1
 10
-2312.365000
 20
-46079.942000
 30
0.0
  0
SEQEND
  8
Metal1
  0
POLYLINE
  8
Metal1
 66
       1
 70
       1
 10
0.0
 20
0.0
 30
0.0
  0
VERTEX
  8
Metal1
 10
-812.365000
 20
-44464.558000
 30
0.0
  0
VERTEX
  8
Metal1
 10
-581.596000
 20
-44233.788000
 30
0.0
  0
VERTEX
  8
Metal1
 10
-466.212000
 20
-44233.788000
 30
0.0
  0
VERTEX
  8
Metal1
 10
-466.212000
 20
-44464.558000
 30
0.0
  0
VERTEX
  8
Metal1
 10
-581.596000
 20
-44579.942000
 30
0.0
  0
VERTEX
  8
Metal1
 10
-581.596000
 20
-45041.481000
 30
0.0
  0
VERTEX
  8
Metal1
 10
-466.212000
 20
-45156.865000
 30
0.0
  0
VERTEX
  8
Metal1
 10
-466.212000
 20
-45387.635000
 30
0.0
  0
VERTEX
  8
Metal1
 10
-581.596000
 20
-45503.019000
 30
0.0
  0
VERTEX
  8
Metal1
 10
-581.596000
 20
-45964.558000
 30
0.0
  0
VERTEX
  8
Metal1
 10
-466.212000
 20
-46079.942000
 30
0.0
  0
VERTEX
  8
Metal1
 10
-4.673000
 20
-46079.942000
 30
0.0
  0
VERTEX
  8
Metal1
 10
110.712000
 20
-45964.558000
 30
0.0
  0
VERTEX
  8
Metal1
 10
110.712000
 20
-45503.019000
 30
0.0
  0
VERTEX
  8
Metal1
 10
-4.673000
 20
-45387.635000
 30
0.0
  0
VERTEX
  8
Metal1
 10
-466.212000
 20
-45387.635000
 30
0.0
  0
VERTEX
  8
Metal1
 10
-466.212000
 20
-45156.865000
 30
0.0
  0
VERTEX
  8
Metal1
 10
-4.673000
 20
-45156.865000
 30
0.0
  0
VERTEX
  8
Metal1
 10
110.712000
 20
-45041.481000
 30
0.0
  0
VERTEX
  8
Metal1
 10
110.712000
 20
-44579.942000
 30
0.0
  0
VERTEX
  8
Metal1
 10
-4.673000
 20
-44464.558000
 30
0.0
  0
VERTEX
  8
Metal1
 10
-466.212000
 20
-44464.558000
 30
0.0
  0
VERTEX
  8
Metal1
 10
-466.212000
 20
-44233.788000
 30
0.0
  0
VERTEX
  8
Metal1
 10
110.712000
 20
-44233.788000
 30
0.0
  0
VERTEX
  8
Metal1
 10
341.481000
 20
-44464.558000
 30
0.0
  0
VERTEX
  8
Metal1
 10
341.481000
 20
-45156.865000
 30
0.0
  0
VERTEX
  8
Metal1
 10
226.096000
 20
-45272.250000
 30
0.0
  0
VERTEX
  8
Metal1
 10
341.481000
 20
-45387.635000
 30
0.0
  0
VERTEX
  8
Metal1
 10
341.481000
 20
-46079.942000
 30
0.0
  0
VERTEX
  8
Metal1
 10
110.712000
 20
-46310.712000
 30
0.0
  0
VERTEX
  8
Metal1
 10
-581.596000
 20
-46310.712000
 30
0.0
  0
VERTEX
  8
Metal1
 10
-812.365000
 20
-46079.942000
 30
0.0
  0
VERTEX
  8
Metal1
 10
-812.365000
 20
-45387.635000
 30
0.0
  0
VERTEX
  8
Metal1
 10
-696.981000
 20
-45272.250000
 30
0.0
  0
VERTEX
  8
Metal1
 10
-812.365000
 20
-45156.865000
 30
0.0
  0
SEQEND
  8
Metal1
  0
POLYLINE
  8
Metal1
 66
       1
 70
       1
 10
0.0
 20
0.0
 30
0.0
  0
VERTEX
  8
Metal1
 10
2187.635000
 20
-44233.788000
 30
0.0
  0
VERTEX
  8
Metal1
 10
2533.788000
 20
-44233.788000
 30
0.0
  0
VERTEX
  8
Metal1
 10
2533.788000
 20
-44464.558000
 30
0.0
  0
VERTEX
  8
Metal1
 10
2418.404000
 20
-44579.942000
 30
0.0
  0
VERTEX
  8
Metal1
 10
2418.404000
 20
-45156.865000
 30
0.0
  0
VERTEX
  8
Metal1
 10
2995.327000
 20
-45156.865000
 30
0.0
  0
VERTEX
  8
Metal1
 10
3110.712000
 20
-45041.481000
 30
0.0
  0
VERTEX
  8
Metal1
 10
3110.712000
 20
-44579.942000
 30
0.0
  0
VERTEX
  8
Metal1
 10
2995.327000
 20
-44464.558000
 30
0.0
  0
VERTEX
  8
Metal1
 10
2533.788000
 20
-44464.558000
 30
0.0
  0
VERTEX
  8
Metal1
 10
2533.788000
 20
-44233.788000
 30
0.0
  0
VERTEX
  8
Metal1
 10
3110.712000
 20
-44233.788000
 30
0.0
  0
VERTEX
  8
Metal1
 10
3341.481000
 20
-44464.558000
 30
0.0
  0
VERTEX
  8
Metal1
 10
3341.481000
 20
-45156.865000
 30
0.0
  0
VERTEX
  8
Metal1
 10
3110.712000
 20
-45387.635000
 30
0.0
  0
VERTEX
  8
Metal1
 10
2418.404000
 20
-45387.635000
 30
0.0
  0
VERTEX
  8
Metal1
 10
2418.404000
 20
-46310.712000
 30
0.0
  0
VERTEX
  8
Metal1
 10
2187.635000
 20
-46310.712000
 30
0.0
  0
SEQEND
  8
Metal1
  0
POLYLINE
  8
Metal1
 66
       1
 70
       1
 10
0.0
 20
0.0
 30
0.0
  0
VERTEX
  8
Metal1
 10
3687.635000
 20
-44233.788000
 30
0.0
  0
VERTEX
  8
Metal1
 10
3918.404000
 20
-44233.788000
 30
0.0
  0
VERTEX
  8
Metal1
 10
3918.404000
 20
-45156.865000
 30
0.0
  0
VERTEX
  8
Metal1
 10
4610.712000
 20
-45156.865000
 30
0.0
  0
VERTEX
  8
Metal1
 10
4610.712000
 20
-44233.788000
 30
0.0
  0
VERTEX
  8
Metal1
 10
4841.481000
 20
-44233.788000
 30
0.0
  0
VERTEX
  8
Metal1
 10
4841.481000
 20
-46310.712000
 30
0.0
  0
VERTEX
  8
Metal1
 10
4610.712000
 20
-46310.712000
 30
0.0
  0
VERTEX
  8
Metal1
 10
4610.712000
 20
-45387.635000
 30
0.0
  0
VERTEX
  8
Metal1
 10
3918.404000
 20
-45387.635000
 30
0.0
  0
VERTEX
  8
Metal1
 10
3918.404000
 20
-46310.712000
 30
0.0
  0
VERTEX
  8
Metal1
 10
3687.635000
 20
-46310.712000
 30
0.0
  0
SEQEND
  8
Metal1
  0
POLYLINE
  8
Metal1
 66
       1
 70
       1
 10
0.0
 20
0.0
 30
0.0
  0
VERTEX
  8
Metal1
 10
5187.635000
 20
-44464.558000
 30
0.0
  0
VERTEX
  8
Metal1
 10
5418.404000
 20
-44233.788000
 30
0.0
  0
VERTEX
  8
Metal1
 10
5533.788000
 20
-44233.788000
 30
0.0
  0
VERTEX
  8
Metal1
 10
5533.788000
 20
-44464.558000
 30
0.0
  0
VERTEX
  8
Metal1
 10
5418.404000
 20
-44579.942000
 30
0.0
  0
VERTEX
  8
Metal1
 10
5418.404000
 20
-45964.558000
 30
0.0
  0
VERTEX
  8
Metal1
 10
5533.788000
 20
-46079.942000
 30
0.0
  0
VERTEX
  8
Metal1
 10
5995.327000
 20
-46079.942000
 30
0.0
  0
VERTEX
  8
Metal1
 10
6110.712000
 20
-45964.558000
 30
0.0
  0
VERTEX
  8
Metal1
 10
6110.712000
 20
-44579.942000
 30
0.0
  0
VERTEX
  8
Metal1
 10
5995.327000
 20
-44464.558000
 30
0.0
  0
VERTEX
  8
Metal1
 10
5533.788000
 20
-44464.558000
 30
0.0
  0
VERTEX
  8
Metal1
 10
5533.788000
 20
-44233.788000
 30
0.0
  0
VERTEX
  8
Metal1
 10
6110.712000
 20
-44233.788000
 30
0.0
  0
VERTEX
  8
Metal1
 10
6341.481000
 20
-44464.558000
 30
0.0
  0
VERTEX
  8
Metal1
 10
6341.481000
 20
-46079.942000
 30
0.0
  0
VERTEX
  8
Metal1
 10
6110.712000
 20
-46310.712000
 30
0.0
  0
VERTEX
  8
Metal1
 10
5418.404000
 20
-46310.712000
 30
0.0
  0
VERTEX
  8
Metal1
 10
5187.635000
 20
-46079.942000
 30
0.0
  0
SEQEND
  8
Metal1
  0
POLYLINE
  8
Metal1
 66
       1
 70
       1
 10
0.0
 20
0.0
 30
0.0
  0
VERTEX
  8
Metal1
 10
6687.635000
 20
-44233.788000
 30
0.0
  0
VERTEX
  8
Metal1
 10
7841.481000
 20
-44233.788000
 30
0.0
  0
VERTEX
  8
Metal1
 10
7841.481000
 20
-44464.558000
 30
0.0
  0
VERTEX
  8
Metal1
 10
7379.942000
 20
-44464.558000
 30
0.0
  0
VERTEX
  8
Metal1
 10
7379.942000
 20
-46310.712000
 30
0.0
  0
VERTEX
  8
Metal1
 10
7149.173000
 20
-46310.712000
 30
0.0
  0
VERTEX
  8
Metal1
 10
7149.173000
 20
-44464.558000
 30
0.0
  0
VERTEX
  8
Metal1
 10
6687.635000
 20
-44464.558000
 30
0.0
  0
SEQEND
  8
Metal1
  0
POLYLINE
  8
Metal1
 66
       1
 70
       1
 10
0.0
 20
0.0
 30
0.0
  0
VERTEX
  8
Metal1
 10
8187.635000
 20
-44464.558000
 30
0.0
  0
VERTEX
  8
Metal1
 10
8418.404000
 20
-44233.788000
 30
0.0
  0
VERTEX
  8
Metal1
 10
8533.788000
 20
-44233.788000
 30
0.0
  0
VERTEX
  8
Metal1
 10
8533.788000
 20
-44464.558000
 30
0.0
  0
VERTEX
  8
Metal1
 10
8418.404000
 20
-44579.942000
 30
0.0
  0
VERTEX
  8
Metal1
 10
8418.404000
 20
-45964.558000
 30
0.0
  0
VERTEX
  8
Metal1
 10
8533.788000
 20
-46079.942000
 30
0.0
  0
VERTEX
  8
Metal1
 10
8995.327000
 20
-46079.942000
 30
0.0
  0
VERTEX
  8
Metal1
 10
9110.712000
 20
-45964.558000
 30
0.0
  0
VERTEX
  8
Metal1
 10
9110.712000
 20
-44579.942000
 30
0.0
  0
VERTEX
  8
Metal1
 10
8995.327000
 20
-44464.558000
 30
0.0
  0
VERTEX
  8
Metal1
 10
8533.788000
 20
-44464.558000
 30
0.0
  0
VERTEX
  8
Metal1
 10
8533.788000
 20
-44233.788000
 30
0.0
  0
VERTEX
  8
Metal1
 10
9110.712000
 20
-44233.788000
 30
0.0
  0
VERTEX
  8
Metal1
 10
9341.481000
 20
-44464.558000
 30
0.0
  0
VERTEX
  8
Metal1
 10
9341.481000
 20
-46079.942000
 30
0.0
  0
VERTEX
  8
Metal1
 10
9110.712000
 20
-46310.712000
 30
0.0
  0
VERTEX
  8
Metal1
 10
8418.404000
 20
-46310.712000
 30
0.0
  0
VERTEX
  8
Metal1
 10
8187.635000
 20
-46079.942000
 30
0.0
  0
SEQEND
  8
Metal1
  0
POLYLINE
  8
Metal1
 66
       1
 70
       1
 10
0.0
 20
0.0
 30
0.0
  0
VERTEX
  8
Metal1
 10
9687.635000
 20
-44464.558000
 30
0.0
  0
VERTEX
  8
Metal1
 10
9918.404000
 20
-44233.788000
 30
0.0
  0
VERTEX
  8
Metal1
 10
10610.712000
 20
-44233.788000
 30
0.0
  0
VERTEX
  8
Metal1
 10
10841.481000
 20
-44464.558000
 30
0.0
  0
VERTEX
  8
Metal1
 10
10841.481000
 20
-44810.712000
 30
0.0
  0
VERTEX
  8
Metal1
 10
10610.712000
 20
-44810.712000
 30
0.0
  0
VERTEX
  8
Metal1
 10
10610.712000
 20
-44579.942000
 30
0.0
  0
VERTEX
  8
Metal1
 10
10495.327000
 20
-44464.558000
 30
0.0
  0
VERTEX
  8
Metal1
 10
10033.788000
 20
-44464.558000
 30
0.0
  0
VERTEX
  8
Metal1
 10
9918.404000
 20
-44579.942000
 30
0.0
  0
VERTEX
  8
Metal1
 10
9918.404000
 20
-45964.558000
 30
0.0
  0
VERTEX
  8
Metal1
 10
10033.788000
 20
-46079.942000
 30
0.0
  0
VERTEX
  8
Metal1
 10
10495.327000
 20
-46079.942000
 30
0.0
  0
VERTEX
  8
Metal1
 10
10610.712000
 20
-45964.558000
 30
0.0
  0
VERTEX
  8
Metal1
 10
10610.712000
 20
-45733.788000
 30
0.0
  0
VERTEX
  8
Metal1
 10
10841.481000
 20
-45733.788000
 30
0.0
  0
VERTEX
  8
Metal1
 10
10841.481000
 20
-46079.942000
 30
0.0
  0
VERTEX
  8
Metal1
 10
10610.712000
 20
-46310.712000
 30
0.0
  0
VERTEX
  8
Metal1
 10
9918.404000
 20
-46310.712000
 30
0.0
  0
VERTEX
  8
Metal1
 10
9687.635000
 20
-46079.942000
 30
0.0
  0
SEQEND
  8
Metal1
  0
POLYLINE
  8
Metal1
 66
       1
 70
       1
 10
0.0
 20
0.0
 30
0.0
  0
VERTEX
  8
Metal1
 10
12226.096000
 20
-44233.788000
 30
0.0
  0
VERTEX
  8
Metal1
 10
11649.173000
 20
-45156.865000
 30
0.0
  0
VERTEX
  8
Metal1
 10
11649.173000
 20
-45503.019000
 30
0.0
  0
VERTEX
  8
Metal1
 10
11764.558000
 20
-45503.019000
 30
0.0
  0
VERTEX
  8
Metal1
 10
12341.481000
 20
-44579.942000
 30
0.0
  0
VERTEX
  8
Metal1
 10
12341.481000
 20
-44233.788000
 30
0.0
  0
SEQEND
  8
Metal1
  0
POLYLINE
  8
Metal1
 66
       1
 70
       1
 10
0.0
 20
0.0
 30
0.0
  0
VERTEX
  8
Metal1
 10
11303.019000
 20
-44233.788000
 30
0.0
  0
VERTEX
  8
Metal1
 10
11879.942000
 20
-45156.865000
 30
0.0
  0
VERTEX
  8
Metal1
 10
11879.942000
 20
-45503.019000
 30
0.0
  0
VERTEX
  8
Metal1
 10
11764.558000
 20
-45503.019000
 30
0.0
  0
VERTEX
  8
Metal1
 10
11187.635000
 20
-44579.942000
 30
0.0
  0
VERTEX
  8
Metal1
 10
11187.635000
 20
-44233.788000
 30
0.0
  0
SEQEND
  8
Metal1
  0
POLYLINE
  8
Metal1
 66
       1
 70
       1
 10
0.0
 20
0.0
 30
0.0
  0
VERTEX
  8
Metal1
 10
12687.635000
 20
-44233.788000
 30
0.0
  0
VERTEX
  8
Metal1
 10
13841.481000
 20
-44233.788000
 30
0.0
  0
VERTEX
  8
Metal1
 10
13841.481000
 20
-44464.558000
 30
0.0
  0
VERTEX
  8
Metal1
 10
13379.942000
 20
-44464.558000
 30
0.0
  0
VERTEX
  8
Metal1
 10
13379.942000
 20
-46310.712000
 30
0.0
  0
VERTEX
  8
Metal1
 10
13149.173000
 20
-46310.712000
 30
0.0
  0
VERTEX
  8
Metal1
 10
13149.173000
 20
-44464.558000
 30
0.0
  0
VERTEX
  8
Metal1
 10
12687.635000
 20
-44464.558000
 30
0.0
  0
SEQEND
  8
Metal1
  0
POLYLINE
  8
Metal1
 66
       1
 70
       1
 10
0.0
 20
0.0
 30
0.0
  0
VERTEX
  8
Metal1
 10
-12812.365000
 20
-46310.712000
 30
0.0
  0
VERTEX
  8
Metal1
 10
-12581.596000
 20
-46310.712000
 30
0.0
  0
VERTEX
  8
Metal1
 10
-12581.596000
 20
-44233.788000
 30
0.0
  0
VERTEX
  8
Metal1
 10
-12812.365000
 20
-44233.788000
 30
0.0
  0
SEQEND
  8
Metal1
  0
POLYLINE
  8
Metal1
 66
       1
 70
       1
 10
0.0
 20
0.0
 30
0.0
  0
VERTEX
  8
Metal1
 10
-9812.365000
 20
-45387.635000
 30
0.0
  0
VERTEX
  8
Metal1
 10
-8658.519000
 20
-45387.635000
 30
0.0
  0
VERTEX
  8
Metal1
 10
-8658.519000
 20
-45156.865000
 30
0.0
  0
VERTEX
  8
Metal1
 10
-9812.365000
 20
-45156.865000
 30
0.0
  0
SEQEND
  8
Metal1
  0
POLYLINE
  8
Metal1
 66
       1
 70
       1
 10
0.0
 20
0.0
 30
0.0
  0
VERTEX
  8
Metal1
 10
-6812.365000
 20
-45387.635000
 30
0.0
  0
VERTEX
  8
Metal1
 10
-5658.519000
 20
-45387.635000
 30
0.0
  0
VERTEX
  8
Metal1
 10
-5658.519000
 20
-45156.865000
 30
0.0
  0
VERTEX
  8
Metal1
 10
-6812.365000
 20
-45156.865000
 30
0.0
  0
SEQEND
  8
Metal1
  0
POLYLINE
  8
Metal1
 66
       1
 70
       1
 10
0.0
 20
0.0
 30
0.0
  0
VERTEX
  8
Metal1
 10
687.635000
 20
-45387.635000
 30
0.0
  0
VERTEX
  8
Metal1
 10
1841.481000
 20
-45387.635000
 30
0.0
  0
VERTEX
  8
Metal1
 10
1841.481000
 20
-45156.865000
 30
0.0
  0
VERTEX
  8
Metal1
 10
687.635000
 20
-45156.865000
 30
0.0
  0
SEQEND
  8
Metal1
  0
POLYLINE
  8
Metal1
 66
       1
 70
       1
 10
0.0
 20
0.0
 30
0.0
  0
VERTEX
  8
Metal1
 10
11649.173000
 20
-46310.712000
 30
0.0
  0
VERTEX
  8
Metal1
 10
11879.942000
 20
-46310.712000
 30
0.0
  0
VERTEX
  8
Metal1
 10
11879.942000
 20
-44926.096000
 30
0.0
  0
VERTEX
  8
Metal1
 10
11649.173000
 20
-44926.096000
 30
0.0
  0
SEQEND
  8
Metal1
  0
INSERT
  8
0
  2
almark
 10
-43000.000000
 20
0.0
 30
0.0
 70
       2
 44
86000.000000
  0
INSERT
  8
0
  2
2InputPhotoCytoCellNoElect
 10
-24000.000000
 20
-24000.000000
 30
0.0
  0
INSERT
  8
0
  2
2InputPhotoCytoCellNoElect
 10
-24000.000000
 20
-12000.000000
 30
0.0
  0
INSERT
  8
0
  2
2InputPhotoCytoCellNoElect
 10
-24000.000000
 20
0.0
 30
0.0
  0
INSERT
  8
0
  2
2InputPhotoCytoCellNoElect
 10
-24000.000000
 20
12000.000000
 30
0.0
  0
INSERT
  8
0
  2
2InputPhotoCytoCellNoElect
 10
-24000.000000
 20
24000.000000
 30
0.0
  0
INSERT
  8
0
  2
PhotothermalCytoCellNoElect
 10
3000.000000
 20
-36000.000000
 30
0.0
  0
INSERT
  8
0
  2
PhotothermalCytoCellNoElect
 10
3000.000000
 20
-24000.000000
 30
0.0
  0
INSERT
  8
0
  2
PhotothermalCytoCellNoElect
 10
30000.000000
 20
-24000.000000
 30
0.0
  0
INSERT
  8
0
  2
PhotothermalCytoCellNoElect
 10
3000.000000
 20
-12000.000000
 30
0.0
  0
INSERT
  8
0
  2
PhotothermalCytoCellNoElect
 10
30000.000000
 20
-12000.000000
 30
0.0
  0
INSERT
  8
0
  2
PhotothermalCytoCellNoElect
 10
3000.000000
 20
0.0
 30
0.0
  0
INSERT
  8
0
  2
PhotothermalCytoCellNoElect
 10
30000.000000
 20
0.0
 30
0.0
  0
INSERT
  8
0
  2
PhotothermalCytoCellNoElect
 10
3000.000000
 20
12000.000000
 30
0.0
  0
INSERT
  8
0
  2
PhotothermalCytoCellNoElect
 10
30000.000000
 20
12000.000000
 30
0.0
  0
INSERT
  8
0
  2
PhotothermalCytoCellNoElect
 10
3000.000000
 20
24000.000000
 30
0.0
  0
INSERT
  8
0
  2
PhotothermalCytoCellNoElect
 10
30000.000000
 20
24000.000000
 30
0.0
  0
INSERT
  8
0
  2
PhotothermalCytoCellNoElect
 10
3000.000000
 20
36000.000000
 30
0.0
  0
ENDSEC
  0
EOF
